<svg width="109" height="32" viewBox="0 0 109 32" fill="none" xmlns="http://www.w3.org/2000/svg">
<path id="Vector" d="M56.9996 30.1311C56.6349 31.2707 56.5893 31.4986 57.8201 31.4986C59.0053 31.4986 59.4611 31.453 60.0993 30.4046C60.1904 30.359 60.3272 30.4046 60.3272 30.4501C60.236 30.8148 59.8714 31.5442 59.689 31.8177C59.2788 31.8177 58.8685 31.8177 58.5038 31.8177C58.0936 31.8177 57.6833 31.8177 57.3186 31.8177H56.1335C55.7232 31.8177 55.3585 31.8177 55.0394 31.8632C54.9483 31.8177 54.9483 31.6809 55.0394 31.5897L55.2674 31.5442C55.7688 31.453 55.86 31.3618 56.179 30.3134L57.3642 26.4843C57.6833 25.5271 57.6833 25.3447 57.1363 25.2536L56.9084 25.208C56.8628 25.1168 56.8628 24.9801 56.954 24.9345C57.3642 24.9345 57.7289 24.9801 58.1392 24.9801C58.595 24.9801 58.9141 24.9801 59.4155 24.9345C59.5067 24.9801 59.5067 25.1624 59.4155 25.208L59.0964 25.2536C58.5038 25.3447 58.4582 25.4359 58.1392 26.4843L56.9996 30.1311ZM64.5209 28.2165C64.5209 28.9915 63.5181 29.4929 62.0138 29.9487C61.9226 30.1311 61.877 30.4501 61.877 30.8604C61.877 31.2251 62.105 31.453 62.3785 31.453C62.7431 31.453 63.0166 31.2251 63.4725 30.8604C63.5637 30.8604 63.6092 30.9516 63.6092 31.0427C62.9711 31.8177 62.3785 32 61.9682 32C61.33 32 61.1477 31.4074 61.1477 30.906C61.1477 30.2678 61.558 28.9915 62.6976 28.1254C63.2446 27.7151 63.6548 27.6239 63.9283 27.6239C64.293 27.5783 64.5209 27.943 64.5209 28.2165ZM62.8799 28.3989C62.4696 28.8547 62.2417 29.3105 62.105 29.584C62.7887 29.3561 63.1078 29.1738 63.4725 28.8091C63.7916 28.49 63.8827 28.2165 63.8827 28.1254C63.8827 28.0342 63.8372 27.8974 63.6548 27.8974C63.5181 27.8974 63.2446 27.9886 62.8799 28.3989ZM70.1733 26.2564C70.4013 25.4815 70.3101 25.3903 69.8543 25.3447H69.5352C69.444 25.2991 69.4896 25.1624 69.5352 25.1168C70.1278 25.0256 70.6748 24.9801 71.2674 24.9801C71.8144 24.9801 72.4525 25.0256 72.954 25.208C73.4554 25.4359 73.8201 25.8006 73.8201 26.4843C73.8201 27.5328 72.7716 27.9886 72.2246 28.0342C72.0423 28.0342 72.1335 28.1254 72.2246 28.1254C72.8628 28.3533 73.3186 28.9459 73.3186 29.6296C73.3186 29.9943 73.2275 30.5413 72.7716 30.9516C72.3614 31.3618 71.5864 31.7265 70.3101 31.7265C69.7631 31.7265 69.3528 31.6809 68.9426 31.6809C68.5779 31.6809 68.2132 31.6809 67.8941 31.7265C67.803 31.6809 67.803 31.5442 67.8941 31.453L68.1221 31.4074C68.6235 31.3162 68.7147 31.2251 69.0337 30.1766L70.1733 26.2564ZM69.6263 30.5869C69.3984 31.2707 69.7175 31.4986 70.4468 31.4986C71.313 31.4986 72.407 30.9516 72.407 29.584C72.407 28.7179 71.632 28.3077 70.9027 28.3077C70.4013 28.3077 70.3557 28.3077 70.2645 28.6724L69.6263 30.5869ZM70.538 27.6695C70.4468 27.8974 70.4924 27.9886 70.9027 27.9886C71.632 27.9886 72.954 27.6239 72.954 26.3476C72.954 25.755 72.4981 25.2991 71.6776 25.2991C71.2674 25.2991 71.2674 25.2991 71.1762 25.6182L70.538 27.6695ZM75.9169 28.5356L75.4611 29.8575H75.5067C75.8258 29.265 76.3272 28.4444 76.6007 28.1254C76.8286 27.8063 77.1021 27.5783 77.33 27.5783C77.6947 27.5783 77.7403 27.943 77.7403 28.0798C77.7403 28.2165 77.6491 28.5356 77.5124 28.7179C77.3756 28.8547 77.2389 28.9003 77.1933 28.6724C77.1477 28.3989 77.1021 28.2621 76.9654 28.2621C76.8742 28.2621 76.7374 28.3533 76.6007 28.5812C75.9625 29.4017 75.4155 30.6325 74.8685 31.8177C74.8229 31.9088 74.7773 31.9544 74.6862 31.9544C74.595 31.9544 74.2759 31.9088 74.3671 31.6809C74.5038 31.2707 75.142 29.4473 75.4155 28.4444C75.4611 28.3533 75.4155 28.2165 75.3243 28.2165C75.0508 28.2165 74.7773 28.49 74.595 28.7635C74.5038 28.7635 74.4127 28.7179 74.4127 28.5812C74.7318 28.0342 75.142 27.5783 75.6434 27.5783C76.1904 27.5783 76.0081 28.2621 75.9169 28.5356ZM81.2959 27.3504C81.4782 27.2593 81.7517 27.3504 81.7973 27.4872C81.6605 27.8519 80.7488 30.1311 80.4298 31.0883C80.3842 31.2707 80.4298 31.3162 80.5209 31.3162C80.7033 31.3162 80.9768 31.1339 81.5694 30.6325C81.6605 30.6325 81.7061 30.6781 81.7061 30.7692C81.2959 31.3618 80.5209 31.9088 79.9739 31.9088C79.8372 31.9088 79.7004 31.8177 79.6548 31.6353C79.6548 31.5442 79.6548 31.453 79.746 31.2251L80.0651 30.3134H80.0195C79.2902 31.2251 78.2417 31.9544 77.7403 31.9544C77.4668 31.9544 77.2845 31.6809 77.2845 31.3618C77.2845 31.1339 77.5124 30.3134 78.1961 29.3561C78.6976 28.6724 79.1534 28.2621 79.5637 28.0342C79.9739 27.8063 80.2018 27.7151 80.4753 27.7151C80.5665 27.7151 80.6577 27.7607 80.7033 27.7607C80.7488 27.7607 80.84 27.8519 80.9312 27.9886L81.2959 27.3504ZM79.5181 28.5356C78.8799 29.1282 78.2417 30.4957 78.2417 31.2251C78.2417 31.3618 78.2873 31.4074 78.3785 31.4074C78.4696 31.4074 78.7887 31.2707 79.3813 30.7236C80.1562 29.9943 80.6121 29.1282 80.7488 28.49C80.6577 28.3077 80.5209 28.1254 80.2474 28.1254C80.0195 28.1254 79.8372 28.2165 79.5181 28.5356ZM84.9426 28.1709C84.9426 28.3533 84.8514 28.4444 84.7602 28.49C84.6691 28.49 84.6235 28.49 84.5779 28.3989C84.3956 28.2165 84.2588 28.0798 83.9397 28.0798C83.6206 28.0798 83.5295 28.3533 83.5295 28.49C83.5295 28.7179 83.5751 28.9003 83.8941 29.4473C84.1676 29.8575 84.3044 30.1311 84.3044 30.5869C84.3044 30.8604 84.1676 31.2251 83.7574 31.5897C83.4839 31.8177 83.1192 31.9544 82.709 31.9544C82.2987 31.9544 82.0708 31.6353 82.0708 31.4074C82.0708 31.3162 82.1164 31.1795 82.2075 31.0883C82.2987 30.9971 82.3899 30.9971 82.481 31.0883C82.6178 31.2251 82.9369 31.4986 83.2104 31.4986C83.4383 31.4986 83.7118 31.2251 83.7118 30.906C83.7118 30.7236 83.5751 30.4046 83.3471 29.9943C83.0736 29.584 82.9825 29.2194 82.9825 29.037C82.9825 28.6268 83.1648 28.3533 83.6206 27.943C83.9397 27.6695 84.2588 27.6239 84.3956 27.6239C84.6691 27.5783 84.9426 27.8974 84.9426 28.1709ZM87.8599 28.1709C87.8599 28.3533 87.7688 28.4444 87.6776 28.49C87.5865 28.49 87.5409 28.49 87.4953 28.3989C87.313 28.2165 87.1762 28.0798 86.8571 28.0798C86.538 28.0798 86.4469 28.3533 86.4469 28.49C86.4469 28.7179 86.4924 28.9003 86.8115 29.4473C87.085 29.8575 87.2218 30.1311 87.2218 30.5869C87.2218 30.8604 87.085 31.2251 86.6748 31.5897C86.4013 31.8177 86.0366 31.9544 85.6263 31.9544C85.2161 31.9544 84.9882 31.6353 84.9882 31.4074C84.9882 31.3162 85.0337 31.1795 85.1249 31.0883C85.2161 30.9971 85.3073 30.9971 85.3984 31.0883C85.5352 31.2251 85.8543 31.4986 86.1278 31.4986C86.3557 31.4986 86.6292 31.2251 86.6292 30.906C86.6292 30.7236 86.4924 30.4046 86.2645 29.9943C85.991 29.584 85.8998 29.2194 85.8998 29.037C85.8998 28.6268 86.0822 28.3533 86.538 27.943C86.8571 27.6695 87.1762 27.6239 87.313 27.6239C87.632 27.5783 87.8599 27.8974 87.8599 28.1709ZM89.4098 30.906C89.3186 31.1339 89.3642 31.2707 89.501 31.2707C89.6377 31.2707 90.048 30.9516 90.595 30.4046C91.5523 29.4929 92.0537 28.2621 92.4184 27.6695C92.6463 27.6239 92.8742 27.7151 92.9198 27.8519C92.8286 28.1254 92.1449 29.812 91.7346 31.0427C91.689 31.1795 91.689 31.3162 91.7802 31.3162C91.9625 31.3162 92.5095 30.8148 92.783 30.4957C92.8742 30.4957 92.9654 30.4957 92.9654 30.6325C92.6919 31.1339 91.689 31.9544 91.142 31.9544C90.9597 31.9544 90.8229 31.7721 90.8685 31.5897L91.5523 29.7208C90.8229 30.6781 89.5466 32 88.954 32C88.5437 32 88.4981 31.5897 88.6349 31.1339L89.5921 28.6268C89.6833 28.4444 89.6833 28.3077 89.5921 28.3077C89.4098 28.3077 88.8628 28.7635 88.6349 29.037C88.5437 29.037 88.4981 28.9915 88.4526 28.9459V28.9003C88.7261 28.49 89.7289 27.6695 90.2303 27.6695C90.3671 27.6695 90.595 27.8063 90.5494 27.9886L89.4098 30.906ZM96.1562 28.1709C96.1562 28.3533 96.0651 28.4444 95.9739 28.49C95.8828 28.49 95.8372 28.49 95.7916 28.3989C95.6092 28.2165 95.4725 28.0798 95.1534 28.0798C94.8343 28.0798 94.7431 28.3533 94.7431 28.49C94.7431 28.7179 94.7887 28.9003 95.1078 29.4473C95.3813 29.8575 95.5181 30.1311 95.5181 30.5869C95.5181 30.8604 95.3813 31.2251 94.9711 31.5897C94.6976 31.8177 94.3329 31.9544 93.9226 31.9544C93.5124 31.9544 93.2845 31.6353 93.2845 31.4074C93.2845 31.3162 93.33 31.1795 93.4212 31.0883C93.5124 30.9971 93.6035 30.9971 93.6947 31.0883C93.8315 31.2251 94.1506 31.4986 94.4241 31.4986C94.652 31.4986 94.9255 31.2251 94.9255 30.906C94.9255 30.7236 94.7887 30.4046 94.5608 29.9943C94.2873 29.584 94.1961 29.2194 94.1961 29.037C94.1961 28.6268 94.3785 28.3533 94.8343 27.943C95.1534 27.6695 95.4725 27.6239 95.6092 27.6239C95.9283 27.5783 96.1562 27.8974 96.1562 28.1709ZM20.0309 3.92023C20.7602 3.92023 21.444 4.69516 21.444 5.88034V15.3618C21.444 18.8262 20.0309 18.5527 18.5266 18.5527C17.0223 18.5527 16.84 17.0484 16.84 15.3162V5.92593C16.84 4.69516 17.4782 3.96581 18.2531 3.96581V3.4188H13.1021V3.92023C13.8315 3.92023 14.5152 4.69516 14.5152 5.88034V16.1368C14.5152 18.0969 15.5637 19.6011 18.0708 19.6011C20.5779 19.6011 22.1278 19.4644 22.1278 15.3162V5.92593C22.1278 4.69516 22.7659 3.96581 23.5409 3.96581V3.4188H20.0309V3.92023ZM128.521 3.92023C129.25 3.92023 129.888 4.69516 129.888 5.88034V15.3618C129.888 18.8262 128.475 18.5527 126.971 18.5527C125.467 18.5527 125.284 17.0484 125.284 15.3162V5.92593C125.284 4.69516 125.923 3.96581 126.652 3.96581V3.4188H121.592V3.92023C122.321 3.92023 122.96 4.69516 122.96 5.88034V16.1368C122.96 18.0969 124.008 19.6011 126.515 19.6011C129.022 19.6011 130.572 19.4644 130.572 15.3162V5.92593C130.572 4.69516 131.165 3.96581 131.94 3.96581V3.4188H128.567L128.521 3.92023ZM30.3785 18.4615C30.1961 18.5071 29.2845 18.5983 28.5551 18.5527C27.9625 18.5071 27.9625 18.416 27.9625 17.094V5.74359C27.9625 4.42165 28.2816 4.10256 29.33 4.10256C30.652 4.10256 31.199 4.46724 31.6548 5.65242C32.5209 7.88604 32.3842 12.0798 32.1562 15.2707C32.1562 15.2707 31.7916 18.0513 30.3785 18.4615ZM30.0138 3.4188H24.2702V3.92023C25.0451 3.92023 25.6377 4.69516 25.6377 5.88034V16.8205C25.6377 18.0513 24.9996 18.7806 24.2702 18.7806V19.2821H30.6976C31.746 19.2821 32.9312 18.6895 33.6605 16.547C34.3899 14.359 34.481 12.5356 34.3443 9.80057C34.2075 7.06553 33.7517 5.37892 33.1135 4.5584C32.5209 3.78348 31.5181 3.4188 30.0138 3.4188ZM39.5409 18.5527C38.8115 18.4615 38.7204 18.1425 38.7204 16.9573V11.7151C40.3614 11.8519 40.5437 11.8519 40.954 14.0399H41.4098V8.5698H40.954C40.5893 10.6211 40.3614 10.7578 38.7204 10.8946V5.56125C38.7204 4.37607 38.8115 4.14815 39.3585 4.19373L40.2702 4.23932C42.5494 4.33048 42.6406 5.69801 42.7773 6.47293H43.3243V3.4188H35.028V3.92023C35.7574 3.92023 36.4412 4.69516 36.4412 5.88034V16.8205C36.4412 18.0513 35.803 18.7806 35.028 18.7806V19.2821H43.5067L44.1449 16.4103H43.4611C42.7317 18.963 40.6805 18.5983 39.5409 18.5527ZM137.091 18.5527C136.361 18.4615 136.27 18.1425 136.27 16.9573V11.7151C137.911 11.8519 138.094 11.8519 138.504 14.0399H138.96V8.5698H138.504C138.139 10.6211 137.911 10.7578 136.27 10.8946V5.56125C136.27 4.37607 136.361 4.14815 136.908 4.19373L137.866 4.23932C140.145 4.33048 140.236 5.69801 140.373 6.47293H140.92V3.4188H132.578V3.92023C133.307 3.92023 133.945 4.69516 133.945 5.88034V16.8205C133.945 18.0513 133.307 18.7806 132.578 18.7806V19.2821H141.011L141.649 16.4103H141.011C140.327 18.963 138.23 18.5983 137.091 18.5527ZM9.09072 12.49H5.12491L9.09072 2.68946V12.49ZM11.6434 0H7.26736V0.501425C8.40696 0.501425 8.54371 1.36752 8.13346 2.2792C6.72035 5.97151 3.02804 15.3618 2.61779 16.3191C2.07078 17.5043 1.34144 18.8262 0.15625 18.8262V19.3276H4.3044V18.8262C3.34713 18.8262 3.07363 17.4587 3.52947 16.3191C3.98531 15.1795 4.80582 13.2194 4.80582 13.2194H9.09072V16.6382C9.09072 18.735 8.36138 18.8262 7.31295 18.8262V19.3276H13.4668V18.8262C12.6007 18.8262 11.689 18.7806 11.689 16.6382C11.689 15.4986 11.6434 0 11.6434 0ZM101.991 9.20798C101.991 9.7094 101.809 9.98291 101.444 9.98291H99.3927V5.78917V4.83191V0.683761H101.444C101.809 0.683761 101.991 1.00285 101.991 1.59544V9.20798ZM102.492 0H94.9711V0.501425C96.0651 0.501425 96.7488 1.23077 96.7488 2.64387V16.4103C96.7488 18.5983 95.9283 18.7806 94.9711 18.7806V19.2821H101.125V18.7806C100.031 18.7806 99.3471 18.5527 99.3471 16.4103V10.7578H102.629C103.678 10.7578 104.498 9.98291 104.498 8.25071V2.41595C104.544 1.00285 103.86 0 102.492 0ZM51.8941 14.5413L48.84 3.46439H44.783V3.96581C45.7859 3.96581 46.1961 4.33048 46.1961 5.97151V16.8661C46.1961 18.0969 45.6035 18.8262 44.783 18.8262V19.3276H48.3386V18.8262C47.5181 18.8262 46.9255 18.0513 46.9255 16.8661V5.47009L50.8001 19.3276H51.1648L55.1762 5.51567V16.8661C55.1762 18.0969 54.5836 18.8262 53.7631 18.8262V19.3276H58.9597V18.8262C58.1392 18.8262 57.501 18.0513 57.501 16.8661V5.92593C57.501 4.69516 58.0936 3.96581 58.9597 3.96581V3.4188H55.0394L51.8486 14.2678M76.5551 9.52707C76.5551 11.4416 74.5494 11.1681 73.8201 11.1681V5.19658C73.8201 4.5584 73.8657 4.23932 74.4127 4.23932C75.5067 4.23932 76.5551 4.05698 76.5551 5.56125C76.5551 5.51567 76.5551 9.52707 76.5551 9.52707ZM79.4725 17.9601L76.8286 11.7151C77.6491 11.5328 78.7431 11.2137 78.7431 9.7094C78.7431 8.11396 78.6976 6.47293 78.6976 5.37892C78.6976 3.4188 76.8742 3.4188 75.0508 3.4188H70.1733V3.92023C70.9027 3.92023 71.5409 4.69516 71.5409 5.88034V16.8205C71.5409 18.0513 70.7204 18.7806 70.1278 18.7806V19.2821H75.2332V18.7806C74.5038 18.7806 73.8201 18.0057 73.8201 16.8205V11.8974H74.595L77.1933 18.416C77.1933 18.416 77.33 18.7806 77.6035 19.0541C77.8315 19.2821 78.3785 19.2821 78.3785 19.2821H80.293V18.7806C80.1107 18.8262 79.8828 18.9174 79.4725 17.9601ZM106.048 3.92023C107.005 3.92023 107.416 4.69516 107.416 5.88034V16.8205C107.416 18.0513 106.96 18.7806 106.048 18.7806V19.2821H111.062V18.7806C110.105 18.7806 109.695 18.0057 109.695 16.8205V5.92593C109.695 4.69516 110.105 3.96581 111.062 3.96581V3.4188H106.048V3.92023ZM85.5352 9.52707C83.803 8.61538 83.1192 7.4302 83.1192 6.42735C83.1192 5.88034 83.3471 3.78348 84.7602 3.78348C86.9027 3.82906 87.5409 6.83761 87.7688 8.15954H88.179V3.19088H87.7232C87.7232 3.73789 87.4953 3.87464 87.2674 3.87464C86.4924 3.82906 86.2189 2.91738 84.1677 3.00855C82.8457 3.05413 81.1591 4.23932 81.1591 7.38462C81.1591 8.84331 81.7061 10.849 83.4839 12.0798C86.0822 13.812 86.9027 14.5413 86.9027 15.8632C86.9027 16.4103 86.7204 18.7806 84.6691 18.7806C83.2104 18.7806 82.2531 16.3647 82.0708 15.453L81.7517 13.812H81.2959V19.3732H81.7973C81.8429 18.9174 81.9796 18.6895 82.1619 18.6895C82.9369 18.6895 83.7118 19.51 85.0337 19.4644C88.4526 19.4188 89.0907 16.5014 89.0907 14.906C89.0451 12.6724 87.9511 10.7578 85.5352 9.52707ZM117.672 11.2593V11.6695C117.672 11.6695 118.356 11.7151 118.356 12.8547V16.547C118.356 18.5071 117.672 18.6895 116.441 18.6895C115.21 18.6895 114.755 18.2336 114.755 16.7293V5.78917C114.755 4.74074 115.302 3.87464 116.578 3.87464C117.991 3.87464 119.495 5.28775 119.495 8.02279H120.27V3.19088H119.678C119.678 5.05983 118.584 3.1453 116.623 3.1453C115.21 3.1453 114.025 3.50997 113.387 4.23932C112.703 5.01425 112.384 5.92593 112.384 7.01994V15.5897C112.384 16.6838 112.703 17.5954 113.387 18.3248C114.071 19.0997 115.529 19.51 116.487 19.51C117.034 19.51 117.854 19.2821 118.265 19.0997C118.675 18.9174 119.039 18.5983 119.359 18.2336C120.042 17.4587 120.407 16.547 120.407 15.4986V12.8547C120.407 11.8063 121.091 11.7151 121.091 11.7151V11.3048C121.136 11.2593 117.672 11.2593 117.672 11.2593ZM68.6691 17.7322L65.4326 3.4188H62.6064V3.92023C63.6092 3.92023 63.4725 4.74074 63.2902 5.69801L60.9654 17.2764C60.6463 18.5983 60.236 18.8262 59.8258 18.8262V19.3276H62.5152V18.8262C61.5124 18.8262 61.5124 18.0057 61.7859 16.7749L62.2417 14.4501H65.6149L66.2531 17.3219C66.5722 18.5983 66.0708 18.8262 65.4782 18.8262V19.3276H69.5808V18.8262C69.3528 18.7806 68.9426 18.6895 68.6691 17.7322ZM62.4241 13.7208L63.8372 6.60969L65.4326 13.7208H62.4241ZM142.014 3.4188V6.47293H142.561C142.652 5.88034 142.789 4.96866 143.336 4.60399C143.883 4.23932 144.43 4.2849 145.387 4.2849V16.8205C145.387 18.0513 144.794 18.7806 144.02 18.7806V19.2821H149.034V18.7806C148.304 18.7806 147.666 18.0057 147.666 16.8205V4.2849C148.578 4.2849 149.125 4.2849 149.718 4.60399C150.265 4.96866 150.401 5.83476 150.492 6.47293H151.039V3.4188H142.014Z" fill="white"/>
</svg>
