<svg width="59" height="32" viewBox="0 0 59 32" fill="none" xmlns="https://www.w3.org/2000/svg">
<path id="Union" fill-rule="evenodd" clip-rule="evenodd" d="M22.9537 5.61702C22.897 5.67376 22.8403 5.67376 22.7268 5.67376C22.1594 5.67376 21.7055 5.21986 21.7622 4.65248C21.7622 4.08511 22.2161 3.63121 22.7835 3.63121C23.3509 3.63121 23.8048 4.08511 23.8048 4.65248C23.8048 5.04965 23.5778 5.39007 23.2374 5.56028L26.5849 12.766L26.0176 3.06383C25.4502 3.06383 24.9963 2.60993 24.9963 2.04255C24.9963 1.47518 25.4502 1.02128 26.0176 1.02128C26.5849 1.02128 27.0388 1.47518 27.0388 2.04255C27.0388 2.49645 26.7552 2.89362 26.3013 3.00709L28.4573 12.4823L29.5353 2.04255C29.0814 1.98582 28.6842 1.53191 28.6842 1.02128C28.6842 0.453901 29.1381 0 29.7055 0C30.2729 0 30.7268 0.453901 30.7268 1.02128C30.7268 1.53191 30.3864 1.98582 29.8757 2.04255L31.0105 12.4255L33.2232 2.95035C32.8261 2.83688 32.4856 2.43972 32.4856 1.98582C32.4856 1.41844 32.9396 0.964539 33.5069 0.964539C34.0743 0.964539 34.5282 1.41844 34.5282 1.98582C34.5282 2.55319 34.0743 3.00709 33.5069 3.00709L32.9396 12.7092L36.2871 5.50355C35.9466 5.33333 35.7197 4.99291 35.7197 4.59574C35.7197 4.02837 36.1736 3.57447 36.741 3.57447C37.3083 3.57447 37.7622 4.02837 37.7622 4.59574C37.7622 5.16312 37.3083 5.61702 36.741 5.61702H36.514L33.6204 15.4894C33.28 16.5674 31.6913 17.4184 29.7622 17.4184C27.8332 17.4184 26.2445 16.5674 25.9041 15.4894L22.9537 5.61702ZM32.9396 15.6596C32.9396 15.0922 31.5211 14.6383 29.7622 14.6383C28.0034 14.6383 26.5282 15.0922 26.5849 15.6596C26.5849 16.2269 28.0034 16.6809 29.7622 16.6809C31.5211 16.6809 32.9396 16.2269 32.9396 15.6596ZM10.8686 29.0496L11.4927 30.922L12.6842 30.8652V31.6028H11.1523H9.45019C9.1665 30.2411 8.88281 29.1631 8.48565 28.3688C8.42891 28.3121 8.37218 28.1986 8.31544 28.0851C8.08849 27.7447 7.8048 27.5177 7.57785 27.3475C7.40764 27.234 7.12395 27.1206 6.897 27.0638C6.61331 27.0071 6.32962 26.9504 5.9892 26.9504H5.76225H5.64877H4.57076V30.922H5.93246V31.6596H4.51402H0.882812V30.922H2.30125V22.6383H0.93955V21.9007H2.30125H4.57076H8.37218H8.42891C9.79061 21.9007 10.9254 23.0355 10.9254 24.3972C10.9254 25.6454 10.0176 26.7234 8.82608 26.8936C8.8733 26.9094 8.92271 26.9251 8.97355 26.9413C9.28916 27.0419 9.65976 27.1599 9.90409 27.4043C10.358 27.8582 10.5849 28.1986 10.8686 29.0496ZM4.57076 26.2128H6.95373C7.97501 26.156 8.76934 25.4184 8.76934 24.3972C8.76934 23.3759 7.97501 22.695 6.95373 22.6383H4.57076V26.2128ZM18.4715 21.5603C15.5211 21.5603 13.1949 23.9433 13.1949 26.7801C13.1949 29.617 15.5778 32 18.4715 32C21.4218 32 23.7481 29.617 23.7481 26.7801C23.7481 23.9433 21.4218 21.5603 18.4715 21.5603ZM20.6842 29.7872C20.514 30.0142 20.2871 30.2411 20.0601 30.4113C19.663 30.695 19.2091 30.922 18.7552 30.922H18.4715H18.1878C17.7339 30.922 17.28 30.695 16.8828 30.4113C16.6559 30.2411 16.4289 30.0142 16.2587 29.7872C15.6913 29.0496 15.3509 27.9716 15.3509 26.7801C15.3509 25.6454 15.6346 24.6809 16.1452 23.8865C16.4289 23.3759 16.8261 22.9787 17.3935 22.7518C17.3935 22.7518 17.4502 22.7518 17.4502 22.695C17.5069 22.6383 17.5637 22.6383 17.6771 22.6383C17.9041 22.5816 18.1878 22.5248 18.4147 22.5248C18.6984 22.5248 18.9254 22.5816 19.1523 22.6383C19.1807 22.6383 19.2232 22.6525 19.2658 22.6667C19.3083 22.6809 19.3509 22.695 19.3793 22.695C19.3793 22.695 19.436 22.695 19.436 22.7518C19.9466 22.9787 20.4005 23.3759 20.6842 23.8865C21.1949 24.6241 21.4786 25.6454 21.4786 26.7801C21.592 27.9716 21.2516 29.0496 20.6842 29.7872ZM33.5069 27.8582H34.2445V29.2766V31.6596H34.1878H34.131H33.5069H25.053V30.922H26.4715V22.6383H25.053V21.9007H28.5708H28.741H30.1594V22.6383H28.741V30.922H29.592H31.8615C32.7693 30.922 33.5069 30.2411 33.5069 29.3333V27.8582ZM45.4786 21.9574H45.4218H43.1523H35.8332V22.695H37.2516V30.9787H35.8332V31.7163H43.1523H44.7977H45.4218H45.4786H45.5353V29.3333V28.2553H44.7977V29.3901C44.7977 30.2979 44.0601 30.9787 43.1523 30.9787H40.5424H39.5211H39.4644V27.0071V26.8369H40.202H40.6559C41.3367 26.8369 41.8474 27.4043 41.8474 28.0284V28.4255V28.5957H42.5282V28.539V26.8369V26.2128V24.5674V24.5106H41.8474V24.9645C41.8474 25.6454 41.3367 26.0993 40.6559 26.0993H40.202H39.7481H39.4644V22.5816H39.5211H41.6204H41.6771H43.1523C44.0601 22.5816 44.741 23.3192 44.7977 24.1702V25.1915H45.5353V24.227L45.4786 21.9574ZM56.794 30.2174C57.2981 30.7737 57.4839 30.9787 58.131 30.9787H58.4715V31.7163H53.1949V30.9787H54.1027C54.2729 30.9787 54.4431 30.8085 54.4431 30.6383C54.4431 30.5248 54.4431 30.4681 54.3864 30.4113L54.1027 30.0709L52.2303 27.6879L49.9608 30.4113C49.9608 30.4397 49.9466 30.4823 49.9325 30.5248C49.9183 30.5674 49.9041 30.6099 49.9041 30.6383C49.9041 30.8085 50.0743 30.9787 50.2445 30.9787H51.1523H51.3225V31.7163H51.1523H49.8473H49.6771H47.2374H47.0672V30.9787H47.2374H47.6913C48.4106 30.9787 48.5903 30.7629 49.125 30.1207C49.1386 30.1044 49.1524 30.0878 49.1665 30.0709L51.7197 27.0071L48.8828 23.4326C48.3722 22.8652 48.202 22.695 47.5778 22.6383H47.3509V21.9007H48.5424H50.7552H52.2871V22.6383H51.436C51.2658 22.6383 51.0956 22.8085 51.0956 22.9787C51.0956 23.0922 51.0956 23.1489 51.1523 23.2057L51.436 23.6028L53.0247 25.4184L54.897 23.1489C54.9537 23.0922 54.9537 23.0355 54.9537 22.9787C54.9537 22.8085 54.7835 22.6383 54.6133 22.6383H53.819H53.7055V21.9007H53.7622H55.2942H55.4076H57.5637H57.6771V22.6383H57.5637H57.1098C56.3905 22.6383 56.2108 22.8541 55.6761 23.4963L55.6346 23.5461L53.4786 26.0993L56.7126 30.1277C56.7407 30.1585 56.7678 30.1884 56.794 30.2174Z" fill="#BD9542"/>
</svg>
