<svg width="472" height="299" viewBox="0 0 472 299" fill="none" xmlns="https://www.w3.org/2000/svg">
<rect y="9.16992" width="12" height="4" fill="#BD9542"/>
<path d="M21.134 16.6699V6.53392H22.464V16.6699H21.134ZM23.9317 10.9299V9.78192H25.2337V7.94792L26.4937 7.63992V9.78192H28.5657V10.9299H26.4937V14.3319C26.4937 15.2419 26.8577 15.6899 27.5997 15.6899C27.9497 15.6899 28.2997 15.5919 28.5657 15.4799V16.5859C28.2717 16.7259 27.8097 16.8239 27.3337 16.8239C25.9197 16.8239 25.2337 15.9559 25.2337 14.4439V10.9299H23.9317ZM35.691 16.1799C35.061 16.5859 34.109 16.8239 33.241 16.8239C31.057 16.8239 29.503 15.4379 29.503 13.2539C29.503 11.0559 31.043 9.62792 32.919 9.62792C34.613 9.62792 36.069 10.8039 36.069 12.9739C36.069 13.1839 36.055 13.4639 36.041 13.6179H30.777C30.945 14.9479 31.953 15.6899 33.325 15.6899C34.221 15.6899 35.033 15.3679 35.691 14.8919V16.1799ZM30.791 12.5959H34.851C34.753 11.2519 33.773 10.7619 32.905 10.7619C31.953 10.7619 31.001 11.3639 30.791 12.5959ZM37.8677 16.6699V9.78192H39.1277V10.5939L39.1557 10.6079C39.7297 10.0619 40.5557 9.62792 41.4797 9.62792C42.3477 9.62792 43.1877 10.0059 43.5937 10.7899C44.3777 10.0479 45.2457 9.62792 46.2117 9.62792C46.9677 9.62792 47.5837 9.87992 48.0037 10.3559C48.4237 10.8319 48.5917 11.3919 48.5917 12.3579V16.6699H47.3317V12.5819C47.3317 11.9379 47.2337 11.5179 46.9817 11.2239C46.7297 10.9299 46.3097 10.8039 45.9317 10.8039C45.1477 10.8039 44.3217 11.2939 43.8457 11.8539C43.8597 12.0079 43.8597 12.1899 43.8597 12.3719V16.6699H42.5997V12.5819C42.5997 11.8679 42.5157 11.5319 42.2637 11.2379C42.0117 10.9439 41.6337 10.8039 41.2137 10.8039C40.4017 10.8039 39.6177 11.2659 39.1277 11.7979V16.6699H37.8677ZM56.5023 16.6699V8.54992L54.1643 10.0059V8.59192L57.7903 6.36592V16.6699H56.5023Z" fill="#17171B"/>
<rect x="73" y="9.16992" width="12" height="4" fill="#FFDD2B"/>
<path d="M94.134 16.6699V6.53392H95.464V16.6699H94.134ZM96.9317 10.9299V9.78192H98.2337V7.94792L99.4937 7.63992V9.78192H101.566V10.9299H99.4937V14.3319C99.4937 15.2419 99.8577 15.6899 100.6 15.6899C100.95 15.6899 101.3 15.5919 101.566 15.4799V16.5859C101.272 16.7259 100.81 16.8239 100.334 16.8239C98.9197 16.8239 98.2337 15.9559 98.2337 14.4439V10.9299H96.9317ZM108.691 16.1799C108.061 16.5859 107.109 16.8239 106.241 16.8239C104.057 16.8239 102.503 15.4379 102.503 13.2539C102.503 11.0559 104.043 9.62792 105.919 9.62792C107.613 9.62792 109.069 10.8039 109.069 12.9739C109.069 13.1839 109.055 13.4639 109.041 13.6179H103.777C103.945 14.9479 104.953 15.6899 106.325 15.6899C107.221 15.6899 108.033 15.3679 108.691 14.8919V16.1799ZM103.791 12.5959H107.851C107.753 11.2519 106.773 10.7619 105.905 10.7619C104.953 10.7619 104.001 11.3639 103.791 12.5959ZM110.868 16.6699V9.78192H112.128V10.5939L112.156 10.6079C112.73 10.0619 113.556 9.62792 114.48 9.62792C115.348 9.62792 116.188 10.0059 116.594 10.7899C117.378 10.0479 118.246 9.62792 119.212 9.62792C119.968 9.62792 120.584 9.87992 121.004 10.3559C121.424 10.8319 121.592 11.3919 121.592 12.3579V16.6699H120.332V12.5819C120.332 11.9379 120.234 11.5179 119.982 11.2239C119.73 10.9299 119.31 10.8039 118.932 10.8039C118.148 10.8039 117.322 11.2939 116.846 11.8539C116.86 12.0079 116.86 12.1899 116.86 12.3719V16.6699H115.6V12.5819C115.6 11.8679 115.516 11.5319 115.264 11.2379C115.012 10.9439 114.634 10.8039 114.214 10.8039C113.402 10.8039 112.618 11.2659 112.128 11.7979V16.6699H110.868ZM133.184 16.6699H126.646V16.6419L129.782 12.6519C130.86 11.2799 131.462 10.4399 131.462 9.41792C131.462 8.21392 130.608 7.56992 129.488 7.56992C128.522 7.56992 127.654 8.03192 126.968 8.77392V7.42992C127.556 6.82792 128.536 6.37992 129.614 6.37992C131.378 6.37992 132.764 7.48592 132.764 9.33392C132.764 10.7339 131.98 11.8119 130.846 13.2119L129.012 15.4799L129.026 15.5079H133.184V16.6699Z" fill="#17171B"/>
<g clip-path="url(#clip0_296_29796)">
<line x1="0.5" y1="29.6699" x2="0.49999" y2="269.67" stroke="#F0F0F0"/>
<line x1="50.4648" y1="29.6699" x2="50.4648" y2="269.67" stroke="#F0F0F0"/>
<line x1="100.43" y1="29.6699" x2="100.43" y2="269.67" stroke="#BD9542"/>
<line x1="150.395" y1="29.6699" x2="150.395" y2="269.67" stroke="#F0F0F0"/>
<line x1="200.355" y1="29.6699" x2="200.355" y2="269.67" stroke="#F0F0F0"/>
<line x1="250.32" y1="29.6699" x2="250.32" y2="269.67" stroke="#F0F0F0"/>
<line x1="300.285" y1="29.6699" x2="300.285" y2="269.67" stroke="#F0F0F0"/>
<line x1="350.25" y1="29.6699" x2="350.25" y2="269.67" stroke="#F0F0F0"/>
<line x1="400.215" y1="29.6699" x2="400.215" y2="269.67" stroke="#F0F0F0"/>
<line y1="-0.5" x2="399.714" y2="-0.5" transform="matrix(-1 -4.44631e-08 2.58391e-06 -1 400 29.6699)" stroke="#F0F0F0"/>
<line y1="-0.5" x2="399.714" y2="-0.5" transform="matrix(-1 -4.44631e-08 2.58391e-06 -1 400 77.6699)" stroke="#F0F0F0"/>
<line y1="-0.5" x2="399.714" y2="-0.5" transform="matrix(-1 -4.44631e-08 2.58391e-06 -1 400 125.67)" stroke="#F0F0F0"/>
<line y1="-0.5" x2="399.714" y2="-0.5" transform="matrix(-1 -4.44631e-08 2.58391e-06 -1 400 173.67)" stroke="#F0F0F0"/>
<line y1="-0.5" x2="399.714" y2="-0.5" transform="matrix(-1 -4.44631e-08 2.58391e-06 -1 400 221.67)" stroke="#F0F0F0"/>
<path d="M101.065 190.183L51.3153 241.438H1V268.67H399V47.6699H349.599L300.065 142.054L250.315 127.052L200.565 195.379L150.815 218.506L101.065 190.183Z" fill="url(#paint0_linear_296_29796)"/>
<path d="M399 47.6699H349.599L300.065 142.054L250.315 127.052L200.565 195.379L150.815 218.506L101.065 190.183L51.3153 241.438H1" stroke="#75530A"/>
<path d="M101.065 232.775L51.3153 256.431H1V269H399V167H349.599L300.065 210.562L250.315 203.638L200.565 235.174L150.815 245.848L101.065 232.775Z" fill="url(#paint1_linear_296_29796)"/>
<path d="M399 167H349.599L300.065 210.562L250.315 203.638L200.565 235.174L150.815 245.848L101.065 232.775L51.3153 256.431H1" stroke="#6F5D00"/>
<circle cx="50.5664" cy="240.5" r="3" fill="#BD9542" stroke="white" stroke-width="2"/>
<circle cx="50.5" cy="256" r="3" fill="#FFDD2B" stroke="white" stroke-width="2"/>
<circle cx="150.566" cy="217.5" r="3" fill="#BD9542" stroke="white" stroke-width="2"/>
<circle cx="100.5" cy="233" r="3" fill="#FFDD2B" stroke="white" stroke-width="2"/>
<circle cx="100.566" cy="190.5" r="6" fill="#BD9542" stroke="white" stroke-width="2"/>
<g filter="url(#filter0_d_296_29796)">
<rect width="77" height="27" transform="translate(62 145)" fill="#17171B"/>
<path d="M69.08 161.015C70.04 161.72 71.285 162.035 72.23 162.035C73.415 162.035 74.18 161.57 74.18 160.64C74.18 160.1 73.925 159.725 73.22 159.47C72.515 159.215 71.18 159.02 70.325 158.63C69.47 158.24 68.99 157.55 68.99 156.5C68.99 155 70.055 154.07 71.63 153.875V152H72.74V153.86C73.58 153.935 74.465 154.16 75.11 154.52V155.93C74.21 155.36 73.1 155.105 72.23 155.105C71.135 155.105 70.37 155.525 70.37 156.395C70.37 156.995 70.7 157.325 71.435 157.565C72.17 157.805 73.475 157.985 74.3 158.405C75.14 158.825 75.56 159.53 75.56 160.535C75.56 162.155 74.375 163.1 72.74 163.265V165.14H71.63V163.265C70.745 163.19 69.8 162.935 69.08 162.485V161.015ZM80.2883 164V155.3L77.7833 156.86V155.345L81.6683 152.96V164H80.2883ZM91.8651 164H84.8601V163.97L88.2201 159.695C89.3751 158.225 90.0201 157.325 90.0201 156.23C90.0201 154.94 89.1051 154.25 87.9051 154.25C86.8701 154.25 85.9401 154.745 85.2051 155.54V154.1C85.8351 153.455 86.8851 152.975 88.0401 152.975C89.9301 152.975 91.4151 154.16 91.4151 156.14C91.4151 157.64 90.5751 158.795 89.3601 160.295L87.3951 162.725L87.4101 162.755H91.8651V164ZM98.2211 164V161.225H92.7761V161.195L98.2061 153.14H99.6161V159.965H101.731V161.225H99.6161V164H98.2211ZM98.2211 157.625C98.2211 156.83 98.2361 155.915 98.2511 155.15H98.2211C97.7861 155.84 97.2461 156.665 96.6911 157.49L95.0411 159.935L95.0561 159.965H98.2211V157.625ZM103.106 166.205L103.946 161.96H105.311L104.096 166.205H103.106ZM113.605 154.4H109.405L109.195 157.22H109.48C112.375 157.22 113.95 158.63 113.95 160.7C113.95 162.785 112.375 164.165 110.155 164.165C109.12 164.165 108.13 163.88 107.425 163.4V161.885C108.265 162.575 109.195 162.89 110.11 162.89C111.55 162.89 112.555 162.05 112.555 160.715C112.555 159.155 111.085 158.39 109.045 158.39C108.625 158.39 108.22 158.405 107.83 158.465L108.235 153.14H113.605V154.4ZM122.231 164H115.226V163.97L118.586 159.695C119.741 158.225 120.386 157.325 120.386 156.23C120.386 154.94 119.471 154.25 118.271 154.25C117.236 154.25 116.306 154.745 115.571 155.54V154.1C116.201 153.455 117.251 152.975 118.406 152.975C120.296 152.975 121.781 154.16 121.781 156.14C121.781 157.64 120.941 158.795 119.726 160.295L117.761 162.725L117.776 162.755H122.231V164ZM128.587 164V161.225H123.142V161.195L128.572 153.14H129.982V159.965H132.097V161.225H129.982V164H128.587ZM128.587 157.625C128.587 156.83 128.602 155.915 128.617 155.15H128.587C128.152 155.84 127.612 156.665 127.057 157.49L125.407 159.935L125.422 159.965H128.587V157.625Z" fill="white"/>
</g>
<path d="M100.5 183L112.5 171H88.5L100.5 183Z" fill="#17171B"/>
<circle cx="150.5" cy="245" r="3" fill="#FFDD2B" stroke="white" stroke-width="2"/>
<circle cx="200.566" cy="194.5" r="3" fill="#BD9542" stroke="white" stroke-width="2"/>
<circle cx="200.5" cy="234" r="3" fill="#FFDD2B" stroke="white" stroke-width="2"/>
<circle cx="250.566" cy="126.5" r="3" fill="#BD9542" stroke="white" stroke-width="2"/>
<circle cx="250.5" cy="203.5" r="3" fill="#FFDD2B" stroke="white" stroke-width="2"/>
<circle cx="300.566" cy="141.5" r="3" fill="#BD9542" stroke="white" stroke-width="2"/>
<circle cx="300.5" cy="210" r="3" fill="#FFDD2B" stroke="white" stroke-width="2"/>
<circle cx="350.703" cy="47.5" r="3" fill="#BD9542" stroke="white" stroke-width="2"/>
<circle cx="350.5" cy="167" r="3" fill="#FFDD2B" stroke="white" stroke-width="2"/>
</g>
<rect x="0.5" y="30.1699" width="398.999" height="239" stroke="#F0F0F0"/>
<path d="M409.008 32.8839C409.904 33.5419 411.066 33.8359 411.948 33.8359C413.054 33.8359 413.768 33.4019 413.768 32.5339C413.768 32.0299 413.53 31.6799 412.872 31.4419C412.214 31.2039 410.968 31.0219 410.17 30.6579C409.372 30.2939 408.924 29.6499 408.924 28.6699C408.924 27.2699 409.918 26.4019 411.388 26.2199V24.4699H412.424V26.2059C413.208 26.2759 414.034 26.4859 414.636 26.8219V28.1379C413.796 27.6059 412.76 27.3679 411.948 27.3679C410.926 27.3679 410.212 27.7599 410.212 28.5719C410.212 29.1319 410.52 29.4399 411.206 29.6639C411.892 29.8879 413.11 30.0559 413.88 30.4479C414.664 30.8399 415.056 31.4979 415.056 32.4359C415.056 33.9479 413.95 34.8299 412.424 34.9839V36.7339H411.388V34.9839C410.562 34.9139 409.68 34.6759 409.008 34.2559V32.8839ZM419.553 35.8239C418.545 35.8239 417.607 35.5299 416.977 35.0819V33.6959C417.733 34.3119 418.643 34.6339 419.483 34.6339C420.743 34.6339 421.639 33.9479 421.639 32.8279C421.639 31.7219 420.813 31.0359 419.315 31.0359H418.335V29.9159H419.371C420.659 29.9159 421.387 29.2299 421.387 28.2639C421.387 27.2139 420.561 26.5699 419.385 26.5699C418.531 26.5699 417.649 26.9199 417.047 27.4099V26.1079C417.649 25.6879 418.503 25.3799 419.483 25.3799C421.359 25.3799 422.689 26.4999 422.689 28.1379C422.689 29.1739 422.115 29.9999 421.219 30.3779V30.4059C422.311 30.7839 422.941 31.6939 422.941 32.8699C422.941 34.6059 421.541 35.8239 419.553 35.8239ZM428.131 35.8239C425.569 35.8239 424.701 33.6399 424.701 30.7279V30.4759C424.701 27.5639 425.569 25.3799 428.131 25.3799C430.693 25.3799 431.561 27.5639 431.561 30.4759V30.7279C431.561 33.6399 430.693 35.8239 428.131 35.8239ZM428.131 34.6339C429.825 34.6339 430.259 32.9399 430.259 30.6859V30.5179C430.259 28.2639 429.825 26.5699 428.131 26.5699C426.437 26.5699 426.003 28.2639 426.003 30.5179V30.6859C426.003 32.9399 426.437 34.6339 428.131 34.6339ZM436.785 35.8239C434.223 35.8239 433.355 33.6399 433.355 30.7279V30.4759C433.355 27.5639 434.223 25.3799 436.785 25.3799C439.347 25.3799 440.215 27.5639 440.215 30.4759V30.7279C440.215 33.6399 439.347 35.8239 436.785 35.8239ZM436.785 34.6339C438.479 34.6339 438.913 32.9399 438.913 30.6859V30.5179C438.913 28.2639 438.479 26.5699 436.785 26.5699C435.091 26.5699 434.657 28.2639 434.657 30.5179V30.6859C434.657 32.9399 435.091 34.6339 436.785 34.6339ZM441.832 37.7279L442.616 33.7659H443.89L442.756 37.7279H441.832ZM449.144 35.8239C446.582 35.8239 445.714 33.6399 445.714 30.7279V30.4759C445.714 27.5639 446.582 25.3799 449.144 25.3799C451.706 25.3799 452.574 27.5639 452.574 30.4759V30.7279C452.574 33.6399 451.706 35.8239 449.144 35.8239ZM449.144 34.6339C450.838 34.6339 451.272 32.9399 451.272 30.6859V30.5179C451.272 28.2639 450.838 26.5699 449.144 26.5699C447.45 26.5699 447.016 28.2639 447.016 30.5179V30.6859C447.016 32.9399 447.45 34.6339 449.144 34.6339ZM457.799 35.8239C455.237 35.8239 454.369 33.6399 454.369 30.7279V30.4759C454.369 27.5639 455.237 25.3799 457.799 25.3799C460.361 25.3799 461.229 27.5639 461.229 30.4759V30.7279C461.229 33.6399 460.361 35.8239 457.799 35.8239ZM457.799 34.6339C459.493 34.6339 459.927 32.9399 459.927 30.6859V30.5179C459.927 28.2639 459.493 26.5699 457.799 26.5699C456.105 26.5699 455.671 28.2639 455.671 30.5179V30.6859C455.671 32.9399 456.105 34.6339 457.799 34.6339ZM466.453 35.8239C463.891 35.8239 463.023 33.6399 463.023 30.7279V30.4759C463.023 27.5639 463.891 25.3799 466.453 25.3799C469.015 25.3799 469.883 27.5639 469.883 30.4759V30.7279C469.883 33.6399 469.015 35.8239 466.453 35.8239ZM466.453 34.6339C468.147 34.6339 468.581 32.9399 468.581 30.6859V30.5179C468.581 28.2639 468.147 26.5699 466.453 26.5699C464.759 26.5699 464.325 28.2639 464.325 30.5179V30.6859C464.325 32.9399 464.759 34.6339 466.453 34.6339Z" fill="#17171B"/>
<path d="M409.008 80.684C409.904 81.342 411.066 81.636 411.948 81.636C413.054 81.636 413.768 81.202 413.768 80.334C413.768 79.83 413.53 79.48 412.872 79.242C412.214 79.004 410.968 78.822 410.17 78.458C409.372 78.094 408.924 77.45 408.924 76.47C408.924 75.07 409.918 74.202 411.388 74.02V72.27H412.424V74.006C413.208 74.076 414.034 74.286 414.636 74.622V75.938C413.796 75.406 412.76 75.168 411.948 75.168C410.926 75.168 410.212 75.56 410.212 76.372C410.212 76.932 410.52 77.24 411.206 77.464C411.892 77.688 413.11 77.856 413.88 78.248C414.664 78.64 415.056 79.298 415.056 80.236C415.056 81.748 413.95 82.63 412.424 82.784V84.534H411.388V82.784C410.562 82.714 409.68 82.476 409.008 82.056V80.684ZM423.151 83.47H416.613V83.442L419.749 79.452C420.827 78.08 421.429 77.24 421.429 76.218C421.429 75.014 420.575 74.37 419.455 74.37C418.489 74.37 417.621 74.832 416.935 75.574V74.23C417.523 73.628 418.503 73.18 419.581 73.18C421.345 73.18 422.731 74.286 422.731 76.134C422.731 77.534 421.947 78.612 420.813 80.012L418.979 82.28L418.993 82.308H423.151V83.47ZM429.083 83.47V80.88H424.001V80.852L429.069 73.334H430.385V79.704H432.359V80.88H430.385V83.47H429.083ZM429.083 77.52C429.083 76.778 429.097 75.924 429.111 75.21H429.083C428.677 75.854 428.173 76.624 427.655 77.394L426.115 79.676L426.129 79.704H429.083V77.52ZM439.327 74.51H435.407L435.211 77.142H435.477C438.179 77.142 439.649 78.458 439.649 80.39C439.649 82.336 438.179 83.624 436.107 83.624C435.141 83.624 434.217 83.358 433.559 82.91V81.496C434.343 82.14 435.211 82.434 436.065 82.434C437.409 82.434 438.347 81.65 438.347 80.404C438.347 78.948 436.975 78.234 435.071 78.234C434.679 78.234 434.301 78.248 433.937 78.304L434.315 73.334H439.327V74.51ZM441.258 85.528L442.042 81.566H443.316L442.182 85.528H441.258ZM448.906 79.074L448.878 79.046C448.542 79.27 448.024 79.452 447.38 79.452C445.742 79.452 444.314 78.206 444.314 76.4C444.314 74.538 445.798 73.18 447.786 73.18C449.746 73.18 451.174 74.496 451.174 76.442C451.174 77.632 450.656 78.57 449.956 79.69L447.59 83.47H446.148L448.906 79.074ZM447.73 78.318C449.018 78.318 449.844 77.422 449.844 76.372C449.844 75.336 448.99 74.37 447.744 74.37C446.61 74.37 445.616 75.154 445.616 76.358C445.616 77.45 446.456 78.318 447.73 78.318ZM453.581 83.47L457.361 74.51H452.559V73.334H459.167L459.181 73.362L454.953 83.47H453.581ZM463.839 83.624C461.767 83.624 460.437 82.392 460.437 80.656C460.437 79.508 461.053 78.584 462.131 78.178V78.15C461.207 77.758 460.717 76.974 460.717 75.952C460.717 74.342 461.935 73.18 463.839 73.18C465.743 73.18 466.961 74.342 466.961 75.952C466.961 76.974 466.471 77.758 465.547 78.15V78.178C466.625 78.584 467.241 79.508 467.241 80.656C467.241 82.392 465.911 83.624 463.839 83.624ZM463.839 77.66C464.847 77.66 465.687 76.974 465.687 76.008C465.687 75.042 464.875 74.356 463.839 74.356C462.803 74.356 461.991 75.042 461.991 76.008C461.991 76.974 462.831 77.66 463.839 77.66ZM463.839 82.448C465.015 82.448 465.939 81.706 465.939 80.6C465.939 79.494 465.001 78.724 463.839 78.724C462.677 78.724 461.739 79.494 461.739 80.6C461.739 81.706 462.663 82.448 463.839 82.448Z" fill="#17171B"/>
<path d="M409.008 128.484C409.904 129.142 411.066 129.436 411.948 129.436C413.054 129.436 413.768 129.002 413.768 128.134C413.768 127.63 413.53 127.28 412.872 127.042C412.214 126.804 410.968 126.622 410.17 126.258C409.372 125.894 408.924 125.25 408.924 124.27C408.924 122.87 409.918 122.002 411.388 121.82V120.07H412.424V121.806C413.208 121.876 414.034 122.086 414.636 122.422V123.738C413.796 123.206 412.76 122.968 411.948 122.968C410.926 122.968 410.212 123.36 410.212 124.172C410.212 124.732 410.52 125.04 411.206 125.264C411.892 125.488 413.11 125.656 413.88 126.048C414.664 126.44 415.056 127.098 415.056 128.036C415.056 129.548 413.95 130.43 412.424 130.584V132.334H411.388V130.584C410.562 130.514 409.68 130.276 409.008 129.856V128.484ZM423.151 131.27H416.613V131.242L419.749 127.252C420.827 125.88 421.429 125.04 421.429 124.018C421.429 122.814 420.575 122.17 419.455 122.17C418.489 122.17 417.621 122.632 416.935 123.374V122.03C417.523 121.428 418.503 120.98 419.581 120.98C421.345 120.98 422.731 122.086 422.731 123.934C422.731 125.334 421.947 126.412 420.813 127.812L418.979 130.08L418.993 130.108H423.151V131.27ZM428.226 131.424C425.664 131.424 424.796 129.24 424.796 126.328V126.076C424.796 123.164 425.664 120.98 428.226 120.98C430.788 120.98 431.656 123.164 431.656 126.076V126.328C431.656 129.24 430.788 131.424 428.226 131.424ZM428.226 130.234C429.92 130.234 430.354 128.54 430.354 126.286V126.118C430.354 123.864 429.92 122.17 428.226 122.17C426.532 122.17 426.098 123.864 426.098 126.118V126.286C426.098 128.54 426.532 130.234 428.226 130.234ZM436.881 131.424C434.319 131.424 433.451 129.24 433.451 126.328V126.076C433.451 123.164 434.319 120.98 436.881 120.98C439.443 120.98 440.311 123.164 440.311 126.076V126.328C440.311 129.24 439.443 131.424 436.881 131.424ZM436.881 130.234C438.575 130.234 439.009 128.54 439.009 126.286V126.118C439.009 123.864 438.575 122.17 436.881 122.17C435.187 122.17 434.753 123.864 434.753 126.118V126.286C434.753 128.54 435.187 130.234 436.881 130.234ZM441.928 133.328L442.712 129.366H443.986L442.852 133.328H441.928ZM449.24 131.424C446.678 131.424 445.81 129.24 445.81 126.328V126.076C445.81 123.164 446.678 120.98 449.24 120.98C451.802 120.98 452.67 123.164 452.67 126.076V126.328C452.67 129.24 451.802 131.424 449.24 131.424ZM449.24 130.234C450.934 130.234 451.368 128.54 451.368 126.286V126.118C451.368 123.864 450.934 122.17 449.24 122.17C447.546 122.17 447.112 123.864 447.112 126.118V126.286C447.112 128.54 447.546 130.234 449.24 130.234ZM457.894 131.424C455.332 131.424 454.464 129.24 454.464 126.328V126.076C454.464 123.164 455.332 120.98 457.894 120.98C460.456 120.98 461.324 123.164 461.324 126.076V126.328C461.324 129.24 460.456 131.424 457.894 131.424ZM457.894 130.234C459.588 130.234 460.022 128.54 460.022 126.286V126.118C460.022 123.864 459.588 122.17 457.894 122.17C456.2 122.17 455.766 123.864 455.766 126.118V126.286C455.766 128.54 456.2 130.234 457.894 130.234ZM466.549 131.424C463.987 131.424 463.119 129.24 463.119 126.328V126.076C463.119 123.164 463.987 120.98 466.549 120.98C469.111 120.98 469.979 123.164 469.979 126.076V126.328C469.979 129.24 469.111 131.424 466.549 131.424ZM466.549 130.234C468.243 130.234 468.677 128.54 468.677 126.286V126.118C468.677 123.864 468.243 122.17 466.549 122.17C464.855 122.17 464.421 123.864 464.421 126.118V126.286C464.421 128.54 464.855 130.234 466.549 130.234Z" fill="#17171B"/>
<path d="M409.008 176.284C409.904 176.942 411.066 177.236 411.948 177.236C413.054 177.236 413.768 176.802 413.768 175.934C413.768 175.43 413.53 175.08 412.872 174.842C412.214 174.604 410.968 174.422 410.17 174.058C409.372 173.694 408.924 173.05 408.924 172.07C408.924 170.67 409.918 169.802 411.388 169.62V167.87H412.424V169.606C413.208 169.676 414.034 169.886 414.636 170.222V171.538C413.796 171.006 412.76 170.768 411.948 170.768C410.926 170.768 410.212 171.16 410.212 171.972C410.212 172.532 410.52 172.84 411.206 173.064C411.892 173.288 413.11 173.456 413.88 173.848C414.664 174.24 415.056 174.898 415.056 175.836C415.056 177.348 413.95 178.23 412.424 178.384V180.134H411.388V178.384C410.562 178.314 409.68 178.076 409.008 177.656V176.284ZM419.469 179.07V170.95L417.131 172.406V170.992L420.757 168.766V179.07H419.469ZM429.77 170.11H425.85L425.654 172.742H425.92C428.622 172.742 430.092 174.058 430.092 175.99C430.092 177.936 428.622 179.224 426.55 179.224C425.584 179.224 424.66 178.958 424.002 178.51V177.096C424.786 177.74 425.654 178.034 426.508 178.034C427.852 178.034 428.79 177.25 428.79 176.004C428.79 174.548 427.418 173.834 425.514 173.834C425.122 173.834 424.744 173.848 424.38 173.904L424.758 168.934H429.77V170.11ZM435.103 179.224C432.541 179.224 431.673 177.04 431.673 174.128V173.876C431.673 170.964 432.541 168.78 435.103 168.78C437.665 168.78 438.533 170.964 438.533 173.876V174.128C438.533 177.04 437.665 179.224 435.103 179.224ZM435.103 178.034C436.797 178.034 437.231 176.34 437.231 174.086V173.918C437.231 171.664 436.797 169.97 435.103 169.97C433.409 169.97 432.975 171.664 432.975 173.918V174.086C432.975 176.34 433.409 178.034 435.103 178.034ZM440.151 181.128L440.935 177.166H442.209L441.075 181.128H440.151ZM447.463 179.224C444.901 179.224 444.033 177.04 444.033 174.128V173.876C444.033 170.964 444.901 168.78 447.463 168.78C450.025 168.78 450.893 170.964 450.893 173.876V174.128C450.893 177.04 450.025 179.224 447.463 179.224ZM447.463 178.034C449.157 178.034 449.591 176.34 449.591 174.086V173.918C449.591 171.664 449.157 169.97 447.463 169.97C445.769 169.97 445.335 171.664 445.335 173.918V174.086C445.335 176.34 445.769 178.034 447.463 178.034ZM456.117 179.224C453.555 179.224 452.687 177.04 452.687 174.128V173.876C452.687 170.964 453.555 168.78 456.117 168.78C458.679 168.78 459.547 170.964 459.547 173.876V174.128C459.547 177.04 458.679 179.224 456.117 179.224ZM456.117 178.034C457.811 178.034 458.245 176.34 458.245 174.086V173.918C458.245 171.664 457.811 169.97 456.117 169.97C454.423 169.97 453.989 171.664 453.989 173.918V174.086C453.989 176.34 454.423 178.034 456.117 178.034ZM464.771 179.224C462.209 179.224 461.341 177.04 461.341 174.128V173.876C461.341 170.964 462.209 168.78 464.771 168.78C467.333 168.78 468.201 170.964 468.201 173.876V174.128C468.201 177.04 467.333 179.224 464.771 179.224ZM464.771 178.034C466.465 178.034 466.899 176.34 466.899 174.086V173.918C466.899 171.664 466.465 169.97 464.771 169.97C463.077 169.97 462.643 171.664 462.643 173.918V174.086C462.643 176.34 463.077 178.034 464.771 178.034Z" fill="#17171B"/>
<path d="M409.008 224.084C409.904 224.742 411.066 225.036 411.948 225.036C413.054 225.036 413.768 224.602 413.768 223.734C413.768 223.23 413.53 222.88 412.872 222.642C412.214 222.404 410.968 222.222 410.17 221.858C409.372 221.494 408.924 220.85 408.924 219.87C408.924 218.47 409.918 217.602 411.388 217.42V215.67H412.424V217.406C413.208 217.476 414.034 217.686 414.636 218.022V219.338C413.796 218.806 412.76 218.568 411.948 218.568C410.926 218.568 410.212 218.96 410.212 219.772C410.212 220.332 410.52 220.64 411.206 220.864C411.892 221.088 413.11 221.256 413.88 221.648C414.664 222.04 415.056 222.698 415.056 223.636C415.056 225.148 413.95 226.03 412.424 226.184V227.934H411.388V226.184C410.562 226.114 409.68 225.876 409.008 225.456V224.084ZM419.469 226.87V218.75L417.131 220.206V218.792L420.757 216.566V226.87H419.469ZM427.488 227.024C424.926 227.024 424.058 224.84 424.058 221.928V221.676C424.058 218.764 424.926 216.58 427.488 216.58C430.05 216.58 430.918 218.764 430.918 221.676V221.928C430.918 224.84 430.05 227.024 427.488 227.024ZM427.488 225.834C429.182 225.834 429.616 224.14 429.616 221.886V221.718C429.616 219.464 429.182 217.77 427.488 217.77C425.794 217.77 425.36 219.464 425.36 221.718V221.886C425.36 224.14 425.794 225.834 427.488 225.834ZM436.142 227.024C433.58 227.024 432.712 224.84 432.712 221.928V221.676C432.712 218.764 433.58 216.58 436.142 216.58C438.704 216.58 439.572 218.764 439.572 221.676V221.928C439.572 224.84 438.704 227.024 436.142 227.024ZM436.142 225.834C437.836 225.834 438.27 224.14 438.27 221.886V221.718C438.27 219.464 437.836 217.77 436.142 217.77C434.448 217.77 434.014 219.464 434.014 221.718V221.886C434.014 224.14 434.448 225.834 436.142 225.834ZM441.19 228.928L441.974 224.966H443.248L442.114 228.928H441.19ZM448.502 227.024C445.94 227.024 445.072 224.84 445.072 221.928V221.676C445.072 218.764 445.94 216.58 448.502 216.58C451.064 216.58 451.932 218.764 451.932 221.676V221.928C451.932 224.84 451.064 227.024 448.502 227.024ZM448.502 225.834C450.196 225.834 450.63 224.14 450.63 221.886V221.718C450.63 219.464 450.196 217.77 448.502 217.77C446.808 217.77 446.374 219.464 446.374 221.718V221.886C446.374 224.14 446.808 225.834 448.502 225.834ZM457.156 227.024C454.594 227.024 453.726 224.84 453.726 221.928V221.676C453.726 218.764 454.594 216.58 457.156 216.58C459.718 216.58 460.586 218.764 460.586 221.676V221.928C460.586 224.84 459.718 227.024 457.156 227.024ZM457.156 225.834C458.85 225.834 459.284 224.14 459.284 221.886V221.718C459.284 219.464 458.85 217.77 457.156 217.77C455.462 217.77 455.028 219.464 455.028 221.718V221.886C455.028 224.14 455.462 225.834 457.156 225.834ZM465.81 227.024C463.248 227.024 462.38 224.84 462.38 221.928V221.676C462.38 218.764 463.248 216.58 465.81 216.58C468.372 216.58 469.24 218.764 469.24 221.676V221.928C469.24 224.84 468.372 227.024 465.81 227.024ZM465.81 225.834C467.504 225.834 467.938 224.14 467.938 221.886V221.718C467.938 219.464 467.504 217.77 465.81 217.77C464.116 217.77 463.682 219.464 463.682 221.718V221.886C463.682 224.14 464.116 225.834 465.81 225.834Z" fill="#17171B"/>
<path d="M409.008 271.884C409.904 272.542 411.066 272.836 411.948 272.836C413.054 272.836 413.768 272.402 413.768 271.534C413.768 271.03 413.53 270.68 412.872 270.442C412.214 270.204 410.968 270.022 410.17 269.658C409.372 269.294 408.924 268.65 408.924 267.67C408.924 266.27 409.918 265.402 411.388 265.22V263.47H412.424V265.206C413.208 265.276 414.034 265.486 414.636 265.822V267.138C413.796 266.606 412.76 266.368 411.948 266.368C410.926 266.368 410.212 266.76 410.212 267.572C410.212 268.132 410.52 268.44 411.206 268.664C411.892 268.888 413.11 269.056 413.88 269.448C414.664 269.84 415.056 270.498 415.056 271.436C415.056 272.948 413.95 273.83 412.424 273.984V275.734H411.388V273.984C410.562 273.914 409.68 273.676 409.008 273.256V271.884ZM422.647 265.71H418.727L418.531 268.342H418.797C421.499 268.342 422.969 269.658 422.969 271.59C422.969 273.536 421.499 274.824 419.427 274.824C418.461 274.824 417.537 274.558 416.879 274.11V272.696C417.663 273.34 418.531 273.634 419.385 273.634C420.729 273.634 421.667 272.85 421.667 271.604C421.667 270.148 420.295 269.434 418.391 269.434C417.999 269.434 417.621 269.448 417.257 269.504L417.635 264.534H422.647V265.71ZM427.98 274.824C425.418 274.824 424.55 272.64 424.55 269.728V269.476C424.55 266.564 425.418 264.38 427.98 264.38C430.542 264.38 431.41 266.564 431.41 269.476V269.728C431.41 272.64 430.542 274.824 427.98 274.824ZM427.98 273.634C429.674 273.634 430.108 271.94 430.108 269.686V269.518C430.108 267.264 429.674 265.57 427.98 265.57C426.286 265.57 425.852 267.264 425.852 269.518V269.686C425.852 271.94 426.286 273.634 427.98 273.634ZM433.028 276.728L433.812 272.766H435.086L433.952 276.728H433.028ZM440.34 274.824C437.778 274.824 436.91 272.64 436.91 269.728V269.476C436.91 266.564 437.778 264.38 440.34 264.38C442.902 264.38 443.77 266.564 443.77 269.476V269.728C443.77 272.64 442.902 274.824 440.34 274.824ZM440.34 273.634C442.034 273.634 442.468 271.94 442.468 269.686V269.518C442.468 267.264 442.034 265.57 440.34 265.57C438.646 265.57 438.212 267.264 438.212 269.518V269.686C438.212 271.94 438.646 273.634 440.34 273.634ZM448.994 274.824C446.432 274.824 445.564 272.64 445.564 269.728V269.476C445.564 266.564 446.432 264.38 448.994 264.38C451.556 264.38 452.424 266.564 452.424 269.476V269.728C452.424 272.64 451.556 274.824 448.994 274.824ZM448.994 273.634C450.688 273.634 451.122 271.94 451.122 269.686V269.518C451.122 267.264 450.688 265.57 448.994 265.57C447.3 265.57 446.866 267.264 446.866 269.518V269.686C446.866 271.94 447.3 273.634 448.994 273.634ZM457.648 274.824C455.086 274.824 454.218 272.64 454.218 269.728V269.476C454.218 266.564 455.086 264.38 457.648 264.38C460.21 264.38 461.078 266.564 461.078 269.476V269.728C461.078 272.64 460.21 274.824 457.648 274.824ZM457.648 273.634C459.342 273.634 459.776 271.94 459.776 269.686V269.518C459.776 267.264 459.342 265.57 457.648 265.57C455.954 265.57 455.52 267.264 455.52 269.518V269.686C455.52 271.94 455.954 273.634 457.648 273.634Z" fill="#17171B"/>
<path d="M37.1477 293.67V283.534H38.4357L42.0337 288.686L45.6317 283.534H46.9057V293.67H45.5757V287.958C45.5757 287.132 45.5897 286.362 45.6037 285.746H45.5757C45.1277 286.418 44.6797 287.09 44.2177 287.748L42.0057 290.912L39.7937 287.748C39.3317 287.09 38.8837 286.418 38.4357 285.746H38.4077C38.4217 286.362 38.4357 287.132 38.4357 287.958V293.67H37.1477ZM52.3149 293.824C50.2289 293.824 48.6749 292.256 48.6749 290.226C48.6749 288.196 50.2289 286.628 52.3149 286.628C54.4009 286.628 55.9549 288.196 55.9549 290.226C55.9549 292.256 54.4009 293.824 52.3149 293.824ZM52.3149 292.676C53.6869 292.676 54.6949 291.612 54.6949 290.226C54.6949 288.84 53.6869 287.776 52.3149 287.776C50.9429 287.776 49.9349 288.84 49.9349 290.226C49.9349 291.612 50.9429 292.676 52.3149 292.676ZM57.6958 293.67V286.782H58.9558V287.594L58.9838 287.608C59.5718 287.062 60.4118 286.628 61.3918 286.628C62.1338 286.628 62.7358 286.866 63.1838 287.342C63.6318 287.818 63.7998 288.448 63.7998 289.358V293.67H62.5398V289.498C62.5398 288.91 62.4558 288.49 62.1758 288.21C61.8958 287.93 61.5038 287.804 61.0698 287.804C60.2858 287.804 59.4738 288.224 58.9558 288.798V293.67H57.6958Z" fill="#747476"/>
<path d="M92.4574 293.67V284.738H89.0554V283.534H97.1894V284.738H93.7874V293.67H92.4574ZM101.998 293.67V292.984L101.97 292.97C101.326 293.502 100.514 293.824 99.6182 293.824C98.8622 293.824 98.2322 293.6 97.7702 293.11C97.3082 292.62 97.1542 292.032 97.1542 291.08V286.782H98.4142V290.856C98.4142 291.542 98.5262 291.962 98.8062 292.256C99.0862 292.55 99.4782 292.676 99.9682 292.676C100.738 292.676 101.452 292.312 101.998 291.836V286.782H103.258V293.67H101.998ZM111.179 293.18C110.549 293.586 109.597 293.824 108.729 293.824C106.545 293.824 104.991 292.438 104.991 290.254C104.991 288.056 106.531 286.628 108.407 286.628C110.101 286.628 111.557 287.804 111.557 289.974C111.557 290.184 111.543 290.464 111.529 290.618H106.265C106.433 291.948 107.441 292.69 108.813 292.69C109.709 292.69 110.521 292.368 111.179 291.892V293.18ZM106.279 289.596H110.339C110.241 288.252 109.261 287.762 108.393 287.762C107.441 287.762 106.489 288.364 106.279 289.596Z" fill="#747476"/>
<path d="M138.843 293.67L135.693 283.534H137.107L138.801 289.022C139.067 289.876 139.347 290.8 139.599 291.668H139.627C139.879 290.8 140.159 289.904 140.439 289.008L142.161 283.534H143.141L144.863 289.022C145.143 289.918 145.409 290.772 145.675 291.668H145.703C145.955 290.8 146.235 289.876 146.501 289.008L148.195 283.534H149.539L146.389 293.67H144.975L143.351 288.518C143.099 287.72 142.861 286.936 142.637 286.166H142.609C142.385 286.936 142.147 287.734 141.895 288.532L140.285 293.67H138.843ZM155.701 293.18C155.071 293.586 154.119 293.824 153.251 293.824C151.067 293.824 149.513 292.438 149.513 290.254C149.513 288.056 151.053 286.628 152.929 286.628C154.623 286.628 156.079 287.804 156.079 289.974C156.079 290.184 156.065 290.464 156.051 290.618H150.787C150.955 291.948 151.963 292.69 153.335 292.69C154.231 292.69 155.043 292.368 155.701 291.892V293.18ZM150.801 289.596H154.861C154.763 288.252 153.783 287.762 152.915 287.762C151.963 287.762 151.011 288.364 150.801 289.596ZM162.777 293.67V293.152L162.749 293.138C162.273 293.544 161.573 293.824 160.733 293.824C158.927 293.824 157.429 292.48 157.429 290.338C157.429 288.238 158.913 286.628 161.027 286.628C161.713 286.628 162.259 286.81 162.735 287.034L162.763 287.02V282.974H164.023V293.67H162.777ZM160.985 292.704C161.699 292.704 162.301 292.424 162.763 292.004V288.21C162.315 287.944 161.727 287.748 161.097 287.748C159.599 287.748 158.703 288.882 158.703 290.282C158.703 291.668 159.571 292.704 160.985 292.704Z" fill="#747476"/>
<path d="M191.416 293.67V284.738H188.014V283.534H196.148V284.738H192.746V293.67H191.416ZM197.536 293.67V282.974H198.796V287.594L198.824 287.608C199.412 287.062 200.252 286.628 201.232 286.628C201.974 286.628 202.576 286.866 203.024 287.342C203.472 287.818 203.64 288.448 203.64 289.358V293.67H202.38V289.498C202.38 288.91 202.296 288.49 202.016 288.21C201.736 287.93 201.344 287.804 200.91 287.804C200.126 287.804 199.314 288.224 198.796 288.798V293.67H197.536ZM210.637 293.67V292.984L210.609 292.97C209.965 293.502 209.153 293.824 208.257 293.824C207.501 293.824 206.871 293.6 206.409 293.11C205.947 292.62 205.793 292.032 205.793 291.08V286.782H207.053V290.856C207.053 291.542 207.165 291.962 207.445 292.256C207.725 292.55 208.117 292.676 208.607 292.676C209.377 292.676 210.091 292.312 210.637 291.836V286.782H211.897V293.67H210.637Z" fill="#747476"/>
<path d="M243.163 293.67V283.534H249.155V284.738H244.493V288H248.595V289.19H244.493V293.67H243.163ZM250.368 293.67V286.782H251.628V287.79L251.656 287.804C252.132 287.132 252.888 286.726 253.7 286.726C253.84 286.726 253.994 286.74 254.148 286.782V288.028C253.98 287.986 253.812 287.972 253.658 287.972C252.72 287.972 252.062 288.448 251.628 289.19V293.67H250.368ZM256.138 285.298C255.648 285.298 255.256 284.906 255.256 284.416C255.256 283.926 255.648 283.534 256.138 283.534C256.628 283.534 257.02 283.926 257.02 284.416C257.02 284.906 256.628 285.298 256.138 285.298ZM255.508 293.67V286.782H256.768V293.67H255.508Z" fill="#747476"/>
<path d="M290.252 291.514C291.218 292.284 292.492 292.606 293.402 292.606C294.662 292.606 295.488 292.032 295.488 290.954C295.488 290.324 295.222 289.89 294.508 289.554C293.794 289.218 292.478 288.994 291.596 288.56C290.714 288.126 290.154 287.398 290.154 286.222C290.154 284.444 291.484 283.38 293.458 283.38C294.41 283.38 295.544 283.632 296.342 284.108V285.494C295.432 284.878 294.298 284.598 293.458 284.598C292.268 284.598 291.47 285.13 291.47 286.124C291.47 286.824 291.82 287.216 292.534 287.524C293.248 287.832 294.634 288.056 295.502 288.546C296.37 289.036 296.804 289.82 296.804 290.856C296.804 292.718 295.446 293.824 293.43 293.824C292.394 293.824 291.148 293.53 290.252 292.956V291.514ZM304.721 293.642C304.511 293.712 304.231 293.796 303.909 293.796C303.265 293.796 302.775 293.53 302.537 293.04H302.509C302.033 293.446 301.277 293.81 300.339 293.81C298.995 293.81 297.959 293.082 297.959 291.78C297.959 290.324 299.107 289.652 300.801 289.652C301.277 289.652 301.823 289.708 302.327 289.778V289.204C302.327 288.21 301.669 287.762 300.493 287.762C299.681 287.762 298.981 288.014 298.505 288.322V287.174C298.995 286.866 299.765 286.628 300.717 286.628C302.551 286.628 303.573 287.468 303.573 289.008V291.976C303.573 292.354 303.727 292.69 304.245 292.69C304.427 292.69 304.595 292.648 304.721 292.578V293.642ZM300.577 292.732C301.249 292.732 301.907 292.494 302.327 292.116V290.744C301.907 290.674 301.361 290.632 300.941 290.632C300.017 290.632 299.219 290.884 299.219 291.696C299.219 292.41 299.835 292.732 300.577 292.732ZM305.145 287.93V286.782H306.447V284.948L307.707 284.64V286.782H309.779V287.93H307.707V291.332C307.707 292.242 308.071 292.69 308.813 292.69C309.163 292.69 309.513 292.592 309.779 292.48V293.586C309.485 293.726 309.023 293.824 308.547 293.824C307.133 293.824 306.447 292.956 306.447 291.444V287.93H305.145Z" fill="#747476"/>
<path d="M338.449 291.514C339.415 292.284 340.689 292.606 341.599 292.606C342.859 292.606 343.685 292.032 343.685 290.954C343.685 290.324 343.419 289.89 342.705 289.554C341.991 289.218 340.675 288.994 339.793 288.56C338.911 288.126 338.351 287.398 338.351 286.222C338.351 284.444 339.681 283.38 341.655 283.38C342.607 283.38 343.741 283.632 344.539 284.108V285.494C343.629 284.878 342.495 284.598 341.655 284.598C340.465 284.598 339.667 285.13 339.667 286.124C339.667 286.824 340.017 287.216 340.731 287.524C341.445 287.832 342.831 288.056 343.699 288.546C344.567 289.036 345.001 289.82 345.001 290.856C345.001 292.718 343.643 293.824 341.627 293.824C340.591 293.824 339.345 293.53 338.449 292.956V291.514ZM351.477 293.67V292.984L351.449 292.97C350.805 293.502 349.993 293.824 349.097 293.824C348.341 293.824 347.711 293.6 347.249 293.11C346.787 292.62 346.633 292.032 346.633 291.08V286.782H347.893V290.856C347.893 291.542 348.005 291.962 348.285 292.256C348.565 292.55 348.957 292.676 349.447 292.676C350.217 292.676 350.931 292.312 351.477 291.836V286.782H352.737V293.67H351.477ZM354.946 293.67V286.782H356.206V287.594L356.234 287.608C356.822 287.062 357.662 286.628 358.642 286.628C359.384 286.628 359.986 286.866 360.434 287.342C360.882 287.818 361.05 288.448 361.05 289.358V293.67H359.79V289.498C359.79 288.91 359.706 288.49 359.426 288.21C359.146 287.93 358.754 287.804 358.32 287.804C357.536 287.804 356.724 288.224 356.206 288.798V293.67H354.946Z" fill="#747476"/>
<defs>
<filter id="filter0_d_296_29796" x="38" y="125" width="125" height="75" filterUnits="userSpaceOnUse" color-interpolation-filters="sRGB">
<feFlood flood-opacity="0" result="BackgroundImageFix"/>
<feColorMatrix in="SourceAlpha" type="matrix" values="0 0 0 0 0 0 0 0 0 0 0 0 0 0 0 0 0 0 127 0" result="hardAlpha"/>
<feMorphology radius="8" operator="erode" in="SourceAlpha" result="effect1_dropShadow_296_29796"/>
<feOffset dy="4"/>
<feGaussianBlur stdDeviation="16"/>
<feComposite in2="hardAlpha" operator="out"/>
<feColorMatrix type="matrix" values="0 0 0 0 0.0901961 0 0 0 0 0.0901961 0 0 0 0 0.105882 0 0 0 0.08 0"/>
<feBlend mode="normal" in2="BackgroundImageFix" result="effect1_dropShadow_296_29796"/>
<feBlend mode="normal" in="SourceGraphic" in2="effect1_dropShadow_296_29796" result="shape"/>
</filter>
<linearGradient id="paint0_linear_296_29796" x1="200" y1="47.6699" x2="200" y2="268.67" gradientUnits="userSpaceOnUse">
<stop stop-color="#BD9542"/>
<stop offset="1" stop-color="#BD9542" stop-opacity="0.6"/>
</linearGradient>
<linearGradient id="paint1_linear_296_29796" x1="200" y1="167" x2="200" y2="269" gradientUnits="userSpaceOnUse">
<stop stop-color="#FFDD2B"/>
<stop offset="1" stop-color="#FFDD2B" stop-opacity="0.6"/>
</linearGradient>
<clipPath id="clip0_296_29796">
<rect y="29.6699" width="399.999" height="240" fill="white"/>
</clipPath>
</defs>
</svg>
