<svg width="180" height="181" viewBox="0 0 180 181" fill="none" xmlns="http://www.w3.org/2000/svg">
<path d="M39.842 165.759H140.156C142.913 165.766 145.571 164.724 147.596 162.843C156.047 154.972 162.807 145.444 167.462 134.847C172.117 124.25 174.567 112.807 174.662 101.222C175.095 54.1144 137.031 15.3536 90.2042 15.2424C43.3506 15.1312 5.33404 53.3086 5.33404 100.418C5.32067 112.144 7.72052 123.745 12.3825 134.491C17.0445 145.238 23.8677 154.897 32.4224 162.86C34.4438 164.733 37.0939 165.768 39.842 165.759Z" fill="url(#paint0_linear_638_29130)"/>
<path d="M103.497 27.5H72.5032C71.1209 27.5 70 27.737 70 28.0293V51.9707C70 52.2631 71.1209 52.5 72.5032 52.5H103.497C104.88 52.5 106 52.2631 106 51.9707V28.0293C106 27.737 104.88 27.5 103.497 27.5Z" fill="#BD9542"/>
<path d="M91.1751 31.4707H59.7644C58.3635 31.4707 57.2275 32.6062 57.2275 34.0072V148.742C57.2275 150.143 58.3635 151.279 59.7644 151.279H91.1751C92.5764 151.279 93.7119 150.143 93.7119 148.742V34.0072C93.7119 32.6062 92.5764 31.4707 91.1751 31.4707Z" fill="url(#paint1_linear_638_29130)"/>
<path d="M133.909 57.7346L112.339 79.3044L98.1064 36.9013L111.181 36.8691C112 36.8672 112.787 37.1859 113.375 37.757L133.909 57.7346Z" fill="url(#paint2_linear_638_29130)"/>
<path d="M96.5354 37.5196L77.9649 56.0901C77.1367 56.9183 77.1367 58.2612 77.9649 59.0898L96.6808 77.8053C97.509 78.6335 98.8519 78.6335 99.6802 77.8053L118.251 59.2349C119.079 58.4066 119.079 57.0637 118.251 56.2355L99.5348 37.5196C98.7065 36.6914 97.3636 36.6914 96.5354 37.5196Z" fill="url(#paint3_linear_638_29130)"/>
<path d="M141.081 165.518H61.932C61.2151 165.518 60.5056 165.371 59.8475 165.087C59.1894 164.803 58.5959 164.388 58.1044 163.866C57.6125 163.345 57.2323 162.729 56.9873 162.055C56.7419 161.381 56.6372 160.665 56.6788 159.949L62.9029 53.3746C62.9821 52.0223 63.5748 50.7515 64.5602 49.8222C65.5456 48.8924 66.8489 48.375 68.2032 48.375H134.81C136.164 48.375 137.467 48.8924 138.453 49.8222C139.438 50.7515 140.031 52.0223 140.11 53.3746L146.334 159.949C146.376 160.665 146.271 161.381 146.026 162.055C145.781 162.729 145.4 163.345 144.909 163.866C144.417 164.388 143.824 164.803 143.165 165.087C142.507 165.371 141.798 165.518 141.081 165.518Z" fill="#DCDCDC"/>
<path d="M122.841 165.518H43.6918C42.9749 165.518 42.2654 165.371 41.6073 165.087C40.9491 164.803 40.3557 164.388 39.8642 163.866C39.3722 163.345 38.992 162.729 38.747 162.055C38.5017 161.381 38.397 160.665 38.4386 159.949L44.6627 53.3746C44.7419 52.0223 45.3345 50.7515 46.3199 49.8222C47.3054 48.8924 48.6087 48.375 49.9629 48.375H116.57C117.924 48.375 119.227 48.8924 120.213 49.8222C121.198 50.7515 121.791 52.0223 121.87 53.3746L128.094 159.949C128.135 160.665 128.031 161.381 127.785 162.055C127.54 162.729 127.16 163.345 126.668 163.866C126.177 164.388 125.583 164.803 124.925 165.087C124.267 165.371 123.558 165.518 122.841 165.518Z" fill="#EBEBEB"/>
<path d="M60.5356 67.7822C63.1215 67.7822 65.2177 65.6859 65.2177 63.1001C65.2177 60.5142 63.1215 58.418 60.5356 58.418C57.9498 58.418 55.8535 60.5142 55.8535 63.1001C55.8535 65.6859 57.9498 67.7822 60.5356 67.7822Z" fill="white"/>
<path d="M106.029 67.7822C108.615 67.7822 110.711 65.6859 110.711 63.1001C110.711 60.5142 108.615 58.418 106.029 58.418C103.443 58.418 101.347 60.5142 101.347 63.1001C101.347 65.6859 103.443 67.7822 106.029 67.7822Z" fill="white"/>
<path d="M60.5413 66.4303C62.3801 66.4303 63.8703 64.9396 63.8703 63.1009C63.8703 61.2622 62.3801 59.7715 60.5413 59.7715C58.7026 59.7715 57.2119 61.2622 57.2119 63.1009C57.2119 64.9396 58.7026 66.4303 60.5413 66.4303Z" fill="#DCDCDC"/>
<path d="M106.034 66.4303C107.873 66.4303 109.364 64.9396 109.364 63.1009C109.364 61.2622 107.873 59.7715 106.034 59.7715C104.196 59.7715 102.705 61.2622 102.705 63.1009C102.705 64.9396 104.196 66.4303 106.034 66.4303Z" fill="#DCDCDC"/>
<path d="M83.2671 113.122C76.8219 113.115 70.6429 110.552 66.0854 105.994C61.528 101.437 58.9641 95.2575 58.957 88.8123V63.4859C58.957 63.07 59.1221 62.6713 59.416 62.3774C59.71 62.083 60.109 61.918 60.5249 61.918C60.9408 61.918 61.3394 62.083 61.6334 62.3774C61.9274 62.6713 62.0928 63.07 62.0928 63.4859V88.8123C62.0952 94.4266 64.327 99.8099 68.2977 103.779C72.2684 107.748 77.6529 109.978 83.2671 109.978C88.881 109.978 94.2655 107.748 98.2362 103.779C102.207 99.8099 104.439 94.4266 104.441 88.8123V63.4859C104.441 63.07 104.606 62.6713 104.9 62.3774C105.194 62.083 105.593 61.918 106.009 61.918C106.425 61.918 106.824 62.083 107.118 62.3774C107.412 62.6713 107.577 63.07 107.577 63.4859V88.8123C107.57 95.2575 105.006 101.437 100.449 105.994C95.8914 110.552 89.7123 113.115 83.2671 113.122Z" fill="white"/>
<defs>
<linearGradient id="paint0_linear_638_29130" x1="89.9999" y1="15.2422" x2="89.9999" y2="165.759" gradientUnits="userSpaceOnUse">
<stop stop-color="#FDFDFD"/>
<stop offset="1" stop-color="#F5F5F5"/>
</linearGradient>
<linearGradient id="paint1_linear_638_29130" x1="75.4697" y1="31.4707" x2="75.4697" y2="151.279" gradientUnits="userSpaceOnUse">
<stop stop-color="#FFDD2B"/>
<stop offset="0.307292" stop-color="#FFD02B"/>
</linearGradient>
<linearGradient id="paint2_linear_638_29130" x1="116.008" y1="36.8691" x2="116.008" y2="79.3044" gradientUnits="userSpaceOnUse">
<stop stop-color="#FFDD2B"/>
<stop offset="0.307292" stop-color="#FFD02B"/>
</linearGradient>
<linearGradient id="paint3_linear_638_29130" x1="98.1078" y1="36.8984" x2="98.1078" y2="53.0005" gradientUnits="userSpaceOnUse">
<stop stop-color="#BD9542"/>
<stop offset="1" stop-color="#FFAD00"/>
</linearGradient>
</defs>
</svg>
