<svg width="108" height="99" viewBox="0 0 108 99" fill="none" xmlns="https://www.w3.org/2000/svg">
<g id="Group 39">
<g id="Subtract">
<path fill-rule="evenodd" clip-rule="evenodd" d="M54.0003 3.83111C55.7479 3.83111 57.1647 2.41438 57.1647 0.666748H70.1523L78.1286 49.7143L70.1523 98.7619L57.1647 98.7619C57.1647 97.0143 55.7479 95.5975 54.0003 95.5975C52.2527 95.5975 50.836 97.0143 50.836 98.7619L37.8484 98.7619L29.8721 49.7143L37.8484 0.666748H50.836C50.836 2.41438 52.2527 3.83111 54.0003 3.83111ZM54.0004 10.1598C54.8742 10.1598 55.5826 9.45146 55.5826 8.57765C55.5826 7.70384 54.8742 6.99547 54.0004 6.99547C53.1266 6.99547 52.4182 7.70384 52.4182 8.57765C52.4182 9.45146 53.1266 10.1598 54.0004 10.1598ZM55.5826 90.851C55.5826 89.9772 54.8742 89.2688 54.0004 89.2688C53.1266 89.2688 52.4182 89.9772 52.4182 90.851C52.4182 91.7248 53.1266 92.4332 54.0004 92.4332C54.8742 92.4332 55.5826 91.7248 55.5826 90.851Z" fill="#AFAFAF"/>
<path fill-rule="evenodd" clip-rule="evenodd" d="M54.0003 3.83111C55.7479 3.83111 57.1647 2.41438 57.1647 0.666748H70.1523L78.1286 49.7143L70.1523 98.7619L57.1647 98.7619C57.1647 97.0143 55.7479 95.5975 54.0003 95.5975C52.2527 95.5975 50.836 97.0143 50.836 98.7619L37.8484 98.7619L29.8721 49.7143L37.8484 0.666748H50.836C50.836 2.41438 52.2527 3.83111 54.0003 3.83111ZM54.0004 10.1598C54.8742 10.1598 55.5826 9.45146 55.5826 8.57765C55.5826 7.70384 54.8742 6.99547 54.0004 6.99547C53.1266 6.99547 52.4182 7.70384 52.4182 8.57765C52.4182 9.45146 53.1266 10.1598 54.0004 10.1598ZM55.5826 90.851C55.5826 89.9772 54.8742 89.2688 54.0004 89.2688C53.1266 89.2688 52.4182 89.9772 52.4182 90.851C52.4182 91.7248 53.1266 92.4332 54.0004 92.4332C54.8742 92.4332 55.5826 91.7248 55.5826 90.851Z" fill="url(#paint0_linear_609_150)"/>
</g>
<path id="Ellipse 10" d="M88.8083 49.7143C88.8083 68.9382 73.2243 84.5223 54.0003 84.5223C34.7764 84.5223 19.1924 68.9382 19.1924 49.7143C19.1924 30.4904 34.7764 14.9064 54.0003 14.9064C73.2243 14.9064 88.8083 30.4904 88.8083 49.7143Z" fill="url(#paint1_linear_609_150)"/>
<path id="Ellipse 10 (Stroke)" fill-rule="evenodd" clip-rule="evenodd" d="M54.0003 83.7312C72.7873 83.7312 88.0172 68.5013 88.0172 49.7143C88.0172 30.9273 72.7873 15.6975 54.0003 15.6975C35.2133 15.6975 19.9835 30.9273 19.9835 49.7143C19.9835 68.5013 35.2133 83.7312 54.0003 83.7312ZM54.0003 84.5223C73.2243 84.5223 88.8083 68.9382 88.8083 49.7143C88.8083 30.4904 73.2243 14.9064 54.0003 14.9064C34.7764 14.9064 19.1924 30.4904 19.1924 49.7143C19.1924 68.9382 34.7764 84.5223 54.0003 84.5223Z" fill="white"/>
<ellipse id="Ellipse 11" cx="53.9999" cy="49.7144" rx="30.0614" ry="30.0614" fill="#17171B"/>
<path id="Union" fill-rule="evenodd" clip-rule="evenodd" d="M53.605 31.9148C53.605 32.1332 53.7821 32.3103 54.0006 32.3103C54.219 32.3103 54.3961 32.1332 54.3961 31.9148V23.2128C54.3961 22.9944 54.219 22.8173 54.0006 22.8173C53.7821 22.8173 53.605 22.9944 53.605 23.2128V31.9148ZM34.9816 30.6952C35.136 30.5407 35.3865 30.5407 35.5409 30.6952L41.6942 36.8485C41.8486 37.0029 41.8486 37.2534 41.6942 37.4078C41.5397 37.5623 41.2893 37.5623 41.1348 37.4078L34.9816 31.2546C34.8271 31.1001 34.8271 30.8497 34.9816 30.6952ZM27.4991 49.3188C27.2806 49.3188 27.1035 49.4959 27.1035 49.7143C27.1035 49.9328 27.2806 50.1099 27.4991 50.1099H36.201C36.4195 50.1099 36.5966 49.9328 36.5966 49.7143C36.5966 49.4959 36.4195 49.3188 36.201 49.3188H27.4991ZM71.8001 49.3188C71.5816 49.3188 71.4046 49.4959 71.4046 49.7143C71.4046 49.9328 71.5816 50.1099 71.8001 50.1099H80.5021C80.7205 50.1099 80.8976 49.9328 80.8976 49.7143C80.8976 49.4959 80.7205 49.3188 80.5021 49.3188H71.8001ZM66.8662 62.0208C66.7118 61.8663 66.4613 61.8663 66.3069 62.0208C66.1524 62.1752 66.1524 62.4257 66.3069 62.5801L72.4601 68.7334C72.6146 68.8879 72.865 68.8879 73.0195 68.7334C73.174 68.5789 73.174 68.3285 73.0195 68.174L66.8662 62.0208ZM54.0006 76.6114C53.7821 76.6114 53.605 76.4343 53.605 76.2158V67.5139C53.605 67.2954 53.7821 67.1183 54.0006 67.1183C54.219 67.1183 54.3961 67.2954 54.3961 67.5138V76.2158C54.3961 76.4343 54.219 76.6114 54.0006 76.6114ZM34.9816 68.7334C34.8271 68.579 34.8271 68.3285 34.9816 68.1741L41.1348 62.0208C41.2893 61.8663 41.5398 61.8663 41.6942 62.0208C41.8487 62.1753 41.8487 62.4257 41.6942 62.5802L35.541 68.7334C35.3865 68.8879 35.1361 68.8879 34.9816 68.7334ZM66.3069 36.8485C66.1524 37.0029 66.1524 37.2534 66.3069 37.4078C66.4614 37.5623 66.7118 37.5623 66.8663 37.4078L73.0195 31.2546C73.174 31.1001 73.174 30.8497 73.0195 30.6952C72.8651 30.5408 72.6146 30.5408 72.4602 30.6952L66.3069 36.8485Z" fill="url(#paint2_linear_609_150)"/>
<rect id="Rectangle 2143" x="52.8135" y="48.5277" width="2.37327" height="2.37327" rx="1.18663" fill="#F0F0F0"/>
<rect id="Rectangle 2146" x="8.00684" y="21.7897" width="15.8218" height="2.37327" rx="1.18663" transform="rotate(30 8.00684 21.7897)" fill="#BD9542"/>
<rect id="Rectangle 2147" x="87.4785" y="67.6729" width="15.8218" height="2.37327" rx="1.18663" transform="rotate(30 87.4785 67.6729)" fill="#BD9542"/>
<rect id="Rectangle 2148" x="28.1309" y="2.53394" width="7.92475" height="2.37327" rx="1.18664" transform="rotate(60 28.1309 2.53394)" fill="white"/>
<rect id="Rectangle 2149" width="7.97313" height="2.37327" rx="1.18663" transform="matrix(0.5 0.866026 -0.866025 0.5 77.9385 88.8031)" fill="white"/>
<rect id="Rectangle 2150" x="26.0752" y="95.7081" width="7.92475" height="2.37327" rx="1.18664" transform="rotate(-60 26.0752 95.7081)" fill="white"/>
<rect id="Rectangle 2151" x="75.8838" y="9.43884" width="7.97313" height="2.37327" rx="1.18663" transform="rotate(-60 75.8838 9.43884)" fill="white"/>
<rect id="Rectangle 2141" x="6.82031" y="75.5837" width="15.8218" height="2.37327" rx="1.18663" transform="rotate(-30 6.82031 75.5837)" fill="#BD9542"/>
<rect id="Rectangle 2144" x="0.206055" y="48.5277" width="15.8218" height="2.37327" rx="1.18664" fill="white"/>
<rect id="Rectangle 2142" x="86.292" y="29.7004" width="15.8218" height="2.37327" rx="1.18663" transform="rotate(-30 86.292 29.7004)" fill="#BD9542"/>
<rect id="Rectangle 2145" x="91.9727" y="48.5277" width="15.8218" height="2.37327" rx="1.18664" fill="white"/>
</g>
<defs>
<linearGradient id="paint0_linear_609_150" x1="29.8721" y1="98.7505" x2="78.1286" y2="0.662409" gradientUnits="userSpaceOnUse">
<stop stop-color="#BD9542"/>
<stop offset="0.25" stop-color="#E1C079"/>
<stop offset="0.5" stop-color="#BD9542"/>
<stop offset="0.75" stop-color="#E1C079"/>
<stop offset="1" stop-color="#BD9542"/>
</linearGradient>
<linearGradient id="paint1_linear_609_150" x1="54.0003" y1="14.9064" x2="54.0003" y2="84.5223" gradientUnits="userSpaceOnUse">
<stop stop-color="#DEDEDE"/>
<stop offset="0.333333" stop-color="#F5F5F5"/>
<stop offset="0.666667" stop-color="#DEDEDE"/>
<stop offset="1" stop-color="#F5F5F5"/>
</linearGradient>
<linearGradient id="paint2_linear_609_150" x1="54.0006" y1="16.093" x2="54.0006" y2="92.0376" gradientUnits="userSpaceOnUse">
<stop stop-color="white"/>
<stop offset="1" stop-color="white" stop-opacity="0.64"/>
</linearGradient>
</defs>
</svg>
