<svg width="242" height="46" viewBox="0 0 242 46" fill="none" xmlns="https://www.w3.org/2000/svg">
<path id="image 9 (Traced)" fill-rule="evenodd" clip-rule="evenodd" d="M129.453 0.219156C129.368 0.442684 129.38 0.502843 129.523 0.582894C129.958 0.826218 130.691 1.64278 131.295 2.5564C131.658 3.10638 131.955 3.6037 131.954 3.66155C131.954 3.7195 131.641 3.93659 131.258 4.14407C127.969 5.92653 125.483 8.06571 125.276 9.29261C125.19 9.80012 125.444 10.6454 125.807 11.0579C126.377 11.7077 127.793 12.1275 129.168 12.0542C130.769 11.9691 132.319 11.3402 134.528 9.88007C135.177 9.45128 135.744 9.10042 135.788 9.10042C135.832 9.10042 136.454 9.6577 137.17 10.3389C138.361 11.4713 138.528 11.5966 139.13 11.8011C139.865 12.0515 141.208 12.1054 141.691 11.9039C141.962 11.7914 141.962 11.7914 141.644 11.349C141.333 10.9155 141.317 10.9076 140.893 10.9561C139.526 11.1124 138.134 10.3409 136.948 8.76906L136.525 8.2089L136.955 7.83449C137.976 6.94499 138.695 6.58279 139.657 6.47247C140.4 6.38732 140.577 6.54012 140.687 7.36389C140.793 8.16238 141.061 8.42772 141.759 8.42772C142.15 8.42772 142.29 8.3764 142.571 8.12942C142.861 7.87447 142.911 7.77097 142.911 7.41617C142.911 7.09548 142.839 6.90867 142.598 6.59423C142.167 6.03175 141.904 5.86223 141.181 5.67936C139.789 5.32725 138.189 5.80035 136.536 7.05262C136.227 7.28624 135.94 7.46412 135.897 7.44798C135.725 7.3833 134.241 5.46592 134.018 5.02136C133.711 4.40575 133.717 4.16165 134.045 3.92947C134.683 3.47857 136.205 2.81597 137.974 2.21947C139.024 1.86535 139.923 1.53986 139.972 1.49623C140.025 1.44914 139.99 1.33805 139.885 1.22253C139.736 1.05791 139.59 1.02793 138.931 1.02755C137.66 1.02668 134.596 0.846399 133.204 0.690429C132.052 0.561271 130.181 0.199648 129.722 0.0176344C129.597 -0.031857 129.53 0.0189798 129.453 0.219156ZM109.179 0.504668C107.897 0.681973 105.48 0.816705 101.347 0.941346C99.3917 1.00035 97.4673 1.07646 97.0709 1.11039C96.428 1.16555 96.3469 1.19467 96.3205 1.38014C96.2852 1.6275 96.3615 1.65739 97.4927 1.84046C98.3622 1.98124 98.9136 2.23994 99.108 2.5982C99.1829 2.73649 99.2582 4.10659 99.3332 6.69792C99.4457 10.59 99.4457 10.59 99.2128 10.9043C98.8748 11.3607 98.6113 11.5003 97.8731 11.6144C97.123 11.7303 96.8787 11.8336 96.8787 12.0348C96.8787 12.1498 97.0685 12.1756 97.9117 12.1754C99.2902 12.1751 102.555 12.03 107.69 11.741C110.016 11.6102 111.929 11.503 111.942 11.503C112.055 11.5026 111.739 7.22234 111.616 7.08847C111.595 7.0654 111.463 7.08703 111.323 7.13652C111.112 7.21119 111.05 7.31642 110.96 7.75502C110.819 8.43838 110.608 8.82797 110.058 9.41562C109.378 10.1434 108.949 10.3817 107.642 10.7603C105.447 11.3959 104.298 11.4593 103.174 11.0069C102.66 10.8 102.604 10.7477 102.476 10.3497C102.39 10.0825 102.318 9.32759 102.288 8.37332C102.229 6.526 102.235 6.51312 103.156 6.49226C104.635 6.45882 105.18 6.58164 105.735 7.07444C106.098 7.39637 106.138 7.48142 106.237 8.13231C106.354 8.90591 106.489 9.07341 106.906 8.96857C107.161 8.90476 107.161 8.90158 107.16 7.96942C107.16 7.07405 107.037 4.91661 106.915 3.64675C106.867 3.14126 106.829 3.04612 106.675 3.04612C106.41 3.04612 106.225 3.399 106.147 4.05517C106.088 4.55749 106.031 4.6779 105.705 4.98994C105.207 5.46784 104.514 5.66446 103.35 5.65812C101.975 5.65072 102.068 5.75153 102.069 4.26496C102.069 2.24667 102.208 1.96644 103.317 1.74743C106.662 1.08675 109.567 1.9429 110.235 3.78609C110.354 4.1137 110.529 4.45216 110.624 4.53807C110.842 4.73604 111.363 4.69683 111.294 4.48762C111.267 4.40834 111.26 3.62993 111.276 2.75783C111.312 0.944998 111.257 0.698598 110.769 0.494866C110.388 0.335533 110.403 0.335437 109.179 0.504668ZM133.733 1.60357C135.424 1.73628 135.928 1.80442 135.832 1.88697C135.787 1.92522 135.275 2.16662 134.694 2.4234C133.407 2.99183 132.73 3.08697 132.313 2.75811C132.01 2.5195 131.667 1.90484 131.667 1.60261C131.667 1.42088 131.708 1.40589 132.075 1.45308C132.3 1.48181 133.046 1.54956 133.733 1.60357ZM90.0727 2.32538C89.6331 2.88823 89.5438 2.92004 88.8549 2.76032C88.6438 2.71141 87.9012 2.62002 87.2048 2.55717C84.5091 2.31413 81.9432 2.85527 80.1088 4.05364C78.4169 5.15888 76.9952 7.44423 76.9885 9.06938C76.9864 9.56083 77.0424 9.77138 77.3138 10.2919C78.3326 12.2466 79.6588 13.1997 82.2234 13.8204C83.3359 14.0895 85.4896 14.1138 86.6091 13.8698C88.2105 13.5209 89.578 12.9371 90.5916 12.1699C91.0908 11.7922 91.2557 11.7135 91.3934 11.7872C91.6531 11.9262 92.114 12.4817 92.2581 12.8295C92.3452 13.0399 92.4497 13.1361 92.5898 13.1352C93.0766 13.1316 93.0844 13.0803 92.8574 11.3908C92.7414 10.5275 92.6473 9.46828 92.6483 9.03689C92.6502 8.28184 92.6612 8.2434 92.9429 8.00632C93.2385 7.75761 93.5009 7.6666 94.4928 7.46874C94.7926 7.40896 95.0899 7.29758 95.1533 7.22118C95.2482 7.10673 95.2078 7.05695 94.9234 6.93817C94.4195 6.72761 93.6733 6.76461 92.7464 7.04618C92.2366 7.201 91.6571 7.30181 91.2049 7.3143C90.8064 7.32535 90.425 7.3685 90.3573 7.41031C90.2897 7.45221 89.6553 7.52236 88.9476 7.56637C88.003 7.62519 87.5451 7.69774 87.2246 7.83949C86.9846 7.94568 86.7882 8.07205 86.7882 8.12029C86.7882 8.16853 87.2275 8.2383 87.7645 8.2753C88.3015 8.3123 88.8611 8.40465 89.008 8.48067C89.5955 8.78453 89.8171 9.44868 89.7199 10.6151C89.6533 11.4137 89.6533 11.4137 89.1663 11.8932C88.6265 12.4245 87.6305 12.9559 86.7401 13.1877C85.3761 13.5428 83.2903 13.4477 82.5117 12.995C81.3186 12.3011 80.4353 10.8377 80.1612 9.10042C79.7809 6.68956 80.5313 4.74085 82.1557 3.92102C83.7995 3.09148 85.9123 2.95637 87.6721 3.56833C88.6381 3.9043 89.1982 4.31829 89.9288 5.23691C90.5327 5.99601 90.923 6.31352 91.252 6.31352C91.334 6.31352 91.401 6.29391 91.401 6.26989C91.401 6.24586 91.2921 5.26421 91.159 4.08823C90.8665 1.50324 90.7996 1.39465 90.0727 2.32538ZM161.698 4.63139C160.41 4.8404 159.69 5.18608 159.036 5.91009C158.652 6.33447 158.428 6.9646 158.524 7.34775C158.633 7.78154 159.207 8.56735 159.82 9.12232C160.568 9.79848 161.553 10.2925 163.419 10.9275C165.405 11.6029 166.385 12.023 167.122 12.5136C167.984 13.0882 168.066 13.1619 168.181 13.4631C168.515 14.3423 167.917 15.1122 166.601 15.4945C165.967 15.6789 164.137 15.7043 163.284 15.5406C162.41 15.3729 161.255 14.7358 160.43 13.9662C159.403 13.0091 159.02 12.3826 158.758 11.2321C158.642 10.7204 158.493 10.1935 158.426 10.0612C158.299 9.80665 157.925 9.42687 157.867 9.49337C157.782 9.59043 157.313 11.1466 157.145 11.8873C156.882 13.0518 156.623 14.6767 156.691 14.7446C156.723 14.7764 156.877 14.8023 157.033 14.8023C157.233 14.8023 157.446 14.6835 157.752 14.402C157.991 14.1817 158.263 14.0015 158.358 14.0015C158.452 14.0015 158.758 14.1554 159.037 14.3433C160.312 15.202 162.199 15.974 163.76 16.2756C164.791 16.4748 166.56 16.4763 167.477 16.2786C168.311 16.0986 169.542 15.5974 169.91 15.2878C170.271 14.9842 170.573 14.3183 170.669 13.6138C170.744 13.0649 170.734 13.0183 170.438 12.5783C170.007 11.9387 169.155 11.1851 168.29 10.6783C167.889 10.4428 166.717 9.92053 165.686 9.51758C162.312 8.19833 160.881 7.35418 160.881 6.68245C160.881 6.35013 161.333 5.81976 161.819 5.5823C162.325 5.33493 164.496 5.33301 165.398 5.57922C166.528 5.88761 167.395 6.38377 168.192 7.17717C168.872 7.8539 168.931 7.94654 169.087 8.57331C169.179 8.94252 169.298 9.41197 169.352 9.61666C169.456 10.0155 169.816 10.4458 170.047 10.4458C170.227 10.4458 170.429 9.82414 170.687 8.47577C170.798 7.89436 170.945 7.12537 171.014 6.76701C171.131 6.16274 171.127 6.10854 170.966 6.02224C170.722 5.89164 170.742 5.88299 170.203 6.36157C169.935 6.59942 169.683 6.79402 169.642 6.79402C169.601 6.79402 169.361 6.66275 169.108 6.50226C167.647 5.57614 165.8 4.86078 164.274 4.63071C163.164 4.4635 162.732 4.4636 161.698 4.63139ZM73.0459 4.7716C72.5966 4.86751 71.6236 5.1213 70.8836 5.3357C70.1437 5.5501 69.2139 5.78449 68.8175 5.85666C68.4211 5.92893 68.0967 6.02878 68.0967 6.07865C68.0967 6.12853 68.2481 6.24635 68.4331 6.34052C68.7035 6.47804 68.9615 6.5063 69.7503 6.48467C70.7312 6.45767 70.7312 6.45767 71.1649 6.8833C71.9941 7.69697 72.5192 9.02382 72.803 11.0224C72.9732 12.2214 72.9855 12.6561 72.8492 12.6561C72.7431 12.6561 66.7757 9.48251 64.147 8.02813L62.5998 7.17198L60.1829 7.77433C58.8536 8.10549 57.766 8.41186 57.766 8.4551C57.766 8.63414 58.4702 8.81211 59.1804 8.81269C60.0776 8.81327 60.5966 8.9432 60.8952 9.24178C61.2286 9.57515 61.7764 11.5138 62.5188 14.9877C62.8391 16.4868 62.8529 16.6181 62.7169 16.8811C62.4898 17.3203 61.941 17.8023 61.1196 18.2837C60.4307 18.6876 60.3776 18.7404 60.4844 18.9151C60.5567 19.0333 60.674 19.0906 60.7932 19.0659C60.8989 19.0441 62.4449 18.6865 64.2287 18.2714C67.3248 17.551 67.4721 17.5067 67.4721 17.2967C67.4721 17.0826 67.4473 17.0767 66.5351 17.0761C65.2948 17.0755 64.9292 16.9633 64.3867 16.4172C63.8325 15.8592 63.6079 15.2715 63.2891 13.5453C63.0013 11.9874 62.8114 11.226 62.5996 10.7819C62.4715 10.5135 62.4658 10.4284 62.5672 10.3063C62.6351 10.2245 62.7589 10.1575 62.8423 10.1575C62.9256 10.1575 65.5154 11.4981 68.5972 13.1366C71.6791 14.7751 74.2631 16.1157 74.3395 16.1157C74.4159 16.1157 74.5863 16.0665 74.7181 16.0064C74.9197 15.9146 74.9494 15.8498 74.9049 15.598C74.8294 15.1708 74.1733 12.4831 73.7176 10.7341C73.2809 9.05803 72.9099 6.96594 72.9917 6.64026C73.0899 6.24884 73.5424 5.82725 74.2362 5.48101C74.9075 5.14581 75.3523 4.81994 75.3523 4.6631C75.3523 4.52289 73.8887 4.5917 73.0459 4.7716ZM133.239 5.35444C133.533 5.67263 133.908 6.12757 134.072 6.36541C134.498 6.98506 134.954 7.9993 134.917 8.24743C134.869 8.57619 132.428 9.80454 131.494 9.96964C129.951 10.2428 128.838 9.69508 128.715 8.60146C128.669 8.19775 128.696 8.14115 129.243 7.46134C129.561 7.0679 130.095 6.52398 130.431 6.25259C131.025 5.77267 132.518 4.77592 132.641 4.77592C132.675 4.77592 132.944 5.03626 133.239 5.35444ZM181.411 5.45093C181.214 5.62343 181.016 5.91547 180.953 6.12661C180.851 6.46901 180.862 6.52503 181.095 6.83102C181.419 7.2553 182.309 7.70447 182.654 7.61779C183.019 7.5263 183.649 6.89089 183.709 6.55377C183.819 5.93998 183.164 5.37434 182.154 5.21135C181.799 5.15398 181.72 5.17964 181.411 5.45093ZM185.835 6.79834C185.573 7.00438 185.388 7.50237 185.387 8.00257C185.386 8.70583 186.76 9.29146 187.385 8.85382C187.64 8.67469 187.981 8.04053 187.981 7.74397C187.981 7.45605 187.3 6.82727 186.853 6.7032C186.329 6.55761 186.116 6.57751 185.835 6.79834ZM179.332 9.06409C176.035 9.39131 173.956 10.9056 173.558 13.2691C173.146 15.7107 175.071 18.4543 178.281 20.0035C179.532 20.6075 180.345 20.7598 182.359 20.7674C184.234 20.7745 184.841 20.6593 186.107 20.0555C187.521 19.3816 188.501 18.1248 188.755 16.6601C188.877 15.9562 188.831 15.3333 188.593 14.4709C188.262 13.2737 185.94 10.6703 184.665 10.0679C183.217 9.384 180.763 8.92205 179.332 9.06409ZM183.128 10.2886C184.871 10.8477 186.06 12.1175 186.059 13.4197C186.058 15.3947 185.261 17.6124 184.137 18.7715C182.81 20.1407 181.217 20.3054 178.785 19.3248C177.646 18.8656 177.496 18.7767 177.058 18.3016C176.465 17.6582 176.227 16.9431 176.219 15.7794C176.211 14.6577 176.33 14.2324 177.047 12.8245C177.646 11.6473 178.149 10.966 178.762 10.4982C179.396 10.0152 179.633 9.9657 181.11 10.007C182.121 10.0353 182.506 10.089 183.128 10.2886ZM46.2674 11.8806C46.0478 11.9802 45.8441 12.1415 45.8146 12.2388C45.785 12.3362 45.26 14.643 44.6479 17.365C44.0357 20.087 43.4433 22.5087 43.3312 22.7466C43.2039 23.017 42.7193 23.5804 42.038 24.2501C41.4388 24.8391 40.9485 25.3472 40.9485 25.3792C40.9485 25.4975 41.7079 25.4319 42.4063 25.2534C42.8021 25.1521 44.0307 24.7242 45.1365 24.3025C46.2423 23.881 47.2875 23.5063 47.4593 23.4699C47.702 23.4187 47.7716 23.3547 47.7716 23.1832C47.7716 22.7815 47.5798 22.7321 46.828 22.9404C45.9967 23.1708 45.5523 23.181 45.1606 22.9784C44.8656 22.8258 44.8656 22.8258 44.9111 21.7051C44.9449 20.875 45.0099 20.4466 45.1618 20.0534C45.3668 19.5223 45.3668 19.5223 46.0647 19.3426C46.4485 19.2438 47.2167 18.9901 47.7716 18.779C49.0719 18.2844 50.2304 17.9416 50.6023 17.9416C51.1163 17.9416 53.0619 19.4295 53.4072 20.0867C53.591 20.4363 53.4971 20.554 52.7265 20.9393C52.0733 21.266 51.8078 21.4704 51.8078 21.6463C51.8078 21.802 53.4852 21.4461 55.2631 20.9131C57.0543 20.3761 59.5439 19.3745 59.5439 19.1909C59.5439 18.983 58.9938 18.9553 58.4625 19.1362C57.4798 19.4711 57.8197 19.6714 52.2765 15.4922C46.8198 11.3784 47.0581 11.5216 46.2674 11.8806ZM192.114 12.8269C192.114 13.1188 192.395 13.4183 192.913 13.6776C193.693 14.0679 194.019 14.3545 194.139 14.7552C194.24 15.0937 194.221 15.1734 193.868 15.8819C193.659 16.3012 193.323 17.0767 193.121 17.6052C191.669 21.3982 191.199 22.3284 190.606 22.578C190.405 22.6629 190.088 22.7523 189.903 22.7767C189.591 22.818 189.391 22.7963 188.294 22.6021C187.905 22.5333 187.885 22.5413 187.885 22.7634C187.885 22.9818 188.136 23.0953 191.74 24.5084C194.729 25.6804 195.624 25.9952 195.726 25.9107C195.95 25.7252 195.717 25.4698 194.888 24.9917C194.418 24.7206 194.04 24.4265 193.93 24.2459C193.68 23.8364 193.688 22.9358 193.946 22.3622C194.225 21.7431 195.408 19.9634 195.542 19.9614C195.632 19.9601 201.51 22.2407 201.605 22.3141C201.62 22.3252 201.43 22.935 201.185 23.6695C200.282 26.3665 199.889 26.7863 198.598 26.4352C198.282 26.3494 197.927 26.2578 197.809 26.2318C197.554 26.1753 197.111 26.2731 197.111 26.386C197.111 26.5441 202.791 28.8277 203.838 29.0904C204.287 29.2032 204.73 29.3167 204.823 29.3429C205.063 29.4108 205.035 29.1635 204.775 28.9218C204.656 28.8112 204.265 28.5814 203.907 28.411C203.311 28.1276 202.781 27.6728 202.781 27.4449C202.781 27.3944 202.886 27.145 203.015 26.8908C203.144 26.6366 203.516 25.784 203.842 24.9961C204.733 22.8425 205.498 21.289 206.161 20.2861C206.86 19.2287 207.013 19.1576 207.928 19.4633C208.884 19.7829 209.123 19.7701 209.123 19.3995C209.123 19.1308 209.083 19.112 205.592 17.7637C203.008 16.7657 201.95 16.4004 201.652 16.4019C201.427 16.403 201.243 16.4398 201.243 16.4834C201.243 16.6321 201.675 16.9593 202.252 17.2483C203.12 17.6825 203.357 17.941 203.357 18.4505C203.357 18.6826 203.272 19.1196 203.168 19.4215C202.939 20.0873 202.116 21.4973 201.956 21.4973C201.743 21.4973 200.219 21.0277 199.454 20.7268C199.038 20.5626 198.014 20.1202 197.18 19.7435C195.971 19.1975 195.676 19.0281 195.729 18.9085C195.766 18.826 195.942 18.3476 196.122 17.8455C196.534 16.6926 196.831 16.1857 197.241 15.9319C197.646 15.6818 197.942 15.6802 198.793 15.9235C199.162 16.0292 199.605 16.1157 199.777 16.1157C200.038 16.1157 200.09 16.0797 200.089 15.8995C200.087 15.7038 199.715 15.5391 196.173 14.1679C194.019 13.3345 192.225 12.6533 192.186 12.6544C192.146 12.6553 192.114 12.733 192.114 12.8269ZM48.0413 15.9235C48.895 16.5313 49.5945 17.0634 49.5956 17.106C49.6005 17.3029 46.5218 18.4182 45.9665 18.4207C45.6508 18.4221 45.6508 18.4221 45.7126 17.9176C45.7466 17.6401 45.8995 16.8404 46.0523 16.1404C46.2051 15.4405 46.3301 14.8423 46.3301 14.811C46.3301 14.7128 46.4518 14.7919 48.0413 15.9235ZM25.7167 19.7667C22.5284 21.1075 21.8674 21.4175 21.842 21.5844C21.816 21.7547 21.8608 21.7856 22.1336 21.7856C22.3109 21.7856 22.7021 21.6991 23.0028 21.5934C23.6601 21.3624 24.4175 21.3456 24.8188 21.5531C25.0523 21.6739 25.2216 21.9358 25.6418 22.8264C26.5541 24.7605 27.307 26.5865 27.8043 28.0717C28.3868 29.8115 28.3738 29.8806 27.3494 30.4797C26.5483 30.9481 26.4375 31.0558 26.4375 31.3656C26.4375 31.5531 26.4768 31.5988 26.6056 31.5614C26.6981 31.5346 28.5252 30.7802 30.6659 29.8848C32.8065 28.9894 35.7688 27.7662 37.2487 27.1663C38.7286 26.5666 39.9541 26.0653 39.9721 26.0524C40.0076 26.0268 39.4163 24.6434 38.6616 22.9868C38.1919 21.9558 38.1718 21.929 37.8445 21.9005C37.509 21.8713 37.509 21.8713 37.4677 23.0537C37.4212 24.3839 37.2815 24.8955 36.7421 25.7096C36.3564 26.2919 35.9969 26.5759 34.702 27.3212C33.3522 28.0984 32.9866 28.2487 32.3267 28.2978C31.8139 28.336 31.6711 28.3082 31.3177 28.1006C30.9061 27.8589 30.9061 27.8589 29.3925 24.2062C28.56 22.1971 27.879 20.4694 27.879 20.3669C27.879 20.2642 27.9778 20.0336 28.0986 19.8544C28.2925 19.5667 28.6274 19.3371 29.806 18.6837C30.105 18.5179 30.1091 18.5072 29.9427 18.3233C29.8483 18.219 29.7238 18.1375 29.6659 18.1421C29.6081 18.1466 27.8309 18.8777 25.7167 19.7667ZM211.257 20.2672C211.087 20.4364 211.116 20.6119 211.331 20.7271C211.783 20.9688 212.692 21.8214 212.928 22.2252C213.159 22.6192 213.175 22.7009 213.079 23.0221C212.784 24.0068 211.536 26.2471 209.968 28.6067C209.037 30.0083 208.979 30.0408 207.73 29.868C207.307 29.8095 206.777 29.7617 206.553 29.7618C206.204 29.7619 206.144 29.7908 206.144 29.9612C206.144 30.126 206.531 30.3481 208.379 31.2455C210.864 32.4524 212.144 33.0293 212.336 33.0293C212.406 33.0293 212.514 32.9681 212.576 32.8932C212.668 32.783 212.611 32.7032 212.275 32.4723C211.206 31.7368 210.661 30.9587 210.661 30.1687C210.661 29.7682 210.754 29.5419 211.321 28.5552C212.807 25.9744 213.616 24.6286 213.699 24.6007C213.823 24.5594 217.49 33.7396 218.152 35.7488C218.368 36.4022 218.368 36.4022 218.862 36.3735C219.356 36.3447 219.356 36.3447 220.974 33.3656C221.864 31.7271 222.747 30.0904 222.935 29.7286C223.604 28.4457 223.961 28.1936 225.124 28.1832C225.547 28.1793 226.228 28.2124 226.638 28.2565C227.377 28.3362 227.382 28.3352 227.38 28.1123C227.379 27.9125 227.026 27.721 224.163 26.3632C222.341 25.4994 220.884 24.8629 220.802 24.8947C220.721 24.9256 220.655 25.0291 220.655 25.1247C220.655 25.4115 220.916 25.6955 221.468 26.0116C221.755 26.1761 222.106 26.4484 222.248 26.6166C222.491 26.9047 222.503 26.9651 222.454 27.6456C222.383 28.646 221.931 29.8338 221.2 30.9406C220.551 31.9228 219.893 32.7338 219.742 32.7363C219.689 32.7371 218.784 30.3654 217.73 27.4658L215.814 22.1937L213.639 21.1728C212.442 20.6113 211.443 20.1519 211.418 20.1519C211.393 20.1519 211.32 20.2038 211.257 20.2672ZM228.484 28.873C228.522 29.0266 228.868 29.4388 229.311 29.858C229.939 30.4513 230.074 30.6303 230.074 30.8706C230.073 31.3576 226.06 37.8933 225.537 38.2597C225.182 38.5082 224.394 38.4519 223.562 38.1187C222.785 37.8076 222.577 37.8076 222.577 38.1183C222.577 38.3447 222.831 38.5141 224.451 39.367C225.085 39.7009 227.55 41.0857 229.929 42.4443C232.307 43.8028 234.545 45.0747 234.901 45.2707L235.549 45.6268L235.971 44.9739C238.127 41.6331 238.068 41.7372 237.891 41.608C237.607 41.4004 237.386 41.4699 236.908 41.9163C235.775 42.9768 234.156 43.2621 232.381 42.7141C230.951 42.2728 228.712 40.934 228.482 40.3825C228.187 39.677 228.398 39.043 229.314 37.8792C229.687 37.4053 230.063 36.8984 230.149 36.7531C230.236 36.6078 230.386 36.4889 230.482 36.4889C230.818 36.4889 231.398 36.8691 232.171 37.5965C233.1 38.4703 233.174 38.6795 232.87 39.5792C232.576 40.4492 232.596 40.6789 232.971 40.754C233.138 40.7874 233.283 40.8036 233.292 40.79C233.301 40.7765 233.505 40.4842 233.745 40.1407C234.323 39.3131 235.534 37.2882 235.973 36.4146C236.324 35.7156 236.324 35.7156 236.106 35.6331C235.817 35.5243 235.622 35.6372 235.293 36.1025C234.891 36.6708 234.517 36.8149 233.626 36.7461C232.781 36.681 231.997 36.4164 231.429 36.0046C231.072 35.7465 231.034 35.6789 231.034 35.3059C231.034 34.7441 231.384 34.081 232.096 33.2935C232.683 32.6449 232.683 32.6449 233.235 32.6449C234.246 32.6449 235.27 33.0668 236.464 33.9764C237.415 34.7014 238.151 35.4512 238.411 35.9603C238.714 36.5552 238.797 37.5345 238.63 38.5652C238.566 38.9646 238.528 39.3041 238.546 39.3197C238.563 39.3353 238.671 39.3765 238.784 39.4113C238.963 39.466 239.097 39.3249 239.773 38.3717C240.588 37.2229 241.221 36.2222 241.221 36.0824C241.221 35.9084 237.177 33.3673 234.494 31.8544C232.998 31.0113 228.541 28.6087 228.473 28.6087C228.443 28.6087 228.448 28.7277 228.484 28.873ZM3.26672 30.9087C3.02119 31.063 2.79679 31.2872 2.76345 31.4114C2.66985 31.7611 2.68676 33.5123 2.81131 36.356C2.9396 39.2851 2.85455 40.9513 2.49994 42.4621C2.30149 43.3072 2.27564 43.3544 1.64715 44.0195C1.29062 44.3967 0.94937 44.7999 0.888827 44.9153C0.761591 45.158 0.742467 45.5223 0.857018 45.5223C0.900071 45.5223 1.8407 45.0195 2.94719 44.405C5.03717 43.2443 7.12138 41.93 7.12138 41.7727C7.12138 41.5438 6.62801 41.5809 5.92398 41.8628C4.98259 42.2398 4.64431 42.244 4.29893 41.8835C3.83525 41.3996 3.67265 40.5279 3.81891 39.3106C3.87359 38.8553 3.90886 38.8 4.27452 38.596C4.49248 38.4744 5.16815 38.0522 5.77599 37.6579C7.77448 36.3614 8.79381 35.9892 9.79536 36.1904C10.4096 36.3137 11.1005 36.7284 11.5849 37.2647C12.05 37.7794 12.0361 38.0557 11.5234 38.4967C10.8019 39.1172 10.581 39.3545 10.581 39.5086C10.581 39.5932 10.6613 39.6602 10.7626 39.6602C11.0907 39.6602 13.282 38.4758 15.434 37.1354C16.5968 36.4111 17.6117 35.7817 17.6895 35.7366C17.8113 35.666 17.8069 35.6185 17.6573 35.3901C17.4838 35.1253 17.4838 35.1253 17.2758 35.3206C16.9134 35.6609 16.2387 35.9079 15.6658 35.9102C15.1612 35.9122 14.7916 35.7534 9.51869 33.2695C6.43302 31.816 3.86369 30.6276 3.80911 30.6286C3.75453 30.6296 3.51043 30.7556 3.26672 30.9087ZM19.2848 32.6802C18.9799 32.9679 18.9417 33.0576 18.9417 33.4864C18.9417 34.1504 19.128 34.3518 19.8685 34.4883C20.4332 34.5922 20.4782 34.5857 20.901 34.338C21.6404 33.9046 21.8767 33.0725 21.3965 32.5925C21.1856 32.3815 21.0799 32.3566 20.3944 32.3566C19.6563 32.3566 19.6154 32.3685 19.2848 32.6802ZM5.08599 34.2376C6.70892 34.823 7.44851 35.2264 7.48695 35.5473C7.51386 35.7719 7.37547 35.8686 5.72899 36.7766C4.74618 37.3186 3.92789 37.7459 3.91069 37.7261C3.85966 37.6672 3.77192 33.7981 3.8217 33.7981C3.84678 33.7981 4.41579 33.9958 5.08599 34.2376ZM153.65 35.6868C153.382 35.7202 153.289 35.7765 153.289 35.9065C153.289 36.0511 153.387 36.0884 153.854 36.1222C154.165 36.1447 154.532 36.2374 154.671 36.3282C154.923 36.4933 154.923 36.4933 154.923 38.8455C154.923 41.0697 154.913 41.2082 154.731 41.39C154.624 41.4967 154.4 41.5864 154.226 41.5918C153.79 41.6051 153.455 41.7106 153.409 41.8491C153.364 41.983 155.023 42.012 156.546 41.9038C157.42 41.8418 157.427 41.8394 157.18 41.6774C156.629 41.3158 156.606 41.2163 156.593 39.1316C156.586 38.0745 156.571 37.1098 156.559 36.9878C156.528 36.6731 156.803 36.4126 157.334 36.2551C157.967 36.0669 158.231 35.9148 158.119 35.8025C158.023 35.7062 154.273 35.6091 153.65 35.6868ZM108.16 36.7742C107.893 36.8833 107.546 37.3309 107.546 37.5653C107.546 38.0372 108.035 38.4109 108.653 38.4109C109.163 38.4109 109.587 37.9688 109.546 37.4801C109.522 37.1995 109.454 37.0879 109.228 36.9596C108.851 36.7463 108.413 36.6703 108.16 36.7742ZM111.332 36.8183C110.99 36.9672 110.909 37.125 110.909 37.6429C110.909 38.4178 111.918 38.7001 112.588 38.1126C112.774 37.9485 112.927 37.7357 112.927 37.6395C112.927 37.3574 112.463 36.8869 112.08 36.7805C111.652 36.6616 111.697 36.6594 111.332 36.8183ZM53.4202 38.5878C52.2544 39.0177 51.4252 39.7617 50.8995 40.8494C50.4812 41.7149 50.4452 42.0865 50.7254 42.6486C51.067 43.3342 51.892 44.1886 52.5519 44.5403C53.3311 44.9557 54.5215 45.2694 55.0711 45.2044C55.3119 45.1758 55.9195 45.0146 56.4213 44.8461C57.5674 44.4613 58.2159 44.4314 58.6385 44.7438C59.0564 45.0529 59.1081 44.9321 59.11 43.6426C59.1109 42.9249 59.152 42.5245 59.2362 42.4092C59.3199 42.2948 59.5572 42.2154 59.9552 42.1684C60.6288 42.089 60.7273 42.0326 60.5548 41.8247C60.4705 41.723 60.2534 41.6778 59.8445 41.6768C59.5205 41.676 59.1474 41.6205 59.0153 41.5533C58.7781 41.4329 58.7755 41.4181 58.8099 40.4111C58.8365 39.6354 58.8059 39.2735 58.6821 38.9009C58.5926 38.6314 58.4924 38.4109 58.4596 38.4109C58.4267 38.4109 58.2622 38.5443 58.094 38.7072C57.7882 39.0036 57.7882 39.0036 56.7441 38.6962C55.2522 38.257 54.393 38.229 53.4202 38.5878ZM162.975 39.8283C161.66 41.59 158.959 45.6686 158.959 45.8922C158.959 45.9535 159.099 46.0015 159.271 46C159.558 45.9975 159.652 45.9047 160.409 44.8708C161.829 42.9328 164.437 38.9347 164.437 38.6966C164.437 38.6452 164.314 38.6031 164.163 38.6031C163.924 38.6031 163.773 38.7592 162.975 39.8283ZM62.2041 38.7707C61.3813 38.8096 61.2886 39.006 62.0557 39.0845C62.6801 39.1484 63.026 39.3859 63.2576 39.9096C63.4309 40.3013 63.4416 40.4885 63.3915 42.2738C63.3278 44.5499 63.3234 44.5613 62.5017 44.5613C61.9326 44.5613 61.61 44.6835 61.61 44.8991C61.61 44.9755 61.7289 45.0708 61.8743 45.1107C62.2302 45.2085 69.4402 45.2045 69.9106 45.1063C70.2829 45.0286 70.2829 45.0286 70.2135 43.7618C70.1754 43.0652 70.1246 42.475 70.1009 42.4504C70.0003 42.3467 69.7158 42.6337 69.521 43.0352C68.902 44.3116 67.9368 44.7073 65.9494 44.4996C65.374 44.4395 65.3568 44.4294 65.2517 44.0911C65.1925 43.9005 65.1223 42.8905 65.0956 41.8467C65.0536 40.1996 65.0679 39.9173 65.204 39.7097C65.4053 39.4024 66.0073 39.0962 66.5589 39.0206C68.1495 38.8027 65.1571 38.6308 62.2041 38.7707ZM76.238 39.1419C76.0299 39.3855 75.5833 40.0574 75.2455 40.6353C74.2257 42.3802 73.574 43.329 72.9615 43.9606C72.4136 44.5258 72.3531 44.5613 71.9374 44.5613C71.447 44.5613 71.1239 44.692 71.1239 44.8907C71.1239 45.087 71.2965 45.1224 72.5844 45.1903C73.8102 45.255 75.3081 45.1257 75.4914 44.9395C75.6491 44.779 75.2782 44.5613 74.8471 44.5613C74.2992 44.5613 74.103 44.4227 74.103 44.0356C74.103 43.3691 74.4805 42.7944 74.9921 42.682C75.1507 42.6471 75.9162 42.6494 76.6934 42.6871L78.1063 42.7555L78.5024 43.3461C78.7203 43.6709 78.9265 44.0537 78.9607 44.1967C79.0152 44.4252 78.9895 44.4642 78.7491 44.5174C78.1301 44.6547 77.9943 44.7259 77.9643 44.9291C77.9338 45.1363 77.9455 45.1379 79.5595 45.1379C81.2699 45.1379 82.6559 45.055 82.6559 44.9529C82.6559 44.9195 82.3334 44.79 81.9392 44.6649C81.2224 44.4377 81.2224 44.4377 79.3346 41.5684C77.4468 38.6992 77.4468 38.6992 77.0316 38.6992C76.657 38.6992 76.5796 38.7424 76.238 39.1419ZM85.4212 38.8413C84.8268 39.005 84.1809 39.389 83.8613 39.7689C83.6402 40.0315 83.6139 40.1279 83.6703 40.4675C83.8543 41.5761 84.4368 41.9429 86.5157 42.2598C88.0488 42.4933 88.4208 42.5868 89.0142 42.8875C89.8714 43.3219 90.0178 43.8894 89.3813 44.3106C88.5438 44.8648 87.1917 44.9829 86.0674 44.6001C85.3493 44.3554 85.1188 44.1539 84.4589 43.1934C83.8754 42.344 83.5934 42.054 83.4706 42.1768C83.3626 42.2849 83.302 43.6536 83.3721 44.4018C83.438 45.1051 83.4518 45.1379 83.682 45.1379C83.8145 45.1379 84.0329 45.0514 84.1672 44.9457C84.4858 44.6951 84.5582 44.7007 85.41 45.0418C86.0834 45.3114 86.212 45.33 87.3961 45.3289C88.7226 45.3277 89.3297 45.2211 90.0204 44.8679C91.2488 44.2399 91.5669 42.9748 90.7116 42.1195C90.3354 41.7433 90.3354 41.7433 90.4838 41.3725C90.6385 40.9858 90.6796 39.937 90.5711 39.1451C90.4988 38.6179 90.278 38.5477 89.9797 38.9572C89.7918 39.2152 89.7918 39.2152 88.7465 38.9571C87.5735 38.6674 86.2237 38.6205 85.4212 38.8413ZM92.5542 39.0577C92.5542 39.2839 92.6951 39.3455 93.323 39.394C93.6213 39.4169 93.6865 39.4743 93.8996 39.9004C94.1344 40.3701 94.1392 40.4229 94.1132 42.2421C94.0982 43.2872 94.0428 44.1848 93.9869 44.2893C93.8328 44.5774 93.3129 44.8488 92.9145 44.8492C92.6584 44.8495 92.5542 44.8913 92.5542 44.9937C92.5542 45.1181 92.8914 45.1379 95.0127 45.1379C96.8792 45.1379 97.4621 45.1102 97.433 45.0228C97.4118 44.9595 97.1092 44.8382 96.7606 44.7532C95.8038 44.5199 95.7999 44.5138 95.8376 43.2981C95.8552 42.7293 95.9157 42.218 95.9722 42.1616C96.1198 42.0144 98.8329 42.0138 99.4043 42.1609L99.8636 42.2792L99.8367 43.3961C99.8067 44.6379 99.8764 44.5536 98.6325 44.8544C98.4078 44.9087 98.2241 44.9902 98.2241 45.0356C98.2241 45.1779 99.3973 45.3301 100.49 45.3295C102.066 45.3286 103.125 45.2292 103.125 45.082C103.125 44.9464 102.989 44.8947 102.389 44.8015C101.652 44.6871 101.655 44.7 101.75 42.0321C101.812 40.3145 101.869 39.6398 101.963 39.5267C102.049 39.4228 102.247 39.3719 102.563 39.3719C102.9 39.3719 103.051 39.3294 103.092 39.2236C103.123 39.142 103.124 39.0505 103.094 39.0201C102.901 38.8272 98.3365 38.843 98.1422 39.0373C98.0061 39.1734 98.4805 39.3719 98.9418 39.3719C99.2287 39.3719 99.5188 39.4337 99.6441 39.5215C99.8361 39.6559 99.8578 39.753 99.8578 40.48C99.8578 41.289 99.8578 41.289 99.5454 41.4562C99.2976 41.5888 98.9226 41.6311 97.7294 41.6607C96.3032 41.696 96.2153 41.6876 96.0237 41.496C95.8541 41.3264 95.8216 41.1775 95.8216 40.5722C95.8216 39.7067 95.9087 39.5999 96.7966 39.3773C97.1251 39.2951 97.4102 39.1767 97.4303 39.1143C97.4878 38.9356 96.7738 38.8712 94.5736 38.8567C92.5542 38.8433 92.5542 38.8433 92.5542 39.0577ZM104.468 39.0418C104.34 39.3786 104.336 39.3717 104.687 39.3733C104.859 39.3742 105.194 39.433 105.431 39.504C105.81 39.6173 105.878 39.6794 105.977 40.0071C106.045 40.234 106.092 41.1197 106.097 42.2607C106.105 44.3852 106.079 44.3058 106.948 44.8569C107.661 45.3091 108.581 45.4583 110.321 45.4037C113.062 45.3177 113.376 44.9568 113.252 42.0298C113.201 40.8215 113.216 40.512 113.341 40.2149C113.533 39.7613 114.001 39.4688 114.537 39.4683C114.879 39.4681 114.945 39.4371 114.945 39.2795C114.945 39.1394 114.84 39.062 114.537 38.9784C114.06 38.8469 112.488 38.8202 111.558 38.9278C111.017 38.9902 110.909 39.0324 110.909 39.1808C110.909 39.3721 111.011 39.4173 111.669 39.5201C112.397 39.6336 112.511 39.8341 112.593 41.1519C112.683 42.5967 112.61 43.5649 112.369 44.1097C112.201 44.4903 112.122 44.558 111.672 44.7074C111.256 44.8455 110.946 44.867 109.947 44.8264C108.562 44.7703 108.389 44.7015 108.02 44.0576C107.791 43.6575 107.786 43.6041 107.802 41.6911C107.812 40.4721 107.856 39.6959 107.919 39.633C107.975 39.5773 108.313 39.5067 108.672 39.4759C109.324 39.4199 109.324 39.4199 109.354 39.1076C109.384 38.7953 109.384 38.7953 106.973 38.7953C104.562 38.7953 104.562 38.7953 104.468 39.0418ZM116.74 39.0928C116.706 39.2198 116.677 39.8535 116.677 40.501C116.676 41.4578 116.701 41.6783 116.813 41.6783C117.036 41.6783 117.231 41.419 117.445 40.8347C117.693 40.1608 117.78 40.0407 118.252 39.7205C118.686 39.4256 119.385 39.3769 119.729 39.6176C119.94 39.765 119.943 39.7997 119.943 42.0575C119.943 44.8408 119.968 44.7748 118.87 44.8496C118.239 44.8926 118.162 44.9193 118.135 45.105C118.091 45.4186 118.456 45.4636 120.98 45.4554C122.99 45.4488 123.238 45.4306 123.409 45.276C123.681 45.0295 123.517 44.9194 122.758 44.8409C121.759 44.7375 121.767 44.7566 121.776 42.3643C121.781 41.1874 121.83 40.205 121.896 39.9485C122.003 39.5373 122.027 39.5145 122.386 39.4852C122.863 39.4461 123.488 39.6823 123.818 40.0273C123.959 40.1744 124.172 40.5948 124.291 40.9616C124.469 41.5106 124.554 41.6445 124.77 41.7193C124.914 41.7693 125.055 41.7871 125.083 41.7591C125.133 41.7088 124.972 39.084 124.915 39.0272C124.899 39.0111 123.067 38.9673 120.844 38.9298C116.802 38.8617 116.802 38.8617 116.74 39.0928ZM127.494 40.0205C127.461 40.5888 127.418 41.2158 127.398 41.414C127.363 41.7556 127.375 41.7744 127.638 41.7744C127.981 41.7744 128.161 41.521 128.309 40.8285C128.375 40.5206 128.528 40.1937 128.693 40.0055C129.134 39.503 130.105 39.3046 130.501 39.6361C130.688 39.793 130.707 39.9523 130.794 41.9991C130.859 43.5457 130.856 44.261 130.783 44.4209C130.66 44.6908 130.255 44.8496 129.689 44.8496C129.309 44.8496 128.976 45.0266 128.976 45.2288C128.976 45.3806 129.608 45.4262 131.715 45.4262C133.843 45.4262 134.454 45.3809 134.454 45.2232C134.454 45.095 133.793 44.8496 133.448 44.8496C132.753 44.8496 132.532 44.1601 132.532 41.9963C132.532 40.2444 132.627 39.825 133.062 39.6596C133.776 39.3881 134.245 39.6644 134.956 40.7756C135.483 41.6002 135.742 41.8633 135.885 41.7207C135.996 41.61 136.008 39.7898 135.9 39.3895L135.792 38.9875H131.672H127.553L127.494 40.0205ZM56.6782 39.4135C57.2223 39.658 57.3129 39.7445 57.7593 40.4459C58.0273 40.8669 58.2465 41.2694 58.2465 41.3402C58.2465 41.4381 57.9936 41.4768 57.1926 41.5016C56.3681 41.527 56.1039 41.569 55.9788 41.6942C55.8297 41.8436 55.8513 41.8683 56.3007 42.0616C56.9832 42.3552 57.3325 42.7461 57.3206 43.2028C57.3069 43.7266 57.1359 43.9754 56.6286 44.2099C56.2344 44.3921 56.0317 44.4148 54.9469 44.3983C53.7906 44.3806 53.6936 44.3643 53.3952 44.1366C53.2201 44.003 52.9751 43.6872 52.8507 43.4347C52.6496 43.0262 52.6255 42.8482 52.6323 41.8194C52.6394 40.7489 52.6588 40.6311 52.895 40.228C53.4596 39.2646 53.8665 39.0604 55.1233 39.1092C55.916 39.1401 56.1882 39.1933 56.6782 39.4135ZM137.529 39.3214C137.529 39.5317 137.561 39.5529 137.803 39.5044C137.983 39.4685 138.215 39.5197 138.476 39.653C138.874 39.8563 138.874 39.8563 138.874 41.512C138.873 43.3403 138.747 44.7501 138.575 44.8564C138.514 44.8942 138.288 44.9534 138.073 44.9877C137.679 45.0508 137.433 45.1869 137.433 45.3418C137.433 45.389 139.361 45.4262 141.805 45.4262H146.178V44.1288C146.178 42.9157 146.166 42.8315 145.994 42.8315C145.871 42.8315 145.739 42.979 145.592 43.2838C145.091 44.3182 144.237 44.8618 142.813 45.0535C140.918 45.3084 140.561 44.9801 140.822 43.2226C140.938 42.4431 140.953 42.4095 141.23 42.3348C141.703 42.2071 142.089 42.4093 142.765 43.1401C143.112 43.5142 143.423 43.7921 143.458 43.7575C143.557 43.659 143.615 41.6669 143.54 40.9653C143.482 40.4292 143.444 40.3329 143.287 40.3329C143.141 40.3329 143.103 40.4015 143.103 40.6618C143.103 41.0351 142.761 41.5054 142.327 41.7298C142.044 41.8763 141.208 41.9196 141.03 41.7969C140.974 41.7581 140.871 41.421 140.802 41.0479C140.692 40.4535 140.695 40.3332 140.828 40.0758C141.009 39.7257 141.255 39.6602 142.389 39.6602C143.444 39.6602 144.064 39.8028 144.618 40.173C144.983 40.417 145.104 40.5706 145.23 40.9507C145.384 41.4161 145.611 41.6783 145.86 41.6783C145.956 41.6783 145.986 41.4387 145.986 40.6812C145.986 38.8926 146.498 39.0836 141.697 39.0836C137.529 39.0836 137.529 39.0836 137.529 39.3214ZM168.524 39.2777C167.36 39.4831 166.358 40.1661 166.359 40.7535C166.361 41.5501 166.729 42.0844 167.5 42.4088C167.691 42.4895 168.46 42.658 169.207 42.7831C170.944 43.0738 171.213 43.1492 171.763 43.4979C172.46 43.94 172.505 44.3972 171.9 44.8872C171.531 45.1859 171.531 45.1859 170.15 45.2169C168.768 45.248 168.768 45.248 168.345 44.9566C167.769 44.5605 167.12 43.8197 166.782 43.1745C166.629 42.8804 166.477 42.6396 166.446 42.6395C166.414 42.6394 166.306 42.7307 166.206 42.8424C166.046 43.0195 166.023 43.1956 166.028 44.2139C166.035 45.7616 166.029 45.7485 166.642 45.5152C167.242 45.2875 167.591 45.2808 167.892 45.4915C168.088 45.629 168.408 45.6539 170.052 45.6597C171.973 45.6664 171.983 45.6653 172.525 45.3992C173.187 45.0742 173.725 44.5034 173.813 44.0323C173.923 43.4485 173.451 42.6799 172.731 42.2673C172.567 42.1735 172.57 42.159 172.771 42.0156C173.08 41.7951 173.212 41.1878 173.136 40.336C173.023 39.0695 172.905 38.9128 172.488 39.4757C172.24 39.8118 172.144 39.8125 171.055 39.4856C170.285 39.2542 169.173 39.1629 168.524 39.2777ZM179.26 40.0205C178.999 40.4301 178.544 41.1761 178.249 41.6783C177.616 42.7572 176.916 43.763 176.363 44.3859C176.052 44.7372 175.833 44.8792 175.356 45.0377C174.697 45.2572 174.344 45.4667 174.452 45.5747C174.58 45.7027 176.496 45.7859 177.404 45.7028C178.754 45.5794 178.804 45.5466 178.114 45.2335C177.794 45.0882 177.502 44.9197 177.464 44.8592C177.361 44.6923 177.675 43.848 177.929 43.6095C178.139 43.4122 178.253 43.3978 179.743 43.3795C181.317 43.3602 181.335 43.3623 181.593 43.6003C181.867 43.8519 182.215 44.5505 182.215 44.8463C182.215 44.9615 182.039 45.1028 181.687 45.2695C181.396 45.4071 181.158 45.5636 181.158 45.6171C181.158 45.7303 182.474 45.7437 184.498 45.6511C185.483 45.6061 185.867 45.5553 185.867 45.4704C185.867 45.3996 185.661 45.3264 185.352 45.2879C184.838 45.2236 184.838 45.2236 182.734 42.2534C180.63 39.2833 180.63 39.2833 180.182 39.2795C179.735 39.2758 179.735 39.2758 179.26 40.0205ZM88.3386 39.6108C89.1444 39.893 89.8634 40.6647 89.8634 41.2475C89.8634 41.4421 89.8253 41.4876 89.6952 41.4487C89.6027 41.4211 89.1162 41.3291 88.6141 41.2444C87.3622 41.0332 86.3061 40.7567 85.6593 40.4706C85.3605 40.3384 85.0995 40.2139 85.0794 40.1937C84.9749 40.0893 85.3153 39.7167 85.6668 39.5511C86.0051 39.3917 86.2093 39.3695 86.9804 39.4086C87.4825 39.4339 88.0937 39.5249 88.3386 39.6108ZM170.629 40.0503C171.401 40.3392 172.413 41.3146 172.413 41.7696C172.413 42.0661 170.577 41.7763 168.906 41.2158C168.038 40.9249 167.843 40.8248 167.819 40.6572C167.779 40.3755 168.025 40.1595 168.53 40.0323C168.765 39.9732 168.984 39.8817 169.016 39.8288C169.101 39.6917 170 39.8153 170.629 40.0503ZM77.2148 41.1548C77.4199 41.4993 77.5625 41.8065 77.5316 41.8373C77.469 41.9001 75.8195 42.0814 75.7693 42.0311C75.7517 42.0136 75.8056 41.7985 75.8892 41.5533C76.0233 41.1598 76.5726 40.5218 76.7731 40.5267C76.8109 40.5277 77.0096 40.8103 77.2148 41.1548ZM180.179 41.7158C180.62 42.4698 180.571 42.5432 179.624 42.5432C179.157 42.5432 178.852 42.5039 178.852 42.444C178.852 42.0511 179.538 41.058 179.758 41.1315C179.812 41.1496 180.002 41.4125 180.179 41.7158Z" fill="#BD9542"/>
</svg>
