<svg width="210" height="46" viewBox="0 0 210 46" fill="none" xmlns="https://www.w3.org/2000/svg">
<path id="Audemars" d="M79.1148 42.8718C78.6072 44.4744 78.5438 44.7949 80.2568 44.7949C81.9063 44.7949 82.5408 44.7308 83.429 43.2564C83.5559 43.1923 83.7462 43.2564 83.7462 43.3205C83.6193 43.8333 83.1118 44.859 82.858 45.2436C82.287 45.2436 81.716 45.2436 81.2085 45.2436C80.6375 45.2436 80.0665 45.2436 79.5589 45.2436H77.9094C77.3384 45.2436 76.8308 45.2436 76.3867 45.3077C76.2598 45.2436 76.2598 45.0513 76.3867 44.9231L76.7039 44.859C77.4018 44.7308 77.5287 44.6026 77.9728 43.1282L79.6224 37.7436C80.0665 36.3974 80.0665 36.141 79.3051 36.0128L78.9879 35.9487C78.9245 35.8205 78.9245 35.6282 79.0514 35.5641C79.6224 35.5641 80.1299 35.6282 80.7009 35.6282C81.3353 35.6282 81.7795 35.6282 82.4773 35.5641C82.6042 35.6282 82.6042 35.8846 82.4773 35.9487L82.0332 36.0128C81.2085 36.141 81.145 36.2692 80.7009 37.7436L79.1148 42.8718ZM89.5831 40.1795C89.5831 41.2692 88.1873 41.9744 86.0937 42.6154C85.9668 42.8718 85.9033 43.3205 85.9033 43.8974C85.9033 44.4103 86.2205 44.7308 86.6012 44.7308C87.1088 44.7308 87.4894 44.4103 88.1239 43.8974C88.2507 43.8974 88.3142 44.0256 88.3142 44.1538C87.426 45.2436 86.6012 45.5 86.0302 45.5C85.142 45.5 84.8882 44.6667 84.8882 43.9615C84.8882 43.0641 85.4592 41.2692 87.0453 40.0513C87.8066 39.4744 88.3776 39.3462 88.7583 39.3462C89.2659 39.2821 89.5831 39.7949 89.5831 40.1795ZM87.2991 40.4359C86.7281 41.0769 86.4109 41.7179 86.2205 42.1026C87.1722 41.7821 87.6163 41.5256 88.1239 41.0128C88.568 40.5641 88.6949 40.1795 88.6949 40.0513C88.6949 39.9231 88.6314 39.7308 88.3776 39.7308C88.1873 39.7308 87.8066 39.859 87.2991 40.4359ZM97.4502 37.4231C97.7674 36.3333 97.6405 36.2051 97.006 36.141H96.5619C96.435 36.0769 96.4985 35.8846 96.5619 35.8205C97.3867 35.6923 98.148 35.6282 98.9728 35.6282C99.7341 35.6282 100.622 35.6923 101.32 35.9487C102.018 36.2692 102.526 36.7821 102.526 37.7436C102.526 39.2179 101.066 39.859 100.305 39.9231C100.051 39.9231 100.178 40.0513 100.305 40.0513C101.193 40.3718 101.828 41.2051 101.828 42.1667C101.828 42.6795 101.701 43.4487 101.066 44.0256C100.495 44.6026 99.4169 45.1154 97.6405 45.1154C96.8792 45.1154 96.3082 45.0513 95.7372 45.0513C95.2296 45.0513 94.7221 45.0513 94.2779 45.1154C94.1511 45.0513 94.1511 44.859 94.2779 44.7308L94.5952 44.6667C95.2931 44.5385 95.4199 44.4103 95.8641 42.9359L97.4502 37.4231ZM96.6888 43.5128C96.3716 44.4744 96.8157 44.7949 97.8308 44.7949C99.0362 44.7949 100.559 44.0256 100.559 42.1026C100.559 40.8846 99.4804 40.3077 98.4653 40.3077C97.7674 40.3077 97.7039 40.3077 97.577 40.8205L96.6888 43.5128ZM97.9577 39.4103C97.8308 39.7308 97.8943 39.859 98.4653 39.859C99.4804 39.859 101.32 39.3462 101.32 37.5513C101.32 36.7179 100.686 36.0769 99.5438 36.0769C98.9728 36.0769 98.9728 36.0769 98.8459 36.5256L97.9577 39.4103ZM105.444 40.6282L104.81 42.4872H104.873C105.317 41.6539 106.015 40.5 106.396 40.0513C106.713 39.6026 107.094 39.2821 107.411 39.2821C107.918 39.2821 107.982 39.7949 107.982 39.9872C107.982 40.1795 107.855 40.6282 107.665 40.8846C107.474 41.0769 107.284 41.141 107.221 40.8205C107.157 40.4359 107.094 40.2436 106.903 40.2436C106.776 40.2436 106.586 40.3718 106.396 40.6923C105.508 41.8462 104.746 43.5769 103.985 45.2436C103.921 45.3718 103.858 45.4359 103.731 45.4359C103.604 45.4359 103.16 45.3718 103.287 45.0513C103.477 44.4744 104.366 41.9103 104.746 40.5C104.81 40.3718 104.746 40.1795 104.619 40.1795C104.239 40.1795 103.858 40.5641 103.604 40.9487C103.477 40.9487 103.35 40.8846 103.35 40.6923C103.795 39.9231 104.366 39.2821 105.063 39.2821C105.825 39.2821 105.571 40.2436 105.444 40.6282ZM112.931 38.9615C113.184 38.8333 113.565 38.9615 113.628 39.1538C113.438 39.6667 112.169 42.8718 111.725 44.2179C111.662 44.4744 111.725 44.5385 111.852 44.5385C112.106 44.5385 112.486 44.2821 113.311 43.5769C113.438 43.5769 113.502 43.641 113.502 43.7692C112.931 44.6026 111.852 45.3718 111.091 45.3718C110.9 45.3718 110.71 45.2436 110.647 44.9872C110.647 44.859 110.647 44.7308 110.773 44.4103L111.218 43.1282H111.154C110.139 44.4103 108.68 45.4359 107.982 45.4359C107.601 45.4359 107.347 45.0513 107.347 44.6026C107.347 44.2821 107.665 43.1282 108.616 41.7821C109.314 40.8205 109.949 40.2436 110.52 39.9231C111.091 39.6026 111.408 39.4744 111.789 39.4744C111.915 39.4744 112.042 39.5385 112.106 39.5385C112.169 39.5385 112.296 39.6667 112.423 39.859L112.931 38.9615ZM110.456 40.6282C109.568 41.4615 108.68 43.3846 108.68 44.4103C108.68 44.6026 108.743 44.6667 108.87 44.6667C108.997 44.6667 109.441 44.4744 110.266 43.7051C111.344 42.6795 111.979 41.4615 112.169 40.5641C112.042 40.3077 111.852 40.0513 111.471 40.0513C111.154 40.0513 110.9 40.1795 110.456 40.6282ZM118.006 40.1154C118.006 40.3718 117.879 40.5 117.752 40.5641C117.625 40.5641 117.562 40.5641 117.498 40.4359C117.245 40.1795 117.054 39.9872 116.61 39.9872C116.166 39.9872 116.039 40.3718 116.039 40.5641C116.039 40.8846 116.103 41.141 116.547 41.9103C116.927 42.4872 117.118 42.8718 117.118 43.5128C117.118 43.8974 116.927 44.4103 116.356 44.9231C115.976 45.2436 115.468 45.4359 114.897 45.4359C114.326 45.4359 114.009 44.9872 114.009 44.6667C114.009 44.5385 114.073 44.3462 114.199 44.2179C114.326 44.0897 114.453 44.0897 114.58 44.2179C114.77 44.4103 115.215 44.7949 115.595 44.7949C115.912 44.7949 116.293 44.4103 116.293 43.9615C116.293 43.7051 116.103 43.2564 115.785 42.6795C115.405 42.1026 115.278 41.5897 115.278 41.3333C115.278 40.7564 115.532 40.3718 116.166 39.7949C116.61 39.4103 117.054 39.3462 117.245 39.3462C117.625 39.2821 118.006 39.7308 118.006 40.1154ZM122.066 40.1154C122.066 40.3718 121.94 40.5 121.813 40.5641C121.686 40.5641 121.622 40.5641 121.559 40.4359C121.305 40.1795 121.115 39.9872 120.671 39.9872C120.227 39.9872 120.1 40.3718 120.1 40.5641C120.1 40.8846 120.163 41.141 120.607 41.9103C120.988 42.4872 121.178 42.8718 121.178 43.5128C121.178 43.8974 120.988 44.4103 120.417 44.9231C120.036 45.2436 119.529 45.4359 118.958 45.4359C118.387 45.4359 118.069 44.9872 118.069 44.6667C118.069 44.5385 118.133 44.3462 118.26 44.2179C118.387 44.0897 118.514 44.0897 118.64 44.2179C118.831 44.4103 119.275 44.7949 119.656 44.7949C119.973 44.7949 120.353 44.4103 120.353 43.9615C120.353 43.7051 120.163 43.2564 119.846 42.6795C119.465 42.1026 119.338 41.5897 119.338 41.3333C119.338 40.7564 119.592 40.3718 120.227 39.7949C120.671 39.4103 121.115 39.3462 121.305 39.3462C121.749 39.2821 122.066 39.7308 122.066 40.1154ZM124.224 43.9615C124.097 44.2821 124.16 44.4744 124.35 44.4744C124.541 44.4744 125.112 44.0256 125.873 43.2564C127.205 41.9744 127.903 40.2436 128.411 39.4103C128.728 39.3462 129.045 39.4744 129.109 39.6667C128.982 40.0513 128.03 42.4231 127.459 44.1538C127.396 44.3462 127.396 44.5385 127.523 44.5385C127.776 44.5385 128.538 43.8333 128.918 43.3846C129.045 43.3846 129.172 43.3846 129.172 43.5769C128.792 44.2821 127.396 45.4359 126.634 45.4359C126.381 45.4359 126.19 45.1795 126.254 44.9231L127.205 42.2949C126.19 43.641 124.414 45.5 123.589 45.5C123.018 45.5 122.955 44.9231 123.145 44.2821L124.477 40.7564C124.604 40.5 124.604 40.3077 124.477 40.3077C124.224 40.3077 123.462 40.9487 123.145 41.3333C123.018 41.3333 122.955 41.2692 122.891 41.2051V41.141C123.272 40.5641 124.668 39.4103 125.366 39.4103C125.556 39.4103 125.873 39.6026 125.81 39.859L124.224 43.9615ZM133.613 40.1154C133.613 40.3718 133.486 40.5 133.36 40.5641C133.233 40.5641 133.169 40.5641 133.106 40.4359C132.852 40.1795 132.662 39.9872 132.218 39.9872C131.773 39.9872 131.647 40.3718 131.647 40.5641C131.647 40.8846 131.71 41.141 132.154 41.9103C132.535 42.4872 132.725 42.8718 132.725 43.5128C132.725 43.8974 132.535 44.4103 131.964 44.9231C131.583 45.2436 131.076 45.4359 130.505 45.4359C129.934 45.4359 129.616 44.9872 129.616 44.6667C129.616 44.5385 129.68 44.3462 129.807 44.2179C129.934 44.0897 130.06 44.0897 130.187 44.2179C130.378 44.4103 130.822 44.7949 131.202 44.7949C131.52 44.7949 131.9 44.4103 131.9 43.9615C131.9 43.7051 131.71 43.2564 131.393 42.6795C131.012 42.1026 130.885 41.5897 130.885 41.3333C130.885 40.7564 131.139 40.3718 131.773 39.7949C132.218 39.4103 132.662 39.3462 132.852 39.3462C133.296 39.2821 133.613 39.7308 133.613 40.1154ZM27.6616 6.01282C28.6767 6.01282 29.6284 7.10256 29.6284 8.76923V22.1026C29.6284 26.9744 27.6616 26.5897 25.568 26.5897C23.4743 26.5897 23.2205 24.4744 23.2205 22.0385V8.83333C23.2205 7.10256 24.1088 6.07692 25.1873 6.07692V5.30769H18.0181V6.01282C19.0332 6.01282 19.9849 7.10256 19.9849 8.76923V23.1923C19.9849 25.9487 21.4441 28.0641 24.9335 28.0641C28.423 28.0641 30.5801 27.8718 30.5801 22.0385V8.83333C30.5801 7.10256 31.4683 6.07692 32.5468 6.07692V5.30769H27.6616V6.01282ZM178.659 6.01282C179.674 6.01282 180.562 7.10256 180.562 8.76923V22.1026C180.562 26.9744 178.595 26.5897 176.502 26.5897C174.408 26.5897 174.154 24.4744 174.154 22.0385V8.83333C174.154 7.10256 175.042 6.07692 176.057 6.07692V5.30769H169.015V6.01282C170.03 6.01282 170.918 7.10256 170.918 8.76923V23.1923C170.918 25.9487 172.378 28.0641 175.867 28.0641C179.357 28.0641 181.514 27.8718 181.514 22.0385V8.83333C181.514 7.10256 182.338 6.07692 183.417 6.07692V5.30769H178.722L178.659 6.01282ZM42.0634 26.4615C41.8097 26.5256 40.5408 26.6538 39.5257 26.5897C38.7009 26.5256 38.7009 26.3974 38.7009 24.5385V8.57692C38.7009 6.71795 39.145 6.26923 40.6042 6.26923C42.4441 6.26923 43.2054 6.78205 43.8399 8.44872C45.0453 11.5897 44.855 17.4872 44.5378 21.9744C44.5378 21.9744 44.0302 25.8846 42.0634 26.4615ZM41.5559 5.30769H33.5619V6.01282C34.6405 6.01282 35.4653 7.10256 35.4653 8.76923V24.1538C35.4653 25.8846 34.577 26.9103 33.5619 26.9103V27.6154H42.5076C43.9668 27.6154 45.6163 26.7821 46.6314 23.7692C47.6465 20.6923 47.7734 18.1282 47.5831 14.2821C47.3927 10.4359 46.7583 8.0641 45.8701 6.91026C45.0453 5.82051 43.6495 5.30769 41.5559 5.30769ZM54.8157 26.5897C53.8006 26.4615 53.6737 26.0128 53.6737 24.3462V16.9744C55.9577 17.1667 56.2115 17.1667 56.7825 20.2436H57.4169V12.5513H56.7825C56.2749 15.4359 55.9577 15.6282 53.6737 15.8205V8.32051C53.6737 6.65385 53.8006 6.33333 54.5619 6.39744L55.8308 6.46154C59.003 6.58974 59.1299 8.51282 59.3202 9.60256H60.0816V5.30769H48.5347V6.01282C49.5499 6.01282 50.5015 7.10256 50.5015 8.76923V24.1538C50.5015 25.8846 49.6133 26.9103 48.5347 26.9103V27.6154H60.3353L61.2236 23.5769H60.2719C59.2568 27.1667 56.4018 26.6538 54.8157 26.5897ZM190.586 26.5897C189.571 26.4615 189.444 26.0128 189.444 24.3462V16.9744C191.728 17.1667 191.982 17.1667 192.553 20.2436H193.187V12.5513H192.553C192.045 15.4359 191.728 15.6282 189.444 15.8205V8.32051C189.444 6.65385 189.571 6.33333 190.332 6.39744L191.665 6.46154C194.837 6.58974 194.964 8.51282 195.154 9.60256H195.915V5.30769H184.305V6.01282C185.32 6.01282 186.208 7.10256 186.208 8.76923V24.1538C186.208 25.8846 185.32 26.9103 184.305 26.9103V27.6154H196.042L196.931 23.5769H196.042C195.091 27.1667 192.172 26.6538 190.586 26.5897ZM12.435 18.0641H6.91541L12.435 4.28205V18.0641ZM15.9879 0.5H9.89728V1.20513C11.4834 1.20513 11.6737 2.42308 11.1027 3.70513C9.13595 8.89744 3.99698 22.1026 3.42598 23.4487C2.66465 25.1154 1.64955 26.9744 0 26.9744V27.6795H5.77341V26.9744C4.44109 26.9744 4.06042 25.0513 4.69486 23.4487C5.32931 21.8462 6.4713 19.0897 6.4713 19.0897H12.435V23.8974C12.435 26.8462 11.4199 26.9744 9.96072 26.9744V27.6795H18.5257V26.9744C17.3202 26.9744 16.0514 26.9103 16.0514 23.8974C16.0514 22.2949 15.9879 0.5 15.9879 0.5ZM141.734 13.4487C141.734 14.1538 141.48 14.5385 140.973 14.5385H138.118V8.64103V7.29487V1.46154H140.973C141.48 1.46154 141.734 1.91026 141.734 2.74359V13.4487ZM142.432 0.5H131.964V1.20513C133.486 1.20513 134.438 2.23077 134.438 4.21795V23.5769C134.438 26.6538 133.296 26.9103 131.964 26.9103V27.6154H140.529V26.9103C139.006 26.9103 138.054 26.5897 138.054 23.5769V15.6282H142.622C144.082 15.6282 145.224 14.5385 145.224 12.1026V3.89744C145.287 1.91026 144.335 0.5 142.432 0.5ZM72.0091 20.9487L67.7583 5.3718H62.1118V6.07692C63.5076 6.07692 64.0786 6.58974 64.0786 8.89744V24.2179C64.0786 25.9487 63.2538 26.9744 62.1118 26.9744V27.6795H67.0604V26.9744C65.9184 26.9744 65.0937 25.8846 65.0937 24.2179V8.19231L70.4864 27.6795H70.994L76.577 8.25641V24.2179C76.577 25.9487 75.7523 26.9744 74.6103 26.9744V27.6795H81.8429V26.9744C80.7009 26.9744 79.8127 25.8846 79.8127 24.2179V8.83333C79.8127 7.10256 80.6375 6.07692 81.8429 6.07692V5.30769H76.3867L71.9456 20.5641M106.332 13.8974C106.332 16.5897 103.541 16.2051 102.526 16.2051V7.80769C102.526 6.91026 102.589 6.46154 103.35 6.46154C104.873 6.46154 106.332 6.20513 106.332 8.32051C106.332 8.25641 106.332 13.8974 106.332 13.8974ZM110.393 25.7564L106.713 16.9744C107.855 16.7179 109.378 16.2692 109.378 14.1538C109.378 11.9103 109.314 9.60256 109.314 8.0641C109.314 5.30769 106.776 5.30769 104.239 5.30769H97.4502V6.01282C98.4653 6.01282 99.3535 7.10256 99.3535 8.76923V24.1538C99.3535 25.8846 98.2115 26.9103 97.3867 26.9103V27.6154H104.492V26.9103C103.477 26.9103 102.526 25.8205 102.526 24.1538V17.2308H103.604L107.221 26.3974C107.221 26.3974 107.411 26.9103 107.792 27.2949C108.109 27.6154 108.87 27.6154 108.87 27.6154H111.535V26.9103C111.281 26.9744 110.964 27.1026 110.393 25.7564ZM147.381 6.01282C148.713 6.01282 149.284 7.10256 149.284 8.76923V24.1538C149.284 25.8846 148.65 26.9103 147.381 26.9103V27.6154H154.36V26.9103C153.027 26.9103 152.456 25.8205 152.456 24.1538V8.83333C152.456 7.10256 153.027 6.07692 154.36 6.07692V5.30769H147.381V6.01282ZM118.831 13.8974C116.42 12.6154 115.468 10.9487 115.468 9.53846C115.468 8.76923 115.785 5.82051 117.752 5.82051C120.734 5.88462 121.622 10.1154 121.94 11.9744H122.511V4.98718H121.876C121.876 5.75641 121.559 5.94872 121.242 5.94872C120.163 5.88462 119.782 4.60256 116.927 4.73077C115.088 4.79487 112.74 6.46154 112.74 10.8846C112.74 12.9359 113.502 15.7564 115.976 17.4872C119.592 19.9231 120.734 20.9487 120.734 22.8077C120.734 23.5769 120.48 26.9103 117.625 26.9103C115.595 26.9103 114.263 23.5128 114.009 22.2308L113.565 19.9231H112.931V27.7436H113.628C113.692 27.1026 113.882 26.7821 114.136 26.7821C115.215 26.7821 116.293 27.9359 118.133 27.8718C122.891 27.8077 123.779 23.7051 123.779 21.4615C123.716 18.3205 122.193 15.6282 118.831 13.8974ZM163.559 16.3333V16.9103C163.559 16.9103 164.511 16.9744 164.511 18.5769V23.7692C164.511 26.5256 163.559 26.7821 161.846 26.7821C160.133 26.7821 159.498 26.141 159.498 24.0256V8.64103C159.498 7.16667 160.26 5.94872 162.036 5.94872C164.003 5.94872 166.097 7.9359 166.097 11.7821H167.175V4.98718H166.35C166.35 7.61539 164.828 4.92308 162.1 4.92308C160.133 4.92308 158.483 5.4359 157.595 6.46154C156.643 7.55128 156.199 8.83333 156.199 10.3718V22.4231C156.199 23.9615 156.643 25.2436 157.595 26.2692C158.547 27.359 160.577 27.9359 161.909 27.9359C162.671 27.9359 163.813 27.6154 164.384 27.359C164.955 27.1026 165.462 26.6538 165.906 26.141C166.858 25.0513 167.366 23.7692 167.366 22.2949V18.5769C167.366 17.1026 168.317 16.9744 168.317 16.9744V16.3974C168.381 16.3333 163.559 16.3333 163.559 16.3333ZM95.3565 25.4359L90.852 5.30769H86.9184V6.01282C88.3142 6.01282 88.1239 7.16667 87.8701 8.51282L84.6344 24.7949C84.1903 26.6538 83.6193 26.9744 83.0483 26.9744V27.6795H86.7915V26.9744C85.3958 26.9744 85.3958 25.8205 85.7764 24.0897L86.4109 20.8205H91.1057L91.994 24.859C92.4381 26.6538 91.7402 26.9744 90.9154 26.9744V27.6795H96.6254V26.9744C96.3082 26.9103 95.7372 26.7821 95.3565 25.4359ZM86.6647 19.7949L88.6314 9.79487L90.852 19.7949H86.6647ZM197.438 5.30769V9.60256H198.199C198.326 8.76923 198.517 7.48718 199.278 6.97436C200.039 6.46154 200.801 6.52564 202.133 6.52564V24.1538C202.133 25.8846 201.308 26.9103 200.23 26.9103V27.6154H207.208V26.9103C206.193 26.9103 205.305 25.8205 205.305 24.1538V6.52564C206.574 6.52564 207.335 6.52564 208.16 6.97436C208.921 7.48718 209.112 8.70513 209.239 9.60256H210V5.30769H197.438Z" fill="#BD9542"/>
</svg>
