<svg width="234" height="54" viewBox="0 0 234 54" fill="none" xmlns="https://www.w3.org/2000/svg">
<path id="image 10 (Traced)" fill-rule="evenodd" clip-rule="evenodd" d="M103.768 1.00166C103.768 1.47263 103.833 1.50353 104.822 1.50634C105.401 1.50814 106.011 1.59503 106.176 1.69958C106.433 1.86131 106.486 2.92103 106.535 8.8194C106.573 13.3681 106.521 15.8836 106.383 16.1411C106.219 16.4473 105.92 16.5464 105.021 16.5934C103.942 16.6498 103.869 16.6853 103.869 17.1552C103.869 17.6569 103.869 17.6569 107.13 17.7121L110.39 17.7673V9.13364V0.5H107.079C103.768 0.5 103.768 0.5 103.768 1.00166ZM113.2 9.02749V17.3814L119.576 17.3184C125.952 17.2556 125.952 17.2556 127.3 16.5914C128.799 15.8533 129.502 15.0792 129.845 13.7911C130.461 11.477 128.735 9.36561 125.895 8.95946C125.248 8.86695 124.939 8.72709 124.939 8.52683C124.939 8.36429 125.074 8.21339 125.24 8.19151C126.712 7.99807 127.148 7.83112 127.858 7.18939C129.385 5.81041 129.386 4.02529 127.862 2.50104C126.281 0.919792 125.845 0.832905 119.069 0.747421L113.2 0.673577V9.02749ZM122.783 2.30499C123.813 2.93267 124.272 3.82764 124.184 5.03344C124.03 7.11715 122.822 7.9758 120.175 7.88269L118.517 7.82429L118.462 4.86448L118.406 1.90466L120.268 1.90546C121.771 1.90606 122.255 1.98292 122.783 2.30499ZM123.123 9.75269C125.772 10.4871 126.211 14.124 123.802 15.3737C122.75 15.9193 119.43 16.175 118.918 15.75C118.675 15.5483 118.618 14.9064 118.618 12.3854V9.27009L120.474 9.40132C121.495 9.47356 122.687 9.63169 123.123 9.75269ZM115.081 19.8295C114.35 20.6992 114.452 20.9679 115.515 20.9679C116.117 20.9679 116.614 20.8292 116.979 20.5593C117.469 20.1969 117.78 20.1572 119.73 20.2082C121.929 20.2656 121.929 20.2656 121.929 20.8676C121.929 21.4659 121.921 21.47 120.674 21.5294C119.585 21.5811 119.42 21.6403 119.42 21.9809C119.42 22.3296 119.565 22.3726 120.737 22.3726C122.054 22.3726 122.054 22.3726 121.991 23.0247C121.929 23.6769 121.929 23.6769 119.481 23.7331C117.196 23.7856 117.019 23.7624 116.815 23.3819C116.646 23.0652 116.396 22.9745 115.695 22.9745C114.593 22.9745 114.393 23.3185 115.001 24.1715C115.434 24.7805 115.434 24.7805 119.604 24.7805C123.552 24.7805 123.792 24.7587 124.145 24.3692C124.386 24.1027 124.5 23.7142 124.467 23.2655C124.379 22.0521 124.4 21.2855 124.536 20.6623C124.636 20.2074 124.576 19.9712 124.296 19.7173C123.975 19.427 123.328 19.3706 119.74 19.3206C115.558 19.2622 115.558 19.2622 115.081 19.8295ZM97.9555 19.7137C97.9657 20.284 98.4564 20.7672 99.0247 20.7672C99.5544 20.7672 99.5544 20.7672 99.5544 22.7739V24.7805H100.859H102.163V22.3956C102.163 20.0822 102.148 20.0011 101.668 19.6866C101.317 19.4563 100.708 19.3626 99.5614 19.3626C98.1572 19.3626 97.9499 19.4079 97.9555 19.7137ZM103.768 20.0649C103.768 20.7672 103.768 20.7672 106.578 20.7672C108.139 20.7672 109.387 20.8487 109.387 20.9504C109.387 21.0514 108.665 21.8049 107.782 22.6252C105.719 24.5411 105.705 24.7805 107.652 24.7805C109.127 24.7805 109.127 24.7805 111.06 22.824C112.81 21.054 112.994 20.7959 112.996 20.1151L112.999 19.3626H108.384C103.768 19.3626 103.768 19.3626 103.768 20.0649ZM126.644 20.7672V22.1719H130.243C133.574 22.1719 133.85 22.1996 133.96 22.5449C134.025 22.7502 134.021 23.0663 133.952 23.2473C133.841 23.5356 133.378 23.5765 130.235 23.5765C127.205 23.5765 126.644 23.6227 126.644 23.8723C126.644 24.0351 126.911 24.306 127.236 24.4743C128.055 24.8975 133.962 24.9144 134.962 24.4966C136.239 23.963 136.488 22.5546 135.458 21.6881C134.854 21.18 134.775 21.1686 131.846 21.1686C128.852 21.1686 128.852 21.1686 128.852 20.5666C128.852 19.9646 128.852 19.9646 132.464 19.9646C135.54 19.9646 136.076 19.92 136.076 19.6636C136.076 19.4045 135.418 19.3626 131.36 19.3626H126.644V20.7672ZM200.891 29.4962C200.891 30.1985 200.891 30.1985 201.9 30.1985C202.456 30.1985 203.211 30.3243 203.58 30.4782C204.95 31.0507 204.904 30.6907 204.904 40.8982C204.904 49.0031 204.865 50.1868 204.576 50.7954C204.143 51.7085 203.383 52.0711 201.904 52.0711C200.69 52.0711 200.69 52.0711 200.69 52.7734C200.69 53.4757 200.69 53.4757 206.509 53.4757C212.328 53.4757 212.328 53.4757 212.328 52.7734C212.328 52.0711 212.328 52.0711 210.81 52.0711C207.825 52.0711 207.914 52.3586 207.914 42.7333C207.914 38.3138 207.99 35.0099 208.092 35.048C208.189 35.0847 212.937 39.2234 218.641 44.2451C227.485 52.0307 229.113 53.3846 229.7 53.4376L230.388 53.5V42.1371C230.388 35.1088 230.463 30.6342 230.585 30.407C230.844 29.922 231.825 29.5965 233.027 29.5965C233.867 29.5965 234 29.5413 234 29.1952C234 28.8039 233.867 28.7938 228.683 28.7938C223.627 28.7938 223.365 28.8123 223.365 29.1683C223.365 29.4886 223.569 29.5572 224.779 29.6437C225.891 29.7233 226.298 29.8437 226.686 30.2073C227.178 30.6699 227.178 30.6699 227.178 36.2534C227.178 39.3244 227.128 41.8371 227.068 41.8371C227.007 41.8371 223.514 38.9024 219.306 35.3155L211.654 28.7938H206.272C200.891 28.7938 200.891 28.7938 200.891 29.4962ZM0.0612023 29.9477C0.122606 30.4829 0.16896 30.5025 1.59128 30.5998C3.99585 30.7644 3.82709 29.9555 3.83251 41.3477C3.83673 50.6339 3.82248 51.0077 3.44583 51.4119C3.02283 51.8658 1.84372 52.1429 0.786007 52.0369C0.152707 51.9735 0.122004 52.0028 0.0624064 52.7232L0 53.4757L10.196 53.4741C16.0844 53.4733 20.9429 53.3868 21.6962 53.2692C24.5145 52.8298 27.0941 50.9895 27.8014 48.9138C28.4827 46.9142 28.1034 45.1025 26.6769 43.5416C25.568 42.3283 24.2815 41.6962 22.2109 41.3469C20.1852 41.0054 20.2514 40.4365 22.3489 40.163C23.633 39.9956 24.7212 39.4089 25.5554 38.4342C27.8389 35.7664 26.6157 32.1785 22.8552 30.5156C20.5736 29.5064 19.2268 29.3958 9.21938 29.3958C-0.00240898 29.3958 -0.00240869 29.3958 0.0612023 29.9477ZM17.4962 31.7537C20.6736 33.3634 20.608 37.8025 17.3819 39.4855C16.7335 39.8238 16.1068 39.9212 14.121 39.992L11.6629 40.0795V35.6408V31.2018H14.035C16.2246 31.2018 16.4905 31.2442 17.4962 31.7537ZM131.099 34.2347C130.312 34.9372 129.857 34.9553 127.513 34.376C126.079 34.0216 125.148 33.9377 122.631 33.9361C119.791 33.9345 119.38 33.9811 117.9 34.4723C112.874 36.14 109.764 40.6626 110.537 45.1778C111.514 50.8779 117.066 54.0566 124.69 53.2803C127.064 53.0385 129.736 52.3414 131.271 51.5636C132.263 51.0609 132.263 51.0609 132.263 49.76C132.263 49.0444 132.228 48.4591 132.184 48.4591C132.141 48.4591 131.261 48.9587 130.228 49.5694C124.655 52.8645 119.894 52.356 117.841 48.2464C117.034 46.633 116.74 45.0887 116.866 43.1414C117.048 40.3476 118.17 38.1706 120.098 36.8735C121.412 35.9891 122.423 35.7517 124.368 35.8709C127.018 36.0331 129.221 37.2692 130.672 39.4079C131.215 40.2089 131.476 40.4232 131.912 40.4272C132.43 40.4321 132.464 40.3791 132.464 39.561C132.464 37.1552 132.184 33.8229 131.975 33.7429C131.85 33.6947 131.455 33.916 131.099 34.2347ZM65.122 34.563C64.9567 34.8664 62.9412 38.91 60.643 43.5486C56.2434 52.429 56.2155 52.4724 54.8969 52.4724C54.5056 52.4724 54.4047 52.5753 54.4047 52.9741C54.4047 53.4757 54.4047 53.4757 58.6186 53.4757C62.8326 53.4757 62.8326 53.4757 62.8326 52.9741C62.8326 52.5053 62.7664 52.4724 61.8203 52.4724C61.0128 52.4724 60.708 52.3727 60.3153 51.9798C59.6005 51.2652 59.684 50.5093 60.6478 48.9724L61.4727 47.6564L65.2129 47.6572L68.9529 47.658L70.0064 49.2949C71.1263 51.035 71.2231 51.3697 70.7808 51.9747C70.5637 52.2717 70.1846 52.3745 69.0751 52.4371C67.7279 52.5131 67.6486 52.5442 67.6486 52.9967C67.6486 53.4757 67.6486 53.4757 73.7689 53.4757C79.8892 53.4757 79.8892 53.4757 79.8892 52.9741C79.8892 52.5735 79.7887 52.4724 79.3907 52.4724C79.1164 52.4724 78.6308 52.224 78.3112 51.9206C77.9917 51.6172 75.3592 47.6213 72.4616 43.0411C69.5637 38.4609 67.0556 34.5554 66.8879 34.3623C66.4037 33.8045 65.4778 33.9098 65.122 34.563ZM165.193 42.6801C162.845 47.4588 160.734 51.5736 160.501 51.824C160.269 52.0745 159.734 52.3343 159.314 52.4016C158.678 52.5031 158.55 52.6034 158.55 52.9997C158.55 53.4757 158.55 53.4757 162.764 53.4757C166.978 53.4757 166.978 53.4757 166.978 52.9741C166.978 52.5089 166.908 52.4724 166.019 52.4724C164.911 52.4724 164.326 52.1329 163.975 51.2859C163.744 50.7272 163.788 50.5831 164.614 49.221L165.502 47.7568L169.3 47.7044L173.098 47.652L174.049 49.1646C175.169 50.9467 175.323 51.4329 174.935 51.9629C174.708 52.2735 174.346 52.3735 173.221 52.4371C171.873 52.5131 171.794 52.5442 171.794 52.9967C171.794 53.4757 171.794 53.4757 177.914 53.4757C184.035 53.4757 184.035 53.4757 184.035 52.9741C184.035 52.6102 183.927 52.4724 183.643 52.4724C183.427 52.4724 183.041 52.3767 182.784 52.2599C182.485 52.1234 180.269 48.8307 176.604 43.0794C170.933 34.1779 170.886 34.1111 170.176 34.0515C169.461 33.9915 169.461 33.9915 165.193 42.6801ZM31.7294 34.8138C31.7294 35.4158 31.7294 35.4158 33.0067 35.4158C33.995 35.4158 34.4035 35.5099 34.8127 35.8318C35.3414 36.2476 35.3414 36.2476 35.3414 43.7711C35.3414 48.2949 35.2632 51.4412 35.145 51.6619C34.8855 52.1469 33.9047 52.4724 32.7029 52.4724C31.7975 52.4724 31.7294 52.5075 31.7294 52.9759C31.7294 53.4793 31.7294 53.4793 42.0099 53.4274L52.2906 53.3754L52.8336 49.9683C53.3919 46.4655 53.3787 46.2626 52.5916 46.2548C52.4094 46.253 52.0101 46.806 51.6156 47.6063C50.7158 49.4309 49.9503 50.352 48.9191 50.8512C48.1591 51.219 47.6868 51.2684 44.9244 51.2684C42.3439 51.2684 41.7358 51.2128 41.476 50.9532C41.2013 50.6782 41.1607 49.7189 41.1607 43.4727C41.1607 37.3127 41.2045 36.2452 41.4732 35.8619C41.7539 35.4608 41.9564 35.4158 43.4798 35.4158C45.174 35.4158 45.174 35.4158 45.174 34.8138C45.174 34.2118 45.174 34.2118 38.4517 34.2118C31.7294 34.2118 31.7294 34.2118 31.7294 34.8138ZM81.0932 34.6886C81.0932 35.1216 81.1945 35.1738 82.1938 35.2567C84.2159 35.4244 84.1032 34.9232 84.1032 43.7396C84.1032 51.399 84.1032 51.399 83.6031 51.869C83.2425 52.2077 82.7946 52.3644 81.9978 52.4305C80.9937 52.5137 80.8925 52.5657 80.8925 52.9989C80.8925 53.4757 80.8925 53.4757 85.374 53.4757C87.839 53.4757 89.906 53.4254 89.9676 53.3637C90.029 53.3021 90.0336 53.0764 89.9777 52.8621C89.894 52.5424 89.6971 52.4724 88.8826 52.4724C87.6824 52.4724 87.2139 52.246 86.8142 51.4731C86.5639 50.9891 86.5112 49.8537 86.5112 44.9575C86.5112 41.696 86.581 39.0278 86.6665 39.0278C86.7518 39.0278 90.5172 42.2786 95.0338 46.2518C100.748 51.2786 103.387 53.4757 103.708 53.4757C104.17 53.4757 104.17 53.4757 104.17 44.5461C104.17 35.884 104.182 35.6044 104.571 35.2151C104.865 34.9208 105.24 34.8138 105.976 34.8138C106.734 34.8138 106.979 34.7402 106.979 34.5128C106.979 34.255 106.388 34.2118 102.865 34.2118C99.3425 34.2118 98.7518 34.255 98.7518 34.5128C98.7518 34.7392 98.994 34.8138 99.728 34.8138C100.412 34.8138 100.863 34.9384 101.233 35.2298C101.762 35.6456 101.762 35.6456 101.762 39.9454C101.762 42.3103 101.689 44.2451 101.599 44.2451C101.51 44.2451 98.7782 41.9876 95.5291 39.2285L89.6215 34.2118H85.3573C81.0932 34.2118 81.0932 34.2118 81.0932 34.6886ZM185.841 34.7107C185.841 35.1891 185.898 35.2151 186.958 35.2151C189.442 35.2151 189.453 35.2525 189.453 44.1474C189.453 51.2867 189.453 51.2867 188.96 51.7791C188.537 52.2019 188.281 52.2717 187.154 52.2717C185.841 52.2717 185.841 52.2717 185.841 52.8737C185.841 53.4757 185.841 53.4757 192.376 53.4757C198.911 53.4757 198.911 53.4757 198.847 52.9239C198.785 52.3857 198.748 52.3707 197.352 52.3137C195.101 52.2216 195.248 52.8296 195.315 43.8759C195.372 36.2713 195.375 36.2267 195.82 35.7822C196.167 35.4349 196.561 35.3163 197.586 35.2511C198.796 35.174 198.901 35.1317 198.845 34.7396C198.784 34.3148 198.743 34.3118 192.312 34.2592C185.841 34.2062 185.841 34.2062 185.841 34.7107ZM137.079 35.2005C137.079 35.8171 137.079 35.8171 138.392 35.8171C139.519 35.8171 139.776 35.887 140.198 36.3098C140.691 36.8022 140.691 36.8022 140.691 44.151C140.691 51.5 140.691 51.5 140.104 52.0865C139.585 52.606 139.379 52.6731 138.298 52.6731C137.213 52.6731 137.079 52.717 137.079 53.0744C137.079 53.4675 137.213 53.4757 143.601 53.4757C149.988 53.4757 150.122 53.4675 150.122 53.0744C150.122 52.7335 149.988 52.6731 149.232 52.6731C148.171 52.6731 147.475 52.4339 146.92 51.8784C146.542 51.5006 146.51 51.2224 146.51 48.2584V45.0478H150.101C154.136 45.0478 155.323 44.8104 157.339 43.5994C158.932 42.6422 159.657 41.3965 159.643 39.6396C159.623 37.1937 158.544 35.7967 156.113 35.0691C155.217 34.8008 153.547 34.7337 146.059 34.6655C137.079 34.5839 137.079 34.5839 137.079 35.2005ZM151.983 36.8171C154.054 38.2368 154.096 41.2148 152.065 42.7216C151.576 43.084 151.158 43.1505 149.005 43.2081L146.51 43.2745V39.7253V36.1761L148.883 36.2476C151.016 36.3116 151.329 36.3692 151.983 36.8171ZM66.2941 43.2241C67.039 44.4253 67.6486 45.5077 67.6486 45.6293C67.6486 45.779 66.8062 45.8504 65.0399 45.8504C63.4061 45.8504 62.4313 45.7742 62.4313 45.6464C62.4313 45.3217 64.626 41.0343 64.7907 41.0373C64.8726 41.0387 65.5492 42.0227 66.2941 43.2241ZM170.422 43.3078C171.177 44.4909 171.794 45.547 171.794 45.6548C171.794 45.8845 166.579 45.9297 166.573 45.6999C166.565 45.3361 168.702 41.0517 168.867 41.1015C168.968 41.1318 169.668 42.1247 170.422 43.3078ZM18.52 42.6245C19.9929 43.1858 20.9545 44.2311 21.2918 45.6375C22.2045 49.4411 19.4126 51.6649 14.0045 51.4418C12.534 51.3812 12.184 51.3025 11.9476 50.9792C11.7227 50.6714 11.6629 49.6861 11.6629 46.2861V41.9824L14.5224 42.0865C16.7887 42.169 17.6178 42.2806 18.52 42.6245Z" fill="#BD9542"/>
</svg>
