<svg width="168" height="104" viewBox="0 0 168 104" fill="none" xmlns="https://www.w3.org/2000/svg">
<path id="Union" fill-rule="evenodd" clip-rule="evenodd" d="M140.47 0L139.319 0.511101L130.121 9.32569C129.354 8.81459 128.588 8.68682 127.694 8.81459C125.905 9.19792 124.628 11.2423 125.011 13.4145C125.139 13.9256 125.394 14.4367 125.65 14.8191L97.2869 43.4379C95.8823 41.9046 93.8369 41.1379 91.9212 41.5222C90.6435 41.7777 89.6213 42.5444 88.8556 43.4379L69.1801 28.1067C69.5634 27.2123 69.819 26.0623 69.5634 24.9124C69.1801 22.2291 66.8802 20.4402 64.5802 20.9513C63.9413 21.0791 63.4302 21.3347 62.9201 21.718L54.2323 15.5857L53.2101 15.458L53.5934 16.6079L61.259 24.2735C61.1312 25.0401 61.0035 25.8068 61.259 26.7012C61.6423 29.3836 63.9413 31.1724 66.2413 30.6622C67.0079 30.4067 67.6468 30.1511 68.1579 29.64C68.4135 29.2567 68.5412 29.2567 68.669 29.3845C68.669 29.3845 75.9512 35.7723 78.5068 37.9445C80.2635 39.4377 82.7445 41.4136 84.3728 42.7105C85.1131 43.3001 85.6771 43.7493 85.9168 43.949C86.6844 44.7156 87.7066 45.4823 87.7066 45.4823C87.3232 46.6322 87.1955 48.0378 87.4501 49.3146C88.2167 53.0201 91.4111 55.3191 94.6055 54.6802C97.7989 54.0413 99.8433 50.5923 99.0767 46.8869C98.9489 46.248 98.6943 45.6091 98.31 44.9702L126.29 15.7135C127.057 16.3524 128.079 16.7357 129.101 16.4802C131.017 16.0968 132.294 14.0534 131.783 12.009C131.783 11.6256 131.656 11.3701 131.528 11.1145L140.088 1.14903L140.47 0ZM65.3469 28.4901C63.9413 28.7456 62.5358 27.5956 62.2812 25.9346C62.0247 24.1457 62.9201 22.6134 64.3256 22.2291C65.7311 21.9735 67.1357 23.1235 67.3913 24.7846C67.7746 26.5734 66.7524 28.1067 65.3469 28.4901ZM94.9869 50.7201C93.5823 50.9757 92.3036 49.9535 92.049 48.4202C91.7935 46.8869 92.6879 45.4823 93.9657 45.2258C95.2434 44.8424 96.5202 45.8646 96.9035 47.398C97.1591 48.9313 96.2647 50.4646 94.9869 50.7201ZM129.355 14.8191C128.205 15.0746 127.055 14.1802 126.8 12.7747C126.544 11.3691 127.311 10.0923 128.461 9.83679C129.611 9.58124 130.761 10.4757 131.016 11.8812C131.27 13.2867 130.505 14.5645 129.355 14.8191ZM45.4529 67.7046C45.7413 67.2901 46.0279 66.8668 46.3124 66.4345C52.733 56.5839 56.3681 52.4852 61.6369 49.512C62.9487 50.041 64.1984 51.1853 64.1984 53.6579C64.1984 58.1437 59.8691 63.1538 55.6756 65.6335C54.6993 65.0281 53.5462 64.7715 52.5727 64.7715C51.0394 64.7715 49.1237 65.5391 49.1237 66.4335C49.1237 66.9437 49.3783 67.7113 51.4227 67.7113C52.2207 67.7113 53.1896 67.4856 54.2492 67.0804C54.5543 67.6457 54.7449 68.4588 54.7449 69.6279C54.7449 76.2703 45.2905 84.7035 38.136 84.7035C36.3584 84.7035 33.0359 83.7382 32.199 80.6303C36.5299 77.9637 40.9022 74.0414 44.9295 68.4444C45.7958 68.7691 46.6951 69.5081 46.6951 71.0334C46.6951 74.6102 41.2017 78.6981 37.4962 78.5703C43.5007 78.9555 48.2284 73.7158 48.2293 70.6482C48.2293 69.5699 47.2269 68.1272 45.4529 67.7046ZM53.865 66.5468C54.0063 66.6941 54.1357 66.8701 54.2492 67.0804C54.9133 66.8264 55.613 66.5018 56.3285 66.1181C57.1994 66.8896 57.8115 68.0291 57.8115 69.6279C57.8115 75.3768 48.3571 85.3414 37.6259 85.3414C34.5441 85.3414 31.7927 83.7729 30.8323 81.4316C25.3292 84.4991 19.9593 85.5989 15.5223 85.5989C7.21789 85.5989 0.830078 82.0203 0.830078 75.7602C0.830078 68.2215 10.7956 61.068 19.4834 61.068C23.5722 61.068 27.1489 63.6225 27.1489 67.3289C27.1489 70.7789 23.9545 76.1435 15.651 76.1435C12.4567 76.1435 10.0299 75.1213 10.0299 75.1213C10.0299 75.1213 12.7132 75.6334 15.0131 75.6334C22.0398 75.6334 25.2332 71.4168 25.2332 67.5845C25.2332 62.2179 20.1232 61.7078 19.101 61.7078C10.6688 61.7078 3.38653 68.3521 3.38653 75.6334C3.38653 82.148 10.2854 85.0869 15.5242 85.0869C18.8097 85.0869 24.208 84.6115 30.4962 80.0954C30.4792 79.9303 30.4705 79.7626 30.4705 79.5925C30.4705 75.3069 35.5484 69.2288 41.8367 67.8631C46.7438 60.8408 52.8299 53.728 60.9497 49.2873C60.1274 49.0745 59.3635 49.0589 58.9605 49.0589C51.5505 49.0589 46.9515 55.0634 42.4794 61.1957C38.136 67.2002 29.9594 75.1213 20.3772 77.4212C30.2149 73.8445 36.7305 66.5623 41.3294 60.1735C45.8016 54.17 52.956 47.909 60.4938 47.909C61.1824 47.909 62.0312 48.0235 62.8825 48.3005C65.1641 47.2172 67.5991 46.3448 70.2044 45.7378C67.6118 46.721 65.4362 47.593 63.5058 48.5338C65.2728 49.287 66.8816 50.8053 66.8816 53.5301C66.8816 58.0713 61.2345 63.4866 56.3285 66.1181C56.1236 65.9366 55.9045 65.7755 55.6756 65.6335C55.0646 65.9948 54.4564 66.3024 53.865 66.5468ZM53.865 66.5468C53.1821 65.8348 52.2205 65.7937 51.4227 65.7937C50.4005 65.7937 49.8894 66.0493 49.8894 66.4335C49.8894 66.9437 50.6561 67.1992 51.0394 67.1992C51.8858 67.1992 52.8509 66.9659 53.865 66.5468ZM41.3958 68.5004C35.8514 69.8237 32.1052 75.5461 32.0058 78.9451C35.0043 76.5272 38.1758 73.1666 41.3958 68.5004ZM135.487 75.8879C135.359 75.8879 135.231 76.0157 135.104 76.1435C130.76 80.4878 126.672 83.6822 124.244 83.6822C122.583 83.6822 121.944 83.1702 121.944 81.1276C121.944 80.7434 121.944 80.36 122.073 79.9777C126.672 79.8499 133.187 76.7833 133.187 73.4611C133.187 72.8213 132.804 71.801 131.015 71.801C128.204 71.801 123.86 74.6111 121.177 77.5499C116.833 82.5322 113.512 83.809 112.745 83.809C111.978 83.809 110.956 83.297 113.001 80.4869L119.261 72.0556H116.195L113.129 76.1425C109.041 81.6368 105.847 83.9359 104.186 83.9359C103.292 83.9359 102.27 83.296 104.314 80.4859L110.702 72.0547H107.508C104.058 76.6536 102.27 78.5693 93.9658 83.4257L102.397 72.0547H99.3314L98.0537 73.9694C97.7972 72.1815 96.6481 71.6694 94.8593 71.6694C91.7936 71.6694 87.9604 74.0962 85.5326 76.7804C81.6994 80.8674 77.4838 83.9349 75.1838 83.9349C73.7783 83.9349 73.1394 83.5525 73.1394 81.7627C73.1394 81.1248 73.2672 80.485 73.3949 79.9748C78.2495 79.9748 83.616 75.7582 83.616 73.4583C83.616 72.8185 83.2327 71.9259 81.4438 71.9259C78.2495 71.9259 73.1394 75.5027 71.095 78.9526C68.7951 77.8027 69.6895 74.6083 73.6505 72.0537H69.9469L61.898 80.6127C64.198 77.4184 66.1146 74.6083 66.1146 73.5861C66.1146 72.8185 65.6035 71.9259 64.3258 71.9259C62.7925 71.9259 57.6814 75.2462 55.2547 78.185C59.7268 74.2249 63.3036 72.6907 63.6869 72.6907C64.4535 72.6907 64.198 73.4583 63.8147 73.9684L55.7658 84.7016H58.9601L68.4136 74.7379C68.0303 76.6546 68.9247 78.5702 70.8404 79.4647C70.3293 80.2323 70.0737 81.1267 70.0737 81.8914C70.0737 83.8081 71.8626 84.9581 73.7792 84.9581C76.206 84.9581 79.6559 82.9137 82.9771 80.1035C82.5938 80.8692 82.466 81.6359 82.466 82.146C82.466 83.296 83.3605 84.9581 85.4049 84.9581C87.4483 84.9581 90.1316 83.6803 92.4315 81.8914L89.7483 85.8534C89.5522 85.9515 89.3562 86.0681 89.1529 86.1891L89.1528 86.1892L89.1524 86.1894C88.8259 86.3838 88.4808 86.5891 88.0872 86.746C78.505 92.1125 70.9682 96.8393 70.9682 100.673C70.9682 101.951 71.7348 102.846 73.3949 102.846C77.6115 102.846 84.1262 96.7124 91.2816 87.0034L93.0704 84.7035C97.9249 82.0192 100.863 80.1045 103.546 77.4203L102.396 78.9545C99.2027 83.297 102.396 84.5757 103.802 84.5757C105.591 84.5757 107.762 83.0414 109.806 81.1257C109.167 83.296 110.445 84.5757 112.106 84.5757C114.022 84.5757 116.962 82.5313 119.388 80.3591C119.132 80.8692 119.005 81.3813 119.005 81.8914C119.005 84.0636 120.41 85.0858 122.199 85.0858C123.86 85.0858 126.543 83.9359 129.098 82.147C130.503 81.1267 132.036 79.9767 133.57 78.5702L129.354 84.7035H132.165L143.485 68.3511H150.052C150.308 68.3511 150.308 68.2224 150.052 68.2224C150.052 68.2224 147.339 68.1468 143.699 68.0423L151.712 56.468C151.387 56.7931 150.573 57.8522 149.396 59.3833L149.396 59.3839L149.396 59.384C147.725 61.5579 145.323 64.6831 142.552 68.0094C135.687 67.8115 126.407 67.536 125.139 67.4567C122.967 67.4567 122.584 67.3289 121.945 66.6891L120.795 68.3511H142.267C140.158 70.8709 137.846 73.4905 135.487 75.8879ZM129.61 72.6935C130.913 72.6935 130.898 73.354 130.889 73.7548V73.7557V73.7563C130.889 73.7774 130.889 73.7978 130.888 73.8173L130.888 73.8435C130.888 76.2703 126.161 79.3378 122.2 79.4647C123.222 75.6333 127.438 72.6935 129.61 72.6935ZM79.7847 72.6935C81.1892 72.6935 81.1892 73.8435 81.1892 74.0981C81.1892 77.0369 76.0792 79.3369 73.5237 79.4647C74.5459 75.5055 78.1236 72.6935 79.7847 72.6935ZM87.1947 83.5544C86.3002 83.5544 85.5336 83.4267 85.5336 81.51C85.5336 77.5499 90.1325 72.5667 93.5825 72.5667C95.8824 72.5667 96.137 74.0991 96.137 74.8667C96.137 79.4656 89.877 83.5544 87.1947 83.5544ZM85.6614 91.7311C81.7003 97.3522 76.7181 102.462 73.6524 102.462C72.8857 102.462 72.2469 102.207 72.2469 101.312C72.2469 97.3522 80.0402 91.9857 88.3437 87.2589C88.4719 87.1951 88.5678 87.1631 88.6636 87.1312C88.7594 87.0992 88.8553 87.0673 88.9835 87.0034L85.6614 91.7311ZM159.761 72.8214C159.562 72.9713 159.294 73.2625 158.952 73.634C157.544 75.1649 154.88 78.0602 150.563 78.0602C148.774 78.0602 147.497 77.038 147.497 75.2482C147.497 70.7779 154.141 67.329 158.995 67.329C161.295 67.329 165.383 67.7113 165.383 72.9501C165.383 79.849 158.867 84.448 152.35 84.448C150.203 84.448 148.468 84.0352 146.664 83.6061C144.712 83.1417 142.68 82.6582 139.957 82.6582C133.57 82.6582 131.269 85.7248 130.504 87.6405C130.887 86.746 133.187 83.8082 139.064 83.8082C141.092 83.8082 142.963 84.2799 144.848 84.7553C146.763 85.2382 148.693 85.7248 150.818 85.7248C157.717 85.7248 167.17 79.4638 167.17 72.8195C167.17 69.3696 165.127 66.5604 160.016 66.5604C153.756 66.5604 146.089 71.2871 146.089 75.8871C146.089 77.037 147.112 78.9537 150.306 78.9537C155.161 78.9555 158.994 73.845 159.761 72.8218L159.761 72.8214ZM97.6302 94.0827C97.805 94.129 98.1821 94.2288 98.1821 95.3079V99.9068C98.1821 100.988 97.8041 101.162 97.6296 101.185H97.5432C97.5432 101.185 97.5772 101.191 97.6296 101.185H101.759C103.42 101.185 105.592 99.9068 105.592 97.7347C105.592 96.8402 105.081 94.0301 101.759 94.0301H97.5432C97.5432 94.0597 97.5775 94.0688 97.6302 94.0827ZM100.227 94.2857H100.738C103.421 94.2857 103.804 96.8402 103.805 97.6078C103.805 99.78 102.399 100.93 100.994 100.93H100.354C99.9719 100.93 99.8441 100.547 99.8441 100.162V94.5412C99.8441 94.4134 99.9709 94.2857 100.227 94.2857ZM113.641 96.7126C114.023 96.3302 114.663 96.0747 115.43 96.0747C116.452 96.0747 117.857 96.9691 117.857 98.6292C117.857 100.289 116.452 101.312 115.045 101.312C114.534 101.312 114.023 101.184 113.641 100.801V102.974C113.641 103.81 113.843 103.97 114.003 103.996H111.69C111.837 103.97 112.108 103.81 112.108 102.974V97.4793C112.108 96.5848 111.596 96.5848 111.469 96.5848L113.641 96.0747V96.7126ZM111.596 103.996C111.596 103.996 111.635 104.005 111.69 103.996H111.596ZM114.003 103.996H114.152C114.142 103.996 114.129 103.997 114.116 103.998C114.084 104 114.045 104.002 114.003 103.996ZM113.641 100.29C113.769 100.675 114.023 100.93 114.534 100.93C115.429 100.93 116.068 100.163 116.068 98.7579C116.068 97.3534 115.301 96.5858 114.663 96.5858C114.28 96.5858 113.895 96.8413 113.641 97.0978V100.29ZM126.853 101.132C126.711 101.091 126.416 101.005 126.416 100.035V95.9478L124.372 96.458C124.501 96.458 124.883 96.458 124.883 97.3524V100.035C124.883 101.038 124.647 101.096 124.484 101.136C124.439 101.147 124.4 101.157 124.372 101.185H126.927C126.927 101.154 126.898 101.145 126.853 101.132ZM125.522 94.668C125.905 94.668 126.289 94.4125 126.289 94.1579C126.289 93.9033 125.906 93.6477 125.522 93.6477C125.139 93.6477 124.755 93.9033 124.755 94.1579C124.755 94.4125 125.139 94.668 125.522 94.668ZM123.99 100.929C123.862 100.929 123.479 100.929 123.479 100.417V96.2032H121.644C121.596 96.1952 121.564 96.2032 121.564 96.2032H121.644C121.787 96.2272 122.075 96.3949 122.075 97.3532V100.163C121.818 100.803 121.053 100.931 120.796 100.931C120.668 100.931 120.029 100.803 120.029 99.6531V96.2032H118.134C118.092 96.1965 118.053 96.1992 118.021 96.2014L118.007 96.2024C117.999 96.2029 117.992 96.2032 117.985 96.2032H118.134C118.294 96.2285 118.496 96.389 118.496 97.2254V99.1402C118.496 99.1834 118.496 99.2287 118.495 99.2756C118.488 100.062 118.477 101.312 120.285 101.312C120.924 101.312 121.691 101.057 122.075 100.547V101.185L123.99 100.929ZM111.469 98.1179H107.508V98.3744C107.508 100.162 108.53 100.801 109.424 100.801C110.064 100.801 110.703 100.417 111.085 100.034C110.703 100.928 109.807 101.566 108.658 101.566C106.869 101.566 105.847 100.034 105.847 98.8836C105.847 96.9689 107.892 95.9457 108.913 95.9457C109.809 95.9476 111.342 96.4578 111.469 98.1179ZM108.914 96.33C108.02 96.33 107.764 97.2244 107.636 97.8624H110.191C110.192 96.9698 109.554 96.33 108.914 96.33ZM129.355 101.567C130.761 101.567 131.655 100.801 131.655 99.907C131.655 98.9071 130.592 98.4875 130.147 98.3116L130.142 98.3098L130.082 98.286L130.062 98.2777L130.045 98.2706C130.024 98.2622 130.007 98.2546 129.994 98.2478C128.971 97.8635 128.589 97.6079 128.589 97.0978C128.589 96.7126 128.971 96.3302 129.482 96.3302C129.739 96.3302 130.505 96.3302 131.271 97.3524V96.458C130.505 96.0756 129.994 96.0756 129.611 96.0756C128.205 96.0756 127.311 96.7135 127.311 97.6079C127.311 98.6409 128.135 98.9514 128.766 99.1891L128.767 99.1896C128.838 99.2163 128.907 99.2422 128.971 99.2681L129.069 99.3169L129.205 99.3839C129.864 99.7081 130.377 99.9608 130.377 100.418C130.377 100.93 129.866 101.312 129.227 101.312C128.46 101.312 127.821 100.802 127.566 100.162V101.057C128.077 101.439 128.588 101.567 129.355 101.567ZM136.382 101.439C136.404 101.418 136.429 101.4 136.456 101.381C136.59 101.286 136.766 101.161 136.766 100.417V95.0523C136.766 94.2173 136.51 94.0644 136.347 93.9667C136.33 93.9569 136.315 93.9477 136.301 93.9384C136.283 93.9269 136.268 93.9153 136.255 93.9023L138.299 93.3903V100.417C138.299 101.135 138.546 101.276 138.709 101.37L138.71 101.371L138.712 101.372C138.726 101.38 138.74 101.388 138.753 101.396C138.757 101.399 138.762 101.401 138.766 101.404C138.77 101.407 138.775 101.41 138.779 101.413C138.783 101.416 138.787 101.419 138.791 101.423C138.795 101.425 138.798 101.427 138.8 101.43C138.804 101.433 138.807 101.436 138.81 101.439H136.382ZM151.33 93.6477C149.925 95.6911 147.754 99.5244 146.987 101.312H145.838C145.958 101.133 146.106 100.868 146.309 100.505L146.309 100.505C146.538 100.096 146.836 99.5624 147.242 98.8855C147.987 97.7278 148.678 96.5152 149.142 95.7009C149.395 95.2582 149.58 94.9333 149.67 94.7986H146.348C145.965 94.7986 145.581 94.9255 145.326 95.181L146.092 93.3912C146.349 93.6477 146.604 93.6477 146.732 93.6477H151.33ZM141.109 101.312C142.003 99.5244 144.047 95.6911 145.452 93.6477H140.98C140.725 93.6477 140.47 93.6477 140.214 93.3912L139.575 95.181C139.83 94.9255 140.086 94.7986 140.469 94.7986H143.79C143.654 95.0025 143.3 95.6431 142.844 96.4676C142.445 97.1891 141.968 98.0515 141.49 98.8855C140.881 99.7577 140.508 100.392 140.252 100.828C140.132 101.031 140.038 101.191 139.957 101.312H141.109ZM154.397 98.7578C154.397 100.29 153.503 101.185 152.481 101.185C152.097 101.185 151.331 101.185 150.435 100.035L150.563 101.058C151.458 101.44 152.351 101.44 152.608 101.44C154.396 101.44 156.057 100.29 156.057 98.5022C156.057 97.3522 155.035 95.9476 153.374 95.9476C152.736 95.9476 151.97 96.2032 151.458 96.5856L151.841 94.7977H154.78L155.546 93.3912C155.163 93.6477 154.781 93.6477 154.652 93.6477H151.586L150.947 97.3522C151.33 96.8402 151.97 96.4578 152.608 96.4578C153.758 96.4578 154.397 97.7355 154.397 98.7578ZM96.0114 47.6545C96.1382 48.6767 95.6271 49.6979 94.7337 49.8257C93.8383 50.0813 93.0726 49.3146 92.817 48.2924C92.6902 47.2702 93.2013 46.2489 94.0957 46.1212C94.9892 45.9934 95.7559 46.6323 96.0114 47.6545Z" fill="#BD9542"/>
</svg>
