<svg width="242" height="24" viewBox="0 0 242 24" fill="none" xmlns="https://www.w3.org/2000/svg">
<path id="image 11 (Traced)" fill-rule="evenodd" clip-rule="evenodd" d="M122.19 0.566425C122.033 0.588314 121.505 0.652554 121.017 0.709276C116.847 1.19322 113.154 3.39517 110.943 6.71556C107.011 12.6231 109.647 19.5648 116.879 22.3447C117.892 22.7342 119.334 23.0925 120.81 23.3212C122.339 23.5582 126.471 23.5599 128.049 23.3243C129.866 23.0531 131.746 22.5446 133.582 21.8281L134.123 21.6166L134.153 17.4165C134.181 13.3678 134.189 13.2006 134.384 12.7793C134.722 12.0486 135.518 11.646 136.624 11.646C137.178 11.646 137.18 11.6452 137.18 11.3605C137.18 11.075 137.18 11.075 131.85 11.075C126.521 11.075 126.521 11.075 126.521 11.3462C126.521 11.6173 126.521 11.6173 127.469 11.6751C129.053 11.7716 129.823 12.2531 130.035 13.282C130.104 13.6125 130.131 15.083 130.115 17.5316L130.089 21.2758L129.518 21.5129C128.604 21.8928 126.941 22.2802 125.682 22.4062C123.567 22.6181 121.488 22.258 119.586 21.3499C118.347 20.7582 117.611 20.235 116.765 19.3429C114.951 17.4311 113.958 15.0472 113.801 12.2315C113.695 10.3312 114.039 8.61069 114.86 6.93512C116.331 3.93107 118.823 2.20963 122.38 1.74168C123.45 1.60093 125.849 1.67468 126.767 1.87654C129.672 2.51513 131.642 4.05679 132.956 6.72099C133.299 7.41716 133.337 7.45856 133.632 7.45856C134.022 7.45856 134.02 7.66688 133.661 4.16833C133.243 0.107038 133.329 0.511131 132.888 0.511131C132.554 0.511131 132.516 0.535399 132.516 0.752102C132.516 1.16904 132.262 1.63243 131.941 1.79802C131.569 1.99027 131.478 1.97561 129.233 1.36309C128.291 1.10604 127.134 0.827191 126.663 0.743537C125.849 0.598973 122.818 0.478964 122.19 0.566425ZM156.597 9.95677C153.81 15.1519 151.299 19.7522 151.016 20.1796C150.424 21.0752 149.808 21.7412 149.355 21.9752C149.182 22.0648 148.673 22.2121 148.225 22.3025C147.422 22.4647 147.41 22.4711 147.381 22.7667C147.351 23.0665 147.351 23.0665 151.687 23.0665C156.023 23.0665 156.023 23.0665 156.023 22.7911C156.023 22.4763 155.891 22.4003 155.344 22.4003C154.575 22.4003 153.646 22.1162 153.253 21.7605C152.587 21.1593 152.703 20.7252 154.345 17.6894L155.426 15.6908L160.796 15.6662L166.167 15.6417L167.227 17.6648C168.251 19.6188 168.681 20.6337 168.681 21.0886C168.68 21.4587 168.322 21.9257 167.893 22.1153C167.596 22.2467 166.26 22.4955 165.852 22.4955C165.838 22.4955 165.826 22.6239 165.826 22.781C165.826 23.0665 165.826 23.0665 171.298 23.0665C176.77 23.0665 176.77 23.0665 176.77 22.7893C176.77 22.5362 176.735 22.507 176.366 22.4519C174.55 22.1808 173.783 21.7027 172.807 20.2317C172.409 19.6324 171.97 18.8079 166.395 8.19613C162.358 0.511131 162.358 0.511131 162.011 0.511131C161.664 0.511131 161.664 0.511131 156.597 9.95677ZM35.6331 1.16428C35.6331 1.43086 35.6489 1.43914 36.3706 1.5502C37.3224 1.69667 38.1809 2.10971 38.6564 2.64999C39.0559 3.10366 39.7439 4.42463 45.6351 16.0461C49.3852 23.4441 49.3852 23.4441 49.7189 23.4456C50.0527 23.4472 50.0527 23.4472 53.5677 16.0953C59.2464 4.21801 59.6007 3.51289 60.2449 2.8053C60.8504 2.14006 61.5562 1.73807 62.4411 1.55439C62.913 1.45636 62.9469 1.43067 62.9469 1.17057C62.9469 0.891812 62.9469 0.891812 58.9498 0.891812C54.9526 0.891812 54.9526 0.891812 54.9526 1.17732C54.9526 1.33435 54.9758 1.46283 55.0042 1.46283C55.2748 1.46283 56.591 1.80345 56.8695 1.94563C57.3511 2.19127 57.7128 2.68301 57.7113 3.08967C57.7106 3.26793 57.5899 3.75644 57.443 4.17518C57.091 5.17913 50.8374 18.3142 50.7283 18.2789C50.623 18.2449 44.2389 5.70961 43.7636 4.60345C43.3083 3.54373 43.2214 2.68368 43.5305 2.29367C43.8284 1.91765 44.1627 1.77214 45.1064 1.60759C45.5629 1.52793 45.9736 1.46283 46.0191 1.46283C46.0646 1.46283 46.1018 1.33435 46.1018 1.17732C46.1018 0.891812 46.1018 0.891812 40.8674 0.891812C35.6331 0.891812 35.6331 0.891812 35.6331 1.16428ZM75.2239 1.25736C75.2239 1.52907 75.2239 1.52907 76.1994 1.58893C77.4779 1.66745 78.1209 1.86302 78.5668 2.30899C79.1941 2.93626 79.1734 2.60183 79.1734 12.1219C79.1734 20.7108 79.1729 20.736 78.9706 21.1733C78.5789 22.0204 77.8166 22.3828 76.247 22.4682C75.2239 22.524 75.2239 22.524 75.2239 22.7956C75.2239 23.0673 75.2239 23.0673 85.9459 23.0431L96.6677 23.0189L97.7889 20.2114C98.4055 18.6672 98.9126 17.3335 98.9156 17.2476C98.923 17.043 98.4284 16.9084 98.3247 17.0868C97.0626 19.2595 96.1693 20.2491 94.9095 20.8702C93.5164 21.5571 93.2546 21.5864 88.5001 21.5891C84.3126 21.5913 84.3126 21.5913 83.9116 21.3616C83.1205 20.9085 83.1706 21.5418 83.1706 11.9791C83.1706 3.98694 83.1805 3.48339 83.3454 3.05579C83.7316 2.05489 84.7851 1.69514 87.7212 1.56152C87.764 1.55962 87.7854 1.44028 87.7688 1.29629C87.7388 1.03457 87.7388 1.03457 81.4813 1.01011C75.2239 0.98565 75.2239 0.98565 75.2239 1.25736ZM188.572 1.27249C188.572 1.55305 188.58 1.5581 189.071 1.56095C190.04 1.56666 190.954 1.73807 191.459 2.00854C191.846 2.2162 192 2.37218 192.188 2.74763C192.426 3.22348 192.426 3.22348 192.426 12.0743C192.426 20.9251 192.426 20.9251 192.212 21.3255C191.82 22.0587 190.733 22.4893 189.262 22.4935C188.572 22.4955 188.572 22.4955 188.572 22.781C188.572 23.0665 188.572 23.0665 194.472 23.0665C200.373 23.0665 200.373 23.0665 200.373 22.781C200.373 22.4955 200.373 22.4955 199.676 22.4955C197.895 22.4955 196.883 22.0083 196.554 20.9936C196.475 20.7498 196.427 19.4176 196.4 16.7139L196.361 12.7881H197.693C198.425 12.7881 199.082 12.767 199.151 12.7412C199.229 12.7124 201.102 14.7026 203.988 17.8804L208.699 23.0665H212.387C216.076 23.0665 216.076 23.0665 216.076 22.7852C216.076 22.5336 216.038 22.4983 215.719 22.4488C213.159 22.0521 212.205 21.6454 210.609 20.2702C209.887 19.6473 203.405 12.4941 203.448 12.3664C203.465 12.3136 203.748 12.216 204.077 12.1496C206.085 11.743 207.742 10.9356 208.758 9.86722C209.7 8.87735 210.08 7.96677 210.08 6.6972C210.08 5.10976 209.394 3.87349 207.94 2.8428C205.661 1.227 203.878 0.991931 193.877 0.988695C188.572 0.986982 188.572 0.986982 188.572 1.27249ZM229.368 1.05046C229.333 1.08529 229.304 1.20768 229.304 1.32236C229.304 1.51851 229.36 1.53469 230.253 1.59607C232.248 1.7335 233.02 2.22077 233.213 3.46445C233.274 3.85408 233.298 7.1365 233.278 12.4074C233.253 19.2562 233.223 20.7992 233.114 21.0979C232.796 21.9621 231.938 22.3847 230.328 22.4699C229.304 22.524 229.304 22.524 229.304 22.7952C229.304 23.0665 229.304 23.0665 235.253 23.0665C241.201 23.0665 241.201 23.0665 241.201 22.781C241.201 22.4955 241.201 22.4955 240.547 22.4955C239.623 22.4955 238.963 22.3516 238.254 21.9954C237.16 21.4452 237.251 22.3337 237.251 12.2171C237.251 2.45508 237.226 2.84528 237.903 2.2655C238.398 1.84209 238.976 1.67383 240.211 1.59398C241.201 1.52993 241.201 1.52993 241.201 1.2585C241.201 0.986982 241.201 0.986982 235.316 0.986982C232.079 0.986982 229.403 1.01553 229.368 1.05046ZM0.800781 1.34539C0.800781 1.62548 0.800781 1.62548 1.72869 1.68211C3.25532 1.77528 3.82539 2.04023 4.22691 2.8429C4.46483 3.31865 4.46483 3.31865 4.46483 12.0743C4.46483 20.3471 4.45522 20.855 4.28982 21.2836C3.97452 22.1008 3.23609 22.4695 1.72869 22.5623C0.800781 22.6194 0.800781 22.6194 0.800781 22.8905C0.800781 23.1616 0.800781 23.1616 7.20098 23.1603C13.3531 23.159 16.0745 23.0835 17.4373 22.8764C20.4962 22.4115 22.4311 21.1969 23.4781 19.0846C23.8386 18.3572 23.8748 18.2155 23.9111 17.3865C23.9798 15.8155 23.514 14.7005 22.3592 13.6714C21.5548 12.9544 20.1205 12.3159 18.56 11.9803C18.2322 11.9098 18.3167 11.8072 18.8355 11.6459C19.5934 11.4103 20.7346 10.7426 21.328 10.1875C22.4231 9.16306 22.9444 7.69001 22.7062 6.29263C22.2495 3.61206 19.8821 1.90947 15.7682 1.30276C14.9291 1.17904 13.4788 1.14373 7.772 1.10851C0.800781 1.0654 0.800781 1.0654 0.800781 1.34539ZM13.6855 2.33079C15.8821 2.61744 17.6917 3.71665 18.4549 5.22777C18.7206 5.75377 18.7404 5.86579 18.7404 6.83995C18.7404 7.81535 18.7202 7.92908 18.4444 8.50543C17.4256 10.6343 15.2528 11.4016 10.7461 11.2235C9.80388 11.1863 8.84028 11.127 8.60474 11.0917L8.17647 11.0274V6.79237V2.55729L8.65232 2.4349C9.68673 2.16881 12.0669 2.11951 13.6855 2.33079ZM201.657 2.4605C202.617 2.71327 203.569 3.22015 204.183 3.80516C205.204 4.7799 205.56 5.67878 205.493 7.11537C205.44 8.24009 205.145 8.89068 204.321 9.70315C202.952 11.0538 201.204 11.6156 198.065 11.715L196.376 11.7685V7.14982V2.53112L197.351 2.42015C197.888 2.35915 198.412 2.29291 198.517 2.27302C198.949 2.19079 201.127 2.32089 201.657 2.4605ZM163.264 10.0227C164.516 12.3986 165.54 14.3782 165.54 14.4218C165.54 14.4655 163.42 14.5012 160.829 14.5012C158.238 14.5012 156.119 14.4735 156.119 14.4396C156.119 14.2886 160.838 5.65632 160.908 5.6783C160.952 5.69191 162.012 7.6469 163.264 10.0227ZM14.2144 12.5629C17.0355 13.0335 18.7079 14.1907 19.3613 16.1242C19.659 17.005 19.5998 18.22 19.2207 19.0111C18.8839 19.7137 18.0482 20.5596 17.252 21.0038C15.5424 21.9578 12.6883 22.2401 9.46127 21.7743C8.91166 21.695 8.38708 21.6078 8.29543 21.5805C8.13983 21.5342 8.12889 21.2336 8.12889 17.0168C8.12889 14.534 8.16105 12.497 8.20026 12.49C8.23947 12.4832 8.76415 12.4448 9.3661 12.4048C10.8486 12.3064 13.1208 12.3805 14.2144 12.5629Z" fill="#BD9542"/>
</svg>
