<svg width="192" height="54" viewBox="0 0 192 54" fill="none" xmlns="https://www.w3.org/2000/svg">
<path id="Union" fill-rule="evenodd" clip-rule="evenodd" d="M35.6258 1.18809C37.5998 0.68592 39.4197 0.496124 41.0492 0.50006C46.3721 0.512917 49.6634 2.59185 49.6634 2.59185C51.141 3.47844 54.1702 3.10903 54.1702 3.10903C56.6083 2.8135 58.6031 1.92691 58.6031 1.92691C56.4605 4.14338 54.0224 7.98525 54.0224 7.98525L52.1015 11.2361C51.806 5.6949 48.4813 2.96126 48.4813 2.96126C44.5655 -0.215674 37.5467 1.63138 37.5467 1.63138C28.9764 3.92173 20.7016 13.0092 20.7016 13.0092C17.4508 16.5556 12.1313 24.3871 12.1313 24.3871C7.10728 33.9179 7.0334 40.9367 7.0334 40.9367C7.0334 46.8473 10.3581 50.2459 10.3581 50.2459C13.3873 53.4228 20.4799 51.9452 20.4799 51.9452C28.4592 50.3936 35.9952 43.3748 35.9952 43.3748C39.7632 36.6515 44.7133 32.2186 44.7133 32.2186C51.9537 25.8647 58.3076 25.9386 58.3076 25.9386L60.8196 26.1603C63.9965 26.8252 64.4398 30.1499 64.4398 30.1499C64.6615 31.5537 64.4398 32.2186 64.4398 32.2186L65.548 30.076L67.2473 27.1207L72.5668 27.0469L61.8539 45.148C60.4502 47.4383 60.4502 49.0638 60.4502 49.0638C60.5241 50.6892 61.8539 51.3541 61.8539 51.3541C66.3607 52.4623 74.5617 43.0054 74.5617 43.0054C80.8416 35.6911 85.644 27.1207 85.644 27.1207H90.9635L88.6731 30.9626C91.4068 28.5984 94.3621 27.9334 94.3621 27.9334L96.8741 27.7118L98.2039 28.0812C99.6816 28.82 99.9771 30.3716 99.9771 30.3716L100.051 31.5537C99.9771 33.0313 99.2383 33.9918 99.2383 33.9918C103.523 32.1447 108.695 25.3476 108.695 25.3476C111.503 21.5796 115.197 15.2996 115.197 15.2996L120.516 15.2257L114.236 26.3819H120.147L119.408 27.1207L113.571 27.1946L103.08 45.0741C101.603 47.2167 101.529 48.7682 101.529 48.7682C101.455 50.172 102.563 50.6892 102.563 50.6892C105.075 51.8713 109.582 48.3988 109.582 48.3988C116.157 43.7442 122.216 35.6911 122.216 35.6911C125.319 31.5537 127.978 27.1946 127.978 27.1946H132.781L122.068 45.8129C121.034 47.5122 121.034 48.916 121.034 48.916C121.034 50.3198 121.92 50.9108 121.92 50.9108C124.21 52.2407 128.791 47.7339 128.791 47.7339L132.559 43.9659L136.253 39.6807L136.401 39.4591L137.731 37.4643C142.903 30.5932 149.848 27.7118 149.848 27.7118C156.571 24.9043 159.674 27.9334 159.674 27.9334C161.373 30.2977 159.896 33.1052 159.896 33.1052C158.64 35.6172 155.167 37.9814 155.167 37.9814C151.916 40.1979 148.001 41.4539 148.001 41.4539C143.863 42.7838 140.76 42.4882 140.76 42.4882C139.43 45.7391 139.726 48.0294 139.726 48.0294C140.243 51.8713 145.267 51.5019 145.267 51.5019C150.439 51.2802 159.6 43.8181 159.6 43.8181C168.983 36.0605 174.303 27.0469 174.303 27.0469H179.918L176.15 33.4746C177.553 32.0709 180.952 29.8544 180.952 29.8544C185.533 26.8252 187.823 26.8991 187.823 26.8991C189.892 27.0469 190.778 28.3767 190.778 28.3767C191.517 29.485 191.222 31.0365 191.222 31.0365C190.852 32.588 189.744 33.4007 189.744 33.4007C188.488 34.2873 186.936 33.7701 186.936 33.7701C184.868 32.9574 185.459 30.3716 185.459 30.3716C186.05 27.7857 188.562 28.3029 188.562 28.3029C188.192 27.4163 186.419 27.7857 186.419 27.7857C184.72 28.0812 182.503 29.4111 182.503 29.4111C176.962 32.5141 173.933 37.3165 173.933 37.3165L168.614 45.9607L164.476 52.9056H158.935L170.165 34.0657C166.988 37.7598 162.481 41.8972 162.481 41.8972C153.542 50.0981 147.188 52.1668 147.188 52.1668C144.454 53.1273 142.681 53.275 142.681 53.275L138.174 52.9056C133.372 50.8369 134.111 45.6652 134.111 45.6652C134.332 44.0398 135.293 41.8233 135.293 41.8233C133.372 44.2614 129.752 47.66 129.752 47.66L125.54 51.2802C122.954 53.1273 120.369 53.4967 120.369 53.4967L117.266 53.2012C114.532 51.6496 115.714 47.7339 115.714 47.7339C116.231 45.8868 119.26 40.3457 119.26 40.3457L119.482 40.0501C116.01 43.892 112.168 47.1428 112.168 47.1428L108.991 49.7287C106.774 51.6496 104.041 52.4623 104.041 52.4623L99.2383 52.8317C97.0218 52.3885 96.3569 50.6892 96.3569 50.6892C95.692 48.916 97.1696 45.9607 97.1696 45.9607L102.267 36.9471L106.627 29.485L107.809 27.3424C102.637 33.844 98.8689 35.2478 98.8689 35.2478L96.7263 35.5433L96.0614 35.3217C95.1009 34.9523 94.7315 33.9179 94.7315 33.9179C94.436 32.6619 95.027 31.4059 95.027 31.4059C95.692 30.076 96.948 29.9283 96.948 29.9283L99.0905 30.2977C99.0905 28.9678 97.9084 28.3767 97.9084 28.3767L95.027 28.1551C90.668 29.0417 87.7866 32.8836 87.7866 32.8836C86.6045 34.0657 80.9894 43.6704 80.9894 43.6704L75.596 52.9795L69.3899 53.0534L76.1871 42.1188C66.5085 54.0139 59.5636 53.4967 59.5636 53.4967C56.9777 53.275 55.574 51.2802 55.574 51.2802C54.3918 49.507 54.909 47.4383 54.909 47.4383C52.2493 49.507 49.5156 50.9847 49.5156 50.9847C48.1857 51.6496 46.1909 52.5362 46.1909 52.5362C43.014 53.7183 40.7975 53.275 40.7975 53.275C37.7684 52.7579 36.4385 50.3936 36.4385 50.3936C35.0347 47.8816 35.9952 44.4092 35.9952 44.4092C33.9265 46.3301 30.7496 48.3988 30.7496 48.3988C24.1741 52.5362 18.1157 53.275 18.1157 53.275C8.43716 54.0877 4.00424 50.0242 4.00424 50.0242C0.162369 46.5518 0.753426 39.7546 0.753426 39.7546C1.34448 33.6963 5.26023 26.4558 5.26023 26.4558C9.02822 19.5109 14.3477 14.1175 14.3477 14.1175C25.5039 3.70008 35.6258 1.18809 35.6258 1.18809ZM62.3711 27.6379C62.3711 27.6379 61.2572 26.6191 59.0926 26.6082C57.9587 26.6025 56.5367 26.8737 54.8351 27.7118C54.8351 27.7118 50.6977 29.7805 47.0775 33.7701L43.0879 39.6068C43.0879 39.6068 41.0192 43.2271 40.502 45.7391C40.502 45.7391 39.6893 49.4332 41.6102 51.0586C41.6102 51.0586 43.9745 52.9795 49.5156 50.2459L53.062 47.7339C53.062 47.7339 58.8987 42.7099 62.8883 34.4351C62.8883 34.4351 64.957 30.0022 62.3711 27.6379ZM154.354 27.2685C154.283 27.2616 154.209 27.2584 154.135 27.2593C151.832 27.2874 148.296 30.9626 148.296 30.9626C144.602 34.7306 142.09 39.6068 142.09 39.6068L140.982 41.8972C146.745 42.0449 151.695 37.8337 151.695 37.8337C156.054 34.1396 156.423 30.2238 156.423 30.2238C156.571 28.7462 156.054 28.0073 156.054 28.0073C155.536 27.4163 154.354 27.2685 154.354 27.2685ZM132.411 20.6923C131.673 19.9535 131.673 18.993 131.673 18.993C131.673 17.9587 132.411 17.2937 132.411 17.2937C133.076 16.6288 134.111 16.6288 134.111 16.6288C134.997 16.6288 135.736 17.2937 135.736 17.2937L136.401 18.993C136.401 19.9535 135.736 20.6923 135.736 20.6923C135.071 21.3572 134.111 21.3572 134.111 21.3572C133.076 21.3572 132.411 20.6923 132.411 20.6923Z" fill="#BD9542"/>
</svg>
