<svg width="250" height="58" viewBox="0 0 250 58" fill="none" xmlns="https://www.w3.org/2000/svg">
<path id="Union" fill-rule="evenodd" clip-rule="evenodd" d="M129.314 16.1406L129.007 16.0707C128.783 16.0707 128.573 16.1406 128.406 16.3223C128.224 16.49 128.168 16.6997 128.168 16.9513L128.224 17.2308L133.354 29.1535L126.91 26.8333L120.467 29.1535L125.624 17.2308L125.694 16.9513C125.694 16.6997 125.596 16.49 125.415 16.3223C125.261 16.1406 125.037 16.0707 124.813 16.0707L124.506 16.1406L112.611 21.2703L114.904 14.8268H114.932L114.904 14.7289L115.029 14.673L114.904 14.701L112.611 8.38324L124.534 13.5129L124.841 13.5688C125.065 13.5688 125.289 13.5129 125.442 13.3312C125.624 13.1635 125.694 12.9538 125.694 12.7022L125.624 12.4227L120.495 0.5L126.938 2.82026L133.382 0.5L128.224 12.4227L128.168 12.7022C128.168 12.9538 128.252 13.1635 128.448 13.3312C128.601 13.5129 128.825 13.5688 129.035 13.5688L129.356 13.5129L141.237 8.38324L138.959 14.8268H138.917L138.959 14.9246L138.833 14.9805L138.959 14.9525L141.237 21.2703L129.314 16.1406ZM39.7836 50.7767L39.8115 50.3434H38.1762C38.0644 52.1185 37.673 53.4744 37.0021 54.4388C36.3172 55.4032 35.4227 55.8924 34.2905 55.8924C32.8928 55.8924 31.8724 55.1656 31.2015 53.7399C30.5446 52.3003 30.2091 50.0639 30.2091 47.0448C30.2091 44.0117 30.5446 41.7893 31.2015 40.3497C31.8724 38.91 32.9067 38.1971 34.2905 38.1971C35.4087 38.1971 36.2893 38.6165 36.9462 39.4272C37.6031 40.2378 37.9665 41.3979 38.0225 42.8795H39.6858C39.6438 40.9367 39.1406 39.4132 38.1902 38.309C37.2257 37.2187 35.9259 36.6736 34.2765 36.6736C32.2918 36.6736 30.8381 37.5122 29.9016 39.1755C28.9791 40.8528 28.5039 43.4805 28.5039 47.0448C28.5039 50.6229 28.9791 53.2646 29.9016 54.9419C30.8381 56.6192 32.2918 57.4579 34.2765 57.4579C35.9398 57.4579 37.2397 56.8568 38.1902 55.6548L38.3579 55.4171L38.5117 55.1796L38.6654 54.914L38.8052 54.6484L38.9449 54.3688L39.0707 54.0614L39.1826 53.7538L39.2944 53.4324L39.3922 53.083L39.4761 52.7335L39.5599 52.3701L39.6298 51.9928L39.6858 51.6013L39.7416 51.196L39.7836 50.7767ZM5.4659 57.0664L0.322266 37.0649H1.99954L6.43034 54.6344L11.0289 37.0649H12.6363L7.32489 57.0664H5.4659ZM19.0108 37.0696L13.7344 57.0573H15.2369L16.9142 50.7674H22.8197L24.462 57.0573H26.1393L20.8978 37.0696H19.0108ZM19.8495 39.271L22.5052 49.2649H17.1938L19.8495 39.271ZM43.6562 57.0662V37.0646H45.2636V45.5349H53.049V37.0646H54.6564V57.0662H53.049V47.1143H45.2636V57.0662H43.6562ZM58.8437 37.0646V57.0662H67.7892V55.5007H60.5909V47.3659H67.0484V45.8424H60.5909V38.6301H67.7892V37.0646H58.8437ZM71.2109 37.0698V57.0575H72.8882V47.7625H75.9632C77.1932 47.7625 78.0389 48.0211 78.5141 48.5662C78.9754 49.1113 79.234 50.2715 79.3178 52.0606C79.3377 52.2896 79.3506 52.5754 79.3664 52.928C79.3728 53.0704 79.3797 53.2236 79.3877 53.3884C79.4716 55.4431 79.6812 56.6661 80.0167 57.0575H81.9036C81.3585 56.5124 81.065 55.2055 80.9951 53.1089C80.9869 52.8884 80.98 52.6822 80.9735 52.4907C80.9578 52.0266 80.945 51.6486 80.9252 51.3617C80.8414 49.936 80.5967 48.9156 80.1914 48.2867C79.8001 47.6577 79.1501 47.2244 78.2695 46.9588C79.2619 46.5675 80.0307 45.9734 80.5059 45.1767C80.9951 44.38 81.2048 43.3527 81.2048 42.0667C81.2048 40.3615 80.7295 39.0896 79.7371 38.2928C78.7448 37.4822 77.1793 37.0698 75.0547 37.0698H71.2109ZM72.8882 38.5374H74.9848C76.5922 38.5374 77.7733 38.824 78.5141 39.411C79.2409 40.012 79.5974 40.9555 79.5974 42.2415C79.5974 43.6811 79.213 44.7364 78.4442 45.3514C77.6755 45.9804 76.3965 46.2599 74.5655 46.26H72.8882V38.5374ZM86.138 39.167C87.0605 37.5037 88.5211 36.686 90.5059 36.686C92.4907 36.6861 93.9374 37.4897 94.8738 39.167C95.8103 40.8303 96.2716 43.4511 96.2716 47.0293C96.2716 50.6075 95.8103 53.2493 94.8738 54.9265C93.9374 56.6038 92.4907 57.4425 90.5059 57.4425C88.5351 57.4425 87.0745 56.6038 86.138 54.9265C85.2015 53.2493 84.7402 50.6075 84.7402 47.0293V46.7148V46.4003L84.7752 46.0509V45.7364V45.4219V45.1424L84.8101 44.8279L84.8451 44.5483V44.2688L84.88 43.9543L84.9149 43.7097L84.9499 43.4301L84.9848 43.1506L85.0198 42.906L85.0547 42.6614L85.0897 42.4168L85.1246 42.1372L85.1945 41.9276L85.2294 41.683L85.2993 41.4733L85.3343 41.2287L85.4042 41.019L85.474 40.8094L85.5439 40.5997L85.6138 40.425L85.6837 40.2153L85.7536 40.0406L85.8235 39.8309L85.8934 39.6912L85.9632 39.4815L86.0681 39.3417L86.138 39.167ZM93.5809 40.3551C92.924 38.9154 91.8897 38.1886 90.5059 38.1886C89.1082 38.1886 88.0668 38.9154 87.3959 40.3551C86.725 41.7948 86.4175 44.0102 86.4175 47.0293V47.5884V48.1475L86.4525 48.6367V49.1609L86.5223 49.6151L86.5573 50.1043L86.5922 50.5237L86.6621 50.9779L86.732 51.3623L86.8019 51.7816L86.8718 52.1311L86.9766 52.4805L87.0814 52.8299L87.1513 53.1444L87.2911 53.4589L87.3959 53.7385C88.0668 55.1781 89.1082 55.905 90.5059 55.905C91.8896 55.905 92.924 55.1641 93.5809 53.7385C94.2518 52.2988 94.5593 50.0484 94.5593 47.0293C94.5593 43.9962 94.2518 41.7948 93.5809 40.3551ZM100.096 57.0664V37.0649H101.983L109.405 54.5086V37.0649H110.97V57.0664H109.041L101.661 39.9582V57.0664H100.096ZM132.709 50.7769L132.737 50.3436H131.102C130.99 52.1188 130.599 53.4746 129.914 54.439C129.243 55.4035 128.334 55.8927 127.202 55.8927C125.819 55.8927 124.798 55.1659 124.127 53.7402C123.456 52.3005 123.135 50.0641 123.135 47.045C123.135 44.0119 123.456 41.7896 124.127 40.3499C124.798 38.9103 125.819 38.1973 127.202 38.1973C128.334 38.1973 129.215 38.6167 129.872 39.4274C130.515 40.2381 130.878 41.3982 130.948 42.8798H132.612C132.57 40.9369 132.066 39.4134 131.102 38.3092C130.152 37.219 128.852 36.6738 127.202 36.6738C125.218 36.6738 123.75 37.5125 122.827 39.1758C121.891 40.853 121.43 43.4808 121.43 47.045C121.43 50.6232 121.891 53.2649 122.827 54.9422C123.75 56.6194 125.218 57.4581 127.202 57.4581C128.866 57.4581 130.166 56.8571 131.102 55.655L131.27 55.4174L131.437 55.1798L131.591 54.9143L131.731 54.6486L131.871 54.3691L131.997 54.0616L132.108 53.7541L132.206 53.4326L132.304 53.0832L132.402 52.7338L132.472 52.3703L132.542 51.993L132.612 51.6016L132.653 51.1963L132.709 50.7769ZM141.943 36.686C139.959 36.686 138.498 37.5037 137.575 39.167L137.506 39.3417L137.401 39.4815L137.331 39.6912L137.261 39.8309L137.191 40.0406L137.121 40.2153L137.051 40.425L136.981 40.5997L136.912 40.8094L136.842 41.019L136.772 41.2287L136.737 41.4733L136.667 41.683L136.632 41.9276L136.562 42.1372L136.527 42.4168L136.492 42.6614L136.457 42.906L136.422 43.1506L136.387 43.4301L136.352 43.7097L136.317 43.9543L136.283 44.2688V44.5483L136.248 44.8279V45.1424L136.213 45.4219V45.7364V46.0509L136.178 46.4003V46.7148V47.0293C136.178 50.6075 136.639 53.2493 137.575 54.9265C138.512 56.6038 139.973 57.4425 141.943 57.4425C143.914 57.4425 145.375 56.6038 146.311 54.9265C147.234 53.2493 147.709 50.6075 147.709 47.0293C147.709 43.4511 147.248 40.8303 146.311 39.167C145.389 37.4897 143.928 36.6861 141.943 36.686ZM141.943 38.1886C143.341 38.1886 144.362 38.9154 145.018 40.3551C145.675 41.7948 145.997 43.9962 145.997 47.0293C145.997 50.0484 145.675 52.2988 145.018 53.7385C144.361 55.1641 143.341 55.905 141.943 55.905C140.56 55.905 139.504 55.1781 138.833 53.7385L138.729 53.4589L138.589 53.1444L138.519 52.8299L138.414 52.4805L138.309 52.1311L138.239 51.7816L138.169 51.3623L138.1 50.9779L138.03 50.5237L137.995 50.1043L137.96 49.6151L137.89 49.1609V48.6367L137.855 48.1475V47.5884V47.0293C137.855 44.0102 138.177 41.7948 138.833 40.3551C139.504 38.9154 140.56 38.1886 141.943 38.1886ZM151.533 37.0649V57.0664H153.113V39.9582L160.479 57.0664H162.408V37.0649H160.842V54.5086L153.42 37.0649H151.533ZM165.939 51.3919H167.603C167.659 52.8316 168.008 53.9358 168.651 54.7325C169.294 55.5292 170.161 55.9346 171.279 55.9346C172.509 55.9346 173.473 55.5711 174.186 54.8583C174.885 54.1315 175.248 53.1531 175.248 51.9091C175.248 51.2941 175.15 50.763 174.955 50.3157C174.759 49.8824 174.438 49.4771 173.99 49.1136C173.599 48.7642 172.816 48.3728 171.67 47.9256C171.167 47.7439 170.804 47.5901 170.538 47.4643C169.014 46.8214 167.938 46.0666 167.295 45.2C166.652 44.3334 166.331 43.2153 166.331 41.8595C166.331 40.3499 166.82 39.1059 167.798 38.1415C168.763 37.163 169.993 36.6738 171.502 36.6738C173.04 36.6738 174.256 37.1211 175.137 38.0157C176.031 38.9102 176.464 40.1542 176.464 41.7337V41.8734H174.899C174.829 40.6993 174.508 39.7908 173.948 39.1479C173.375 38.5189 172.593 38.1973 171.6 38.1973C170.566 38.1973 169.699 38.5468 169.014 39.2596C168.344 39.9585 167.994 40.8531 167.994 41.9293C167.994 42.4186 168.064 42.8798 168.204 43.2991C168.357 43.7044 168.553 44.0958 168.833 44.4313C169.28 44.9764 170.3 45.5495 171.866 46.1645C171.926 46.1875 171.983 46.2094 172.037 46.23L172.192 46.2901L172.193 46.2905C172.326 46.3418 172.434 46.3836 172.523 46.416C174.116 47.059 175.234 47.7998 175.905 48.6384C176.576 49.4771 176.912 50.5673 176.912 51.8951C176.912 53.6423 176.408 55.0121 175.43 56.0045C174.452 57.0108 173.11 57.5 171.391 57.5C169.685 57.5 168.371 56.9829 167.435 55.9206C166.485 54.8583 165.995 53.3488 165.939 51.3919ZM183.394 38.6862V57.0664H185.099V38.6862H189.558V37.0649H178.949V38.6862H183.394ZM196.099 37.0698L190.857 57.0575H192.36L194.037 50.7677H199.943L201.585 57.0575H203.227L198.021 37.0698H196.099ZM196.973 39.2713L199.593 49.2651H194.317L196.973 39.2713ZM206.014 37.0649V57.0664H207.593V39.9582L214.959 57.0664H216.902V37.0649H215.323V54.5086L207.915 37.0649H206.014ZM224.017 57.0664V38.6862H219.559V37.0649H230.181V38.6862H225.723V57.0664H224.017ZM234.558 57.0664H232.895V37.0649H234.558V57.0664ZM238.805 57.0664V37.0649H240.706L248.114 54.5086V37.0649H249.679V57.0664H247.75L240.384 39.9582V57.0664H238.805Z" fill="#BD9542"/>
</svg>
