<svg width="208" height="60" viewBox="0 0 208 60" fill="none" xmlns="https://www.w3.org/2000/svg">
<path id="Union" fill-rule="evenodd" clip-rule="evenodd" d="M80.0715 1.92556H81.4715L82.9965 16.4776L81.6145 16.7976L81.6775 17.0696L88.8505 16.2856L88.8285 15.9976H87.4465L86.7065 8.75656L87.0145 8.63556L91.8045 15.4636L90.7295 15.8386L90.7895 16.0996L98.0455 15.3236C97.8241 15.1796 97.5774 15.0939 97.3507 15.0151C97.0686 14.917 96.8176 14.8298 96.6845 14.6546C94.8304 12.2217 93.0118 9.75896 91.1701 7.26486L91.1653 7.25841C90.6982 6.62582 90.2296 5.99121 89.7585 5.35456C90.2602 4.85342 90.7192 4.31291 91.1759 3.77519C92.4505 2.2742 93.7068 0.794964 95.8205 0.254559L95.6635 -0.00244141L90.9145 0.51556C90.9675 0.618126 91.0446 0.706295 91.1392 0.772484C91.2338 0.838676 91.343 0.880909 91.4575 0.895557C92.2335 1.03156 92.4325 1.50056 91.9575 2.06856C90.7172 3.55048 89.4495 5.00894 88.0986 6.56326L88.0958 6.56642C87.6189 7.1151 87.1316 7.67572 86.6315 8.25356L85.9405 1.45356L87.2915 1.16156L87.2315 0.871559L80.0455 1.64356L80.0715 1.92556ZM129.096 2.52856H130.54L130.548 2.26456C130.155 2.22428 129.762 2.18305 129.369 2.14182L129.368 2.14177C127.879 1.98545 126.391 1.82921 124.899 1.72556C124.687 1.71656 124.344 2.12256 124.208 2.40756C123.66 3.54446 123.137 4.69803 122.612 5.85584C122.433 6.25108 122.253 6.64682 122.073 7.04256C121.712 7.84027 121.344 8.63312 120.947 9.48955L120.941 9.50198L120.939 9.5062L120.933 9.51964L120.931 9.52277L120.925 9.53726C120.731 9.95444 120.531 10.3869 120.321 10.8426L120.318 10.8357C120.148 10.265 120.054 9.95228 119.976 9.63356C119.778 8.84656 119.581 8.05946 119.385 7.27247L119.385 7.27208L119.385 7.27169L119.385 7.2713L119.385 7.27091L119.385 7.27052L119.385 7.27013L119.384 7.26974L119.384 7.26936L119.384 7.26897L119.384 7.26858L119.384 7.26819L119.384 7.2678L119.384 7.26741L119.384 7.26702L119.384 7.26663L119.384 7.26624C118.927 5.43634 118.471 3.60698 117.998 1.78056C117.917 1.46456 117.692 0.96656 117.48 0.937557C116.119 0.749321 114.75 0.612358 113.382 0.47551C112.947 0.43206 112.513 0.388622 112.08 0.343559L112.033 0.630558L113.262 0.98756C113.258 1.06657 113.255 1.14099 113.253 1.21189C113.249 1.33931 113.246 1.45541 113.234 1.56656C112.842 5.28456 112.442 8.99822 112.034 12.7076C112.013 12.8966 112.001 13.0901 111.99 13.2839C111.929 14.3063 111.867 15.3381 110.512 15.7736L113.639 16.0806C112.301 15.3486 112.244 15.2686 112.387 13.7556C112.557 11.9522 112.74 10.1482 112.935 8.34356C113.146 6.40356 113.369 4.46156 113.592 2.52056C113.804 2.80004 113.95 3.12424 114.019 3.46856C114.205 4.20964 114.391 4.95075 114.577 5.69184L114.588 5.73709C115.416 9.03398 116.243 12.3304 117.094 15.6216C117.151 15.8446 117.32 16.0381 117.489 16.2315L117.489 16.2318C117.568 16.3227 117.648 16.4136 117.716 16.5076C117.799 16.4223 117.894 16.3426 117.988 16.2632L117.988 16.263C118.181 16.0992 118.374 15.9365 118.473 15.7286C120.242 11.9419 122.009 8.15856 123.773 4.37856C123.883 4.13385 124.003 3.89837 124.125 3.65744L124.207 3.49598C124.229 3.45313 124.251 3.41002 124.273 3.36656L124.494 3.45156L123.094 16.7066H121.733L121.721 16.9566L128.885 17.7016L128.92 17.4376L127.564 17.1006L129.096 2.52856ZM15.6742 24.4951L15.6734 24.4956C15.0417 24.834 14.41 25.1725 13.7765 25.5076L13.9435 25.7716L15.2635 25.2536L22.1255 38.1496L20.9075 38.9546L21.0565 39.2136L27.5565 35.7586L27.4425 35.5026L26.0965 36.0206C25.7775 35.4206 25.4557 34.8231 25.1362 34.2299L25.1327 34.2235C24.8756 33.7461 24.62 33.2714 24.3685 32.8006C23.94 31.9982 23.5138 31.1934 23.0908 30.3947L22.6875 29.6336C25.1585 28.0256 25.6815 28.1706 27.0065 30.5526C27.496 31.5013 28.0937 32.3902 28.7875 33.2016C29.2242 33.6686 29.8092 33.9698 30.4431 34.0538C31.0769 34.1379 31.7202 33.9996 32.2635 33.6626C32.8631 33.4605 33.377 33.062 33.7218 32.5315C34.0667 32.001 34.2223 31.3696 34.1635 30.7396C34.1449 30.7743 34.1274 30.807 34.111 30.8381C34.0658 30.9232 34.0284 30.9953 33.996 31.0577L33.996 31.0578C33.9166 31.2107 33.8672 31.3059 33.8075 31.3946C33.6782 31.5892 33.5417 31.7788 33.4052 31.9683L33.4038 31.9703L33.4036 31.9705C33.3379 32.0617 33.2723 32.1529 33.2075 32.2446C32.9298 32.0343 32.6792 31.7905 32.4615 31.5186C32.2011 31.106 31.9792 30.6708 31.7574 30.2356L31.7573 30.2355L31.7568 30.2345C31.6595 30.0435 31.5621 29.8526 31.4615 29.6636C30.0575 27.0226 29.5615 26.7896 26.6245 27.3506C26.4881 27.3524 26.3519 27.339 26.2185 27.3106C26.3517 27.157 26.4822 27.013 26.6083 26.8739L26.6084 26.8738C26.8477 26.6099 27.0711 26.3635 27.2675 26.1016C27.7197 25.5548 27.9873 24.8792 28.0322 24.1711C28.0771 23.4631 27.897 22.759 27.5175 22.1596C27.194 21.5231 26.6522 21.0243 25.9912 20.7544C25.3302 20.4845 24.5941 20.4615 23.9175 20.6896C22.7046 21.0112 21.5285 21.4586 20.4085 22.0246C18.8136 22.8131 17.244 23.654 15.6742 24.4951ZM24.0815 24.7786C25.3025 27.0686 24.9775 27.9856 22.4315 29.1686L19.2525 23.1826C20.8985 21.7986 22.1445 21.9266 23.3175 23.5556C23.599 23.9458 23.8543 24.3544 24.0815 24.7786ZM198.292 38.7116L194.307 44.8206L195.429 45.7206L195.256 45.9646L189.102 41.9546L189.233 41.7126L190.556 42.3686L198.516 30.1446L197.255 29.1206C197.374 29.1206 197.47 29.1131 197.547 29.1071C197.664 29.098 197.738 29.0923 197.786 29.1206L198.273 29.4426C200.64 31.0091 203.007 32.5759 205.355 34.1716C205.835 34.521 206.271 34.9269 206.655 35.3806C207.163 35.851 207.499 36.4789 207.608 37.1632C207.717 37.8475 207.592 38.5485 207.255 39.1536C206.939 39.8327 206.403 40.3858 205.735 40.7236C205.066 41.0614 204.304 41.1642 203.57 41.0156C203.21 40.9627 202.855 40.8753 202.482 40.7834C202.297 40.738 202.109 40.6915 201.913 40.6476C204.237 43.5846 204.242 43.6746 202.201 46.8666C202.151 46.9434 202.101 47.0197 202.051 47.0958C202.012 47.1542 201.973 47.2125 201.934 47.2708C201.715 47.5995 201.496 47.9279 201.316 48.2766C201.206 48.5704 201.133 48.8768 201.1 49.1886C201.152 49.1971 201.205 49.2061 201.258 49.2154L201.36 49.2336C201.582 49.2735 201.805 49.3134 202.031 49.3286C202.245 49.2934 202.465 49.339 202.648 49.4566C202.406 49.5854 202.151 49.688 201.888 49.7626C201.34 49.8426 200.78 49.7853 200.26 49.5959C199.74 49.4064 199.275 49.0907 198.907 48.6772C198.538 48.2636 198.279 47.765 198.151 47.2263C198.023 46.6876 198.031 46.1255 198.174 45.5906C198.53 44.6602 198.997 43.7761 199.565 42.9576C201.012 40.6736 200.872 40.1156 198.292 38.7116ZM202.292 32.5686L198.593 38.2546C200.666 39.9006 201.741 39.7786 203.043 37.8176C203.31 37.4187 203.556 37.0065 203.782 36.5826C204.8 34.6496 204.43 33.6006 202.301 32.5696L202.292 32.5686ZM180.708 36.9016C181.953 37.8193 183.427 38.3784 184.968 38.5186C186.239 38.5555 187.107 37.8848 188.004 37.1919C188.273 36.9839 188.545 36.774 188.831 36.5806L186.731 40.5646L175.331 34.5026L175.45 34.2466L176.813 34.7646L183.657 21.9046L182.448 21.0776L182.595 20.8286L193.558 26.6286L191.773 29.9806C191.781 29.78 191.795 29.579 191.809 29.3789C191.89 28.2099 191.968 27.0701 191.02 26.2146C189.96 25.3419 188.855 24.5261 187.709 23.7706L184.443 29.9016C186.186 31.6396 187.591 31.6106 189.69 29.9176L186.99 34.9926C187.306 32.3336 186.898 31.6306 184.145 30.4626L180.708 36.9016ZM49.0795 20.7006L46.5935 13.4726C46.7734 13.5977 46.9268 13.704 47.0626 13.7982L47.064 13.7991C47.3248 13.9798 47.5207 14.1156 47.7145 14.2536C48.6559 14.9338 49.6054 15.6053 50.5552 16.2771C52.8419 17.8945 55.1306 19.5134 57.3145 21.2586C57.856 21.7278 58.5438 21.9944 59.2601 22.0126C59.9764 22.0308 60.6768 21.7997 61.2415 21.3586C61.1507 21.0883 61.0609 20.8202 60.9715 20.5537L60.9652 20.5347L60.9646 20.5331C60.6865 19.7032 60.4136 18.889 60.1345 18.0766C59.9489 17.5369 59.7634 16.9972 59.5779 16.4576L59.5546 16.3898L59.5526 16.3839C58.6776 13.8384 57.8027 11.2933 56.9105 8.74756C56.5705 7.77656 56.5805 6.99956 57.7415 6.63856C57.7731 6.62884 57.7884 6.57263 57.8163 6.47084L57.8163 6.47068L57.8163 6.47047L57.8164 6.47015C57.8344 6.40445 57.8575 6.31984 57.8935 6.21656L54.4495 7.40756C54.6546 7.5166 54.8878 7.60805 55.1156 7.69739C55.5919 7.88417 56.0447 8.06174 56.1685 8.37156C57.0283 10.5278 57.7989 12.7206 58.5693 14.9128C58.8115 15.6018 59.0536 16.2908 59.2985 16.9786C58.9063 16.9108 58.5374 16.7458 58.2255 16.4986C55.2542 14.3499 52.2775 12.2089 49.2955 10.0756C49.2444 10.0391 49.19 9.99815 49.1336 9.95573C48.8667 9.75483 48.5565 9.52129 48.3525 9.58156C47.1434 9.93346 45.9491 10.3372 44.7857 10.7304L44.7845 10.7308C44.3482 10.8783 43.9163 11.0243 43.4895 11.1656C43.7873 11.4089 44.1168 11.6259 44.4376 11.8372C45.1068 12.2779 45.7381 12.6936 45.9645 13.2716C47.286 16.6201 48.3868 20.0543 49.4864 23.4846L49.6425 23.9716C49.7249 24.2304 49.4799 24.6116 49.258 24.9571C49.197 25.052 49.1378 25.1443 49.0875 25.2306C49.0242 25.3365 48.8933 25.4065 48.7614 25.4769L48.7613 25.477C48.7015 25.5089 48.6415 25.541 48.5875 25.5766L48.7065 25.7886L52.1495 24.5886L52.1457 24.5881C50.3615 24.3886 50.3501 24.3873 49.7305 22.5886C49.5132 21.9599 49.2962 21.3306 49.0795 20.7006ZM1.73552 33.5256L0.510513 34.1766L0.353516 33.9176C2.06351 32.8416 3.77385 31.7666 5.48451 30.6926C6.67787 29.9446 7.874 29.2049 9.10497 28.4437L9.115 28.4375C9.69109 28.0813 10.2748 27.7203 10.8695 27.3516L12.9695 30.6646L12.7695 30.8786L12.6912 30.8049C11.7042 29.8762 10.6723 28.9053 9.22952 29.3476C7.94453 29.8214 6.68809 30.3693 5.46651 30.9886L9.13551 36.8626C11.6285 36.0796 12.2695 34.9016 11.7475 32.3706L14.7945 37.1706C14.0187 36.6536 13.1505 36.291 12.2375 36.1026C11.2212 36.3 10.246 36.6689 9.35352 37.1936L13.3265 43.5506L14.5355 42.9306L14.6995 43.1986L8.57652 47.0646L8.40352 46.8646L9.51652 45.9176L1.73552 33.5256ZM148.795 6.77056L145.582 6.03156L145.42 6.33456C146.864 6.60956 146.88 7.53356 146.614 8.60956C146.468 9.20312 146.332 9.79804 146.196 10.3924L146.196 10.3927L146.196 10.393L146.196 10.3934L146.196 10.3937L146.196 10.3941L146.196 10.3944L146.196 10.3948L146.196 10.3951L146.196 10.3954L146.195 10.3958C146.002 11.2432 145.809 12.0893 145.588 12.9286C145.182 14.8397 144.641 16.7194 143.968 18.5536C143.683 19.093 143.266 19.5511 142.755 19.8846C142.245 20.2182 141.658 20.4161 141.049 20.4599C140.441 20.5036 139.832 20.3916 139.279 20.1346C138.726 19.8775 138.247 19.4838 137.889 18.9906C137.529 18.4809 137.368 17.8577 137.435 17.2376C138.065 14.185 138.751 11.1459 139.436 8.11678L139.436 8.11497L139.439 8.10368C139.645 7.19077 139.851 6.27876 140.056 5.36756L141.143 5.26756L141.16 5.00156L134.749 3.54156L134.657 3.81456L135.792 4.30856C135.773 4.40779 135.758 4.49886 135.743 4.58445C135.716 4.74209 135.692 4.88116 135.661 5.01856C135.378 6.27281 135.093 7.5266 134.809 8.78041L134.807 8.78922L134.805 8.79806L134.803 8.80692L134.801 8.8158L134.8 8.81909L134.8 8.82058L134.799 8.82207L134.799 8.82355L134.799 8.82504L134.798 8.82653L134.798 8.82802L134.798 8.82951L134.797 8.83099L134.797 8.83248C134.35 10.8042 133.903 12.7759 133.461 14.7496C133.21 15.6356 133.272 16.5808 133.635 17.427C133.998 18.2732 134.64 18.9692 135.455 19.3986C136.637 20.0727 137.92 20.5528 139.255 20.8206C142.546 21.5016 144.221 20.4496 145.099 17.1826C145.709 14.9131 146.234 12.6197 146.759 10.3278C146.862 9.88193 146.964 9.43612 147.067 8.99055C147.295 7.99756 147.543 7.07056 148.795 6.77056ZM161.239 22.9946L159.71 27.2456L147.617 22.8636L147.684 22.5956L149.095 22.9156L154.087 9.20256L152.824 8.54655L152.941 8.26855L159.772 10.7556L159.684 11.0356L158.302 10.6896L153.292 24.4476C154.632 25.2001 156.158 25.5582 157.694 25.4806C158.945 25.3588 159.708 24.5611 160.495 23.7378L160.496 23.7376C160.736 23.4861 160.979 23.2323 161.239 22.9946ZM173.353 16.8356L174.674 17.2916L174.772 16.9996L168.15 14.0416L168.019 14.3106L169.25 15.0466L163.299 28.4086L161.936 27.9626L161.843 28.2406L173.599 33.4296L175.441 29.2716C172.449 32.8066 169.958 31.6126 167.41 30.1356L173.353 16.8356ZM47.6555 26.2876L41.9305 28.7076L41.8005 28.4576L42.5935 27.8686C41.7337 26.7542 40.762 25.7308 39.6935 24.8146C38.9129 24.2624 38.2177 24.6952 37.5147 25.1328C37.1533 25.3579 36.7898 25.5842 36.4115 25.6786C36.1805 25.7356 35.9675 26.3196 35.9455 26.6786C35.9369 27.2709 35.9855 27.8626 36.0905 28.4456C36.3184 30.1879 36.3235 30.1886 37.9506 30.4073L37.9525 30.4076L35.4195 31.4806C35.5342 30.6074 35.5867 29.7272 35.5765 28.8466C35.3316 25.818 35.0637 22.7919 34.7958 19.7659C34.6851 18.5165 34.5745 17.2671 34.4655 16.0176C34.4628 15.9862 34.4598 15.9549 34.4569 15.9239L34.452 15.8732C34.3947 15.2821 34.3441 14.759 35.1565 14.4056C35.9432 14.0613 36.2713 14.4578 36.612 14.8695C36.6672 14.9361 36.7227 15.0032 36.7805 15.0676C37.664 16.04 38.5458 17.0124 39.4274 17.9845C41.6778 20.4662 43.9264 22.9458 46.1955 25.4176C46.643 25.7688 47.1336 26.0612 47.6555 26.2876ZM39.1035 24.0416L35.6235 20.2996L35.4145 20.4106L35.8275 25.4206L39.1035 24.0416ZM78.4965 17.4526L77.6085 12.8526L77.2975 12.8816C77.2813 13.0777 77.2682 13.2742 77.2551 13.4706L77.2551 13.4715V13.4716V13.4717V13.4718V13.4719V13.472V13.4722C77.2247 13.9282 77.1944 14.3838 77.1245 14.8336C76.9608 15.8296 76.468 16.7421 75.7247 17.4251C74.9815 18.1081 74.0308 18.5223 73.0245 18.6016C71.3075 18.7286 70.0285 17.8526 69.4535 15.6186C68.7498 12.8623 68.2121 10.0663 67.8435 7.24556C67.763 6.81226 67.7698 6.36722 67.8638 5.93661C67.9577 5.50601 68.1368 5.09854 68.3905 4.73815C68.6442 4.37777 68.9674 4.07175 69.3411 3.83809C69.7148 3.60443 70.1314 3.44785 70.5665 3.37756C71.3909 3.21121 72.2462 3.29404 73.0234 3.61549C73.8006 3.93694 74.4645 4.48246 74.9305 5.18256C75.2738 5.63847 75.5728 6.12834 75.8712 6.61719C76.0074 6.8403 76.1434 7.0632 76.2835 7.28256L76.4975 7.20956L75.6735 2.86356C75.082 3.0055 74.4826 3.11235 73.8785 3.18356C73.4345 3.17144 72.9927 3.11821 72.5585 3.02456C70.7491 2.73981 68.8974 3.11039 67.3369 4.06957C65.7764 5.02876 64.6096 6.51353 64.0465 8.25656C63.4285 9.90268 63.3629 11.7052 63.8596 13.3919C64.3564 15.0786 65.3885 16.5578 66.8 17.6062C68.2116 18.6546 69.926 19.2152 71.6843 19.2034C73.4425 19.1915 75.1492 18.6079 76.5465 17.5406L76.5785 17.5192C77.1778 17.1186 77.7498 16.7363 78.4965 17.4526ZM131.964 48.5146V53.4226C133.776 53.8946 134.569 53.4966 135.295 51.6506V55.6136C135.188 55.4768 135.087 55.3175 134.983 55.1535C134.749 54.7852 134.5 54.3934 134.141 54.1796C133.46 53.9136 132.743 53.7534 132.014 53.7046V59.2626C133.871 59.6306 135.863 59.7186 137.07 56.3936V59.5936C136.965 59.6034 136.867 59.6151 136.773 59.6262C136.592 59.6479 136.427 59.6676 136.262 59.6676H128.199C128.359 59.3175 128.472 58.9475 128.534 58.5676C128.558 55.4946 128.569 52.4206 128.524 49.3476C128.427 48.9072 128.252 48.4881 128.006 48.1106H136.723V50.8936C136.583 50.4135 136.346 49.9674 136.027 49.5832C135.707 49.199 135.311 48.8851 134.864 48.6611C134.417 48.437 133.929 48.3078 133.43 48.2813C132.931 48.2549 132.432 48.3319 131.964 48.5076V48.5146ZM94.1698 52.7392L94.1698 52.7193C94.1712 52.1161 94.1725 51.5128 94.1725 50.9096L94.4185 50.8546C96.2472 53.4486 98.0742 56.0456 99.8995 58.6456C100.731 59.8296 101.09 59.9436 102.645 59.4526C102.645 58.5825 102.646 57.7104 102.648 56.8369C102.652 54.5849 102.656 52.3232 102.633 50.0616C102.626 49.2186 102.631 48.4686 103.906 48.1616H101.406C101.495 48.2759 101.607 48.3882 101.717 48.4998C101.952 48.7357 102.183 48.9682 102.192 49.2086C102.245 50.8667 102.239 52.5271 102.232 54.3151V54.3155V54.3159V54.3162V54.318V54.3213V54.3246V54.328C102.23 54.9405 102.228 55.568 102.228 56.2156C102.087 56.0318 101.969 55.8786 101.867 55.7451C101.661 55.4784 101.517 55.2909 101.38 55.0976C100.887 54.4004 100.394 53.7027 99.9019 53.0048C98.9018 51.5875 97.9016 50.1701 96.8965 48.7576L96.8537 48.6994C96.668 48.4466 96.4299 48.1225 96.2055 48.1096C95.2886 48.0595 94.3695 48.0669 93.5048 48.0739C93.2114 48.0762 92.9242 48.0786 92.6455 48.0786C93.1461 48.8512 93.5144 49.7019 93.7355 50.5956C93.8695 53.029 93.8168 55.4775 93.7642 57.9192V57.9194V57.9196V57.9198V57.9206L93.7595 58.1376C93.6664 58.6558 93.4951 59.1568 93.2515 59.6236H94.7845C94.7206 59.5093 94.6386 59.3951 94.5565 59.2805L94.5563 59.2803L94.5562 59.2802C94.3788 59.033 94.2005 58.7844 94.2005 58.5316C94.161 56.6012 94.1654 54.6702 94.1698 52.7392ZM81.5645 59.5866C81.7024 59.2879 81.7983 58.9715 81.8495 58.6466C81.8705 55.5026 81.8825 52.3566 81.8335 49.2126C81.8335 48.9527 81.6549 48.6952 81.4805 48.4438L81.4804 48.4437C81.3999 48.3276 81.3202 48.2127 81.2595 48.0996H90.0315V50.6716C89.2985 48.2556 87.3755 48.3196 85.3265 48.3976V53.4076C86.9885 53.9726 87.9335 53.5126 88.6365 51.6546V55.8006C88.5557 55.6383 88.491 55.4636 88.4291 55.2962L88.429 55.2961L88.4289 55.2959L88.4288 55.2957C88.3 54.9476 88.183 54.6316 87.9575 54.5256C87.1893 54.2241 86.3954 53.9929 85.5855 53.8346C85.4237 54.3602 85.3079 54.8989 85.2395 55.4446C85.2039 56.3603 85.2109 57.2766 85.2179 58.1825C85.2207 58.5468 85.2235 58.9094 85.2235 59.2696C87.9045 59.8696 89.2765 59.0966 90.4565 56.5276V59.5836L81.5645 59.5866ZM77.0813 51.0607C77.1909 51.3282 77.3096 51.618 77.4485 51.9376L77.4435 48.5786C76.7632 48.4812 76.0894 48.3433 75.4255 48.1656C74.1501 47.685 72.746 47.6696 71.4603 48.1221C70.1747 48.5746 69.0898 49.4661 68.3965 50.6396C67.665 51.933 67.3893 53.4347 67.6136 54.9036C67.838 56.3725 68.5493 57.7234 69.6335 58.7396C70.7923 59.5134 72.1437 59.9491 73.5363 59.9979C74.9288 60.0466 76.3075 59.7065 77.5175 59.0156C77.8789 58.8808 78.1833 58.6265 78.3802 58.2949C78.5772 57.9633 78.655 57.5744 78.6005 57.1926C78.6202 56.6324 78.7151 56.0775 78.8825 55.5426H74.9095C74.9785 55.6252 75.06 55.7042 75.1398 55.7815C75.3101 55.9464 75.4722 56.1034 75.4865 56.2716C75.5497 56.9331 75.5235 57.6001 75.4085 58.2546C75.3754 58.532 75.2772 58.7976 75.1219 59.0298C74.9666 59.2621 74.7585 59.4543 74.5148 59.5908C74.271 59.7273 73.9985 59.8042 73.7193 59.8153C73.4402 59.8264 73.1623 59.7713 72.9085 59.6546C72.4576 59.5167 72.0637 59.2362 71.7862 58.8551C71.5086 58.474 71.3624 58.013 71.3695 57.5416C71.2795 55.1886 71.2625 52.8256 71.4005 50.4776C71.3972 49.8901 71.6089 49.3218 71.9958 48.8797C72.3826 48.4376 72.9178 48.1523 73.5005 48.0776C74.0929 48.0024 74.694 48.1136 75.2203 48.3957C75.7466 48.6777 76.172 49.1167 76.4375 49.6516C76.6757 50.0705 76.8598 50.5198 77.0813 51.0607ZM114.636 48.1366V50.7866C113.926 48.2682 111.951 48.3285 109.855 48.3925L109.854 48.3926V53.4026C111.525 53.9506 112.335 53.5756 113.209 51.7076V55.6306C112.732 53.8906 111.386 53.7856 109.846 53.8446V59.2776C112.396 59.6356 113.831 59.4586 114.968 56.3186V59.6006H106.048C106.222 59.3265 106.346 59.0234 106.414 58.7056C106.434 56.0329 106.433 53.3558 106.431 50.6487V50.6428C106.431 49.9435 106.431 49.2423 106.431 48.5386L105.231 48.1386L114.636 48.1366ZM116.716 48.0941C116.639 48.1002 116.567 48.1058 116.503 48.1096C116.815 48.5634 117.089 49.0424 117.323 49.5416C117.794 50.8284 118.255 52.1187 118.717 53.4089C119.326 55.1137 119.935 56.8183 120.569 58.5146C120.733 58.9516 121.129 59.5146 121.519 59.6146C122.193 59.779 122.302 59.2681 122.402 58.7992C122.429 58.6722 122.456 58.5482 122.493 58.4416C122.891 57.285 123.278 56.1234 123.667 54.9611C124.203 53.3549 124.74 51.7474 125.305 50.1496C125.61 49.4547 125.971 48.7858 126.385 48.1496H124.462C124.535 48.2733 124.636 48.4033 124.735 48.5324C124.947 48.8074 125.156 49.0783 125.101 49.2756C124.643 50.9249 124.117 52.56 123.547 54.3305C123.377 54.8572 123.204 55.3959 123.028 55.9506C122.787 55.2674 122.554 54.6109 122.328 53.9733C121.724 52.2721 121.169 50.7054 120.639 49.1256C120.578 48.9456 120.634 48.7284 120.699 48.477C120.732 48.3483 120.767 48.2107 120.791 48.0646H117.267C117.075 48.0659 116.884 48.081 116.716 48.0941Z" fill="#BD9542"/>
</svg>
