<svg width="144" height="78" viewBox="0 0 144 78" fill="none" xmlns="https://www.w3.org/2000/svg">
<path id="Union" fill-rule="evenodd" clip-rule="evenodd" d="M87.632 0.777821H91.923C91.923 12.0897 87.8669 16.6469 81.5736 19.689V41.0294H74.9653V22.2986C74.3585 22.5095 73.7435 22.7204 73.1173 22.9351C72.8419 23.0296 72.5642 23.1247 72.2842 23.221C70.9866 23.665 69.7949 24.0861 68.6721 24.5043V41.0294H62.0609V27.5463C57.8215 30.216 56.0512 33.7967 56.0512 41.0237H51.7573C51.7573 30.4424 55.3838 25.7532 62.0609 22.3645V0.774902H68.6721V19.6002C69.4197 19.3338 70.1931 19.0618 70.9866 18.7896C71.419 18.6414 71.8427 18.4969 72.2576 18.3554C73.2059 18.032 74.1084 17.7241 74.9653 17.4232V0.774902H81.5736V14.5473C85.6584 12.0982 87.632 8.56634 87.632 0.777821ZM110.78 52.9342C103.871 52.9342 98.4541 58.2449 98.4541 65.0222C98.4541 71.7967 103.871 77.1018 110.78 77.1018C117.689 77.1018 123.106 71.7967 123.106 65.0222C123.106 58.2449 117.689 52.9342 110.78 52.9342ZM110.78 72.6733C106.403 72.6733 102.971 69.3133 102.971 65.0194C102.971 60.7285 106.403 57.3626 110.78 57.3626C115.157 57.3626 118.586 60.7285 118.586 65.0194C118.586 69.3133 115.157 72.6733 110.78 72.6733ZM16.3642 53.593V62.1549H4.78318V53.5873H0.277344V76.589H4.78318V66.8612H16.3642V76.589H20.8386V53.593H16.3642ZM44.092 53.593V65.5952C44.092 69.0813 43.7311 72.7821 38.0136 72.7821C32.2961 72.7821 31.8894 69.1615 31.8894 65.5952V53.593H27.4093V65.8817C27.4093 71.3643 28.9418 77.225 38.0136 77.225C47.0854 77.225 48.6122 71.2812 48.6122 65.8817V53.593H44.092ZM81.5393 76.5805V53.593H86.0393V71.9285H97.059V76.5805H81.5393ZM124.936 58.2707V53.593H143.724V58.2707H136.675V76.5862H132.166V58.2707H124.936ZM72.1611 64.5296C73.5504 63.444 74.3467 61.8599 74.3467 59.9436C74.3467 58.033 73.5732 53.593 66.4264 53.593H54.6105V76.5862H67.177C72.2356 76.5862 75.1402 74.0311 75.1402 69.5911C75.1402 67.4256 74.1089 65.6926 72.1611 64.5296ZM66.2059 57.8067C68.7123 57.8067 69.4856 58.7148 69.4856 60.2301C69.4856 61.7425 68.8153 62.8223 66.2975 62.8223H59.0819V57.8067H66.2059ZM66.9019 72.3897H59.0847L59.0827 66.615H66.9284C69.2515 66.615 70.2598 67.5201 70.2598 69.5854C70.2598 71.1294 69.626 72.3897 66.9019 72.3897Z" fill="#BD9542"/>
</svg>
