<svg width="246" height="60" viewBox="0 0 246 60" fill="none" xmlns="https://www.w3.org/2000/svg">
<path id="Union" fill-rule="evenodd" clip-rule="evenodd" d="M123.581 26.5925C129.641 26.5298 135.472 25.5086 140.928 23.6717L142.659 26.2181C143.997 25.7469 145.314 25.23 146.607 24.6662L143.379 19.9212C138.466 21.9465 133.187 23.2601 127.668 23.7377V4.51523H132.885L130.62 1.18279H125.115L123.581 3.44519V26.5925ZM105.058 23.6674C110.514 25.5044 116.345 26.5266 122.405 26.5883V3.442L120.872 1.18279H115.365L113.102 4.51523H118.318V23.7334C112.8 23.2558 107.52 21.9422 102.608 19.9181L99.3785 24.663C100.672 25.2246 101.989 25.7437 103.328 26.2138L105.058 23.6674ZM128.861 22.4102C134.12 21.8263 139.142 20.4658 143.815 18.447L148.41 25.1917C146.401 26.1245 144.33 26.9499 142.207 27.6604L140.451 25.097C134.967 26.8414 129.127 27.7827 123.066 27.7827C122.847 27.7827 122.631 27.7807 122.412 27.7786L122.405 27.7785V27.7732C116.529 27.7221 110.863 26.7882 105.536 25.0938L103.779 27.6562C101.657 26.9456 99.587 26.1213 97.5767 25.1885L102.172 18.4438C106.844 20.4616 111.868 21.822 117.126 22.406V5.70865H110.847L114.728 0H121.509L122.994 2.18369L124.477 0H131.258L135.14 5.70865H128.861V22.4102ZM60.8998 44.9459C61.3231 45.0033 61.6465 45.3394 61.6465 45.7468V47.5231C61.6465 47.6029 61.5975 47.7922 61.4869 47.9071C60.4552 48.9654 58.9799 48.9133 58.9799 48.9133C56.4973 48.9654 55.5666 46.6413 55.4592 42.9611C55.3528 39.3117 56.1973 36.9174 58.6799 36.8653C58.6799 36.8653 61.539 36.5036 62.9548 39.2979L63.1313 39.6499C63.1888 39.7488 63.2866 39.8637 63.4313 39.8775C63.4791 39.8818 63.527 39.8775 63.5695 39.8648L64.4885 39.6946C64.5853 39.6669 64.6598 39.5893 64.6715 39.4904C64.6747 39.4563 64.6715 39.4244 64.6609 39.3957L63.728 36.3643C63.6812 36.2345 63.5493 36.1409 63.3951 36.1409H63.0569C62.9016 36.1409 62.7697 36.2345 62.7229 36.3643C62.4442 37.0801 61.8996 36.6919 61.8996 36.6919C60.9721 36.2377 59.9297 35.9835 58.8299 35.9835C54.9497 35.9835 51.8044 39.1447 51.8044 43.0451C51.8044 46.9456 54.9497 50.1067 58.8299 50.1067C58.8299 50.1067 61.1891 50.3524 64.4481 48.3166C64.7055 48.1571 64.898 47.9135 64.898 47.6071V45.6947C64.898 45.2873 65.2161 44.9512 65.6394 44.8938L66.0596 44.8289C66.2298 44.8076 66.3648 44.6725 66.3648 44.5087V44.079C66.3648 43.9439 66.25 43.8354 66.1042 43.8354H60.2648C60.1201 43.8354 60.0063 43.9439 60.0063 44.079V44.5087C60.0063 44.6725 60.1403 44.8076 60.3105 44.8289L60.8998 44.9459ZM71.2459 36.1325H78.1628C78.5394 36.1325 78.8595 36.4143 78.985 36.7207L79.6775 38.5523C79.6902 38.581 79.6977 38.6119 79.6977 38.6448C79.6977 38.7778 79.5818 38.8852 79.4392 38.8852H78.7798C78.6351 38.8852 78.533 38.7916 78.4564 38.6874L78.1224 38.2279C77.4672 37.2663 76.5089 37.3184 76.5089 37.3184H72.9573C72.6467 37.3184 72.401 37.5461 72.401 37.8322V40.0021C72.401 40.2882 72.6595 40.5179 72.9701 40.5179H73.7933C74.3358 40.5211 74.6517 40.2605 74.7528 39.917L74.9485 39.3203C74.9942 39.1916 75.1261 39.0979 75.2814 39.0979H75.7324C75.8866 39.0979 76.0185 39.1916 76.0653 39.3203L77.229 42.9069C77.2385 42.9367 77.2428 42.9686 77.2385 43.0005C77.2279 43.1005 77.1534 43.1781 77.0566 43.2058L76.5322 43.3239C76.4886 43.3377 76.4418 43.3419 76.3929 43.3377C76.2483 43.3239 76.1515 43.209 76.093 43.1101L75.7324 42.4506C75.7324 42.4506 75.3771 41.7964 74.4964 41.7964H72.9648C72.6552 41.7964 72.401 42.0251 72.401 42.3113V48.2209C72.401 48.5071 72.6467 48.7336 72.9573 48.7336H76.9439C76.9439 48.7336 77.9778 48.7623 78.6096 47.9018L79.0659 47.2849C79.1425 47.1807 79.2435 47.0871 79.3892 47.0871H80.0476C80.1912 47.0871 80.3072 47.1934 80.3072 47.3253C80.3072 47.3594 80.2997 47.3902 80.287 47.4189L79.4243 49.509C79.2999 49.8164 78.9787 50.027 78.6032 50.027H67.6284C67.4827 50.027 67.3678 49.9122 67.3678 49.7781V49.1718C67.3678 49.0091 67.5029 48.874 67.6731 48.8527L68.4825 48.7368C68.9048 48.6783 69.2281 48.3422 69.2281 47.9359V38.2566C69.2281 37.8503 68.9048 37.5131 68.4825 37.4557L67.6731 37.3408C67.5029 37.3184 67.3678 37.1834 67.3678 37.0196V36.4143C67.3678 36.2803 67.4827 36.1325 67.6284 36.1325H71.2459ZM37.9556 49.7675C37.9556 49.9015 38.0704 50.0174 38.2162 50.0174H49.191C49.5664 50.0174 49.8877 49.8047 50.0132 49.4984L50.8747 47.4093C50.8875 47.3806 50.8949 47.3487 50.8949 47.3157C50.8949 47.1828 50.779 47.0764 50.6354 47.0764H49.977C49.8313 47.0764 49.7302 47.1689 49.6537 47.2732L49.1973 47.8912C48.5655 48.7527 47.5306 48.7229 47.5306 48.7229H43.5451C43.2345 48.7229 42.9898 48.4953 42.9898 48.2092V42.3006C42.9898 42.0145 43.2419 41.7858 43.5525 41.7858H45.0842C45.9638 41.7858 46.3202 42.441 46.3202 42.441L46.6807 43.0983C46.7382 43.1983 46.836 43.3121 46.9807 43.327C47.0285 43.3313 47.0764 43.327 47.12 43.3143L47.6444 43.1951C47.7412 43.1675 47.8157 43.0888 47.8263 42.9909C47.8305 42.9579 47.8263 42.925 47.8167 42.8962L46.6531 39.3096C46.6063 39.1809 46.4754 39.0873 46.3202 39.0873H45.8692C45.7139 39.0873 45.583 39.1809 45.5352 39.3096L45.3405 39.9063C45.2395 40.2509 44.9236 40.5094 44.3811 40.5073H43.5578C43.2472 40.5073 42.9898 40.2786 42.9898 39.9914V37.8322C42.9898 37.546 43.2345 37.3195 43.5451 37.3195H47.0966C47.0966 37.3195 48.0539 37.2663 48.7102 38.2278L49.0442 38.6873C49.1208 38.7916 49.2229 38.8852 49.3675 38.8852H50.0259C50.1695 38.8852 50.2855 38.7778 50.2855 38.6459C50.2855 38.6129 50.278 38.581 50.2653 38.5523L49.5728 36.7228C49.4473 36.4154 49.1261 36.1335 48.7506 36.1335H38.2162C38.0704 36.1335 37.9556 36.2814 37.9556 36.4154V37.0206C37.9556 37.1833 38.0906 37.3184 38.2608 37.3408L39.0703 37.4567C39.4925 37.5152 39.817 37.8513 39.817 38.2576V47.9241C39.817 48.3315 39.4925 48.6676 39.0703 48.7261L38.2608 48.841C38.0906 48.8644 37.9556 48.9995 37.9556 49.1622V49.7675ZM112.814 38.2491C112.814 37.8438 113.138 37.5066 113.56 37.4481L114.369 37.3333C114.54 37.3109 114.674 37.1758 114.674 37.012V36.4079C114.674 36.2728 114.56 36.1249 114.414 36.1249H108.04C107.894 36.1249 107.78 36.2728 107.78 36.4079V37.012C107.78 37.1758 107.915 37.3109 108.086 37.3333L108.894 37.4481C109.316 37.5066 109.641 37.8438 109.641 38.2491V47.9273C109.641 48.3347 109.316 48.6708 108.894 48.7293L108.086 48.8452C107.915 48.8676 107.78 49.0027 107.78 49.1654V49.7706C107.78 49.9046 107.894 50.0206 108.04 50.0206H117.782C118.157 50.0206 118.479 49.8078 118.604 49.5026L119.466 47.4114C119.477 47.3827 119.486 47.3519 119.486 47.3189C119.486 47.187 119.37 47.0785 119.226 47.0785H118.568C118.422 47.0785 118.321 47.1721 118.245 47.2763L117.788 47.8933C117.156 48.7559 116.122 48.7261 116.122 48.7261H113.37C113.059 48.7261 112.814 48.4985 112.814 48.2124V38.2491ZM130.851 36.1207H123.934H120.317C120.171 36.1207 120.056 36.2696 120.056 36.4047V37.0089C120.056 37.1716 120.191 37.3067 120.361 37.329L121.171 37.445C121.593 37.5035 121.916 37.8396 121.916 38.2459V47.9241C121.916 48.3304 121.593 48.6676 121.171 48.7261L120.361 48.841C120.191 48.8633 120.056 48.9995 120.056 49.1622V49.7664C120.056 49.9015 120.171 50.0163 120.317 50.0163H131.29C131.667 50.0163 131.988 49.8047 132.114 49.4983L132.975 47.4082C132.988 47.3795 132.995 47.3476 132.995 47.3157C132.995 47.1817 132.879 47.0764 132.735 47.0764H132.077C131.932 47.0764 131.832 47.1689 131.754 47.2732L131.298 47.8901C130.666 48.7516 129.631 48.7219 129.631 48.7219H125.646C125.335 48.7219 125.089 48.4953 125.089 48.2092V42.2995C125.089 42.0144 125.342 41.7857 125.653 41.7857H127.185C128.065 41.7857 128.421 42.441 128.421 42.441L128.781 43.0983C128.839 43.1983 128.938 43.3121 129.082 43.3259C129.129 43.3312 129.176 43.3259 129.22 43.3142L129.745 43.194C129.842 43.1674 129.916 43.0887 129.928 42.9898C129.931 42.9579 129.928 42.9249 129.918 42.8951L128.755 39.3095C128.707 39.1808 128.576 39.0872 128.421 39.0872H127.97C127.814 39.0872 127.682 39.1808 127.636 39.3095L127.441 39.9052C127.34 40.2509 127.024 40.5094 126.48 40.5062H125.658C125.347 40.5062 125.089 40.2775 125.089 39.9913V37.8194C125.089 37.5343 125.335 37.3077 125.646 37.3077H129.197C129.197 37.3077 130.154 37.2567 130.811 38.215L131.144 38.6756C131.222 38.7798 131.322 38.8734 131.468 38.8734H132.126C132.269 38.8734 132.386 38.766 132.386 38.6341C132.386 38.6012 132.378 38.5692 132.366 38.5405L131.673 36.71C131.548 36.4047 131.228 36.1207 130.851 36.1207ZM173.535 44.4343C173.535 44.4343 173.213 48.7283 176.963 48.7283C180.341 48.7283 180.341 44.8842 180.341 44.8842V38.3193C180.341 37.9141 180.187 37.5779 179.763 37.5194L179.124 37.4046C178.953 37.3812 178.819 37.2461 178.819 37.0823V36.4781C178.819 36.343 178.934 36.1952 179.078 36.1952H183.004C183.15 36.1952 183.264 36.343 183.264 36.4781V37.0823C183.264 37.2461 183.13 37.3812 182.959 37.4046L182.319 37.5194C181.896 37.5779 181.742 37.9141 181.742 38.3193V44.4343C181.765 45.1682 181.685 50.0132 176.434 50.0132C169.985 50.0132 170.331 44.4875 170.331 44.4875V38.2566C170.331 37.8502 170.037 37.5131 169.615 37.4556L168.807 37.3407C168.636 37.3184 168.501 37.1833 168.501 37.0195V36.4143C168.501 36.2803 168.616 36.1324 168.761 36.1324H174.798C174.943 36.1324 175.058 36.2803 175.058 36.4143V37.0195C175.058 37.1833 174.923 37.3184 174.753 37.3407L174.113 37.4556C173.69 37.5131 173.535 37.8502 173.535 38.2566V44.4343ZM190.293 37.4524C189.87 37.5098 189.546 37.847 189.546 38.2523V48.2166C189.546 48.5027 189.792 48.7293 190.102 48.7293H192.854C192.854 48.7293 193.889 48.7601 194.52 47.8975L194.977 47.2806C195.052 47.1763 195.155 47.0827 195.3 47.0827H195.958C196.102 47.0827 196.218 47.1912 196.218 47.3231C196.218 47.3561 196.211 47.3869 196.198 47.4157L195.335 49.5057C195.211 49.8121 194.89 50.0238 194.514 50.0238H184.772C184.626 50.0238 184.512 49.9089 184.512 49.7749V49.1686C184.512 49.0048 184.647 48.8708 184.818 48.8484L185.626 48.7335C186.049 48.675 186.373 48.3389 186.373 47.9326V38.2523C186.373 37.847 186.049 37.5098 185.626 37.4524L184.818 37.3365C184.647 37.3152 184.512 37.179 184.512 37.0163V36.4111C184.512 36.2771 184.626 36.1292 184.772 36.1292H191.147C191.292 36.1292 191.406 36.2771 191.406 36.4111V37.0163C191.406 37.179 191.272 37.3152 191.1 37.3365L190.293 37.4524ZM202.817 37.7928C202.817 37.5056 203.063 37.2801 203.374 37.2801H204.99C204.99 37.2801 206.025 37.3928 206.657 38.2544L207.112 38.8713C207.19 38.9766 207.291 39.0702 207.435 39.0702H208.094C208.237 39.0702 208.353 38.9628 208.353 38.8298C208.353 38.7968 208.346 38.766 208.334 38.7373L207.471 36.6461C207.346 36.3398 207.026 36.1281 206.649 36.1281H195.813C195.436 36.1281 195.116 36.3398 194.991 36.6461L194.128 38.7373C194.115 38.766 194.108 38.7968 194.108 38.8298C194.108 38.9628 194.224 39.0702 194.367 39.0702H195.026C195.171 39.0702 195.271 38.9766 195.35 38.8713L195.805 38.2544C196.437 37.3928 197.472 37.2801 197.472 37.2801H199.088C199.399 37.2801 199.644 37.5056 199.644 37.7928L199.645 47.8996C199.645 48.3049 199.321 48.6421 198.897 48.7006L198.09 48.8154C197.919 48.8378 197.784 48.9739 197.784 49.1367V49.7408C197.784 49.8759 197.897 50.0238 198.044 50.0238H204.419C204.563 50.0238 204.678 49.8759 204.678 49.7408V49.1367C204.678 48.9739 204.543 48.8378 204.373 48.8154L203.564 48.7006C203.141 48.6421 202.817 48.3049 202.817 47.8996V37.7928ZM26.0384 45.215H30.3855C30.9035 45.215 30.7344 44.7927 30.7344 44.7927L28.7454 39.0564C28.7454 39.0564 28.5816 38.5554 28.3327 38.5554C28.0848 38.5554 27.9295 39.0564 27.9295 39.0564L25.6905 44.7927C25.6905 44.7927 25.5214 45.215 26.0384 45.215ZM36.3143 48.7559L36.5558 48.841C36.7111 48.875 36.826 49.0037 36.826 49.1569V49.7749C36.826 49.9078 36.71 50.0121 36.5664 50.0121H31.0046C30.861 50.0121 30.7387 49.9078 30.7387 49.7749V49.1484C30.7387 48.9973 30.8461 48.8697 30.9992 48.8357L31.1237 48.8016C31.5141 48.7208 31.8055 48.3985 31.8055 48.0124C31.8055 47.9167 31.7885 47.8252 31.7555 47.7401L31.4545 46.8764C31.4545 46.8764 31.3077 46.4839 30.7812 46.4839H25.5438C25.0183 46.4839 24.8715 46.8764 24.8715 46.8764L24.5333 47.7401C24.5003 47.8252 24.4822 47.9167 24.4822 48.0124C24.4822 48.3985 24.7747 48.7208 25.1651 48.8016L25.2895 48.8357C25.4416 48.8697 25.5501 48.9973 25.5501 49.1484V49.7749C25.5501 49.9078 25.4278 50.0121 25.2842 50.0121H20.9934C20.8498 50.0121 20.7339 49.9078 20.7339 49.7749V49.1569C20.7339 49.0037 20.8488 48.875 21.0051 48.841L21.4061 48.7623C21.4061 48.7623 22.2751 48.6836 22.7102 47.5391L26.9499 36.6802C26.9499 36.6802 27.1169 36.1324 27.8019 36.1324H30.4908C31.1758 36.1324 31.3428 36.6802 31.3428 36.6802L35.189 47.5391C35.6464 48.6112 36.3143 48.7559 36.3143 48.7559ZM90.0992 42.1964H87.4273C87.1167 42.1964 86.8593 41.9741 86.8593 41.6879V37.779C86.8593 37.4929 87.105 37.2663 87.4146 37.2663H90.0992C90.0992 37.2663 92.7562 37.2801 92.7562 39.7616C92.7562 42.1751 90.0992 42.1964 90.0992 42.1964ZM97.6597 48.8421L97.1555 48.7868C97.1223 48.777 97.0746 48.7715 97.0147 48.7646C96.6645 48.724 95.8992 48.6355 95.1952 47.3647C93.6075 44.494 92.6833 43.6159 92.3375 43.2874L92.302 43.2536C91.9872 42.9526 92.384 42.8686 92.384 42.8686C96.2418 41.9358 96.0025 39.4075 96.0025 39.4075C96.0025 36.1133 91.8043 36.1325 91.8043 36.1325H82.0856C81.9399 36.1325 81.8261 36.2803 81.8261 36.4143V37.0195C81.8261 37.1833 81.9601 37.3184 82.1303 37.3408L82.9397 37.4556C83.362 37.5131 83.6864 37.796 83.6864 38.2023V47.922C83.6864 48.3273 83.362 48.6634 82.9397 48.723L82.1303 48.8378C81.9601 48.8602 81.8261 48.9953 81.8261 49.1591V49.7632C81.8261 49.8972 81.9399 50.0132 82.0856 50.0132H88.4686C88.6133 50.0132 88.7282 49.8972 88.7282 49.7632V49.1591C88.7282 48.9953 88.5931 48.8602 88.4229 48.8378L87.6145 48.723C87.1922 48.6634 86.8678 48.3273 86.8678 47.922L86.8593 43.9971C86.8593 43.711 87.1125 43.4823 87.4231 43.4823H88.3346C88.3346 43.4823 89.7716 43.4121 90.7821 45.2267C90.7821 45.2267 91.5235 46.5701 92.318 48.1262C93.1136 49.6845 93.6752 50.0132 96.0429 50.0132L97.6703 50.0142C97.8129 50.0142 97.9299 49.9079 97.9299 49.7749V49.158C97.9299 49.0038 97.8139 48.8761 97.6597 48.8421ZM156.732 42.9728C156.838 46.6541 157.794 48.9739 160.276 48.9123C162.809 48.8495 163.581 46.5563 163.472 42.8058C163.363 39.0171 162.385 36.8057 159.928 36.8653C157.445 36.928 156.621 39.183 156.732 42.9728ZM160.101 35.9835C161.201 35.9835 162.244 36.2377 163.172 36.6919C165.512 37.8375 167.125 40.252 167.125 43.0451C167.125 46.9456 163.981 50.1067 160.101 50.1067C156.221 50.1067 153.077 46.9456 153.077 43.0451C153.077 39.1447 156.221 35.9835 160.101 35.9835ZM217.539 42.2176H214.867C214.558 42.2176 214.299 41.9953 214.299 41.7092V37.8003C214.299 37.5131 214.545 37.2865 214.855 37.2865H217.539C217.539 37.2865 220.195 37.2993 220.195 39.7829C220.195 42.1953 217.539 42.2176 217.539 42.2176ZM225.1 48.8634L224.596 48.8081C224.563 48.7985 224.516 48.7931 224.457 48.7864C224.107 48.7464 223.34 48.6587 222.636 47.3838C221.06 44.535 220.137 43.6509 219.786 43.315L219.743 43.2738C219.428 42.9728 219.825 42.8888 219.825 42.8888C223.683 41.957 223.442 39.4277 223.442 39.4277C223.442 36.1335 219.244 36.1537 219.244 36.1537H209.527C209.381 36.1537 209.266 36.3016 209.266 36.4356V37.0408C209.266 37.2036 209.401 37.3386 209.571 37.361L210.38 37.4769C210.802 37.5354 211.127 37.8184 211.127 38.2236V47.9433C211.127 48.3486 210.802 48.6847 210.38 48.7421L209.571 48.8591C209.401 48.8815 209.266 49.0155 209.266 49.1793V49.7856C209.266 49.9185 209.381 50.0345 209.527 50.0345H215.91C216.054 50.0345 216.168 49.9185 216.168 49.7856V49.1793C216.168 49.0155 216.034 48.8815 215.864 48.8591L215.054 48.7421C214.632 48.6847 214.309 48.3486 214.309 47.9433L214.299 44.0173C214.299 43.7312 214.552 43.5025 214.862 43.5025H215.774C215.774 43.5025 217.213 43.4323 218.222 45.248C218.222 45.248 218.964 46.5903 219.759 48.1486C220.553 49.7058 221.116 50.0345 223.483 50.0345H225.11C225.254 50.0345 225.369 49.9292 225.369 49.7962V49.1793C225.369 49.0261 225.255 48.8974 225.1 48.8634ZM105.301 41.7507C105.445 41.7507 105.561 41.856 105.561 41.99V43.4696C105.561 43.6014 105.445 43.7078 105.301 43.7078H99.1595C99.0159 43.7078 98.8999 43.6014 98.8999 43.4696V41.99C98.8999 41.856 99.0159 41.7507 99.1595 41.7507H105.301ZM149.904 45.3203C147.548 48.7644 144.058 48.6144 144.058 48.6144C140.261 48.7197 138.882 44.7874 138.722 39.8935C138.561 35.0007 139.714 30.9971 143.48 30.8928C143.48 30.8928 147.063 30.4014 149.401 34.0242C149.459 34.1231 149.556 34.237 149.701 34.2508C149.75 34.2561 149.796 34.2508 149.84 34.2391L150.758 34.0678C150.855 34.0412 150.93 33.9615 150.94 33.8636C150.945 33.8306 150.94 33.7987 150.932 33.7679L149.675 29.8972C149.628 29.7675 149.496 29.6739 149.341 29.6739H148.89C148.735 29.6739 148.603 29.7675 148.557 29.8972C148.412 31.1321 147.43 30.5014 147.43 30.5014C146.23 29.8877 144.89 29.5452 143.48 29.5452C138.3 29.5452 134.102 34.1497 134.102 39.8297C134.102 45.5096 138.3 50.1152 143.48 50.1152C145.04 50.1152 146.531 49.6866 147.826 48.9441C147.826 48.9441 148.915 48.2113 149.061 49.4473C149.107 49.576 149.238 49.6696 149.394 49.6696H149.845C150 49.6696 150.132 49.576 150.178 49.4473L151.435 45.5745C151.444 45.5447 151.449 45.5128 151.444 45.4809C151.434 45.3809 151.359 45.3032 151.263 45.2756L150.344 45.1043C150.301 45.0916 150.253 45.0873 150.204 45.0916C150.06 45.1065 149.962 45.2203 149.904 45.3203ZM226.186 50.0346H231.426L232.676 50.0265C229.572 54.1486 226.38 56.5122 221.581 56.9292H23.0685C18.2161 56.5076 16.1858 54.9984 13.2027 50.9079C19.7501 49.4902 20.3152 44.5638 20.6412 41.0701C20.9146 38.1419 20.8433 34.5744 20.8433 34.5744V32.5991C20.8433 32.1588 21.1677 31.794 21.59 31.7301L22.3984 31.6046C22.5696 31.5823 22.7036 31.4355 22.7036 31.2589V30.3644C22.7036 30.2176 22.5898 30.1006 22.4441 30.1006H14.7145C14.5688 30.1006 14.455 30.2176 14.455 30.3644V31.2589C14.455 31.4355 14.589 31.5823 14.7592 31.6046L15.5686 31.7301C15.9909 31.794 16.3153 32.1588 16.3153 32.5991V41.2679C16.3091 41.4473 16.3078 41.6584 16.3062 41.8942C16.2954 43.5579 16.2766 46.4525 14.4954 48.1051C13.811 48.7407 12.9529 49.1348 12.103 49.3735C8.95795 45.0965 6.40525 43.5888 6.40525 43.5888C3.9716 42.0136 1.61347 42.1529 0.694476 43.7388C-0.225587 45.3247 0.693422 47.7988 3.35043 49.4315C5.47341 50.8093 8.79153 51.3637 11.419 51.171C12.2676 52.3136 13.8317 54.4232 14.4507 55.2816C14.5053 55.3573 14.5638 55.442 14.6277 55.5344C15.5799 56.9133 17.7114 60 25.5436 60H218.959C227.374 60 230.529 55.6211 231.4 54.4123L231.401 54.4105C232.077 53.4751 233.874 51.0548 234.644 50.0183C238.19 49.9984 240.455 49.8231 242.649 48.3987C245.306 46.7671 246.225 44.293 245.304 42.706C244.384 41.1212 242.027 40.9797 239.594 42.5571C239.594 42.5571 236.883 44.1569 233.607 48.7401H231.515C231.206 48.7401 230.96 48.5136 230.96 48.2275V42.3178C230.96 42.0317 231.213 41.804 231.523 41.804H233.054C233.936 41.804 234.291 42.4571 234.291 42.4571L234.652 43.1166C234.709 43.2155 234.807 43.3304 234.952 43.3442C235 43.3485 235.047 43.3442 235.09 43.3314L235.615 43.2123C235.711 43.1857 235.786 43.107 235.798 43.0081C235.801 42.9751 235.798 42.9432 235.788 42.9134L234.624 39.3278C234.578 39.1981 234.446 39.1045 234.291 39.1045H233.839C233.685 39.1045 233.552 39.1981 233.506 39.3278L233.311 39.9245C233.21 40.2681 232.894 40.5276 232.351 40.5255H231.528C231.218 40.5255 230.96 40.2958 230.96 40.0096V37.8387C230.96 37.5526 231.206 37.325 231.515 37.325H235.067C235.067 37.325 236.025 37.2729 236.681 38.2333L237.014 38.6939C237.092 38.7981 237.193 38.8917 237.339 38.8917H237.996C238.14 38.8917 238.256 38.7843 238.256 38.6514C238.256 38.6184 238.248 38.5875 238.235 38.5588L237.543 36.7283C237.419 36.4209 237.096 36.139 236.722 36.139H226.186C226.041 36.139 225.927 36.2868 225.927 36.4209V37.0261C225.927 37.1899 226.061 37.325 226.232 37.3473L227.04 37.4622C227.464 37.5207 227.786 37.8579 227.786 38.2631V47.9435C227.786 48.3487 227.464 48.6848 227.04 48.7423L226.232 48.8593C226.061 48.8816 225.927 49.0156 225.927 49.1794V49.7857C225.927 49.9187 226.041 50.0346 226.186 50.0346ZM235.598 48.7361C238.607 48.6764 239.85 47.9817 239.85 47.9817C241.334 47.3233 241.673 46.2724 241.354 45.7683C241.08 45.2396 240.305 44.9673 238.759 45.814C237.484 46.5109 236.284 47.8674 235.598 48.7361ZM10.3154 49.6824C9.55989 49.7376 7.40693 49.7958 5.84683 48.8582C4.33538 47.9488 4.17901 47.1436 4.49704 46.6394C4.77253 46.1086 5.54794 45.8374 7.09449 46.6841C8.40679 47.4023 9.64001 48.8191 10.3154 49.6824Z" fill="#BD9542"/>
</svg>
