<svg width="116" height="110" viewBox="0 0 116 110" fill="none" xmlns="https://www.w3.org/2000/svg">
<path id="image 12 (Traced)" fill-rule="evenodd" clip-rule="evenodd" d="M19.5092 0.230438C19.5092 1.09448 24.4735 5.08232 28.04 7.08331C35.1258 11.0582 52.8481 21.6765 52.9491 22.0077C53.0615 22.3756 39.1177 30.3497 38.007 30.5527C37.6176 30.6234 37.2994 30.5134 37.2994 30.3072C37.2994 30.1014 36.6626 29.0991 35.8843 28.0798C35.106 27.0605 34.4692 25.7647 34.4692 25.2006C34.4692 24.5525 34.0968 23.9311 33.4583 23.5126C32.5203 22.898 32.3731 22.8992 31.4129 23.5283C30.599 24.0612 30.4049 24.4809 30.5031 25.4954C30.5828 26.3162 30.9216 26.9137 31.4367 27.1406C31.8815 27.3367 32.6671 28.5193 33.1826 29.7687C34.7542 33.5782 34.8565 33.2515 31.5782 34.8939C29.944 35.7126 27.4606 37.1799 26.06 38.1539C24.1193 39.5036 23.1408 39.9249 21.9452 39.9249C20.7323 39.9249 20.1864 40.1662 19.5387 40.9903C18.4814 42.3342 18.4814 43.176 19.5387 44.52C20.9324 46.2917 23.9305 45.6602 24.5135 43.472C24.6878 42.8174 25.5449 42.2048 27.4909 41.3436C28.9942 40.6785 31.5702 39.2367 33.2162 38.1402C36.2081 36.1461 36.2081 36.1461 36.961 37.1257C37.3746 37.6647 38.2573 38.7754 38.9216 39.5945C39.5859 40.4133 40.1297 41.5377 40.1297 42.0924C40.1297 43.2173 41.0798 44.3724 42.0045 44.3724C44.1725 44.3724 44.9747 41.8466 43.2462 40.4638C42.364 39.7587 39.7941 34.8288 40.1588 34.5413C40.819 34.0205 57.2528 24.5606 57.4978 24.5606C57.7436 24.5606 74.2226 34.0266 74.8723 34.5409C75.2366 34.8292 72.6672 39.7583 71.7849 40.4638C70.0565 41.8466 70.8586 44.3724 73.0266 44.3724C73.982 44.3724 74.9015 43.2031 74.9015 41.9881C74.9015 41.3392 75.3013 40.4986 75.8601 39.9738C76.3873 39.4785 77.1568 38.4459 77.5696 37.6797C77.9824 36.9131 78.4551 36.286 78.6196 36.286C78.7846 36.286 80.2446 37.1504 81.8643 38.2065C83.4836 39.263 86.0381 40.6729 87.5406 41.34C89.4842 42.2028 90.3434 42.8182 90.5176 43.472C90.833 44.6559 92.1717 45.5854 93.561 45.5854C94.7489 45.5854 96.3306 43.9689 96.3306 42.7551C96.3306 42.3702 95.9534 41.5761 95.4924 40.9903C94.8447 40.1662 94.2989 39.9249 93.0859 39.9249C91.8903 39.9249 90.9118 39.5036 88.9711 38.1539C87.5705 37.1799 85.0872 35.7126 83.4529 34.8939C80.1746 33.2515 80.2769 33.5782 81.8485 29.7687C82.3641 28.5193 83.1497 27.3367 83.5944 27.1406C84.1095 26.9137 84.4483 26.3162 84.528 25.4954C84.6262 24.4809 84.4322 24.0612 83.6183 23.5283C82.658 22.8992 82.5108 22.898 81.5728 23.5126C80.9344 23.9311 80.562 24.5525 80.562 25.2006C80.562 25.7647 79.9252 27.0605 79.1469 28.0798C78.3685 29.0991 77.7317 30.1014 77.7317 30.3072C77.7317 30.5134 77.4135 30.6234 77.0242 30.5527C75.8759 30.3428 61.9854 22.3696 62.0966 21.9838C62.1524 21.7898 68.8318 17.732 76.9397 12.9666C87.4682 6.77805 92.253 3.73471 93.6831 2.31594C94.7845 1.22386 95.5984 0.242567 95.4916 0.135826C95.3849 0.0290846 94.1198 0.236502 92.6804 0.59635C90.6879 1.09448 86.1813 3.45896 73.7896 10.5075L57.5156 19.7645L41.2416 10.5067C31.0312 4.69821 24.2143 1.06536 22.9459 0.756462C21.8341 0.48597 20.6061 0.16979 20.2168 0.0533446C19.8274 -0.0626962 19.5092 0.0169553 19.5092 0.230438ZM5.76222 58.9281C5.76222 59.1504 6.21061 59.3324 6.75887 59.3324C8.30864 59.3324 8.64585 60.4475 7.931 63.2086C7.1074 66.3894 3.49558 78.6728 3.0019 79.9707C2.55027 81.1594 1.84918 81.8059 0.708177 82.0861C0.263422 82.1956 3.74869 82.306 8.45339 82.3319L17.0072 82.3788L17.6857 80.4583C19.3523 75.7402 19.2751 75.2838 17.2798 78.057C16.6098 78.9886 15.3855 80.0823 14.5595 80.4874C12.7606 81.3696 7.29662 81.6401 6.53569 80.8848C6.15643 80.508 6.65334 78.2737 8.78291 70.7767C11.6071 60.834 12.3078 59.3324 14.1212 59.3324C14.6383 59.3324 15.0616 59.1504 15.0616 58.9281C15.0616 58.6818 13.2422 58.5237 10.4119 58.5237C7.58167 58.5237 5.76222 58.6818 5.76222 58.9281ZM25.0759 59.0291C24.3942 59.5572 22.99 63.7565 23.3685 64.1353C23.6608 64.4277 27.9579 59.6712 27.9814 59.0291C27.9919 58.7405 27.5132 58.5237 26.8642 58.5237C26.2396 58.5237 25.435 58.7514 25.0759 59.0291ZM34.0648 58.8998C34.0648 59.1068 34.4744 59.3344 34.9746 59.4052C36.4536 59.6154 36.3076 61.5812 34.2977 68.5336C30.6273 81.2309 30.7607 80.886 29.2024 81.6704C27.8233 82.3647 27.9612 82.3776 36.7568 82.378L45.7158 82.3788L46.518 80.0539C46.9591 78.7755 47.4503 77.4109 47.6092 77.0215C48.1203 75.7705 47.2393 76.2832 46.093 77.9042C44.7248 79.8384 42.3401 81.011 39.0404 81.3712C35.7363 81.7315 34.0648 81.3615 34.0648 80.269C34.0648 79.8114 34.6107 77.5475 35.2778 75.2389C35.9449 72.9298 36.4908 70.9538 36.4908 70.8471C36.4908 70.7408 37.5541 70.6534 38.854 70.6534C41.4369 70.6534 42.3518 71.2397 42.6405 73.0794C42.7869 74.0093 43.2923 72.6807 44.8328 67.3178C45.1328 66.2738 44.3908 66.4582 43.7924 67.5765C43.1015 68.8679 41.7219 69.4405 39.302 69.4405C36.866 69.4405 36.8712 69.4761 38.5168 64.0173C39.1815 61.8129 39.7253 59.9482 39.7253 59.873C39.7253 59.7982 41.0447 59.7371 42.6567 59.7375C46.3862 59.7383 48.2271 60.5745 48.8865 62.567C49.1841 63.467 49.4287 63.7613 49.5585 63.3756C51.3412 58.0713 52.0127 58.5237 42.3535 58.5237C37.5105 58.5237 34.0648 58.6802 34.0648 58.8998ZM55.8983 58.852C55.8983 59.0866 56.3988 59.3364 57.0102 59.4068C58.6606 59.5964 58.6117 60.8211 56.6871 67.4714C55.7624 70.6668 54.8321 73.9183 54.6194 74.6967C53.1917 79.9209 52.5747 81.2423 51.3039 81.7954C50.1266 82.3077 50.34 82.3477 54.281 82.357C57.9543 82.3655 58.3901 82.2983 57.5156 81.858C56.0891 81.14 56.0762 79.891 57.4464 75.2639L58.6323 71.2599H62.4204C65.8276 71.2599 66.4172 71.1443 68.2835 70.1096C71.2694 68.4547 72.2734 66.9486 72.2734 64.1256C72.2734 61.6188 71.6503 60.5817 69.4439 59.4177C67.9645 58.637 55.8983 58.1332 55.8983 58.852ZM76.5188 58.8998C76.5188 59.1068 76.9097 59.3344 77.3872 59.4052C79.2431 59.6813 79.1748 60.4022 76.3558 70.2827C74.8703 75.4899 73.3274 80.2011 72.9276 80.7518C72.5277 81.3025 71.7619 81.8774 71.2262 82.0299C70.69 82.1819 74.3213 82.2773 79.2952 82.2413L88.3387 82.1766L89.3334 79.4111C89.88 77.89 90.1978 76.5254 90.0393 76.3787C89.8804 76.2319 89.6637 76.3568 89.557 76.6564C89.1114 77.9106 86.8743 79.946 85.2671 80.5598C83.144 81.3704 77.5866 81.5782 76.8766 80.8735C76.4828 80.4821 76.6712 79.386 77.7815 75.6173C79.1841 70.8556 79.1841 70.8556 81.4426 70.7359C84.0877 70.5956 85.0095 71.2296 85.0095 73.1889C85.0095 75.1261 85.6116 74.0611 86.5731 70.4238C87.6546 66.3332 87.6514 65.6451 86.5593 67.3509C86.085 68.0916 85.2574 68.8651 84.7205 69.0693C83.4335 69.5585 79.7533 69.5472 79.7533 69.0543C79.7533 68.4224 81.8518 61.2153 82.2743 60.3958C82.62 59.7246 83.0465 59.6595 86.0583 59.8176C89.9952 60.0242 91.4787 60.9291 91.4787 63.1225C91.4787 63.8758 91.6214 64.1984 91.8507 63.9619C92.3432 63.4532 93.4744 59.0372 93.1866 58.749C92.7911 58.3535 76.5188 58.5011 76.5188 58.8998ZM98.7565 58.8998C98.7565 59.1068 99.1657 59.3344 99.6663 59.4052C101.482 59.6631 101.259 60.9177 96.633 76.5161C95.3982 80.6786 95.2231 81.009 93.9018 81.6704C92.515 82.3651 92.65 82.3776 101.446 82.378C110.403 82.3788 110.403 82.3788 110.879 81.0648C112.639 76.2068 112.599 75.1095 110.765 77.8823C109.453 79.8635 107.052 81.0235 103.517 81.3846C100.114 81.7319 98.7565 81.4295 98.7565 80.324C98.7565 79.8696 99.3299 77.5075 100.031 75.0755C101.305 70.6534 101.305 70.6534 103.647 70.6534C105.608 70.6534 106.091 70.7994 106.618 71.5522C106.964 72.0463 107.262 72.9104 107.28 73.4728C107.309 74.3607 108.683 70.6183 109.449 67.5644C109.76 66.3268 109.149 66.334 108.484 67.5765C107.793 68.8679 106.414 69.4405 103.994 69.4405C101.79 69.4405 101.745 69.3661 102.428 66.8124C104.406 59.4072 104.176 59.7367 107.365 59.7375C111.077 59.7383 112.92 60.5777 113.578 62.567C113.883 63.4904 114.122 63.7715 114.264 63.3756C114.658 62.2746 115.329 59.5438 115.331 59.0291C115.333 58.641 113.408 58.5237 107.045 58.5237C102.202 58.5237 98.7565 58.6802 98.7565 58.8998ZM67.8816 60.7471C69.0517 61.5133 69.4666 63.6772 68.8269 65.6742C67.8614 68.688 65.5479 70.254 62.0771 70.243C58.9347 70.2329 58.9214 70.1889 60.4267 64.8716C61.4945 61.0997 61.9174 60.1354 62.568 59.989C63.9237 59.6841 66.9096 60.1099 67.8816 60.7471ZM42.9599 95.9875C42.6264 96.0987 42.0979 96.2713 41.7862 96.3712C41.3253 96.5184 41.3447 96.6454 41.8881 97.0469C42.5055 97.5025 42.4816 97.7916 41.5828 100.776C41.0467 102.555 40.3165 105.045 39.9603 106.31C39.6045 107.575 39.0287 108.894 38.6814 109.242C38.1093 109.814 38.2281 109.873 39.9481 109.873C41.5804 109.873 41.7761 109.789 41.3479 109.273C40.9452 108.787 41.1676 107.56 42.5111 102.856C44.5691 95.6535 44.5825 95.4465 42.9599 95.9875ZM50.826 96.7141C49.6551 97.885 49.5585 99.3632 50.541 101.074C51.156 102.145 51.1689 102.333 50.6421 102.515C50.3085 102.631 49.4441 103.314 48.7215 104.035C47.0436 105.707 46.9251 107.661 48.4167 109.063C48.9718 109.584 49.5221 109.915 49.6394 109.797C49.757 109.68 49.5755 109.354 49.2366 109.072C48.2315 108.238 48.4595 105.679 49.6673 104.243C51.0197 102.636 51.9897 102.67 53.0349 104.361C54.118 106.113 54.1047 107.759 52.9977 108.937C51.7722 110.242 52.715 110.115 54.0319 108.798C55.5724 107.258 55.7568 106.039 54.7585 103.984C53.9102 102.238 53.9102 102.238 55.3084 100.84C56.846 99.3022 57.0308 98.3852 56.0774 97.0246C55.2898 95.8998 54.4856 95.806 55.0755 96.9078C55.6795 98.0366 55.5906 99.4469 54.8483 100.506C53.907 101.851 52.6172 101.499 51.7152 99.6519C51.029 98.2477 51.0201 98.0455 51.6052 97.1528C51.9553 96.6183 52.7462 96.1052 53.3624 96.0118C54.4023 95.8549 54.3869 95.8383 53.1509 95.7821C52.2201 95.7397 51.5191 96.0207 50.826 96.7141ZM62.2664 96.1581C61.2576 96.7456 61.353 97.4774 62.3674 96.9344C63.5638 96.294 64.7934 97.0853 64.7934 98.4955C64.7934 99.7865 63.5634 101.081 61.761 101.687C60.548 102.094 60.548 102.094 61.6389 102.529C63.2517 103.171 64.1351 104.747 63.8537 106.48C63.4243 109.127 62.8013 109.377 58.9918 108.432C58.0133 108.189 57.8613 108.258 57.983 108.891C58.3194 110.638 62.3242 110.237 64.0773 108.28C65.8378 106.316 66.0496 103.909 64.5904 102.45C63.8982 101.758 63.7915 100.978 64.3891 100.978C65.2054 100.978 66.4107 99.328 66.4107 98.2101C66.4107 96.1804 64.1501 95.0612 62.2664 96.1581ZM72.3619 96.44C71.7433 96.8229 70.857 97.9214 70.3924 98.8809C68.892 101.98 70.1458 105.021 72.9247 105.021C73.5672 105.021 74.0928 105.183 74.0928 105.382C74.0928 105.844 72.2293 107.803 70.6561 108.995C69.4957 109.875 69.4868 109.904 70.4539 109.66C73.5757 108.872 77.0096 105.063 77.7313 101.586C78.1373 99.6309 78.1025 99.1582 77.4584 97.8595C77.0529 97.0412 76.448 96.2871 76.1144 96.1832C75.592 96.0203 75.5856 96.0886 76.0691 96.6741C77.2065 98.052 75.9005 103.742 74.3063 104.354C73.2801 104.748 71.7874 103.939 71.5112 102.838C70.9092 100.439 72.6199 96.6098 74.5335 96.0744C75.5079 95.8019 75.5079 95.8019 74.4971 95.7724C73.9412 95.7562 72.9801 96.0567 72.3619 96.44Z" fill="#BD9542"/>
</svg>
