<svg width="164" height="30" viewBox="0 0 164 30" fill="none" xmlns="https://www.w3.org/2000/svg">
<path id="Vector" d="M53.0531 25.7568H43.8369V6.05406C43.8369 6.05406 23.2153 22.027 22.8369 22.2973C22.4585 22.0541 2.91797 6.27027 2.91797 6.27027V25.7568H0.917969V4.27028H14.4585C14.6207 4.37838 28.4855 15.6487 28.4855 15.6487L43.3504 4.27028H53.0531M112.594 23.7838V14.027H103.945C101.026 14.027 97.9991 14.9189 97.9991 18.8919C97.9991 20.973 99.3234 23.7568 103.972 23.7568M112.54 4.24325V6.16217H104.053C101.08 6.16217 98.8369 6.78379 98.891 9.40541C98.918 11.3514 100.323 12.4595 103.945 12.4595H116.729V14.027H114.35V25.7297H97.918C92.945 25.7297 89.1613 24.027 89.1613 18.8919C89.1613 16.1622 90.3775 13.7838 93.6748 13.1622C91.3775 12.4595 90.2423 11.5405 90.2423 8.8919C90.2423 5.81082 93.1613 4.21622 97.9991 4.21622H112.54V4.24325ZM122.648 30H131.864V14.2703H154.945V12.2703H131.864V2.02703H163.08V0.0270287H122.648M55.2153 14.2703H66.7558C69.2964 14.2703 71.2694 14.9189 72.5667 16.2432C74.1883 17.8649 74.4315 19.7297 74.4315 20.9189C74.4315 24.3784 71.9721 27.973 66.4856 27.973H43.7829V29.973H73.0531C78.4315 29.8108 83.3775 26.3243 83.3775 20.8919C83.3775 16.2973 79.8099 14.2703 76.3775 13.3514C75.5396 13.1351 74.864 13.1081 74.864 13.1081C74.864 13.1081 75.7558 13.1351 76.6207 12.7568C79.3504 11.5135 80.7018 9.1892 80.7018 7.00001C80.7018 2.1892 75.2964 0 72.1612 0H43.7829V2.00001H65.3504C69.5937 2.00001 71.9991 3.72973 71.9991 7.2973C71.9991 9.2973 70.7288 12.0811 65.9991 12.2432H55.1612" fill="#BD9542"/>
</svg>
