<svg width="278" height="54" viewBox="0 0 278 54" fill="none" xmlns="https://www.w3.org/2000/svg">
<path fill-rule="evenodd" clip-rule="evenodd" d="M153.662 45.4529L152.923 43.6492L163.005 42.5855L155.235 48.8752L154.495 47.0716L139.048 53.5L123.601 47.0716L122.861 48.8752L115.092 42.5855L125.266 43.6492L124.526 45.4529C126.931 46.3316 132.481 47.6728 136.505 48.1353L137.707 17.5655L127.532 16.2243L137.892 14.7443L138.031 11.5995C135.487 10.9983 133.545 8.73211 133.545 6.04974C133.545 3.04363 136.088 0.5 139.094 0.5C142.101 0.5 144.644 2.90488 144.644 6.04974C144.644 8.9171 142.702 10.9983 140.158 11.5995L140.297 14.7443L150.656 16.2243L140.482 17.5655L141.684 48.1353C145.569 47.8578 151.258 46.5166 153.662 45.4529ZM139.141 2.85864C137.337 2.85864 135.996 4.19984 135.996 6.0035C135.996 7.80717 137.337 9.14835 139.141 9.14835C140.944 9.14835 142.286 7.80717 142.286 6.0035C142.286 4.19984 140.944 2.85864 139.141 2.85864ZM21.0693 21.913C21.0693 21.173 21.2081 20.4331 21.8093 19.5081H15.3808C16.1208 20.2481 16.1208 20.9881 16.1208 22.0518V30.2839C16.1208 30.8851 15.9821 31.6251 15.3808 32.2263C14.6409 33.29 12.976 33.5675 11.0336 33.5675C9.09114 33.5675 7.42622 32.9662 6.68626 32.2263C5.94629 31.4863 5.94629 30.7463 5.94629 30.1451V21.7743C5.94629 21.0343 6.08504 20.2943 6.68626 19.3694H0.257812C0.859035 20.1094 0.997776 20.8493 0.997776 21.7743V30.1451C0.997776 32.2263 1.73774 34.1687 3.07893 35.6949C4.28137 37.036 6.825 38.3772 10.8486 38.3772C14.8721 38.3772 17.277 36.8973 18.6182 35.6949C19.9594 34.2149 20.6993 32.0875 20.6993 30.1451V21.913H21.0693ZM51.6416 31.0238L60.0124 19.5081H52.9827C53.584 19.9706 53.584 20.5718 52.9827 20.9881L49.2367 25.9366L45.3519 20.7106C44.8894 20.1093 45.2131 19.6469 45.4906 19.3694H38.4609L46.8318 30.8851V35.9723C46.8318 37.036 46.693 37.4523 46.0918 38.3772H52.5203C51.9191 37.6373 51.7803 37.036 51.7803 35.9723V31.0238H51.6416ZM70.0481 23.8554C66.6258 23.8554 66.0246 24.4566 66.0246 25.1966C66.0246 26.5404 68.3746 26.5887 70.3998 26.6303C70.8837 26.6402 71.349 26.6498 71.7593 26.6765C75.9678 27.139 79.8527 27.879 79.8527 32.2263C79.8527 35.3711 77.124 38.516 70.6956 38.516C67.5507 38.516 63.9434 37.6373 61.8623 36.5736C61.261 36.4348 60.7986 36.4348 60.0586 36.4348L62.741 31.4863C62.9385 32.0131 63.3001 32.2352 63.709 32.4863C63.8745 32.5879 64.0477 32.6943 64.2209 32.8275C65.7008 33.4287 67.967 34.1687 70.0481 34.1687C73.3317 34.1687 74.9966 33.4287 75.1354 32.6888C75.3522 31.3877 74.2134 31.301 71.6306 31.1046L71.6302 31.1046C70.908 31.0497 70.073 30.9861 69.1232 30.8851C64.7759 30.4226 60.8911 29.2202 60.8911 25.1966C60.8911 23.9942 61.631 19.3694 69.1232 19.3694C72.8692 19.3694 75.5516 20.1093 77.3553 20.7106C77.9565 20.8493 78.5577 20.9881 79.2977 20.8493L77.2165 25.7978C76.939 25.1966 76.4766 24.7341 75.7366 24.5954C75.574 24.5617 75.4046 24.5254 75.2279 24.4874L75.2278 24.4874C73.9471 24.2125 72.2833 23.8554 70.0481 23.8554ZM88.636 25.1966C88.636 24.4566 89.2372 23.8554 92.6595 23.8554C94.8948 23.8554 96.5586 24.2126 97.8393 24.4874L97.8399 24.4876C98.0164 24.5255 98.1856 24.5618 98.348 24.5954C99.088 24.7341 99.5504 25.1966 99.8279 25.7978L101.909 20.8493C101.169 20.9881 100.568 20.8493 99.9667 20.7106C98.163 20.1093 95.4806 19.3694 91.5958 19.3694C84.1037 19.3694 83.3637 23.9942 83.3637 25.1966C83.3637 29.2202 87.2485 30.4226 91.5958 30.8851C92.5457 30.9861 93.3807 31.0497 94.1029 31.1046L94.1032 31.1046C96.6861 31.301 97.8249 31.3877 97.608 32.6888C97.4693 33.4287 95.8044 34.1687 92.5208 34.1687C90.4396 34.1687 88.1735 33.4287 86.6936 32.8275C86.5204 32.6943 86.3472 32.5879 86.1817 32.4863C85.7728 32.2352 85.4112 32.0131 85.2136 31.4863L82.5312 36.4348C83.2712 36.4348 83.7337 36.4348 84.3349 36.5736C86.4161 37.6373 90.0234 38.516 93.1682 38.516C99.5967 38.516 102.325 35.3711 102.325 32.2263C102.325 27.879 98.4405 27.139 94.2319 26.6765C93.87 26.6494 93.4355 26.6399 92.9706 26.6298H92.9703C91.0593 26.5883 88.636 26.5357 88.636 25.1966ZM122.353 23.9939C123.093 23.9939 123.833 24.1326 124.758 24.7338V19.5078H106.629C107.481 20.3596 107.443 21.0927 107.394 22.0397V22.0399V22.04C107.382 22.2755 107.369 22.5243 107.369 22.7914V35.0933C107.369 36.4345 107.369 37.4982 106.629 38.3769H124.758V33.1509C124.018 33.7521 123.417 33.8909 122.353 33.8909H112.179V31.3473H121.752V27H112.179V24.3176H122.353V23.9939ZM31.7058 19.5078C31.1046 20.4328 30.9658 20.849 30.9658 21.9127V33.4747H39.5217C40.5854 33.4747 41.1866 33.3359 41.9266 32.7347V38.4232H25.2773C25.8786 37.4982 26.0173 37.082 26.0173 36.0183V21.9127C26.0173 20.849 25.8786 20.2478 25.2773 19.5078H31.7058ZM277.743 19.5078C277.142 20.4328 277.003 20.849 277.003 21.9127H276.957V35.8795C276.957 36.9432 277.095 37.5445 277.697 38.2844H276.957H272.332L262.157 26.5837V34.9546C262.157 35.2218 262.144 35.4707 262.132 35.7063C262.083 36.6533 262.045 37.3864 262.897 38.2382H256.469C257.07 37.4982 257.209 36.7582 257.209 35.6945V22.7914C257.209 22.5242 257.222 22.2753 257.234 22.0397C257.283 21.0927 257.32 20.3596 256.469 19.5078H262.296L272.054 30.8848V22.7914C272.054 22.5242 272.067 22.2753 272.079 22.0397C272.128 21.0927 272.166 20.3596 271.314 19.5078H277.743ZM252.405 35.8332V22.3288C252.405 21.2652 252.405 20.5252 253.145 19.6465H246.717C247.457 20.3865 247.457 21.1264 247.457 22.3288V35.8332C247.457 36.8969 247.457 37.6369 246.717 38.5156H253.145C252.405 37.4981 252.405 36.7582 252.405 35.8332ZM224.096 19.5078H234.733C240.005 19.7853 243.89 23.8551 243.89 28.9424C243.89 34.0296 239.82 38.2382 234.733 38.3769H224.096C224.836 37.4982 224.836 36.4345 224.836 35.0933V22.7914C224.836 22.5242 224.849 22.2753 224.861 22.0397C224.91 21.0927 224.947 20.3596 224.096 19.5078ZM229.784 33.6134H234.733C237.276 33.6134 239.219 31.486 239.219 29.0811C239.219 26.5375 237.276 24.4563 234.733 24.4563H229.784V33.6134ZM217.07 33.0122C219.151 31.8097 220.816 29.2661 220.816 26.7225C220.816 22.8377 217.671 19.5078 213.925 19.5078H201.346C202.086 20.2478 202.086 20.9878 202.086 22.1902V35.8333C202.086 36.897 201.947 37.637 201.346 38.3769H207.774C207.173 37.637 207.034 37.0357 207.034 36.2958V33.8909H211.381L215.405 38.3769H221.833L217.07 33.0122ZM213.925 29.0811H207.034V24.1326H213.925C214.989 24.1326 215.868 25.335 215.868 26.5375C216.145 27.8787 214.989 29.0811 213.925 29.0811ZM183.768 19.5078H190.381L199.677 38.3769H193.387C193.665 38.0994 193.665 37.637 193.526 37.0357L192.925 35.6945H182.75L182.149 37.0357C181.825 37.3132 181.825 37.9145 182.288 38.3769H175.998L183.768 22.1902C184.369 20.9878 184.23 20.109 183.768 19.5078ZM187.699 25.1963L185.016 30.8848H190.381L187.699 25.1963ZM173.179 36.1569V22.0514C173.179 20.9877 173.317 20.5714 173.919 19.6465H167.49C168.342 20.4982 168.304 21.2314 168.255 22.1783V22.1785C168.243 22.4141 168.23 22.6629 168.23 22.9301V31.0234L158.472 19.6465H152.645C153.496 20.4982 153.458 21.2314 153.41 22.1783V22.1785C153.397 22.4141 153.385 22.6629 153.385 22.9301V35.8332C153.385 36.8969 153.246 37.6369 152.645 38.3768H159.073C158.221 37.5251 158.259 36.792 158.308 35.845V35.8448C158.32 35.6092 158.333 35.3604 158.333 35.0933V26.8611L168.508 38.5618H174.057C173.656 38.0369 173.522 37.4708 173.396 36.9323L173.395 36.9322C173.332 36.6641 173.271 36.4029 173.179 36.1569Z" fill="#BD9542"/>
</svg>
