<svg width="182" height="100" viewBox="0 0 182 100" fill="none" xmlns="https://www.w3.org/2000/svg">
<path id="Union" fill-rule="evenodd" clip-rule="evenodd" d="M81.2818 22.8278H90.0863L90.0906 31.6279C90.0906 33.0505 89.2189 34.4818 88.0522 34.4818C87.6315 34.4818 86.8378 34.1478 86.8378 32.9681C86.8378 32.1873 87.2531 31.4604 87.6566 30.7544C88.0375 30.0879 88.4078 29.4399 88.4078 28.7827C88.4078 27.5944 87.3062 27.4209 87.3062 27.4209C87.3235 28.1408 87.2932 28.3967 86.8508 29.2859C86.4474 30.1143 85.4369 31.2376 84.6388 31.9749C83.8451 32.7122 82.8172 33.905 82.8172 35.3406C82.8172 36.7718 83.741 38.1814 85.4065 38.1814C86.782 38.1814 87.5777 37.4951 88.1756 36.9795C88.5354 36.6691 88.8236 36.4205 89.1235 36.4205C89.3577 36.4205 89.6656 36.529 89.6656 36.993C89.6656 37.2949 89.4804 37.7179 89.2662 38.2071C88.9726 38.8776 88.6247 39.6724 88.6247 40.4498C88.6247 42.3017 90.7065 43.9065 90.7065 43.9065C90.7065 43.9065 92.7884 42.3017 92.7884 40.4498C92.7884 39.6693 92.4399 38.8744 92.1462 38.2044C91.9323 37.7164 91.7474 37.2946 91.7474 36.993C91.7474 36.529 92.0554 36.4205 92.2939 36.4205C92.5916 36.4205 92.8783 36.6683 93.2367 36.9779C93.8338 37.4937 94.6297 38.1814 96.0066 38.1814C97.672 38.1814 98.5958 36.7718 98.5958 35.3406C98.5958 33.905 97.5723 32.7079 96.7742 31.9706C95.9762 31.2333 94.97 30.1143 94.5536 29.2815C94.1199 28.3967 94.0895 28.1408 94.1069 27.4252C94.1069 27.4252 93.0052 27.5944 93.0052 28.7827C93.0052 29.4399 93.3755 30.0879 93.7564 30.7544C94.1599 31.4604 94.5753 32.1873 94.5753 32.9681C94.5753 34.1478 93.7816 34.4818 93.3609 34.4818C92.1942 34.4818 91.3224 33.0505 91.3224 31.6279V22.8235H100.127C101.545 22.8235 102.981 23.6909 102.981 24.8619C102.981 25.2783 102.651 26.0763 101.463 26.0763C100.688 26.0763 99.9648 25.6628 99.2607 25.2601C98.593 24.8783 97.9425 24.5063 97.2817 24.5063C96.089 24.5063 95.9241 25.6036 95.9241 25.6036C96.6398 25.5906 96.9 25.6166 97.7805 26.059C98.6175 26.4667 99.7322 27.4773 100.47 28.271C101.211 29.069 102.404 30.0926 103.835 30.0926C105.275 30.0926 106.68 29.1731 106.68 27.5076C106.68 26.1303 105.992 25.3371 105.473 24.7405C105.161 24.3807 104.911 24.0924 104.911 23.7907C104.911 23.5521 105.024 23.2442 105.496 23.2442C105.798 23.2442 106.22 23.429 106.708 23.643C107.378 23.9366 108.173 24.2851 108.953 24.2851C110.805 24.2851 112.41 22.2076 112.41 22.2076C112.41 22.2076 110.805 20.1257 108.953 20.1257C108.173 20.1257 107.378 20.4742 106.708 20.7679C106.22 20.9818 105.798 21.1667 105.496 21.1667C105.024 21.1667 104.911 20.8544 104.911 20.6115C104.911 20.3161 105.159 20.0317 105.469 19.6756C105.987 19.0803 106.68 18.2847 106.68 16.9032C106.68 15.2377 105.275 14.3139 103.835 14.3139C102.408 14.3139 101.211 15.3418 100.47 16.1355C99.7322 16.9336 98.6175 17.9441 97.7848 18.3475C96.9 18.7899 96.6398 18.8202 95.9241 18.8072C95.9241 18.8072 96.089 19.9045 97.2817 19.9045C97.9425 19.9045 98.593 19.5326 99.2607 19.1507C99.9648 18.7481 100.688 18.3345 101.463 18.3345C102.651 18.3345 102.981 19.1282 102.981 19.5489C102.981 20.7199 101.545 21.5874 100.127 21.5874H91.3224V12.7829C91.3224 11.3603 92.1942 9.92903 93.3609 9.92903C93.7816 9.92903 94.5753 10.263 94.5753 11.447C94.5753 12.2245 94.1611 12.9481 93.7582 13.6521C93.3767 14.3188 93.0052 14.9678 93.0052 15.6281C93.0052 16.8121 94.1069 16.9856 94.1069 16.9856C94.0895 16.27 94.1199 16.0184 94.5536 15.125C94.97 14.2966 95.9762 13.1819 96.7742 12.4359C97.5723 11.6986 98.5958 10.5059 98.5958 9.0746C98.5958 7.639 97.672 6.22941 96.0066 6.22941C94.6297 6.22941 93.8338 6.92048 93.2367 7.43889C92.8783 7.75004 92.5916 7.99898 92.2939 7.99898C92.0554 7.99898 91.7474 7.88188 91.7474 7.4178C91.7474 7.1165 91.932 6.69525 92.1456 6.20747C92.4394 5.53673 92.7884 4.74019 92.7884 3.95673C92.7884 2.10476 90.7065 0.5 90.7065 0.5C90.7065 0.5 88.6247 2.10909 88.6247 3.95673C88.6247 4.74019 88.9736 5.53673 89.2674 6.20747C89.4811 6.69525 89.6656 7.1165 89.6656 7.4178C89.6656 7.88188 89.3577 7.99898 89.1235 7.99898C88.8236 7.99898 88.5354 7.74919 88.1756 7.4373C87.5777 6.91907 86.782 6.22941 85.4065 6.22941C83.741 6.22941 82.8172 7.639 82.8172 9.0746C82.8172 10.5059 83.8451 11.7029 84.6388 12.4403C85.4369 13.1776 86.4474 14.2966 86.8508 15.1293C87.2932 16.0184 87.3235 16.27 87.3062 16.9856C87.3062 16.9856 88.4078 16.8165 88.4078 15.6281C88.4078 14.9678 88.0364 14.3188 87.6548 13.6521C87.2519 12.9481 86.8378 12.2245 86.8378 11.447C86.8378 10.263 87.6315 9.92903 88.0522 9.92903C89.2189 9.92903 90.0906 11.3603 90.0906 12.7829V21.5874H81.2862C79.8636 21.5874 78.4236 20.7199 78.4236 19.5489C78.4236 19.1325 78.7619 18.3345 79.9416 18.3345C80.7246 18.3345 81.4491 18.7498 82.1528 19.1532C82.8173 19.5342 83.4633 19.9045 84.1227 19.9045C85.3154 19.9045 85.4889 18.8072 85.4889 18.8072C84.7733 18.8202 84.513 18.7899 83.6282 18.3518C82.7912 17.9441 81.6765 16.9336 80.9392 16.1399C80.2019 15.3418 79.0091 14.3183 77.5779 14.3183C76.1379 14.3183 74.7327 15.2377 74.7327 16.9032C74.7327 18.2847 75.4223 19.0803 75.9384 19.6756C76.247 20.0317 76.4936 20.3161 76.4936 20.6115C76.4936 20.8544 76.3808 21.1667 75.9167 21.1667C75.6175 21.1667 75.197 20.9824 74.7098 20.769C74.0388 20.4751 73.2414 20.1257 72.46 20.1257C70.608 20.1257 69.0033 22.2032 69.0033 22.2032C69.0033 22.2032 70.6124 24.2851 72.46 24.2851C73.2414 24.2851 74.0388 23.9358 74.7098 23.6418C75.197 23.4284 75.6175 23.2442 75.9167 23.2442C76.3808 23.2442 76.4936 23.5521 76.4936 23.7907C76.4936 24.0924 76.2445 24.3807 75.9336 24.7405C75.4181 25.3371 74.7327 26.1303 74.7327 27.5076C74.7327 29.1731 76.1379 30.0926 77.5779 30.0926C79.0091 30.0926 80.2019 29.069 80.9392 28.271C81.6765 27.4773 82.7912 26.4667 83.6282 26.059C84.513 25.6209 84.7733 25.5862 85.4889 25.6036C85.4889 25.6036 85.3197 24.5063 84.1227 24.5063C83.4629 24.5063 82.8153 24.8762 82.1497 25.2564C81.4459 25.6584 80.7218 26.072 79.9416 26.072C78.7663 26.072 78.4236 25.2783 78.4236 24.8576C78.4236 23.6952 79.8636 22.8278 81.2818 22.8278ZM15.1591 69.3479H24.0417L25.8373 74.0537H28.6131L20.9579 54.3412H18.5725L10.7873 74.0537H13.3592L15.1591 69.3479ZM23.2306 67.2097H15.9745L19.6178 57.7329L23.2306 67.2097ZM2.55529 63.5708V56.4404H6.84476H7.19173C7.41293 56.4404 8.6924 56.5098 9.37767 57.2602C10.043 58.0129 10.3925 58.9931 10.3535 59.9969C10.3535 61.0639 10.0586 62.0831 9.38635 62.7077C8.72276 63.3192 8.02447 63.5491 6.97054 63.5491C6.65392 63.5491 6.02503 63.5708 6.02503 63.5708H2.55529ZM6.84476 54.3456H0.0527344V74.0537H2.55529V65.67H6.02503C8.28904 65.67 9.90247 65.4401 11.4422 63.9308C12.6219 62.7771 12.9168 61.1636 12.9168 59.9579C12.9168 58.7522 12.6132 56.9652 10.9217 55.586C9.68995 54.5841 7.86833 54.3456 6.84476 54.3456ZM96.9887 54.3412H94.4905V74.0537H96.9887V64.976H105.845V74.0537H108.343V54.3412H105.845V62.7988H96.9887V54.3412ZM115.257 54.3412H112.759V74.0451H115.257V54.3412ZM122.053 54.3412H119.555V74.0537H130.593V71.8721H122.053V54.3412ZM40.2064 56.5229V54.3412H25.6855V56.5229H31.7055V74.0537H34.208V56.5229H40.2064ZM52.255 56.5229L53.4998 54.3412H42.3055V74.0537H53.3393L52.0902 71.8721H44.8038V64.8763H51.7693V62.6903H44.8038V56.5229H52.255ZM67.1619 54.3326L58.6827 63.5838V54.3369H56.1845V74.0494H58.6827V66.8367L62.0657 63.1934L67.574 74.0494H70.4235L63.7876 61.3631L70.2847 54.3369L67.1619 54.3326ZM81.2664 63.5708V56.4404H85.5559H85.8942C86.1241 56.4404 87.4079 56.5098 88.0845 57.2602C88.7534 58.011 89.1048 58.9922 89.0647 59.9969C89.0647 61.0639 88.7698 62.0831 88.0975 62.7077C87.4426 63.3192 86.7443 63.5491 85.6817 63.5491C85.3651 63.5491 84.7362 63.5708 84.7362 63.5708H81.2664ZM85.5559 54.3456H78.7639V74.0537H81.2664V65.67H84.7362C87.0002 65.67 88.6136 65.4401 90.1577 63.9308C91.3374 62.7771 91.6323 61.1636 91.6323 59.9579C91.6323 58.7522 91.3287 56.9652 89.6415 55.586C88.4098 54.5841 86.5795 54.3456 85.5559 54.3456ZM135.191 54.3412H132.701V74.0451H135.191V54.3412ZM141.931 63.5708V56.4404H146.22H146.558C146.78 56.4404 148.063 56.5098 148.749 57.2602C149.416 58.0115 149.766 58.9927 149.724 59.9969C149.724 61.0639 149.434 62.0831 148.757 62.7077C148.102 63.3192 147.4 63.5491 146.346 63.5491C146.021 63.5491 145.4 63.5708 145.4 63.5708H141.931ZM146.22 54.3456H139.432V74.0537H141.931V65.67H145.4C147.66 65.67 149.282 65.4401 150.817 63.9308C152.002 62.7771 152.292 61.1636 152.292 59.9579C152.292 58.7522 151.993 56.9652 150.297 55.586C149.065 54.5841 147.252 54.3456 146.22 54.3456ZM157.544 63.5708V56.4404H161.834H162.172C162.402 56.4404 163.677 56.5098 164.362 57.2602C165.031 58.011 165.383 58.9922 165.343 59.9969C165.343 61.0639 165.048 62.0831 164.371 62.7077C163.716 63.3192 163.014 63.5491 161.96 63.5491C161.634 63.5491 161.014 63.5708 161.014 63.5708H157.544ZM161.834 54.3456H155.046V74.0537H157.544V65.67H161.019C163.278 65.67 164.896 65.4401 166.431 63.9308C167.615 62.7771 167.906 61.1636 167.906 59.9579C167.906 58.7522 167.607 56.9652 165.911 55.586C164.679 54.5841 162.857 54.3456 161.834 54.3456ZM180.701 56.5229L181.945 54.3412H170.747V74.0537H181.785L180.545 71.8721H173.245V64.8763H180.215V62.6903H173.245V56.5229H180.701ZM101.738 97.6567H96.4379V92.5822H101.504V90.9904H96.4379V86.4971H102.961L107.584 99.2484H109.324L114.758 84.9184H112.893L108.56 96.7719L104.397 84.9184H94.6163V99.2441H102.644L101.738 97.6567ZM78.7292 86.4971L79.6313 84.9184H71.4818V99.2441H79.5055L78.6077 97.6567H73.299V92.5735H78.3692V90.9948H73.3034V86.4971H78.7292ZM91.641 84.9921H89.9061V95.8004L83.9208 84.9921H81.557V99.3178H83.2919V87.6074L89.789 99.3178H91.641V84.9921ZM123.58 86.4971L124.486 84.9184H116.341V99.2441H124.361L123.463 97.6567H118.154V92.5735H123.229V90.9948H118.159V86.4971H123.58ZM68.8144 97.1146V91.9186H62.6816V93.48H67.0362V96.464C66.9407 96.5681 65.5485 97.969 63.471 97.969C61.0812 97.969 58.8389 95.8741 58.8389 92.3133C58.8389 88.553 60.9251 86.1935 63.5577 86.1935C66.2338 86.1935 67.5566 88.7004 67.5566 88.7004L68.8578 87.4773C68.2679 86.6056 66.7109 84.6625 63.5577 84.6625C59.6716 84.6625 56.8438 87.9935 56.8438 92.2265C56.8438 96.6852 59.8494 99.5 63.1761 99.5C66.1384 99.5 67.6347 98.2335 68.8144 97.1146Z" fill="#BD9542"/>
</svg>
