<svg width="246" height="20" viewBox="0 0 246 20" fill="none" xmlns="https://www.w3.org/2000/svg">
<path id="Vector" d="M14.1733 7.50125C14.1733 8.38608 13.9378 8.76878 13.1432 8.76878H6.76014V3.04659H13.1426C13.9073 3.04659 14.1726 3.43065 14.1726 4.25576L14.1733 7.50125ZM20.3827 19.4946C19.5888 18.6851 19.2644 17.978 18.9116 17.064L16.616 11.259C18.5879 10.9944 19.529 9.9698 19.529 8.14926V4.13905C19.529 2.08101 18.3524 0.645209 15.8798 0.645209H0.888672C1.06509 1.29051 1.24152 1.87609 1.24152 3.04727V17.064C1.24152 18.242 1.06509 18.8316 0.888672 19.4946H7.11299C6.93656 18.8316 6.76014 18.2427 6.76014 17.064V11.1708H10.8789L14.1142 19.4946H20.3827ZM23.314 19.4946C23.4904 18.8323 23.6668 18.2433 23.6668 17.0667V3.05948C23.6668 1.8822 23.4904 1.2939 23.314 0.645209H29.5376C29.3612 1.29322 29.1848 1.8822 29.1848 3.05948V17.0667C29.1848 18.2427 29.3612 18.8323 29.5376 19.4946H23.314ZM48.0199 19.4986H37.0172C34.493 19.4986 33.3192 18.0927 33.3192 15.7985V4.34601C33.3192 2.05184 34.493 0.645209 37.0172 0.645209H48.0192L48.4901 3.48968C47.7539 3.19451 46.9892 3.04659 45.8119 3.04659H39.8366C39.2191 3.04659 38.8364 3.28408 38.8364 4.05084V16.0937C38.8364 16.8605 39.2184 17.0979 39.8366 17.0979H45.8112C46.9885 17.0979 47.7532 16.9493 48.4894 16.6542L48.0199 19.4986ZM64.8071 19.4946C64.9842 18.8316 65.1607 18.2427 65.1607 17.064V11.1708H57.7014V17.064C57.7014 18.242 57.8785 18.8316 58.0556 19.4946H51.8299C52.0063 18.8316 52.1828 18.2427 52.1828 17.064V3.05948C52.1828 1.8822 52.0063 1.2939 51.8299 0.645209H58.0556C57.8792 1.2939 57.7014 1.8822 57.7014 3.05948V8.76878H65.16V3.05948C65.16 1.8822 64.9836 1.2939 64.8065 0.645209H71.0315C70.855 1.2939 70.6786 1.8822 70.6786 3.05948V17.064C70.6786 18.242 70.855 18.8316 71.0315 19.4946H64.8071ZM86.5824 11.732H80.2258L83.3742 4.59639L86.5824 11.732ZM96.3535 19.4946C95.8235 19.0114 95.2936 17.9509 94.8817 17.0708L87.4068 0.645209H81.2558L82.0504 1.88491L75.2222 17.0708C74.9277 17.746 74.3387 18.6857 73.7796 19.4946H77.3996C77.3996 18.5677 77.6059 17.6286 77.8407 17.0708L79.1068 14.134H87.6701L88.9661 17.0708C89.2891 17.8036 89.4655 18.5385 89.4655 19.0114C89.4655 19.1926 89.4655 19.3127 89.4072 19.4946H96.3535ZM112.377 7.50125C112.377 8.38608 112.143 8.76878 111.347 8.76878H104.965V3.04659H111.347C112.113 3.04659 112.377 3.43065 112.377 4.25576V7.50125ZM118.587 19.4946C117.792 18.6851 117.469 17.978 117.115 17.064L114.819 11.259C116.791 10.9944 117.733 9.9698 117.733 8.14926V4.13905C117.733 2.08101 116.556 0.645209 114.084 0.645209H99.0935C99.2699 1.29051 99.4463 1.87609 99.4463 3.04727V17.064C99.4463 18.242 99.2699 18.8316 99.0935 19.4946H105.318C105.141 18.8316 104.965 18.2427 104.965 17.064V11.1708H109.082L112.318 19.4946H118.587ZM135.003 16.0923C135.003 16.8611 134.618 17.0973 133.999 17.0973H127.39V3.04727L133.999 3.01877C134.618 3.01877 135.003 3.2549 135.003 4.02302V16.0923ZM140.521 15.7958V4.32022C140.521 2.03487 139.347 0.645888 136.823 0.645888H121.519C121.695 1.28304 121.872 1.86184 121.872 3.01877V17.0986C121.872 18.2698 121.695 18.8547 121.519 19.5H136.822C139.346 19.4993 140.52 18.094 140.52 15.7965L140.521 15.7958ZM170.718 19.3487C170.894 18.6864 171.071 18.0981 171.071 16.9208V3.2074H171.012L164.566 19.348H160.741L154.413 3.2074H154.354V16.9208C154.354 18.0974 154.531 18.6864 154.709 19.3487H151.456C151.633 18.6864 151.811 18.0981 151.811 16.9208V2.91427C151.811 1.73699 151.633 1.14801 151.456 0.500679H158.887L164.273 14.1849L169.748 0.5H176.782C176.604 1.14733 176.428 1.73631 176.428 2.91291V16.9208C176.428 18.0974 176.605 18.6864 176.781 19.3487H170.718ZM181.205 19.3487C181.381 18.6864 181.558 18.0981 181.558 16.9208V2.91427C181.558 1.73699 181.381 1.14801 181.205 0.5H187.428C187.251 1.14733 187.075 1.73699 187.075 2.91427V16.9208C187.075 18.0974 187.251 18.6864 187.428 19.3487H181.205ZM207.324 19.3528H191.887C192.065 18.7088 192.242 18.1225 192.242 16.9507V2.91902C192.242 1.73971 192.065 1.15005 191.887 0.500679H198.112C197.935 1.15005 197.758 1.73971 197.758 2.91902V16.9527H205.028C206.294 16.9527 207.088 16.7763 207.795 16.5103L207.324 19.3528ZM225.982 19.3528H210.546C210.723 18.7088 210.898 18.1225 210.898 16.9507V2.91902C210.898 1.73971 210.723 1.15005 210.546 0.500679H216.769C216.593 1.15005 216.416 1.73971 216.416 2.91902V16.9527H223.686C224.952 16.9527 225.746 16.7763 226.453 16.5103L225.982 19.3528ZM244.639 19.3528H229.204C229.38 18.7088 229.557 18.1225 229.557 16.9507V2.90206C229.557 1.73021 229.38 1.14462 229.204 0.5H244.639L245.11 3.34379C244.404 3.07848 243.609 2.9007 242.344 2.9007H235.074V8.62357H241.578C242.609 8.62357 243.549 8.44714 244.197 8.18115V11.4694C243.549 11.2027 242.61 11.0243 241.578 11.0243H235.074V16.9514H242.344C243.609 16.9514 244.404 16.7729 245.11 16.5062L244.639 19.3528Z" fill="#BD9542"/>
</svg>
