<svg width="142" height="80" viewBox="0 0 142 80" fill="none" xmlns="https://www.w3.org/2000/svg">
<path id="Union" fill-rule="evenodd" clip-rule="evenodd" d="M91.5269 9.13327C92.1695 9.45521 92.8129 9.99109 93.1343 10.7414C93.2267 11.3849 93.0029 12.0285 92.8025 12.6046C92.7692 12.7003 92.7366 12.7941 92.7061 12.8857C92.4399 13.4176 91.9098 13.5534 91.3908 13.6864C90.8643 13.8213 90.3492 13.9533 90.1332 14.4931L88.0961 21.6756L82.7362 40.3281C82.5558 40.4483 82.3837 40.577 82.213 40.7047C81.7755 41.0319 81.3466 41.3526 80.8074 41.5074C79.9493 42.0433 79.0918 42.4722 78.02 42.7929C76.9482 43.2218 75.769 43.6507 74.3753 43.7577C71.0527 43.9729 67.9431 42.5789 65.264 40.9715L63.977 40.0067C61.6185 31.5373 59.2597 23.0693 56.6875 14.6006C56.4703 14.1654 56.1057 14.1225 55.6937 14.0741C55.4964 14.0509 55.2882 14.0264 55.0801 13.957C54.4365 13.8503 53.9009 13.4211 53.5794 12.7785C53.2572 11.9204 53.2572 10.7414 53.7931 10.0978C54.4365 9.4552 55.616 9.13327 56.4738 9.34772C57.1167 9.56193 57.6523 9.88336 57.8668 10.42C58.2957 10.9559 58.2957 11.5985 58.1882 12.2421C58.03 12.6393 57.754 12.977 57.4906 13.2993C57.3981 13.4125 57.3071 13.5238 57.2234 13.6351C57.0626 14.0388 57.2046 14.4426 57.3304 14.8001L57.3304 14.8002C57.3718 14.9179 57.4114 15.0305 57.4379 15.1365C58.5093 17.451 59.5809 19.7998 60.6525 22.1486L60.6527 22.149L60.6527 22.149C62.2612 25.6746 63.8697 29.2001 65.4774 32.6095C65.5844 32.824 65.9066 32.824 66.0133 32.7173C66.2419 32.4127 66.2003 32.0546 66.1569 31.6805C66.1391 31.5274 66.121 31.3717 66.121 31.2158L64.0844 12.1344L63.6555 7.95452C63.4796 7.48498 63.0144 7.40103 62.5415 7.31568C62.1504 7.24511 61.7541 7.17357 61.5115 6.88225C60.8689 6.23888 60.6537 5.06039 61.0826 4.0956C61.4045 3.1308 62.3693 2.70164 63.3341 2.59492C64.5126 2.59492 65.2637 3.23752 65.6918 4.30929C65.9063 5.48854 65.2637 6.77477 64.4056 7.3104C64.1914 7.63259 64.1914 8.0615 64.2989 8.38369L70.1939 31.0009C70.1939 31.1076 70.5153 31.4298 70.7298 31.2153L70.9442 30.7872L72.0165 18.0304L73.0883 5.38132C73.0883 4.91951 72.7633 4.78235 72.4383 4.64516C72.2353 4.55945 72.0322 4.47372 71.9083 4.30879C71.4801 3.98812 71.1587 3.55946 71.052 2.91508C70.8368 1.84356 71.3726 0.98549 72.0168 0.449606L72.107 0.413487C72.6348 0.201801 73.3383 -0.080359 73.9456 0.0214556C74.6959 0.235911 75.3393 0.665074 75.7682 1.30768C75.8752 1.95029 75.9819 2.91508 75.6605 3.45173C75.4913 4.01649 75.0841 4.25398 74.6738 4.49323C74.305 4.70824 73.9339 4.92467 73.7309 5.38132L76.0896 30.5719C76.0896 30.7872 76.3036 31.0006 76.4107 31.1075L76.4111 31.1078C76.6255 31.2156 76.9477 30.8941 77.0544 30.4652L82.3076 7.52536C82.2001 7.31015 82.0931 7.09645 81.8787 7.09645C81.0206 6.66754 80.378 5.70275 80.485 4.52426C80.5924 3.34425 81.5565 2.70164 82.4146 2.37945C83.3793 2.27247 84.1297 2.48693 84.7731 3.13055C85.4159 3.77316 85.4159 5.06014 85.0945 5.9172C84.6656 6.66754 84.023 7.09645 83.0582 7.31015C82.6994 7.66928 82.7247 8.22004 82.7484 8.73801C82.7602 8.99404 82.7715 9.24205 82.736 9.45495L82.2001 18.1381L81.4498 30.8941C81.4498 31.1078 81.6642 31.323 81.8787 31.43C82.1857 31.2455 82.3169 30.8857 82.4535 30.5112C82.5554 30.2318 82.6603 29.9442 82.8435 29.7149L89.5973 14.2789C89.5973 13.7928 89.3563 13.5132 89.1084 13.2257C88.9188 13.0059 88.7253 12.7814 88.6322 12.4563C88.0958 11.5985 88.418 10.527 88.9539 9.88336C89.5973 9.0263 90.5618 8.91957 91.5269 9.13327ZM75.1254 41.9361C77.6986 41.8286 79.8419 41.0782 81.8789 40.1134C82.2001 40.0067 82.2001 39.6845 81.8789 39.4696C79.3057 37.4325 75.9824 36.7899 72.4454 36.8966C69.551 37.2188 67.0855 38.0766 64.9415 39.5773C64.8348 39.6843 64.7278 39.8987 64.9415 39.8987C67.6214 41.2917 71.6951 42.4719 75.1254 41.9361ZM68.8039 76.6673C68.4827 76.4536 68.1613 76.1315 68.1613 75.7025H68.1608V58.2298C68.1608 57.8006 68.5889 57.3717 68.9103 57.3717C69.341 57.2107 69.9876 57.1845 70.6469 57.1577C71.3011 57.1311 71.9678 57.104 72.4483 56.9443V54.7992H59.3701V57.158C59.5774 57.2404 59.9605 57.2432 60.4082 57.2465C61.1194 57.2517 61.9938 57.258 62.5859 57.5869C63.0796 57.9159 63.1312 58.5601 63.1771 59.1324V59.1325C63.191 59.3063 63.2045 59.4735 63.2295 59.6232V75.4891C63.3179 75.9294 62.972 76.2252 62.7264 76.4354C62.673 76.4811 62.6244 76.5227 62.5859 76.5609C61.6713 76.6825 61.1729 76.6657 60.6564 76.6483C60.2651 76.6351 59.8634 76.6216 59.2626 76.6676V79.2398L81.1318 79.1328V68.949H78.8807C78.8092 69.5566 78.7616 70.176 78.7139 70.7955C78.6186 72.0344 78.5233 73.2733 78.2374 74.4173C77.9154 75.5956 77.0581 76.0247 76.2011 76.4536C74.5882 76.7227 73.5652 76.6964 72.366 76.6657H72.366H72.3658H72.3657H72.3656H72.3654C71.6518 76.6474 70.8757 76.6275 69.8756 76.6673H68.8039ZM88.731 58.2298C88.731 57.9091 88.6241 57.4802 88.3021 57.3717C87.6591 57.3183 87.1233 57.3183 86.574 57.3183H86.5738C86.0246 57.3183 85.4619 57.3183 84.7651 57.265V54.7992H108.134V64.5542H105.775C105.775 61.982 105.668 58.8736 103.524 57.6936C102.881 57.4799 102.238 57.3714 101.488 57.265L94.5201 57.3717C94.4843 57.408 94.3645 57.408 94.2169 57.4081H94.2168C93.9232 57.4083 93.5195 57.4085 93.4483 57.6939V64.8766L93.7697 65.1988C93.9633 65.1988 94.1636 65.2029 94.368 65.207C95.9753 65.2398 97.8327 65.2776 98.5937 63.3762C98.9151 62.5181 99.0226 60.4818 99.0226 60.4818H101.166V73.0241H98.7004C98.6777 72.7064 98.6743 72.3549 98.6708 71.9901V71.99V71.9899V71.9898C98.6575 70.6322 98.6424 69.0901 97.6286 68.4138C96.6636 67.5558 95.1629 67.6643 93.7692 67.878L93.4478 68.0934V76.3477C93.5378 76.7076 93.9314 76.6888 94.246 76.6739C94.2625 76.6731 94.2787 76.6723 94.2947 76.6716C94.315 76.6707 94.3349 76.6699 94.3543 76.6693C94.3662 76.669 94.378 76.6687 94.3895 76.6685L94.4128 76.6684C95.4098 76.6232 96.3685 76.6354 97.3862 76.6483H97.3863H97.3864H97.3865C98.7756 76.6659 100.274 76.685 102.13 76.5616C103.739 76.2394 105.025 74.954 105.346 73.0244C105.489 72.0956 105.537 71.1668 105.585 70.2381C105.608 69.7731 105.632 69.3082 105.668 68.8433H108.134L108.026 79.2408H84.6571V76.6686C85.0498 76.6686 85.4351 76.6833 85.8034 76.6974H85.8035C86.8433 76.7372 87.7478 76.7718 88.3019 76.4549C88.7308 76.1327 88.8385 75.3819 88.7308 74.8457V58.2298H88.731ZM127.65 79.24H141.692V76.6676C141.561 76.6676 141.43 76.6682 141.3 76.6688L141.297 76.6688C139.718 76.6764 138.196 76.6837 137.404 75.5958L130.329 66.5907L129.901 65.9481C130.971 64.6115 132.067 63.3281 133.163 62.0446C134.264 60.7554 135.366 59.4661 136.44 58.1228C137.297 57.051 140.621 57.265 140.621 57.265V54.7992H129.151L129.258 57.265L131.402 57.3717L131.83 57.4802C132.152 57.8006 132.152 58.3365 131.938 58.6587L131.922 58.6776C130.641 60.2787 129.359 61.8807 128.078 63.2689H127.757L124.434 58.9809C124.219 58.6589 124.326 58.123 124.541 57.8008C124.597 57.7636 124.65 57.7264 124.701 57.6902L124.702 57.6898C124.944 57.5186 125.152 57.3719 125.505 57.3719C125.736 57.3262 126.005 57.3396 126.272 57.3529C126.627 57.3706 126.976 57.3881 127.221 57.2652V54.7995H114.035V57.3717H115.215C116.394 57.3717 117.68 57.4802 118.216 58.3367C120.468 61.1241 122.612 63.9115 124.648 66.6992L124.863 67.0199L124.861 67.0215L124.861 67.0216L124.861 67.0217C122.396 69.8085 119.931 72.5956 117.68 75.3808C117.037 76.025 116.394 76.4539 115.644 76.6676C114.973 76.7901 114.58 76.7733 114.168 76.7556H114.168C113.856 76.7423 113.533 76.7284 113.071 76.7746V79.133L125.399 79.24V76.7746H123.04C122.612 76.6676 122.29 76.4541 122.075 76.132C121.877 75.7347 121.954 75.4293 122.052 75.0467L122.066 74.9903L122.075 74.9535L125.935 70.4499C126.256 70.0225 126.578 69.7003 127.007 69.7003L127.035 69.7345C128.526 71.5459 130.017 73.3563 131.402 75.2739C131.402 75.7028 131.294 76.2384 130.973 76.4539C130.454 76.7784 129.62 76.7491 128.876 76.723C128.392 76.7059 127.946 76.6903 127.65 76.7746V79.24ZM25.607 72.595H23.6774C23.6419 72.9872 23.6419 73.3796 23.6419 73.7682V73.7683C23.642 74.547 23.6421 75.3102 23.356 76.025C23.1415 76.4539 22.7123 76.5609 22.2834 76.4539C21.8553 76.3469 21.5338 76.1317 21.3186 75.7028C21.1724 74.8247 21.1371 73.9024 21.1016 72.9761C21.0592 71.8668 21.0165 70.7518 20.7827 69.7001C20.2551 67.8003 18.584 67.3551 16.9976 66.9324L16.9236 66.9127C16.8168 66.9127 16.7099 66.5905 16.9236 66.5905C17.1259 66.543 17.3242 66.4982 17.5187 66.4542C19.0767 66.1019 20.3897 65.8051 21.5338 64.6609C22.9268 63.4827 23.5704 60.8033 22.9268 58.6585C21.9628 55.7641 19.1753 54.906 16.7099 54.799H0.523049V57.0508C0.914334 57.0863 1.3174 57.0982 1.71659 57.1101H1.71671C2.52055 57.1339 3.30869 57.1572 3.95332 57.3715C4.24254 57.4691 4.35854 57.8261 4.45737 58.1303L4.45742 58.1305C4.46841 58.1643 4.47919 58.1975 4.48997 58.2295V72.8084L4.27475 75.8095C3.81471 76.8839 2.58506 76.8597 1.49082 76.8383C1.05656 76.8298 0.643628 76.8217 0.308594 76.8828V79.2398H13.0646V76.7743H10.3855L9.63436 76.6674C9.31293 76.4537 9.20545 76.0248 9.20545 75.5956V67.9842L9.52764 67.7705C9.66496 67.76 9.79708 67.7494 9.92543 67.7392L9.92939 67.7388H9.92949C11.1018 67.6452 11.9608 67.5765 13.6013 67.7705C14.673 67.9842 15.4231 68.7353 15.959 69.6999C16.4026 71.0297 16.4718 72.4341 16.5426 73.869C16.5916 74.8638 16.6414 75.8732 16.8171 76.8826C17.0315 78.2763 17.8889 79.1326 18.9611 79.5615C20.6763 80.2041 23.1418 80.2041 24.4285 79.1326C25.6037 77.8742 25.5955 75.8915 25.588 74.0615V74.0614C25.5859 73.5547 25.5838 73.0597 25.607 72.595ZM14.9942 64.6612C12.2073 64.7697 11.457 64.7697 9.42067 64.7697L9.2052 64.5545V57.5872C9.2052 57.3717 9.63411 57.265 9.84958 57.265C10.3922 57.3738 11.1794 57.348 12.0418 57.3198C13.734 57.2645 15.7161 57.1996 16.7101 58.1228C17.5679 58.9809 18.2105 60.4816 17.8886 62.089C17.353 63.4829 16.3879 64.5545 14.9942 64.6612ZM44.1379 54.3705C47.4614 54.7994 49.9266 56.0864 51.964 58.3367C55.0728 61.553 56.2513 67.8774 54.215 72.4874C51.964 77.0962 48.1048 79.8836 43.1731 79.9906C42.1016 79.9906 40.065 79.7754 38.8857 79.5617C34.8118 78.2765 31.5963 75.1666 30.3101 70.3429C28.9163 65.1985 31.1674 59.5164 34.7051 56.9442C36.9559 55.3353 39.5291 54.3705 42.3158 54.2636C42.7983 54.317 43.0395 54.317 43.2673 54.317C43.4951 54.317 43.7093 54.317 44.1379 54.3705ZM42.5305 76.7745C44.567 76.883 46.7111 75.703 47.8903 73.8816C50.0344 70.2362 50.0344 64.4474 48.1045 60.6952C47.1397 58.8741 45.5313 57.6941 43.7087 57.3719C43.4886 57.3719 43.2755 57.3696 43.0686 57.3674C41.8647 57.3544 40.8726 57.3437 39.958 57.8008C37.3843 58.8738 35.8836 62.1959 35.6699 65.4122C35.3477 69.4851 36.2058 74.0953 39.3139 75.918C40.172 76.5608 41.4587 76.7745 42.5305 76.7745Z" fill="#BD9542"/>
</svg>
