<svg width="186" height="72" viewBox="0 0 186 72" fill="none" xmlns="https://www.w3.org/2000/svg">
<path id="Union" fill-rule="evenodd" clip-rule="evenodd" d="M112.071 21.1288C112.071 33.1093 119.134 41.7604 131.394 41.7604C138.401 41.7604 143.374 38.4309 146.369 32.6078L145.352 32.0366C142.427 36.6756 138.693 39.0438 132.703 39.0438C123.773 39.0438 119.134 31.5769 119.134 21.1288C119.134 14.4141 120.945 9.55224 123.829 6.61283C126.086 4.30031 128.97 3.22764 132.076 3.22764C137.997 3.22764 143.04 6.61284 144.558 13.5086H145.742L145.297 1.47235H144.28C144.098 3.15798 143.486 3.6177 142.58 3.6177C141.696 3.6177 140.892 3.25122 139.882 2.79028C138.169 2.00921 135.862 0.956909 131.561 0.956909C116.418 0.956909 112.071 13.8987 112.071 21.1288ZM95.3405 41.2031L107.948 7.07255C109.299 3.45053 110.887 2.54503 113.882 2.37786V1.3609H101.275V2.37786C104.103 2.54503 105.287 3.15798 105.287 4.69038C105.287 5.31727 105.009 6.89145 104.047 9.49652L96.7754 29.334L89.0855 7.12828C88.6815 6.0556 88.4587 5.09437 88.4587 4.46748C88.4587 3.56198 88.8627 2.43358 92.2478 2.37786V1.3609H77.6065V2.37786C80.1419 2.54503 81.2146 3.28336 81.8972 5.20582L84.0426 11.5304L76.4085 30.1142L68.7186 7.79696C68.3147 6.72428 67.9246 5.48444 67.9246 4.80182C67.9246 3.50625 68.7186 2.54503 71.6023 2.37786V1.3609H56.9192V2.39179C59.789 2.55896 60.6945 3.63163 61.4328 5.72126L73.692 41.2031H74.7089L85.3939 15.5425L94.3235 41.2031H95.3405ZM39.7425 39.9076V40.9106H54.6067V39.8936C51.5419 39.7265 50.1349 39.0438 50.1349 36.5084V5.76305C50.1349 3.22764 51.5419 2.4893 54.2584 2.37786V1.3609H40.0211V2.39179C42.7933 2.50323 44.2004 3.22764 44.2004 5.77698V36.5224C44.2004 39.0578 42.7933 39.7404 39.7425 39.9076ZM10.223 67.4349C10.223 69.6639 8.45378 71.0012 5.94623 71.0012C4.12129 71.0012 2.39386 70.3743 0.958984 69.0927L2.22669 67.5882C3.36902 68.5773 4.52528 69.1484 6.00195 69.1484C7.29752 69.1484 8.11944 68.5355 8.11944 67.6439V67.6021C8.11944 66.7523 7.64579 66.2926 5.41686 65.7772C2.86751 65.1642 1.43263 64.4119 1.43263 62.2109V62.183C1.43263 60.1352 3.1322 58.7142 5.51437 58.7142C7.25573 58.7142 8.64881 59.2436 9.8608 60.2187L8.7324 61.8069C7.65972 60.9989 6.58705 60.567 5.48651 60.567C4.2606 60.567 3.53619 61.2078 3.53619 61.988V62.0158C3.53619 62.9353 4.07949 63.3532 6.39202 63.8965C8.92743 64.5234 10.223 65.4289 10.223 67.4071V67.4349ZM26.2017 68.9255C24.9479 70.2211 23.5827 71.043 21.3398 71.043C17.8571 71.043 15.252 68.3126 15.266 64.8717V64.8438C15.266 61.4447 17.8153 58.6585 21.4373 58.6585C23.6384 58.6585 24.9758 59.4386 26.1181 60.5252L24.7668 62.0855C23.8056 61.1939 22.7747 60.5949 21.4095 60.5949C19.1387 60.5949 17.467 62.4755 17.467 64.8159V64.8577C17.467 67.1981 19.1248 69.0927 21.4095 69.0927C22.8861 69.0927 23.8195 68.5215 24.8504 67.5603L26.2017 68.9255ZM34.0587 70.8341H31.9551V58.8675H34.0587V63.8408H39.7703V58.8675H41.8739V70.8341H39.7703V65.7911H34.0587V70.8341ZM49.6612 70.8341H47.502L52.7678 58.7839H54.7181L59.984 70.8341H57.7551L56.5431 67.9504H50.8871L49.6612 70.8341ZM53.7012 61.2914L51.6533 66.0836H55.7629L53.7012 61.2914ZM67.6042 70.8341H65.5006V58.8675H74.4024V60.776H67.6042V64.0358H73.6362V65.9583H67.6042V70.8341ZM82.5798 70.8341H80.4902V58.8675H89.392V60.776H82.5798V64.0358H88.6119V65.9583H82.5798V70.8341ZM97.2908 70.8341H95.1873V58.8675H97.2908V63.8408H103.002V58.8675H105.106V70.8341H103.002V65.7911H97.2908V70.8341ZM113.353 70.8341H111.194L116.46 58.7839H118.41L123.676 70.8341H121.447L120.235 67.9504H114.579L113.353 70.8341ZM117.393 61.2914L115.345 66.0836H119.455L117.393 61.2914ZM138.331 65.6518C138.331 69.2181 136.311 71.0152 133.191 71.0152C130.084 71.0152 128.092 69.2181 128.092 65.7632V58.8675H130.195V65.6796C130.195 67.8947 131.338 69.0788 133.218 69.0788C135.085 69.0788 136.228 67.9643 136.228 65.7632V58.8675H138.331V65.6518ZM153.112 67.4349C153.112 69.6639 151.343 71.0012 148.835 71.0012C147.01 71.0012 145.283 70.3743 143.848 69.0927L145.115 67.5882C146.258 68.5773 147.428 69.1484 148.891 69.1484C150.186 69.1484 151.008 68.5355 151.008 67.6439V67.6021C151.008 66.7523 150.535 66.2926 148.306 65.7772C145.756 65.1642 144.321 64.4119 144.321 62.2109V62.183C144.321 60.1352 146.021 58.7142 148.403 58.7142C150.158 58.7142 151.538 59.2436 152.75 60.2187L151.621 61.8069C150.548 60.9989 149.476 60.567 148.375 60.567C147.135 60.567 146.425 61.2078 146.425 61.988V62.0158C146.425 62.9353 146.968 63.3532 149.281 63.8965C151.816 64.5234 153.112 65.4289 153.112 67.4071V67.4349ZM168.101 70.8341H159.144V58.8675H168.018V60.7481H161.247V63.8547H167.252V65.7354H161.247V68.9534H168.101V70.8341ZM176.683 70.8341H174.621V58.8675H176.571L182.979 67.1424V58.8675H185.041V70.8341H183.286L176.683 62.3223V70.8341Z" fill="#BD9542"/>
</svg>
