<svg width="116" height="32" viewBox="0 0 116 32" fill="none" xmlns="https://www.w3.org/2000/svg">
<path id="Group 32 (Traced)" fill-rule="evenodd" clip-rule="evenodd" d="M78.8293 0.26694C77.3888 0.644872 76.2927 1.1339 75.0864 1.93697C69.6536 5.55395 68.1312 12.938 71.6878 18.4207C74.5034 22.7612 79.6906 24.768 84.748 23.4734C85.1918 23.3599 86.1202 22.9958 86.811 22.6646C87.5019 22.3333 88.1374 22.0638 88.2232 22.0657C88.3092 22.0676 88.7122 22.2817 89.1191 22.5417C91.3937 23.9947 94.4335 23.9352 96.7344 22.3924C97.2337 22.0575 97.7218 21.814 97.8191 21.8514C97.9344 21.8957 97.9958 22.168 97.9958 22.6363C97.9958 23.0307 98.0684 23.426 98.1572 23.5147C98.3698 23.7274 100.043 23.7274 100.255 23.5147C100.488 23.2821 100.488 9.67919 100.255 9.44652C100.043 9.23388 98.3698 9.23388 98.1572 9.44652C98.0684 9.53528 97.9958 9.9003 97.9958 10.2577C97.9958 11.1354 97.7806 11.1816 96.7865 10.5178C96.0192 10.0053 94.6994 9.41962 94.3122 9.41962C94.215 9.41962 93.952 9.3556 93.7277 9.27746C93.3709 9.15305 93.2672 8.98816 92.9004 7.9629C91.5181 4.09858 88.4295 1.28426 84.4552 0.267882C83.0602 -0.0889346 80.1877 -0.0893385 78.8293 0.26694ZM102.461 0.300832C102.227 0.53472 102.227 23.1463 102.461 23.3802C102.677 23.5958 104.613 23.5958 104.828 23.3802C104.936 23.2724 104.99 22.6752 104.99 21.5795C104.99 20.2129 105.029 19.8941 105.225 19.6641C105.528 19.3089 107.405 17.7583 107.532 17.7583C107.732 17.7583 108.107 18.165 110.197 20.6502C111.379 22.056 112.44 23.2841 112.555 23.3794C112.875 23.6452 114.993 23.5461 115.047 23.2628C115.069 23.1465 114.343 22.1172 113.434 20.9753C112.525 19.8336 111.214 18.1856 110.52 17.3134C109.504 16.0361 109.281 15.6782 109.377 15.4749C109.442 15.3361 110.695 13.9755 112.161 12.4515C113.897 10.6468 114.811 9.60011 114.782 9.44934C114.745 9.25661 114.552 9.21128 113.625 9.17874C112.344 9.13368 112.996 8.64613 108.128 13.2858C106.231 15.094 105.349 15.85 105.201 15.7932C105.012 15.7209 104.99 14.896 104.99 8.08717C104.99 2.33602 104.95 0.422551 104.828 0.300832C104.731 0.203592 104.26 0.139438 103.645 0.139438C103.029 0.139438 102.558 0.203592 102.461 0.300832ZM0.648072 0.435328C0.414184 0.669215 0.414184 23.4153 0.648072 23.6492C0.857615 23.8588 2.26767 23.8588 2.47721 23.6492C2.59624 23.5302 2.6386 22.3192 2.6386 19.036C2.6386 15.7529 2.68097 14.5419 2.8 14.4228C2.9162 14.3066 3.83252 14.2614 6.07429 14.2614C8.88241 14.2614 9.2083 14.2847 9.40278 14.4996C9.5214 14.6306 10.383 16.7036 11.3176 19.1061C12.2521 21.5087 13.1142 23.55 13.2332 23.6425C13.3668 23.7462 13.8791 23.8106 14.5714 23.8106C15.4653 23.8106 15.7095 23.7679 15.774 23.6C15.8183 23.4842 15.1502 21.4719 14.2891 19.128C13.4281 16.7843 12.724 14.7415 12.7247 14.5884C12.7255 14.3709 12.9512 14.211 13.7564 13.8572C15.5726 13.0589 16.9143 11.5149 17.4876 9.56326C17.7732 8.59045 17.7732 6.34842 17.4876 5.37561C16.7762 2.95416 14.7673 1.06046 12.29 0.476483C11.1756 0.213679 0.906034 0.177366 0.648072 0.435328ZM61.0365 0.435328C60.8026 0.669215 60.8026 23.4153 61.0365 23.6492C61.2491 23.8619 62.922 23.8619 63.1346 23.6492C63.3685 23.4153 63.3685 0.669215 63.1346 0.435328C62.922 0.222691 61.2491 0.222691 61.0365 0.435328ZM84.0088 3.10748C86.7739 3.87384 89.2455 6.12784 90.1421 8.70074C90.4316 9.53192 90.3855 9.6141 89.2763 10.24C87.1891 11.4178 85.7567 13.9314 85.7567 16.4161C85.7567 16.9042 85.8831 17.8037 86.0377 18.4149C86.3755 19.7506 86.329 19.8409 85.035 20.3589C83.7736 20.864 82.6979 21.0294 81.1497 20.9568C78.7843 20.8457 77.0434 20.0582 75.2556 18.2905C74.4236 17.468 74.112 17.0353 73.6083 16.0041C72.2465 13.2155 72.2471 10.599 73.6098 7.80863C74.1222 6.75917 74.4248 6.34277 75.3208 5.45308C76.535 4.24733 77.5881 3.6152 79.1664 3.1446C80.5464 2.73305 82.6008 2.71731 84.0088 3.10748ZM7.5271 3.09982C11.5188 3.21911 12.0053 3.25839 12.5707 3.50801C14.0193 4.14713 14.8742 5.47702 14.8763 7.09446C14.8788 8.88581 14.0387 10.2936 12.5219 11.0399C11.8577 11.3667 11.8105 11.3702 7.43713 11.4118C4.17898 11.4428 2.97229 11.412 2.83066 11.2945C2.67223 11.1631 2.6386 10.4466 2.6386 7.21094C2.6386 3.44076 2.68393 2.95631 3.03536 2.96586C3.07598 2.96693 5.09731 3.02719 7.5271 3.09982ZM21.7707 9.62741C17.4051 10.803 15.2258 15.804 17.2938 19.9007C18.2605 21.8158 20.3039 23.3209 22.4219 23.6783C25.9754 24.2776 29.4985 21.983 30.4126 18.4738C31.0524 16.0174 30.3153 13.2846 28.5319 11.5013C26.7673 9.73676 24.105 8.99878 21.7707 9.62741ZM29.0468 9.62553C28.9987 9.75075 30.4759 12.4715 32.8168 16.5691C34.9339 20.2749 36.6659 23.4459 36.6659 23.6157C36.6659 23.7856 35.8768 25.6079 34.9122 27.6651C33.9478 29.7224 33.176 31.5276 33.1974 31.6766C33.232 31.9173 33.3517 31.9519 34.2719 31.9867C35.2251 32.0228 35.3235 32.0014 35.5091 31.7177C35.9153 31.097 45.4143 10.0219 45.3768 9.82485C45.3281 9.56998 43.3354 9.45553 43.0512 9.6913C42.9526 9.77321 41.8886 12.1514 40.6868 14.976C39.4851 17.8008 38.4262 20.1959 38.3339 20.2985C38.2417 20.401 38.083 20.4531 37.9811 20.4139C37.8793 20.3749 36.3859 17.9447 34.6626 15.0135C32.9392 12.0824 31.4179 9.62459 31.2819 9.55183C31.146 9.4792 30.6053 9.41962 30.0802 9.41962C29.3474 9.41962 29.1074 9.46736 29.0468 9.62553ZM49.5925 9.62378C47.1742 10.3023 45.1635 12.3367 44.5381 14.7378C44.4248 15.1727 44.3328 16.015 44.3338 16.6097C44.3367 18.584 44.9378 20.0792 46.3162 21.5403C47.3843 22.6725 48.7761 23.4264 50.2704 23.6819C52.0791 23.9912 54.2189 23.4486 55.6455 22.3188C56.355 21.7569 56.5712 21.8625 56.5712 22.7708C56.5712 23.1652 56.6439 23.5605 56.7326 23.6492C56.9453 23.8619 58.6181 23.8619 58.8307 23.6492C59.0634 23.4166 59.0634 9.81369 58.8307 9.58101C58.7378 9.48808 58.2928 9.41962 57.7817 9.41962C57.2706 9.41962 56.8256 9.48808 56.7326 9.58101C56.6439 9.66978 56.5712 10.0567 56.5712 10.4408C56.5712 10.8876 56.5086 11.1633 56.3975 11.206C56.3018 11.2427 55.8026 10.9905 55.2879 10.6455C54.7732 10.3007 54.0192 9.90757 53.6123 9.77186C52.6008 9.43482 50.5374 9.35869 49.5925 9.62378ZM25.1448 12.3246C26.0255 12.6248 27.2592 13.7843 27.6691 14.6972C27.9263 15.2699 27.9872 15.6352 27.989 16.6151C27.9907 17.671 27.943 17.9235 27.6144 18.5926C27.1376 19.5633 26.1313 20.4789 25.1265 20.8563C24.528 21.081 24.1381 21.1338 23.3509 21.0968C21.6315 21.0158 20.3246 20.1552 19.5588 18.5997C19.172 17.814 19.1175 17.5708 19.116 16.6214C19.1145 15.7152 19.1756 15.4079 19.4911 14.7322C20.5374 12.4922 22.8039 11.527 25.1448 12.3246ZM53.0094 12.3318C53.4837 12.4927 53.9221 12.8011 54.5091 13.3868C55.2298 14.1058 55.3778 14.3432 55.6362 15.1936C56.356 17.5636 55.1976 20.016 52.9596 20.8603C51.905 21.258 50.3402 21.1816 49.3703 20.6849C48.5501 20.2649 47.6391 19.3077 47.2475 18.4545C46.8015 17.4829 46.832 15.6667 47.3114 14.6441C48.3355 12.4595 50.6349 11.5265 53.0094 12.3318ZM94.9133 12.384C95.6904 12.7805 96.4902 13.6367 96.8999 14.5105C97.2024 15.1558 97.2561 15.4524 97.2561 16.4806C97.2561 17.6041 97.223 17.7521 96.7952 18.5412C95.7057 20.5506 93.6135 21.4278 91.446 20.7841C90.3121 20.4473 90.302 20.3483 91.2607 18.9625C92.5801 17.0555 93.2847 15.2477 93.4946 13.2316C93.5474 12.7255 93.6169 12.2658 93.6492 12.2104C93.7578 12.0233 94.3715 12.1076 94.9133 12.384ZM90.4977 13.8247C90.3205 14.8594 89.2583 17.1364 88.8511 17.3544C88.4572 17.5651 88.2646 17.0836 88.3445 16.0884C88.4367 14.9416 88.8848 13.9882 89.6826 13.2418C90.5503 12.4303 90.7161 12.5488 90.4977 13.8247Z" fill="white"/>
</svg>
