<svg width="151" height="32" viewBox="0 0 151 32" fill="none" xmlns="https://www.w3.org/2000/svg">
<path id="Vector" d="M56.8433 30.1311C56.4786 31.2707 56.433 31.4986 57.6638 31.4986C58.849 31.4986 59.3048 31.453 59.943 30.4046C60.0342 30.359 60.1709 30.4046 60.1709 30.4501C60.0798 30.8148 59.7151 31.5442 59.5328 31.8177C59.1225 31.8177 58.7123 31.8177 58.3476 31.8177C57.9373 31.8177 57.5271 31.8177 57.1624 31.8177H55.9772C55.567 31.8177 55.2023 31.8177 54.8832 31.8632C54.792 31.8177 54.792 31.6809 54.8832 31.5897L55.1111 31.5442C55.6125 31.453 55.7037 31.3618 56.0228 30.3134L57.208 26.4843C57.5271 25.5271 57.5271 25.3447 56.9801 25.2536L56.7521 25.208C56.7066 25.1168 56.7066 24.9801 56.7977 24.9345C57.208 24.9345 57.5726 24.9801 57.9829 24.9801C58.4387 24.9801 58.7578 24.9801 59.2593 24.9345C59.3504 24.9801 59.3504 25.1624 59.2593 25.208L58.9402 25.2536C58.3476 25.3447 58.302 25.4359 57.9829 26.4843L56.8433 30.1311ZM64.3647 28.2165C64.3647 28.9915 63.3618 29.4929 61.8576 29.9487C61.7664 30.1311 61.7208 30.4501 61.7208 30.8604C61.7208 31.2251 61.9487 31.453 62.2222 31.453C62.5869 31.453 62.8604 31.2251 63.3162 30.8604C63.4074 30.8604 63.453 30.9516 63.453 31.0427C62.8148 31.8177 62.2222 32 61.812 32C61.1738 32 60.9915 31.4074 60.9915 30.906C60.9915 30.2678 61.4017 28.9915 62.5413 28.1254C63.0883 27.7151 63.4986 27.6239 63.7721 27.6239C64.1367 27.5783 64.3647 27.943 64.3647 28.2165ZM62.7237 28.3989C62.3134 28.8547 62.0855 29.3105 61.9487 29.584C62.6325 29.3561 62.9516 29.1738 63.3162 28.8091C63.6353 28.49 63.7265 28.2165 63.7265 28.1254C63.7265 28.0342 63.6809 27.8974 63.4986 27.8974C63.3618 27.8974 63.0883 27.9886 62.7237 28.3989ZM70.0171 26.2564C70.245 25.4815 70.1538 25.3903 69.698 25.3447H69.3789C69.2878 25.2991 69.3333 25.1624 69.3789 25.1168C69.9715 25.0256 70.5185 24.9801 71.1111 24.9801C71.6581 24.9801 72.2963 25.0256 72.7977 25.208C73.2991 25.4359 73.6638 25.8006 73.6638 26.4843C73.6638 27.5328 72.6154 27.9886 72.0684 28.0342C71.886 28.0342 71.9772 28.1254 72.0684 28.1254C72.7066 28.3533 73.1624 28.9459 73.1624 29.6296C73.1624 29.9943 73.0712 30.5413 72.6154 30.9516C72.2051 31.3618 71.4302 31.7265 70.1538 31.7265C69.6068 31.7265 69.1966 31.6809 68.7863 31.6809C68.4217 31.6809 68.057 31.6809 67.7379 31.7265C67.6467 31.6809 67.6467 31.5442 67.7379 31.453L67.9658 31.4074C68.4672 31.3162 68.5584 31.2251 68.8775 30.1766L70.0171 26.2564ZM69.4701 30.5869C69.2422 31.2707 69.5613 31.4986 70.2906 31.4986C71.1567 31.4986 72.2507 30.9516 72.2507 29.584C72.2507 28.7179 71.4758 28.3077 70.7464 28.3077C70.245 28.3077 70.1994 28.3077 70.1083 28.6724L69.4701 30.5869ZM70.3818 27.6695C70.2906 27.8974 70.3362 27.9886 70.7464 27.9886C71.4758 27.9886 72.7977 27.6239 72.7977 26.3476C72.7977 25.755 72.3419 25.2991 71.5214 25.2991C71.1111 25.2991 71.1111 25.2991 71.0199 25.6182L70.3818 27.6695ZM75.7607 28.5356L75.3048 29.8575H75.3504C75.6695 29.265 76.1709 28.4444 76.4445 28.1254C76.6724 27.8063 76.9459 27.5783 77.1738 27.5783C77.5385 27.5783 77.584 27.943 77.584 28.0798C77.584 28.2165 77.4929 28.5356 77.3561 28.7179C77.2194 28.8547 77.0826 28.9003 77.037 28.6724C76.9915 28.3989 76.9459 28.2621 76.8091 28.2621C76.7179 28.2621 76.5812 28.3533 76.4445 28.5812C75.8063 29.4017 75.2593 30.6325 74.7122 31.8177C74.6667 31.9088 74.6211 31.9544 74.5299 31.9544C74.4388 31.9544 74.1197 31.9088 74.2108 31.6809C74.3476 31.2707 74.9858 29.4473 75.2593 28.4444C75.3048 28.3533 75.2593 28.2165 75.1681 28.2165C74.8946 28.2165 74.6211 28.49 74.4388 28.7635C74.3476 28.7635 74.2564 28.7179 74.2564 28.5812C74.5755 28.0342 74.9858 27.5783 75.4872 27.5783C76.0342 27.5783 75.8519 28.2621 75.7607 28.5356ZM81.1396 27.3504C81.3219 27.2593 81.5954 27.3504 81.641 27.4872C81.5043 27.8519 80.5926 30.1311 80.2735 31.0883C80.2279 31.2707 80.2735 31.3162 80.3647 31.3162C80.547 31.3162 80.8205 31.1339 81.4131 30.6325C81.5043 30.6325 81.5499 30.6781 81.5499 30.7692C81.1396 31.3618 80.3647 31.9088 79.8177 31.9088C79.6809 31.9088 79.5442 31.8177 79.4986 31.6353C79.4986 31.5442 79.4986 31.453 79.5898 31.2251L79.9088 30.3134H79.8633C79.1339 31.2251 78.0855 31.9544 77.584 31.9544C77.3105 31.9544 77.1282 31.6809 77.1282 31.3618C77.1282 31.1339 77.3561 30.3134 78.0399 29.3561C78.5413 28.6724 78.9972 28.2621 79.4074 28.0342C79.8177 27.8063 80.0456 27.7151 80.3191 27.7151C80.4103 27.7151 80.5014 27.7607 80.547 27.7607C80.5926 27.7607 80.6838 27.8519 80.7749 27.9886L81.1396 27.3504ZM79.3618 28.5356C78.7237 29.1282 78.0855 30.4957 78.0855 31.2251C78.0855 31.3618 78.1311 31.4074 78.2222 31.4074C78.3134 31.4074 78.6325 31.2707 79.2251 30.7236C80 29.9943 80.4558 29.1282 80.5926 28.49C80.5014 28.3077 80.3647 28.1254 80.0912 28.1254C79.8633 28.1254 79.6809 28.2165 79.3618 28.5356ZM84.7863 28.1709C84.7863 28.3533 84.6952 28.4444 84.604 28.49C84.5128 28.49 84.4672 28.49 84.4217 28.3989C84.2393 28.2165 84.1026 28.0798 83.7835 28.0798C83.4644 28.0798 83.3732 28.3533 83.3732 28.49C83.3732 28.7179 83.4188 28.9003 83.7379 29.4473C84.0114 29.8575 84.1481 30.1311 84.1481 30.5869C84.1481 30.8604 84.0114 31.2251 83.6011 31.5897C83.3276 31.8177 82.963 31.9544 82.5527 31.9544C82.1425 31.9544 81.9145 31.6353 81.9145 31.4074C81.9145 31.3162 81.9601 31.1795 82.0513 31.0883C82.1425 30.9971 82.2336 30.9971 82.3248 31.0883C82.4615 31.2251 82.7806 31.4986 83.0541 31.4986C83.2821 31.4986 83.5556 31.2251 83.5556 30.906C83.5556 30.7236 83.4188 30.4046 83.1909 29.9943C82.9174 29.584 82.8262 29.2194 82.8262 29.037C82.8262 28.6268 83.0086 28.3533 83.4644 27.943C83.7835 27.6695 84.1026 27.6239 84.2393 27.6239C84.5128 27.5783 84.7863 27.8974 84.7863 28.1709ZM87.7037 28.1709C87.7037 28.3533 87.6125 28.4444 87.5214 28.49C87.4302 28.49 87.3846 28.49 87.339 28.3989C87.1567 28.2165 87.0199 28.0798 86.7009 28.0798C86.3818 28.0798 86.2906 28.3533 86.2906 28.49C86.2906 28.7179 86.3362 28.9003 86.6553 29.4473C86.9288 29.8575 87.0655 30.1311 87.0655 30.5869C87.0655 30.8604 86.9288 31.2251 86.5185 31.5897C86.245 31.8177 85.8803 31.9544 85.4701 31.9544C85.0598 31.9544 84.8319 31.6353 84.8319 31.4074C84.8319 31.3162 84.8775 31.1795 84.9687 31.0883C85.0598 30.9971 85.151 30.9971 85.2422 31.0883C85.3789 31.2251 85.698 31.4986 85.9715 31.4986C86.1994 31.4986 86.4729 31.2251 86.4729 30.906C86.4729 30.7236 86.3362 30.4046 86.1083 29.9943C85.8348 29.584 85.7436 29.2194 85.7436 29.037C85.7436 28.6268 85.9259 28.3533 86.3818 27.943C86.7009 27.6695 87.0199 27.6239 87.1567 27.6239C87.4758 27.5783 87.7037 27.8974 87.7037 28.1709ZM89.2536 30.906C89.1624 31.1339 89.208 31.2707 89.3447 31.2707C89.4815 31.2707 89.8917 30.9516 90.4387 30.4046C91.396 29.4929 91.8974 28.2621 92.2621 27.6695C92.49 27.6239 92.7179 27.7151 92.7635 27.8519C92.6724 28.1254 91.9886 29.812 91.5783 31.0427C91.5328 31.1795 91.5328 31.3162 91.6239 31.3162C91.8063 31.3162 92.3533 30.8148 92.6268 30.4957C92.7179 30.4957 92.8091 30.4957 92.8091 30.6325C92.5356 31.1339 91.5328 31.9544 90.9858 31.9544C90.8034 31.9544 90.6667 31.7721 90.7123 31.5897L91.396 29.7208C90.6667 30.6781 89.3903 32 88.7977 32C88.3875 32 88.3419 31.5897 88.4786 31.1339L89.4359 28.6268C89.5271 28.4444 89.5271 28.3077 89.4359 28.3077C89.2536 28.3077 88.7066 28.7635 88.4786 29.037C88.3875 29.037 88.3419 28.9915 88.2963 28.9459V28.9003C88.5698 28.49 89.5727 27.6695 90.0741 27.6695C90.2108 27.6695 90.4388 27.8063 90.3932 27.9886L89.2536 30.906ZM96 28.1709C96 28.3533 95.9088 28.4444 95.8177 28.49C95.7265 28.49 95.6809 28.49 95.6353 28.3989C95.453 28.2165 95.3162 28.0798 94.9972 28.0798C94.6781 28.0798 94.5869 28.3533 94.5869 28.49C94.5869 28.7179 94.6325 28.9003 94.9516 29.4473C95.2251 29.8575 95.3618 30.1311 95.3618 30.5869C95.3618 30.8604 95.2251 31.2251 94.8148 31.5897C94.5413 31.8177 94.1766 31.9544 93.7664 31.9544C93.3561 31.9544 93.1282 31.6353 93.1282 31.4074C93.1282 31.3162 93.1738 31.1795 93.265 31.0883C93.3561 30.9971 93.4473 30.9971 93.5385 31.0883C93.6752 31.2251 93.9943 31.4986 94.2678 31.4986C94.4957 31.4986 94.7692 31.2251 94.7692 30.906C94.7692 30.7236 94.6325 30.4046 94.4046 29.9943C94.1311 29.584 94.0399 29.2194 94.0399 29.037C94.0399 28.6268 94.2222 28.3533 94.6781 27.943C94.9972 27.6695 95.3162 27.6239 95.453 27.6239C95.7721 27.5783 96 27.8974 96 28.1709ZM19.8746 3.92023C20.604 3.92023 21.2878 4.69516 21.2878 5.88034V15.3618C21.2878 18.8262 19.8746 18.5527 18.3704 18.5527C16.8661 18.5527 16.6838 17.0484 16.6838 15.3162V5.92593C16.6838 4.69516 17.3219 3.96581 18.0969 3.96581V3.4188H12.9459V3.92023C13.6752 3.92023 14.359 4.69516 14.359 5.88034V16.1368C14.359 18.0969 15.4074 19.6011 17.9145 19.6011C20.4217 19.6011 21.9715 19.4644 21.9715 15.3162V5.92593C21.9715 4.69516 22.6097 3.96581 23.3846 3.96581V3.4188H19.8746V3.92023ZM128.365 3.92023C129.094 3.92023 129.732 4.69516 129.732 5.88034V15.3618C129.732 18.8262 128.319 18.5527 126.815 18.5527C125.311 18.5527 125.128 17.0484 125.128 15.3162V5.92593C125.128 4.69516 125.766 3.96581 126.496 3.96581V3.4188H121.436V3.92023C122.165 3.92023 122.803 4.69516 122.803 5.88034V16.1368C122.803 18.0969 123.852 19.6011 126.359 19.6011C128.866 19.6011 130.416 19.4644 130.416 15.3162V5.92593C130.416 4.69516 131.009 3.96581 131.783 3.96581V3.4188H128.41L128.365 3.92023ZM30.2222 18.4615C30.0399 18.5071 29.1282 18.5983 28.3989 18.5527C27.8063 18.5071 27.8063 18.416 27.8063 17.094V5.74359C27.8063 4.42165 28.1254 4.10256 29.1738 4.10256C30.4957 4.10256 31.0427 4.46724 31.4986 5.65242C32.3647 7.88604 32.2279 12.0798 32 15.2707C32 15.2707 31.6353 18.0513 30.2222 18.4615ZM29.8575 3.4188H24.114V3.92023C24.8889 3.92023 25.4815 4.69516 25.4815 5.88034V16.8205C25.4815 18.0513 24.8433 18.7806 24.114 18.7806V19.2821H30.5413C31.5897 19.2821 32.7749 18.6895 33.5043 16.547C34.2336 14.359 34.3248 12.5356 34.188 9.80057C34.0513 7.06553 33.5954 5.37892 32.9573 4.5584C32.3647 3.78348 31.3618 3.4188 29.8575 3.4188ZM39.3846 18.5527C38.6553 18.4615 38.5641 18.1425 38.5641 16.9573V11.7151C40.2051 11.8519 40.3875 11.8519 40.7977 14.0399H41.2536V8.5698H40.7977C40.433 10.6211 40.2051 10.7578 38.5641 10.8946V5.56125C38.5641 4.37607 38.6553 4.14815 39.2023 4.19373L40.114 4.23932C42.3932 4.33048 42.4843 5.69801 42.6211 6.47293H43.1681V3.4188H34.8718V3.92023C35.6011 3.92023 36.2849 4.69516 36.2849 5.88034V16.8205C36.2849 18.0513 35.6467 18.7806 34.8718 18.7806V19.2821H43.3504L43.9886 16.4103H43.3048C42.5755 18.963 40.5242 18.5983 39.3846 18.5527ZM136.934 18.5527C136.205 18.4615 136.114 18.1425 136.114 16.9573V11.7151C137.755 11.8519 137.937 11.8519 138.348 14.0399H138.803V8.5698H138.348C137.983 10.6211 137.755 10.7578 136.114 10.8946V5.56125C136.114 4.37607 136.205 4.14815 136.752 4.19373L137.709 4.23932C139.989 4.33048 140.08 5.69801 140.217 6.47293H140.764V3.4188H132.422V3.92023C133.151 3.92023 133.789 4.69516 133.789 5.88034V16.8205C133.789 18.0513 133.151 18.7806 132.422 18.7806V19.2821H140.855L141.493 16.4103H140.855C140.171 18.963 138.074 18.5983 136.934 18.5527ZM8.93447 12.49H4.96866L8.93447 2.68946V12.49ZM11.4872 0H7.11111V0.501425C8.25071 0.501425 8.38746 1.36752 7.97721 2.2792C6.5641 5.97151 2.87179 15.3618 2.46154 16.3191C1.91453 17.5043 1.18519 18.8262 0 18.8262V19.3276H4.14815V18.8262C3.19088 18.8262 2.91738 17.4587 3.37322 16.3191C3.82906 15.1795 4.64957 13.2194 4.64957 13.2194H8.93447V16.6382C8.93447 18.735 8.20513 18.8262 7.1567 18.8262V19.3276H13.3105V18.8262C12.4444 18.8262 11.5328 18.7806 11.5328 16.6382C11.5328 15.4986 11.4872 0 11.4872 0ZM101.835 9.20798C101.835 9.7094 101.652 9.98291 101.288 9.98291H99.2365V5.78917V4.83191V0.683761H101.288C101.652 0.683761 101.835 1.00285 101.835 1.59544V9.20798ZM102.336 0H94.8148V0.501425C95.9088 0.501425 96.5926 1.23077 96.5926 2.64387V16.4103C96.5926 18.5983 95.7721 18.7806 94.8148 18.7806V19.2821H100.969V18.7806C99.8746 18.7806 99.1909 18.5527 99.1909 16.4103V10.7578H102.473C103.521 10.7578 104.342 9.98291 104.342 8.25071V2.41595C104.387 1.00285 103.704 0 102.336 0ZM51.7379 14.5413L48.6838 3.46439H44.6268V3.96581C45.6296 3.96581 46.0399 4.33048 46.0399 5.97151V16.8661C46.0399 18.0969 45.4473 18.8262 44.6268 18.8262V19.3276H48.1823V18.8262C47.3618 18.8262 46.7692 18.0513 46.7692 16.8661V5.47009L50.6439 19.3276H51.0085L55.0199 5.51567V16.8661C55.0199 18.0969 54.4273 18.8262 53.6068 18.8262V19.3276H58.8034V18.8262C57.9829 18.8262 57.3447 18.0513 57.3447 16.8661V5.92593C57.3447 4.69516 57.9373 3.96581 58.8034 3.96581V3.4188H54.8832L51.6923 14.2678M76.3989 9.52707C76.3989 11.4416 74.3932 11.1681 73.6638 11.1681V5.19658C73.6638 4.5584 73.7094 4.23932 74.2564 4.23932C75.3504 4.23932 76.3989 4.05698 76.3989 5.56125C76.3989 5.51567 76.3989 9.52707 76.3989 9.52707ZM79.3162 17.9601L76.6724 11.7151C77.4929 11.5328 78.5869 11.2137 78.5869 9.7094C78.5869 8.11396 78.5413 6.47293 78.5413 5.37892C78.5413 3.4188 76.7179 3.4188 74.8946 3.4188H70.0171V3.92023C70.7464 3.92023 71.3846 4.69516 71.3846 5.88034V16.8205C71.3846 18.0513 70.5641 18.7806 69.9715 18.7806V19.2821H75.0769V18.7806C74.3476 18.7806 73.6638 18.0057 73.6638 16.8205V11.8974H74.4388L77.037 18.416C77.037 18.416 77.1738 18.7806 77.4473 19.0541C77.6752 19.2821 78.2222 19.2821 78.2222 19.2821H80.1368V18.7806C79.9544 18.8262 79.7265 18.9174 79.3162 17.9601ZM105.892 3.92023C106.849 3.92023 107.259 4.69516 107.259 5.88034V16.8205C107.259 18.0513 106.803 18.7806 105.892 18.7806V19.2821H110.906V18.7806C109.949 18.7806 109.538 18.0057 109.538 16.8205V5.92593C109.538 4.69516 109.949 3.96581 110.906 3.96581V3.4188H105.892V3.92023ZM85.3789 9.52707C83.6467 8.61538 82.963 7.4302 82.963 6.42735C82.963 5.88034 83.1909 3.78348 84.604 3.78348C86.7464 3.82906 87.3846 6.83761 87.6125 8.15954H88.0228V3.19088H87.567C87.567 3.73789 87.339 3.87464 87.1111 3.87464C86.3362 3.82906 86.0627 2.91738 84.0114 3.00855C82.6895 3.05413 81.0028 4.23932 81.0028 7.38462C81.0028 8.84331 81.5499 10.849 83.3276 12.0798C85.9259 13.812 86.7464 14.5413 86.7464 15.8632C86.7464 16.4103 86.5641 18.7806 84.5128 18.7806C83.0541 18.7806 82.0969 16.3647 81.9145 15.453L81.5954 13.812H81.1396V19.3732H81.641C81.6866 18.9174 81.8234 18.6895 82.0057 18.6895C82.7806 18.6895 83.5556 19.51 84.8775 19.4644C88.2963 19.4188 88.9345 16.5014 88.9345 14.906C88.8889 12.6724 87.7949 10.7578 85.3789 9.52707ZM117.516 11.2593V11.6695C117.516 11.6695 118.199 11.7151 118.199 12.8547V16.547C118.199 18.5071 117.516 18.6895 116.285 18.6895C115.054 18.6895 114.598 18.2336 114.598 16.7293V5.78917C114.598 4.74074 115.145 3.87464 116.422 3.87464C117.835 3.87464 119.339 5.28775 119.339 8.02279H120.114V3.19088H119.521C119.521 5.05983 118.427 3.1453 116.467 3.1453C115.054 3.1453 113.869 3.50997 113.231 4.23932C112.547 5.01425 112.228 5.92593 112.228 7.01994V15.5897C112.228 16.6838 112.547 17.5954 113.231 18.3248C113.915 19.0997 115.373 19.51 116.33 19.51C116.878 19.51 117.698 19.2821 118.108 19.0997C118.519 18.9174 118.883 18.5983 119.202 18.2336C119.886 17.4587 120.251 16.547 120.251 15.4986V12.8547C120.251 11.8063 120.934 11.7151 120.934 11.7151V11.3048C120.98 11.2593 117.516 11.2593 117.516 11.2593ZM68.5128 17.7322L65.2764 3.4188H62.4501V3.92023C63.453 3.92023 63.3162 4.74074 63.1339 5.69801L60.8091 17.2764C60.49 18.5983 60.0798 18.8262 59.6695 18.8262V19.3276H62.359V18.8262C61.3561 18.8262 61.3561 18.0057 61.6296 16.7749L62.0855 14.4501H65.4587L66.0969 17.3219C66.416 18.5983 65.9145 18.8262 65.3219 18.8262V19.3276H69.4245V18.8262C69.1966 18.7806 68.7863 18.6895 68.5128 17.7322ZM62.2678 13.7208L63.6809 6.60969L65.2764 13.7208H62.2678ZM141.858 3.4188V6.47293H142.405C142.496 5.88034 142.632 4.96866 143.179 4.60399C143.727 4.23932 144.274 4.2849 145.231 4.2849V16.8205C145.231 18.0513 144.638 18.7806 143.863 18.7806V19.2821H148.878V18.7806C148.148 18.7806 147.51 18.0057 147.51 16.8205V4.2849C148.422 4.2849 148.969 4.2849 149.561 4.60399C150.108 4.96866 150.245 5.83476 150.336 6.47293H150.883V3.4188H141.858Z" fill="#BD9542"/>
</svg>
