<svg width="124" height="125" viewBox="0 0 124 125" fill="none" xmlns="https://www.w3.org/2000/svg">
<path d="M58.5384 62.4806C58.5384 62.4806 32.8979 62.0956 26.199 62.4806C19.5002 62.8655 18.5762 85.3491 18.5762 85.3491L26.199 89.969L57.3834 108.449L65.6228 113.598C67.27 114.628 69.4187 114.326 70.7181 112.882C71.8614 111.612 72.0718 109.755 71.2418 108.261L70.3191 106.601L72.6651 108.612C74.1287 109.866 76.2672 109.936 77.8094 108.779C79.4687 107.535 79.9417 105.249 78.9126 103.448L77.942 101.75L79.7589 103.134C81.4965 104.458 83.9453 104.293 85.4899 102.749C87.2789 100.96 87.1768 98.0294 85.2677 96.3693L83.4859 94.8199L85.0366 95.624C87.5778 96.9417 90.704 95.846 91.8666 93.2301C92.7817 91.1711 92.2043 88.7586 90.4412 87.3557C78.5735 77.9121 58.5384 62.4806 58.5384 62.4806Z" fill="url(#paint0_linear_204_3339)"/>
<path fill-rule="evenodd" clip-rule="evenodd" d="M44.8778 62.7983C37.6241 62.7501 29.5568 62.7504 26.2257 62.9419C24.8289 63.0221 23.6197 64.27 22.5992 66.4148C21.5961 68.5229 20.8614 71.3234 20.3297 74.1448C19.7992 76.9598 19.476 79.7665 19.2855 81.8718C19.1903 82.9238 19.1283 83.7992 19.0902 84.4111C19.072 84.7026 19.0593 84.9343 19.0509 85.0966L26.4347 89.5716L26.4386 89.574L57.6238 108.054L65.8678 113.207C67.3249 114.117 69.2255 113.85 70.3749 112.573C71.3862 111.449 71.5723 109.807 70.8381 108.486L64.3134 100.133L70.6199 106.25L72.9659 108.261C74.2651 109.374 76.1634 109.436 77.5323 108.41C79.0053 107.305 79.4251 105.276 78.5116 103.678L69.8573 94.127L78.2221 101.382L80.0391 102.767C81.5927 103.95 83.7823 103.803 85.1634 102.422C86.763 100.822 86.6717 98.2024 84.9647 96.718L75.6322 89.7381L83.6987 94.4099L85.2494 95.2139C87.5544 96.4091 90.3901 95.4153 91.4446 93.0426C92.2752 91.1737 91.7502 88.9877 90.1537 87.7173C84.2222 82.9973 76.2483 76.78 69.7563 71.7418C66.5105 69.2229 63.6355 66.9991 61.572 65.405C60.5402 64.6079 59.7114 63.9683 59.1404 63.528C58.855 63.3078 58.634 63.1375 58.4844 63.0222L58.3782 62.9403L58.2423 62.9384C58.0529 62.9356 57.7744 62.9317 57.4174 62.9268C56.7034 62.917 55.6759 62.9035 54.422 62.8885C51.9141 62.8584 48.5005 62.8223 44.8778 62.7983ZM58.5385 62.4806C58.8204 62.1146 58.8207 62.1148 58.8207 62.1148L59.0484 62.2903C59.1981 62.4057 59.4192 62.5761 59.7047 62.7963C60.2758 63.2368 61.1049 63.8766 62.1369 64.6738C64.2008 66.2682 67.0763 68.4925 70.3228 71.0119C76.8152 76.0504 84.7928 82.2706 90.729 86.9942C92.6587 88.5297 93.2885 91.1687 92.2889 93.4178C91.1996 95.8689 88.5329 97.0988 86.044 96.4924C87.6867 98.3726 87.635 101.257 85.8167 103.075C84.1086 104.784 81.4006 104.966 79.4791 103.502L79.4529 103.482C80.4106 105.44 79.8527 107.824 78.0867 109.149C76.3714 110.435 73.9926 110.358 72.3646 108.962L71.8927 108.558C72.513 110.119 72.207 111.918 71.0617 113.191C69.6122 114.802 67.2155 115.139 65.3781 113.99L57.1433 108.843L25.9597 90.3642L18.1035 85.6029L18.1147 85.3302L18.5763 85.3492C18.1147 85.3302 18.1147 85.3302 18.1147 85.3302L18.1155 85.3128L18.1177 85.2635C18.1197 85.2202 18.1227 85.1563 18.1269 85.0731C18.1354 84.9067 18.1487 84.6632 18.168 84.3536C18.2066 83.7344 18.2692 82.8503 18.3653 81.7885C18.5573 79.6661 18.8838 76.8278 19.4217 73.9737C19.9583 71.1262 20.7106 68.2335 21.7648 66.0178C22.8017 63.8386 24.22 62.1316 26.1727 62.0194C29.5404 61.8259 37.6428 61.8262 44.884 61.8743C48.5088 61.8984 51.9241 61.9345 54.4331 61.9645C55.6876 61.9796 56.7156 61.9931 57.43 62.0029C57.7872 62.0078 58.066 62.0117 58.2556 62.0145L58.5452 62.0187C58.5452 62.0187 58.5455 62.0187 58.5385 62.4806ZM58.5385 62.4806L58.5452 62.0187L58.6989 62.021L58.8207 62.1148L58.5385 62.4806Z" fill="white"/>
<path d="M79.7901 64.3286L85.7959 61.5566L104.276 81.4222L91.1088 87.6591L71.7052 72.6444L52.955 79.3152C50.0728 80.3406 46.9146 78.7721 45.99 75.8559C45.2239 73.4398 46.2364 70.8182 48.4418 69.569C54.0411 66.3976 64.1494 60.7975 66.3923 60.4017C69.5339 59.8473 76.6331 63.0966 79.7901 64.3286Z" fill="#BD9542"/>
<path fill-rule="evenodd" clip-rule="evenodd" d="M79.7746 63.8265L85.9053 60.9969L105.043 81.5696L91.0494 88.198L71.6213 73.1643L53.109 79.7504C49.9804 80.8635 46.5524 79.1609 45.5487 75.9955C44.7174 73.3739 45.8155 70.5251 48.2132 69.1671C51.0142 67.5806 54.946 65.385 58.4596 63.5357C60.216 62.6113 61.8722 61.7712 63.2325 61.1365C64.5709 60.5119 65.6796 60.0582 66.3111 59.9467C67.1857 59.7924 68.289 59.9068 69.4623 60.1563C70.646 60.4079 71.9471 60.8076 73.2372 61.2592C75.0146 61.8815 76.8061 62.6159 78.2551 63.2099C78.8209 63.4419 79.3345 63.6524 79.7746 63.8265ZM69.2701 61.06C68.1301 60.8177 67.1679 60.7338 66.4717 60.8567C65.9818 60.9431 64.9858 61.3379 63.6232 61.9738C62.2823 62.5995 60.6409 63.4318 58.89 64.3534C55.3889 66.196 51.4669 68.3861 48.6686 69.971C46.6554 71.1113 45.7286 73.5058 46.4295 75.7163C47.2751 78.3832 50.1633 79.8177 52.7993 78.8799L71.7873 72.1245L91.1664 87.1202L103.507 81.2749L85.6847 62.1164L79.8043 64.8304L79.6212 64.759C79.1186 64.5629 78.5256 64.3197 77.8698 64.0508C76.4299 63.4604 74.6869 62.7458 72.9318 62.1313C71.6597 61.6859 70.3998 61.3002 69.2701 61.06Z" fill="white"/>
<path d="M20.886 91.355L10.4912 84.1942L29.6638 50.6998L41.9066 58.3227L20.886 91.355Z" fill="#17171B"/>
<path d="M103.12 91.355L113.515 84.1942L94.342 50.6998L82.0993 58.3227L103.12 91.355Z" fill="#17171B"/>
<path d="M31.5399 86.6802C33.1181 84.8402 35.889 84.628 37.729 86.2062C39.569 87.7843 39.7812 90.5553 38.203 92.3952L35.0744 96.0428C33.4962 97.8828 30.7253 98.095 28.8853 96.5168C27.0454 94.9386 26.8332 92.1677 28.4113 90.3277L31.5399 86.6802Z" fill="url(#paint1_linear_204_3339)"/>
<path fill-rule="evenodd" clip-rule="evenodd" d="M31.1893 86.3794C32.9336 84.3457 35.9962 84.1112 38.0299 85.8555C40.0635 87.5997 40.2981 90.6623 38.5538 92.696L35.4252 96.3435C33.6809 98.3772 30.6183 98.6117 28.5847 96.8674C26.551 95.1232 26.3165 92.0606 28.0608 90.0269L31.1893 86.3794ZM37.4283 86.5568C35.782 85.1447 33.3027 85.3346 31.8907 86.9809L28.7621 90.6285C27.35 92.2748 27.5399 94.754 29.1862 96.1661C30.8325 97.5782 33.3118 97.3883 34.7238 95.742L37.8524 92.0944C39.2645 90.4481 39.0746 87.9689 37.4283 86.5568Z" fill="white"/>
<path d="M39.8065 90.417C41.3847 88.577 44.1556 88.3648 45.9956 89.943C47.8356 91.5212 48.0478 94.2921 46.4696 96.1321L41.264 102.201C39.6858 104.041 36.9149 104.253 35.0749 102.675C33.235 101.097 33.0228 98.3261 34.6009 96.4861L39.8065 90.417Z" fill="url(#paint2_linear_204_3339)"/>
<path fill-rule="evenodd" clip-rule="evenodd" d="M39.455 90.1163C41.1993 88.0827 44.2619 87.8481 46.2955 89.5924C48.3291 91.3367 48.5637 94.3993 46.8194 96.4329L41.6138 102.502C39.8695 104.536 36.8069 104.77 34.7733 103.026C32.7396 101.282 32.5051 98.219 34.2494 96.1854L39.455 90.1163ZM45.6939 90.2937C44.0477 88.8817 41.5684 89.0716 40.1563 90.7178L34.9507 96.787C33.5387 98.4332 33.7285 100.913 35.3748 102.325C37.0211 103.737 39.5004 103.547 40.9125 101.9L46.1181 95.8314C47.5301 94.1851 47.3402 91.7058 45.6939 90.2937Z" fill="white"/>
<path d="M46.5292 96.0725C48.1074 94.2326 50.8783 94.0203 52.7183 95.5985C54.5582 97.1767 54.7704 99.9476 53.1923 101.788L48.563 107.185C46.9848 109.025 44.2139 109.237 42.3739 107.659C40.534 106.081 40.3217 103.31 41.8999 101.47L46.5292 96.0725Z" fill="url(#paint3_linear_204_3339)"/>
<path fill-rule="evenodd" clip-rule="evenodd" d="M46.1786 95.7718C47.9229 93.7382 50.9855 93.5036 53.0191 95.2479C55.0528 96.9922 55.2873 100.055 53.543 102.088L48.9138 107.486C47.1695 109.519 44.1069 109.754 42.0732 108.01C40.0396 106.265 39.805 103.203 41.5493 101.169L46.1786 95.7718ZM52.4176 95.9492C50.7713 94.5372 48.292 94.7271 46.8799 96.3734L42.2507 101.771C40.8386 103.417 41.0285 105.896 42.6748 107.308C44.3211 108.72 46.8004 108.53 48.2124 106.884L52.8417 101.487C54.2537 99.8406 54.0639 97.3613 52.4176 95.9492Z" fill="white"/>
<path d="M52.8817 102.078C54.4599 100.238 57.2308 100.026 59.0708 101.604C60.9108 103.183 61.123 105.953 59.5448 107.793L54.9155 113.191C53.3374 115.031 50.5664 115.243 48.7265 113.665C46.8865 112.086 46.6743 109.316 48.2524 107.476L52.8817 102.078Z" fill="url(#paint4_linear_204_3339)"/>
<path fill-rule="evenodd" clip-rule="evenodd" d="M52.5311 101.778C54.2754 99.744 57.338 99.5095 59.3717 101.254C61.4053 102.998 61.6399 106.061 59.8956 108.094L55.2663 113.491C53.522 115.525 50.4594 115.76 48.4258 114.015C46.3921 112.271 46.1576 109.208 47.9019 107.175L52.5311 101.778ZM58.7701 101.955C57.1238 100.543 54.6445 100.733 53.2325 102.379L48.6032 107.776C47.1911 109.423 47.381 111.902 49.0273 113.314C50.6736 114.726 53.1529 114.536 54.565 112.89L59.1942 107.493C60.6063 105.846 60.4164 103.367 58.7701 101.955Z" fill="white"/>
<path fill-rule="evenodd" clip-rule="evenodd" d="M74.3115 45.4485C70.8573 48.1594 66.5034 49.7759 61.7719 49.7759C57.0127 49.7759 52.6355 48.1404 49.1717 45.4007L42.2415 47.783L45.9338 42.1917C43.1254 38.7057 41.4443 34.2734 41.4443 29.4483C41.4443 18.2217 50.5453 9.12073 61.7719 9.12073C72.9985 9.12073 82.0995 18.2217 82.0995 29.4483C82.0995 34.336 80.3745 38.8208 77.5 42.3271L81.103 47.783L74.3115 45.4485Z" fill="url(#paint5_linear_204_3339)"/>
<path fill-rule="evenodd" clip-rule="evenodd" d="M40.9824 29.4483C40.9824 17.9665 50.2902 8.65869 61.772 8.65869C73.2538 8.65869 82.5616 17.9665 82.5616 29.4483C82.5616 34.324 80.8826 38.8087 78.0717 42.3541L82.2367 48.6612L74.3974 45.9664C70.8973 48.6457 66.5199 50.2379 61.772 50.2379C56.9961 50.2379 52.5953 48.6269 49.085 45.9191L41.108 48.6612L45.364 42.2163C42.6183 38.6928 40.9824 34.261 40.9824 29.4483ZM61.772 9.58267C50.8005 9.58267 41.9064 18.4768 41.9064 29.4483C41.9064 34.1641 43.549 38.495 46.2937 41.9019L46.5054 42.1647L43.3751 46.9048L49.2604 44.8817L49.4584 45.0383C52.8435 47.7158 57.1205 49.3139 61.772 49.3139C66.3964 49.3139 70.6507 47.7343 74.0264 45.085L74.2241 44.9298L79.9695 46.9048L76.927 42.2975L77.1428 42.0341C79.9521 38.6074 81.6376 34.2253 81.6376 29.4483C81.6376 18.4768 72.7435 9.58267 61.772 9.58267Z" fill="white"/>
<path fill-rule="evenodd" clip-rule="evenodd" d="M72.595 22.9244C72.0538 22.3831 71.1762 22.3831 70.635 22.9244L59.8546 33.7047L53.9744 27.8245C53.4331 27.2833 52.5556 27.2833 52.0143 27.8245C51.4731 28.3658 51.4731 29.2433 52.0143 29.7846L58.8746 36.6448C59.0775 36.8478 59.3278 36.9746 59.5899 37.0254C59.7865 37.0634 59.9897 37.0587 60.1846 37.0111C60.4228 36.953 60.6486 36.8309 60.8347 36.6448L72.595 24.8844C73.1363 24.3432 73.1363 23.4656 72.595 22.9244Z" fill="white"/>
<defs>
<linearGradient id="paint0_linear_204_3339" x1="20.8861" y1="67.7934" x2="73.7841" y2="109.142" gradientUnits="userSpaceOnUse">
<stop stop-color="#7E7E7E"/>
<stop offset="1" stop-color="#DFDFDF"/>
</linearGradient>
<linearGradient id="paint1_linear_204_3339" x1="33.1283" y1="83.5012" x2="33.1283" y2="99.2089" gradientUnits="userSpaceOnUse">
<stop stop-color="#BD9542"/>
<stop offset="1" stop-color="#E2B65B"/>
</linearGradient>
<linearGradient id="paint2_linear_204_3339" x1="40.521" y1="87.1971" x2="40.521" y2="103.829" gradientUnits="userSpaceOnUse">
<stop stop-color="#BD9542"/>
<stop offset="1" stop-color="#E2B65B"/>
</linearGradient>
<linearGradient id="paint3_linear_204_3339" x1="49.5297" y1="91.124" x2="49.5297" y2="110.297" gradientUnits="userSpaceOnUse">
<stop stop-color="#BD9542"/>
<stop offset="1" stop-color="#E2B65B"/>
</linearGradient>
<linearGradient id="paint4_linear_204_3339" x1="48.7265" y1="100.826" x2="48.7265" y2="116.302" gradientUnits="userSpaceOnUse">
<stop stop-color="#E2B65B"/>
<stop offset="1" stop-color="#BD9542"/>
</linearGradient>
<linearGradient id="paint5_linear_204_3339" x1="41.4443" y1="49.7712" x2="82.0995" y2="9.11893" gradientUnits="userSpaceOnUse">
<stop stop-color="#BD9542"/>
<stop offset="0.5" stop-color="#E1C079"/>
<stop offset="1" stop-color="#BD9542"/>
</linearGradient>
</defs>
</svg>
