<svg width="124" height="125" viewBox="0 0 124 125" fill="none" xmlns="https://www.w3.org/2000/svg">
<path d="M45.1328 44.479H109.868V100.097H45.1328V44.479Z" fill="url(#paint0_linear_204_3337)"/>
<path d="M45.1328 47.2144H78.8681V102.832H45.1328V47.2144Z" fill="url(#paint1_linear_204_3337)"/>
<path d="M74.3088 11.1997L117.618 47.2144H31L74.3088 11.1997Z" fill="url(#paint2_linear_204_3337)"/>
<path d="M74.3088 11.1997L80.6912 47.2144H31L74.3088 11.1997Z" fill="url(#paint3_linear_204_3337)"/>
<path d="M24.1621 72.2878H95.2798V105.111H24.1621V72.2878Z" fill="url(#paint4_linear_204_3337)"/>
<path d="M95.2794 72.2878L85.25 76.8467V109.67L95.2794 105.111V72.2878Z" fill="url(#paint5_linear_204_3337)"/>
<path d="M95.2794 72.2878L85.25 76.8467L91.8603 86.8761L101.89 82.3173L95.2794 72.2878Z" fill="#D9D9D9"/>
<path d="M24.1622 72.2878L14.1328 76.8467V109.67L24.1622 105.111V72.2878Z" fill="#D9D9D9"/>
<path fill-rule="evenodd" clip-rule="evenodd" d="M30.7382 28.2572C31.9766 27.9254 32.7116 26.6524 32.3798 25.414L41.5833 22.9479L56.5488 56.1906L60.2097 92.4623L51.0063 94.9283C50.6745 93.6899 49.4015 92.955 48.1631 93.2868C46.9247 93.6187 46.1897 94.8916 46.5215 96.13L37.3177 98.5962L22.3522 65.3535L18.6914 29.0818L27.895 26.6157C28.2268 27.8541 29.4998 28.5891 30.7382 28.2572ZM31.9401 32.7421C32.5593 32.5761 32.9268 31.9397 32.7609 31.3204C32.5949 30.7012 31.9585 30.3337 31.3392 30.4997C30.72 30.6656 30.3525 31.3021 30.5185 31.9213C30.6844 32.5405 31.3209 32.908 31.9401 32.7421ZM48.3831 89.6227C48.2172 89.0035 47.5807 88.636 46.9615 88.802C46.3423 88.9679 45.9748 89.6044 46.1407 90.2236C46.3066 90.8428 46.9431 91.2103 47.5623 91.0444C48.1815 90.8785 48.549 90.242 48.3831 89.6227Z" fill="#AFAFAF"/>
<path fill-rule="evenodd" clip-rule="evenodd" d="M30.7382 28.2572C31.9766 27.9254 32.7116 26.6524 32.3798 25.414L41.5833 22.9479L56.5488 56.1906L60.2097 92.4623L51.0063 94.9283C50.6745 93.6899 49.4015 92.955 48.1631 93.2868C46.9247 93.6187 46.1897 94.8916 46.5215 96.13L37.3177 98.5962L22.3522 65.3535L18.6914 29.0818L27.895 26.6157C28.2268 27.8541 29.4998 28.5891 30.7382 28.2572ZM31.9401 32.7421C32.5593 32.5761 32.9268 31.9397 32.7609 31.3204C32.5949 30.7012 31.9585 30.3337 31.3392 30.4997C30.72 30.6656 30.3525 31.3021 30.5185 31.9213C30.6844 32.5405 31.3209 32.908 31.9401 32.7421ZM48.3831 89.6227C48.2172 89.0035 47.5807 88.636 46.9615 88.802C46.3423 88.9679 45.9748 89.6044 46.1407 90.2236C46.3066 90.8428 46.9431 91.2103 47.5623 91.0444C48.1815 90.8785 48.549 90.242 48.3831 89.6227Z" fill="url(#paint6_linear_204_3337)"/>
<path d="M64.1169 54.1627C67.7672 67.7856 59.6828 81.7882 46.0599 85.4384C32.437 89.0887 18.4344 81.0042 14.7841 67.3814C11.1339 53.7585 19.2183 39.7559 32.8412 36.1056C46.4641 32.4554 60.4667 40.5398 64.1169 54.1627Z" fill="url(#paint7_linear_204_3337)"/>
<path fill-rule="evenodd" clip-rule="evenodd" d="M45.9097 84.8778C59.2229 81.3105 67.1236 67.6262 63.5563 54.3129C59.9891 40.9996 46.3047 33.0989 32.9914 36.6662C19.6782 40.2335 11.7775 53.9179 15.3447 67.2312C18.912 80.5444 32.5964 88.4451 45.9097 84.8778ZM46.0599 85.4384C59.6828 81.7882 67.7672 67.7856 64.1169 54.1627C60.4667 40.5398 46.4641 32.4554 32.8412 36.1056C19.2183 39.7559 11.1339 53.7585 14.7841 67.3814C18.4344 81.0042 32.437 89.0887 46.0599 85.4384Z" fill="white"/>
<path d="M60.7531 55.0639C63.9056 66.8291 56.9236 78.9223 45.1584 82.0748C33.3932 85.2273 21.3 78.2453 18.1475 66.48C14.995 54.7148 21.977 42.6217 33.7423 39.4692C45.5075 36.3167 57.6006 43.2987 60.7531 55.0639Z" fill="#17171B"/>
<path fill-rule="evenodd" clip-rule="evenodd" d="M35.7901 48.2335C35.8316 48.3883 35.9907 48.4802 36.1455 48.4387C36.3003 48.3973 36.3922 48.2381 36.3507 48.0833L34.6984 41.9167C34.6569 41.7619 34.4978 41.6701 34.343 41.7115C34.1882 41.753 34.0963 41.9121 34.1378 42.0669L35.7901 48.2335ZM22.3614 50.9055C22.4415 50.7667 22.619 50.7192 22.7578 50.7993L28.2866 53.9914C28.4254 54.0715 28.473 54.249 28.3928 54.3878C28.3127 54.5266 28.1352 54.5741 27.9964 54.494L22.4676 51.3019C22.3288 51.2218 22.2813 51.0443 22.3614 50.9055ZM20.5946 65.5238C20.4398 65.5653 20.348 65.7244 20.3894 65.8792C20.4309 66.034 20.59 66.1259 20.7448 66.0844L26.9114 64.4321C27.0662 64.3906 27.1581 64.2315 27.1166 64.0766C27.0752 63.9218 26.916 63.83 26.7612 63.8715L20.5946 65.5238ZM51.9885 57.1118C51.8337 57.1533 51.7419 57.3124 51.7833 57.4672C51.8248 57.6221 51.9839 57.7139 52.1387 57.6724L58.3053 56.0201C58.4602 55.9786 58.552 55.8195 58.5105 55.6647C58.4691 55.5099 58.3099 55.418 58.1551 55.4595L51.9885 57.1118ZM50.9043 67.0499C50.7655 66.9698 50.5881 67.0173 50.5079 67.1561C50.4278 67.2949 50.4754 67.4724 50.6141 67.5525L56.143 70.7446C56.2818 70.8247 56.4592 70.7771 56.5394 70.6384C56.6195 70.4996 56.572 70.3221 56.4332 70.242L50.9043 67.0499ZM44.5574 79.8323C44.4025 79.8738 44.2434 79.7819 44.2019 79.6271L42.5496 73.4605C42.5081 73.3057 42.6 73.1466 42.7548 73.1051C42.9096 73.0636 43.0687 73.1555 43.1102 73.3103L44.7625 79.4769C44.804 79.6317 44.7122 79.7908 44.5574 79.8323ZM29.5837 77.8611C29.4449 77.7809 29.3974 77.6034 29.4775 77.4646L32.6696 71.9358C32.7497 71.797 32.9272 71.7495 33.066 71.8296C33.2048 71.9097 33.2523 72.0872 33.1722 72.226L29.9801 77.7548C29.9 77.8936 29.7225 77.9412 29.5837 77.8611ZM45.7278 49.3179C45.6477 49.4567 45.6952 49.6342 45.834 49.7143C45.9728 49.7945 46.1503 49.7469 46.2304 49.6081L49.4225 44.0793C49.5026 43.9405 49.455 43.763 49.3163 43.6829C49.1775 43.6028 49 43.6503 48.9198 43.7891L45.7278 49.3179Z" fill="url(#paint8_linear_204_3337)"/>
<path d="M38.6091 60.9974C38.4847 60.533 38.7603 60.0556 39.2247 59.9312C39.6891 59.8067 40.1665 60.0823 40.2909 60.5468C40.4153 61.0112 40.1397 61.4885 39.6753 61.613C39.2109 61.7374 38.7335 61.4618 38.6091 60.9974Z" fill="#F0F0F0"/>
<path d="M14.1328 76.8467H85.2505V109.67H14.1328V76.8467Z" fill="url(#paint9_linear_204_3337)"/>
<path d="M14.1323 76.8467H85.2499L80.0073 86.8761H8.88965L14.1323 76.8467Z" fill="#D9D9D9"/>
<path d="M14.1323 76.8467H85.2499L80.0073 86.8761H8.88965L14.1323 76.8467Z" fill="url(#paint10_linear_204_3337)"/>
<defs>
<linearGradient id="paint0_linear_204_3337" x1="97.9831" y1="37.1849" x2="81.0492" y2="96.326" gradientUnits="userSpaceOnUse">
<stop stop-color="#C9C9C9"/>
<stop offset="1" stop-color="#F5F5F5" stop-opacity="0"/>
</linearGradient>
<linearGradient id="paint1_linear_204_3337" x1="81.2108" y1="47.2144" x2="46.1148" y2="83.051" gradientUnits="userSpaceOnUse">
<stop stop-color="#AEAEAE"/>
<stop offset="1" stop-color="#F5F5F5" stop-opacity="0"/>
</linearGradient>
<linearGradient id="paint2_linear_204_3337" x1="31" y1="47.2144" x2="108.543" y2="4.76622" gradientUnits="userSpaceOnUse">
<stop stop-color="#9E9E9E"/>
<stop offset="1" stop-color="#C9C9C9"/>
</linearGradient>
<linearGradient id="paint3_linear_204_3337" x1="80.6912" y1="47.2144" x2="84.7941" y2="8.00853" gradientUnits="userSpaceOnUse">
<stop stop-color="#777777"/>
<stop offset="1" stop-color="#C9C9C9"/>
</linearGradient>
<linearGradient id="paint4_linear_204_3337" x1="85.7062" y1="60.6628" x2="59.7209" y2="105.111" gradientUnits="userSpaceOnUse">
<stop stop-color="#747476"/>
<stop offset="1" stop-color="white"/>
</linearGradient>
<linearGradient id="paint5_linear_204_3337" x1="90.2647" y1="72.2878" x2="90.2647" y2="109.67" gradientUnits="userSpaceOnUse">
<stop stop-color="#747476"/>
<stop offset="1" stop-color="#CCCCCC"/>
</linearGradient>
<linearGradient id="paint6_linear_204_3337" x1="31.6632" y1="100.103" x2="47.2348" y2="21.4303" gradientUnits="userSpaceOnUse">
<stop stop-color="#BD9542"/>
<stop offset="0.25" stop-color="#E1C079"/>
<stop offset="0.5" stop-color="#BD9542"/>
<stop offset="0.75" stop-color="#E1C079"/>
<stop offset="1" stop-color="#BD9542"/>
</linearGradient>
<linearGradient id="paint7_linear_204_3337" x1="32.8412" y1="36.1056" x2="46.0599" y2="85.4384" gradientUnits="userSpaceOnUse">
<stop stop-color="#DEDEDE"/>
<stop offset="0.333333" stop-color="#F5F5F5"/>
<stop offset="0.666667" stop-color="#DEDEDE"/>
<stop offset="1" stop-color="#F5F5F5"/>
</linearGradient>
<linearGradient id="paint8_linear_204_3337" x1="33.066" y1="36.9465" x2="47.4863" y2="90.764" gradientUnits="userSpaceOnUse">
<stop stop-color="white"/>
<stop offset="1" stop-color="white" stop-opacity="0.64"/>
</linearGradient>
<linearGradient id="paint9_linear_204_3337" x1="14.1328" y1="109.67" x2="80.6916" y2="76.8467" gradientUnits="userSpaceOnUse">
<stop stop-color="#DEDEDE"/>
<stop offset="1" stop-color="#F5F5F5"/>
</linearGradient>
<linearGradient id="paint10_linear_204_3337" x1="8.88965" y1="86.8761" x2="80.6911" y2="76.8467" gradientUnits="userSpaceOnUse">
<stop stop-color="#C6C6C6"/>
<stop offset="1" stop-color="#E4E4E4"/>
</linearGradient>
</defs>
</svg>
